<svg width="20" height="15" viewBox="0 0 20 15" fill="none" xmlns="http://www.w3.org/2000/svg">
<path d="M1 2.5H19C19.2652 2.5 19.5196 2.3683 19.7071 2.13388C19.8946 1.89946 20 1.58152 20 1.25C20 0.918479 19.8946 0.600537 19.7071 0.366117C19.5196 0.131696 19.2652 0 19 0H1C0.734784 0 0.48043 0.131696 0.292893 0.366117C0.105357 0.600537 0 0.918479 0 1.25C0 1.58152 0.105357 1.89946 0.292893 2.13388C0.48043 2.3683 0.734784 2.5 1 2.5V2.5ZM19 12.5H1C0.734784 12.5 0.48043 12.6317 0.292893 12.8661C0.105357 13.1005 0 13.4185 0 13.75C0 14.0815 0.105357 14.3995 0.292893 14.6339C0.48043 14.8683 0.734784 15 1 15H19C19.2652 15 19.5196 14.8683 19.7071 14.6339C19.8946 14.3995 20 14.0815 20 13.75C20 13.4185 19.8946 13.1005 19.7071 12.8661C19.5196 12.6317 19.2652 12.5 19 12.5ZM19 6.25H1C0.734784 6.25 0.48043 6.3817 0.292893 6.61612C0.105357 6.85054 0 7.16848 0 7.5C0 7.83152 0.105357 8.14946 0.292893 8.38388C0.48043 8.6183 0.734784 8.75 1 8.75H19C19.2652 8.75 19.5196 8.6183 19.7071 8.38388C19.8946 8.14946 20 7.83152 20 7.5C20 7.16848 19.8946 6.85054 19.7071 6.61612C19.5196 6.3817 19.2652 6.25 19 6.25Z" fill="#10FFA2"/>
</svg>
