<svg width="14" height="15" viewBox="0 0 14 15" fill="none" xmlns="http://www.w3.org/2000/svg">
<g clip-path="url(#clip0_1427_26138)">
<path d="M6.81818 12.2727C6.95303 12.2727 7.08486 12.2327 7.19698 12.1578C7.3091 12.0829 7.39649 11.9764 7.4481 11.8518C7.49971 11.7272 7.51321 11.5902 7.4869 11.4579C7.46059 11.3256 7.39565 11.2041 7.3003 11.1088C7.20495 11.0134 7.08346 10.9485 6.9512 10.9222C6.81894 10.8959 6.68185 10.9094 6.55726 10.961C6.43268 11.0126 6.32619 11.1 6.25127 11.2121C6.17635 11.3242 6.13636 11.4561 6.13636 11.5909C6.13636 11.7717 6.2082 11.9452 6.33606 12.073C6.46393 12.2009 6.63735 12.2727 6.81818 12.2727ZM10.2273 12.2727C10.3621 12.2727 10.4939 12.2327 10.6061 12.1578C10.7182 12.0829 10.8056 11.9764 10.8572 11.8518C10.9088 11.7272 10.9223 11.5902 10.896 11.4579C10.8697 11.3256 10.8047 11.2041 10.7094 11.1088C10.614 11.0134 10.4925 10.9485 10.3603 10.9222C10.228 10.8959 10.0909 10.9094 9.96635 10.961C9.84177 11.0126 9.73528 11.1 9.66036 11.2121C9.58544 11.3242 9.54545 11.4561 9.54545 11.5909C9.54545 11.7717 9.61729 11.9452 9.74515 12.073C9.87302 12.2009 10.0464 12.2727 10.2273 12.2727ZM10.2273 9.54545C10.3621 9.54545 10.4939 9.50547 10.6061 9.43055C10.7182 9.35563 10.8056 9.24914 10.8572 9.12456C10.9088 8.99997 10.9223 8.86288 10.896 8.73062C10.8697 8.59836 10.8047 8.47687 10.7094 8.38152C10.614 8.28616 10.4925 8.22123 10.3603 8.19492C10.228 8.16861 10.0909 8.18211 9.96635 8.23372C9.84177 8.28532 9.73528 8.37271 9.66036 8.48484C9.58544 8.59696 9.54545 8.72879 9.54545 8.86364C9.54545 9.04447 9.61729 9.21789 9.74515 9.34575C9.87302 9.47362 10.0464 9.54545 10.2273 9.54545ZM6.81818 9.54545C6.95303 9.54545 7.08486 9.50547 7.19698 9.43055C7.3091 9.35563 7.39649 9.24914 7.4481 9.12456C7.49971 8.99997 7.51321 8.86288 7.4869 8.73062C7.46059 8.59836 7.39565 8.47687 7.3003 8.38152C7.20495 8.28616 7.08346 8.22123 6.9512 8.19492C6.81894 8.16861 6.68185 8.18211 6.55726 8.23372C6.43268 8.28532 6.32619 8.37271 6.25127 8.48484C6.17635 8.59696 6.13636 8.72879 6.13636 8.86364C6.13636 9.04447 6.2082 9.21789 6.33606 9.34575C6.46393 9.47362 6.63735 9.54545 6.81818 9.54545ZM11.5909 1.36364H10.9091V0.681818C10.9091 0.500989 10.8373 0.327566 10.7094 0.1997C10.5815 0.0718342 10.4081 0 10.2273 0C10.0464 0 9.87302 0.0718342 9.74515 0.1997C9.61729 0.327566 9.54545 0.500989 9.54545 0.681818V1.36364H4.09091V0.681818C4.09091 0.500989 4.01907 0.327566 3.89121 0.1997C3.76334 0.0718342 3.58992 0 3.40909 0C3.22826 0 3.05484 0.0718342 2.92697 0.1997C2.79911 0.327566 2.72727 0.500989 2.72727 0.681818V1.36364H2.04545C1.50297 1.36364 0.982697 1.57914 0.5991 1.96274C0.215503 2.34633 0 2.8666 0 3.40909V12.9545C0 13.497 0.215503 14.0173 0.5991 14.4009C0.982697 14.7845 1.50297 15 2.04545 15H11.5909C12.1334 15 12.6537 14.7845 13.0373 14.4009C13.4209 14.0173 13.6364 13.497 13.6364 12.9545V3.40909C13.6364 2.8666 13.4209 2.34633 13.0373 1.96274C12.6537 1.57914 12.1334 1.36364 11.5909 1.36364ZM12.2727 12.9545C12.2727 13.1354 12.2009 13.3088 12.073 13.4367C11.9452 13.5645 11.7717 13.6364 11.5909 13.6364H2.04545C1.86463 13.6364 1.6912 13.5645 1.56334 13.4367C1.43547 13.3088 1.36364 13.1354 1.36364 12.9545V6.81818H12.2727V12.9545ZM12.2727 5.45455H1.36364V3.40909C1.36364 3.22826 1.43547 3.05484 1.56334 2.92697C1.6912 2.79911 1.86463 2.72727 2.04545 2.72727H2.72727V3.40909C2.72727 3.58992 2.79911 3.76334 2.92697 3.89121C3.05484 4.01907 3.22826 4.09091 3.40909 4.09091C3.58992 4.09091 3.76334 4.01907 3.89121 3.89121C4.01907 3.76334 4.09091 3.58992 4.09091 3.40909V2.72727H9.54545V3.40909C9.54545 3.58992 9.61729 3.76334 9.74515 3.89121C9.87302 4.01907 10.0464 4.09091 10.2273 4.09091C10.4081 4.09091 10.5815 4.01907 10.7094 3.89121C10.8373 3.76334 10.9091 3.58992 10.9091 3.40909V2.72727H11.5909C11.7717 2.72727 11.9452 2.79911 12.073 2.92697C12.2009 3.05484 12.2727 3.22826 12.2727 3.40909V5.45455ZM3.40909 9.54545C3.54394 9.54545 3.67576 9.50547 3.78789 9.43055C3.90001 9.35563 3.9874 9.24914 4.03901 9.12456C4.09061 8.99997 4.10412 8.86288 4.07781 8.73062C4.0515 8.59836 3.98656 8.47687 3.89121 8.38152C3.79586 8.28616 3.67437 8.22123 3.54211 8.19492C3.40985 8.16861 3.27276 8.18211 3.14817 8.23372C3.02358 8.28532 2.9171 8.37271 2.84218 8.48484C2.76726 8.59696 2.72727 8.72879 2.72727 8.86364C2.72727 9.04447 2.79911 9.21789 2.92697 9.34575C3.05484 9.47362 3.22826 9.54545 3.40909 9.54545ZM3.40909 12.2727C3.54394 12.2727 3.67576 12.2327 3.78789 12.1578C3.90001 12.0829 3.9874 11.9764 4.03901 11.8518C4.09061 11.7272 4.10412 11.5902 4.07781 11.4579C4.0515 11.3256 3.98656 11.2041 3.89121 11.1088C3.79586 11.0134 3.67437 10.9485 3.54211 10.9222C3.40985 10.8959 3.27276 10.9094 3.14817 10.961C3.02358 11.0126 2.9171 11.1 2.84218 11.2121C2.76726 11.3242 2.72727 11.4561 2.72727 11.5909C2.72727 11.7717 2.79911 11.9452 2.92697 12.073C3.05484 12.2009 3.22826 12.2727 3.40909 12.2727Z" fill="#10FFA2"/>
</g>
<defs>
<clipPath id="clip0_1427_26138">
<rect width="13.6364" height="15" fill="white"/>
</clipPath>
</defs>
</svg>
