<svg width="15" height="15" viewBox="0 0 15 15" fill="none" xmlns="http://www.w3.org/2000/svg">
<path d="M14.25 0H0.75C0.551088 0 0.360322 0.0790176 0.21967 0.21967C0.0790176 0.360322 0 0.551088 0 0.75V14.25C0 14.4489 0.0790176 14.6397 0.21967 14.7803C0.360322 14.921 0.551088 15 0.75 15H14.25C14.4489 15 14.6397 14.921 14.7803 14.7803C14.921 14.6397 15 14.4489 15 14.25V0.75C15 0.551088 14.921 0.360322 14.7803 0.21967C14.6397 0.0790176 14.4489 0 14.25 0V0ZM13.5 13.5H1.5V1.5H13.5V13.5Z" fill="#10FFA2"/>
</svg>
