<svg width="15" height="15" viewBox="0 0 15 15" fill="none" xmlns="http://www.w3.org/2000/svg">
<path d="M14.25 0H0.75C0.551088 0 0.360322 0.0790176 0.21967 0.21967C0.0790176 0.360322 0 0.551088 0 0.75V14.25C0 14.4489 0.0790176 14.6397 0.21967 14.7803C0.360322 14.921 0.551088 15 0.75 15H14.25C14.4489 15 14.6397 14.921 14.7803 14.7803C14.921 14.6397 15 14.4489 15 14.25V0.75C15 0.551088 14.921 0.360322 14.7803 0.21967C14.6397 0.0790176 14.4489 0 14.25 0V0ZM13.5 13.5H1.5V1.5H13.5V13.5Z" fill="#10FFA2"/>
<path d="M11.8117 4.20543C12.0628 4.4789 12.0628 4.92082 11.8117 5.19429L6.66851 10.7949C6.41738 11.0684 6.01155 11.0684 5.76042 10.7949L3.18829 7.99459C2.93724 7.72113 2.93724 7.2792 3.18829 7.00574C3.43938 6.73227 3.84641 6.73227 4.09754 7.00574L6.19638 9.30942L10.9036 4.20543C11.1547 3.93152 11.5605 3.93152 11.8117 4.20543Z" fill="#10FFA2"/>
</svg>
