<svg width="19" height="15" viewBox="0 0 19 15" fill="none" xmlns="http://www.w3.org/2000/svg">
<g clip-path="url(#clip0_1427_26030)">
<path d="M4.41499 2.71784C5.71283 1.70711 7.37687 0.937485 9.3749 0.937485C11.7421 0.937485 13.6375 2.01677 15.0174 3.29879C16.3885 4.57026 17.3055 6.06731 17.7391 7.13957C17.8357 7.37101 17.8357 7.62882 17.7391 7.86026C17.3465 8.80654 16.5584 10.1395 15.3983 11.329L18.4803 13.743C18.785 13.9832 18.8406 14.4256 18.6004 14.7303C18.3602 15.035 17.9178 15.0907 17.6131 14.8504L0.269406 1.25652C-0.0362158 1.01688 -0.0897993 0.575086 0.149759 0.269406C0.389346 -0.0362158 0.831138 -0.0897992 1.13699 0.149759L4.41499 2.71784ZM6.53606 4.37983L9.18154 6.45403C9.30458 6.20501 9.3749 5.92376 9.3749 5.59857C9.3749 5.28802 9.26064 4.97162 9.12881 4.69916C9.21084 4.69037 9.29287 4.66108 9.3749 4.66108C10.9276 4.66108 12.1874 5.92083 12.1874 7.47355C12.1874 7.90128 12.1024 8.28213 11.9266 8.62783L13.0838 9.51259C13.409 8.91494 13.5936 8.2294 13.5936 7.47355C13.5936 5.17084 11.704 3.25484 9.3749 3.25484C8.28213 3.25484 7.28312 3.69722 6.53606 4.37983ZM9.3749 14.0623C7.00773 14.0623 5.11225 12.9842 3.73238 11.701C2.36188 10.4032 1.44549 8.90615 1.00955 7.86026C0.913462 7.62882 0.913462 7.37101 1.00955 7.13957C1.28904 6.46868 1.76628 5.6015 2.43425 4.73139L5.19721 6.90812C5.17084 7.10148 5.15619 7.29777 5.15619 7.47355C5.15619 9.82899 7.04582 11.7186 9.3749 11.7186C9.92274 11.7186 10.4472 11.6132 10.9276 11.4227L13.0721 13.1102C12.0087 13.6844 10.7753 14.0623 9.3749 14.0623Z" fill="#10FFA2"/>
</g>
<defs>
<clipPath id="clip0_1427_26030">
<rect width="18.75" height="15" fill="white"/>
</clipPath>
</defs>
</svg>
