<svg width="16" height="16" viewBox="0 0 16 16" fill="none" xmlns="http://www.w3.org/2000/svg">
<path d="M14.5701 5.47263C14.5701 5.47263 14.5701 5.47263 14.5701 5.43502C14.0401 3.98796 13.0785 2.73861 11.8152 1.85597C10.5519 0.973335 9.04807 0.5 7.50702 0.5C5.96596 0.5 4.46208 0.973335 3.19883 1.85597C1.93558 2.73861 0.973909 3.98796 0.443912 5.43502C0.443912 5.43502 0.443912 5.43502 0.443912 5.47263C-0.147971 7.10556 -0.147971 8.89444 0.443912 10.5274C0.443912 10.5274 0.443912 10.5274 0.443912 10.565C0.973909 12.012 1.93558 13.2614 3.19883 14.144C4.46208 15.0267 5.96596 15.5 7.50702 15.5C9.04807 15.5 10.5519 15.0267 11.8152 14.144C13.0785 13.2614 14.0401 12.012 14.5701 10.565C14.5701 10.565 14.5701 10.565 14.5701 10.5274C15.162 8.89444 15.162 7.10556 14.5701 5.47263V5.47263ZM1.66999 9.50439C1.40915 8.51842 1.40915 7.48158 1.66999 6.49561H3.06907C2.94874 7.49493 2.94874 8.50507 3.06907 9.50439H1.66999ZM2.28679 11.0088H3.33986C3.51641 11.6796 3.76877 12.3282 4.09205 12.9419C3.35438 12.4394 2.73773 11.7791 2.28679 11.0088ZM3.33986 4.99122H2.28679C2.73124 4.2233 3.34 3.56316 4.06949 3.05808C3.75398 3.67281 3.50921 4.32133 3.33986 4.99122V4.99122ZM6.73978 13.7919C5.81591 13.1139 5.16705 12.126 4.91195 11.0088H6.73978V13.7919ZM6.73978 9.50439H4.5885C4.44814 8.50637 4.44814 7.49363 4.5885 6.49561H6.73978V9.50439ZM6.73978 4.99122H4.91195C5.16705 3.87404 5.81591 2.88607 6.73978 2.2081V4.99122ZM12.6972 4.99122H11.6441C11.4675 4.32038 11.2152 3.67183 10.8919 3.05808C11.6296 3.5606 12.2462 4.22093 12.6972 4.99122ZM8.24417 2.2081C9.16804 2.88607 9.81689 3.87404 10.072 4.99122H8.24417V2.2081ZM8.24417 13.7919V11.0088H10.072C9.81689 12.126 9.16804 13.1139 8.24417 13.7919V13.7919ZM10.3954 9.50439H8.24417V6.49561H10.3954C10.5358 7.49363 10.5358 8.50637 10.3954 9.50439ZM10.9145 12.9419C11.2377 12.3282 11.4901 11.6796 11.6666 11.0088H12.7197C12.2688 11.7791 11.6521 12.4394 10.9145 12.9419ZM13.314 9.50439H11.9149C11.976 9.00528 12.0062 8.50285 12.0051 8C12.006 7.49716 11.9758 6.99475 11.9149 6.49561H13.314C13.5748 7.48158 13.5748 8.51842 13.314 9.50439Z" fill="#FEB73A"/>
</svg>
