<svg width="18" height="15" viewBox="0 0 18 15" fill="none" xmlns="http://www.w3.org/2000/svg">
<g clip-path="url(#clip0_1427_26185)">
<path d="M0 5.09587V4.89717C0 2.5025 1.73074 0.460012 4.09046 0.0667243C5.62182 -0.193298 7.24224 0.315783 8.35907 1.43432L8.77017 1.84474L9.15044 1.43432C10.2981 0.315783 11.8877 -0.193298 13.4499 0.0667243C15.8103 0.460012 17.5403 2.5025 17.5403 4.89717V5.09587C17.5403 6.5176 16.9511 7.87766 15.9096 8.84718L9.71913 14.6266C9.46219 14.8664 9.12303 15 8.77017 15C8.41731 15 8.07815 14.8664 7.82121 14.6266L1.63036 8.84718C0.590274 7.87766 1.02775e-05 6.5176 1.02775e-05 5.09587H0Z" fill="#10FFA2"/>
</g>
<defs>
<clipPath id="clip0_1427_26185">
<rect width="17.5403" height="15" fill="white"/>
</clipPath>
</defs>
</svg>
