<svg width="36" height="50" viewBox="0 0 36 50" fill="none" xmlns="http://www.w3.org/2000/svg">
<path d="M24.2497 17.4349C24.2497 21.1992 21.1982 24.2507 17.434 24.2507C13.6697 24.2507 10.6182 21.1992 10.6182 17.4349C10.6182 13.6707 13.6697 10.6191 17.434 10.6191C21.1982 10.6191 24.2497 13.6707 24.2497 17.4349Z" stroke="#10FFA2" stroke-width="1.5"/>
<path d="M34.7763 18.1102C34.7763 20.4726 33.9946 23.5397 32.7031 26.8757C31.4173 30.1967 29.6506 33.7229 27.7357 36.9831C25.8204 40.2442 23.7676 43.2206 21.9169 45.4459C20.9909 46.5594 20.1263 47.4718 19.3643 48.1353C18.6948 48.7183 18.1568 49.0623 17.7632 49.2134C17.3695 49.0623 16.8315 48.7183 16.162 48.1353C15.4001 47.4718 14.5354 46.5594 13.6094 45.4459C11.7588 43.2206 9.70597 40.2442 7.79058 36.9831C5.87571 33.7229 4.10901 30.1967 2.82327 26.8757C1.53167 23.5397 0.75 20.4726 0.75 18.1102C0.75 8.50869 8.38067 0.75 17.7632 0.75C27.1457 0.75 34.7763 8.50869 34.7763 18.1102Z" stroke="#10FFA2" stroke-width="1.5"/>
</svg>
