<svg width="29" height="30" viewBox="0 0 29 30" fill="none" xmlns="http://www.w3.org/2000/svg">
<g clip-path="url(#clip0_1427_26081)">
<path d="M25.1746 22.2256C25.1746 22.2256 8.7304 31.1396 6.16782 16.0082C6.0241 7.39853 9.52242 6.54064 10.3374 9.9107C11.4719 13.8481 12.2165 15.2917 12.2165 15.2917C12.2165 15.2917 14.2714 7.49693 15.49 7.12948C16.7193 7.66297 19.0434 19.2768 20.0785 19.1307C21.3231 18.9554 21.5357 10.1705 23.0646 10.1259C23.8949 10.1259 24.9575 20.0101 26.8963 16.3403C27.9926 12.941 28.5506 4.28983 20.7131 1.51169C11.4566 -1.18498 6.00575 3.85013 3.61901 7.19713C1.00444 10.9008 -2.48623 21.7305 7.13108 28.3C8.98574 29.1256 11.3725 29.8574 12.5819 29.6375C18.6046 28.9057 22.4133 26.7718 25.1746 22.2256V22.2256Z" fill="url(#paint0_linear_1427_26081)"/>
<path d="M12.5821 29.7327C7.94011 29.7327 3.89442 26.8192 2.1315 23.5676C2.12997 23.5629 2.12691 23.5599 2.12538 23.5553C-1.11912 16.666 0.518419 11.4679 2.51833 8.12247C5.68792 2.82139 10.8024 0.273854 14.7884 0.275391C20.1353 0.275391 24.3798 2.09879 26.3353 5.67794C28.6319 9.88283 27.7405 15.5052 26.6381 17.2164C26.4057 17.5762 26.1702 17.7453 25.9347 17.7299L25.8889 17.7268L25.8522 17.7007C24.7146 16.9135 24.1749 14.2922 23.7406 12.1875C23.4945 10.9929 22.9624 9.55536 22.6841 9.48771C22.6704 9.4831 22.6321 9.49694 22.574 9.55997C22.5633 12.0168 21.3554 19.1705 20.1598 19.4641C19.9029 19.5256 19.6705 19.3534 19.4625 18.9506L19.4488 18.9153C16.9519 9.42929 16.1737 7.25535 15.4902 7.12928C15.2594 7.08777 15.0789 7.3107 14.8679 7.60897L14.8389 7.65048C14.5331 8.4607 14.4138 9.56612 14.0637 10.8391C13.1631 14.1154 12.7151 15.5529 12.2029 15.5529C11.9124 15.5529 11.8069 15.1578 11.7656 15.0086C11.6678 14.6474 11.5715 14.2538 11.4721 13.8479C11.0027 11.9338 10.0256 8.62982 8.86821 8.03637C8.82387 8.01331 8.77035 8.01331 8.72448 8.03483C6.16649 9.1956 6.56861 15.7974 6.75668 16.603C6.77656 16.6875 6.80255 16.9597 6.72916 17.0058C6.63742 17.0073 6.56556 16.789 6.54874 16.7229C6.25976 15.579 5.81177 9.13564 8.73671 7.65816L8.79482 7.63664L8.85292 7.65663C10.2535 8.15322 11.2702 11.594 11.8039 13.7649C11.9032 14.1677 11.998 14.5582 12.0959 14.9179L12.099 14.9272C12.1402 15.0763 12.3436 15.0978 12.4124 14.9595C12.7748 14.243 13.339 12.1875 13.735 10.7469C14.1065 9.39547 14.2151 8.33002 14.5285 7.50596L14.5499 7.46598L14.5912 7.40756C14.79 7.12775 15.0866 6.70649 15.5529 6.78951C16.2868 6.92481 17.0208 8.34694 19.7699 18.7861C19.7729 18.8 19.779 18.8138 19.7867 18.8276C19.9182 19.0706 20.0252 19.1428 20.0803 19.129C20.8631 18.9368 22.2331 12.7394 22.2331 9.49386V9.43236L22.2713 9.3847C22.4303 9.18945 22.5954 9.11104 22.7667 9.15255C23.233 9.26632 23.6856 10.2149 24.077 12.1167C24.4791 14.0677 24.9745 16.4738 25.9103 17.3071C25.9714 17.3609 26.0647 17.3609 26.1259 17.3071C26.1916 17.2502 26.2681 17.1611 26.3537 17.0273C27.4179 15.3746 28.271 9.92896 26.0387 5.84091C24.1412 2.37553 20.1567 0.61824 14.9948 0.61824C14.9291 0.61824 14.8649 0.61824 14.7991 0.61824C10.9889 0.793508 5.92032 3.1012 2.81343 8.29774C0.856325 11.5725 -0.744522 16.6552 2.43118 23.3984C2.43271 23.4031 2.43577 23.4061 2.4373 23.4107C4.14976 26.5656 8.1083 29.4129 12.6784 29.3883C18.0345 29.3545 22.808 26.7301 25.1764 22.2238L25.317 22.2992C22.2728 27.0898 18.1644 29.6973 12.68 29.7327C12.6479 29.7327 12.6157 29.7327 12.5836 29.7327H12.5821Z" fill="#231815"/>
<path d="M12.3251 29.4658C9.82211 29.4597 7.34668 28.6033 5.34677 27.0936C4.46455 26.4278 3.67253 25.6361 3.03189 24.7336C2.25975 23.6482 1.77506 22.3844 1.37294 21.1206C0.629853 18.7791 0.369926 16.2808 0.764404 13.847C1.0702 11.9606 1.7613 10.1572 2.72456 8.51363C3.96763 6.39197 5.64034 4.52091 7.64942 3.10647C9.35577 1.90419 11.3144 1.01863 13.3785 0.681929C14.4351 0.509736 15.5023 0.520498 16.568 0.594295C17.7805 0.677317 18.9868 0.867959 20.158 1.20158C22.1182 1.76275 24.005 2.74671 25.2847 4.34103C26.7648 6.18441 27.3703 8.63816 27.4651 10.9658C27.5109 12.0728 27.4421 13.189 27.2479 14.2806C27.1042 15.0877 26.9024 15.9102 26.5309 16.6451C26.3535 16.9972 26.0829 17.4953 25.6318 17.4584L25.8031 17.5307C25.7648 17.5046 25.7801 17.5138 25.7648 17.503C25.7679 17.5061 25.7358 17.4769 25.7572 17.4984C25.6884 17.4277 25.6609 17.4 25.6012 17.3201C25.4774 17.1556 25.3734 16.9741 25.2801 16.7912C25.0523 16.3376 24.8811 15.8564 24.7343 15.3721C24.401 14.2806 24.219 13.1567 23.9515 12.0497C23.8169 11.4978 23.6518 10.9474 23.4347 10.4231C23.2711 10.0249 23.0723 9.63904 22.7237 9.37306C22.6075 9.28389 22.3246 9.10554 22.2787 9.36076C22.2558 9.48683 22.2726 9.63289 22.268 9.76203C22.2528 10.0864 22.2268 10.4108 22.1962 10.7337C22.0356 12.408 21.7589 14.0807 21.3782 15.7196C21.2069 16.456 21.0143 17.1925 20.7467 17.8997C20.5923 18.3086 20.4073 18.8391 20.0495 19.1173C19.9822 19.1696 19.9256 19.2004 19.84 19.208C19.8094 19.2111 19.7544 19.1927 19.7284 19.2004C19.6519 19.2203 19.8492 19.3264 19.837 19.2911C19.8324 19.2772 19.8156 19.2665 19.811 19.2526C19.7911 19.1973 19.7483 19.1496 19.7284 19.0927C19.6963 19.002 19.6779 18.9052 19.6535 18.8114C19.4838 18.1687 19.3125 17.5245 19.1413 16.8834C18.8523 15.8042 18.5603 14.7249 18.2575 13.6487C17.863 12.2388 17.4655 10.8259 16.9823 9.44532C16.7591 8.80728 16.5313 8.11851 16.1322 7.56503C15.9518 7.31443 15.7179 7.06844 15.4365 6.93161C15.2745 6.85166 15.1047 6.83321 14.9442 6.94083C14.5283 7.22218 14.4244 7.74338 14.3143 8.19846C14.1705 8.79806 14.0635 9.40534 13.9228 10.0049C13.7654 10.6753 13.5696 11.3394 13.3816 12.0021C13.1431 12.8431 12.9122 13.7009 12.5666 14.505C12.4764 14.7157 12.377 14.9355 12.2287 15.1108C12.1829 15.1646 12.1309 15.2184 12.0697 15.2538C12.033 15.2753 11.9367 15.2614 11.9061 15.283C11.9566 15.2461 12.2012 15.6381 12.1309 15.4475C12.1156 15.406 12.0957 15.3644 12.0819 15.3229C12.0437 15.2092 12.0177 15.0923 11.9871 14.9755C11.9061 14.6618 11.8297 14.3467 11.7517 14.033C11.6416 13.5841 11.5208 13.1367 11.3939 12.6924C11.1156 11.7238 10.7991 10.7552 10.368 9.84198C10.0102 9.08402 9.53925 8.28302 8.79616 7.84946C8.71207 7.80026 8.61268 7.74184 8.51177 7.75414C8.43532 7.7649 8.35275 7.81717 8.28701 7.85407C8.16316 7.92326 8.04696 8.00781 7.9384 8.10006C7.70599 8.30147 7.51487 8.54899 7.35586 8.81343C6.99196 9.41918 6.78249 10.1141 6.63418 10.8013C6.32838 12.2158 6.27181 13.6933 6.33908 15.1354C6.35743 15.5351 6.37731 15.9425 6.45223 16.3376C6.45987 16.3776 6.46905 16.4176 6.47363 16.4591C6.47975 16.5098 6.48281 16.5636 6.48128 16.6159C6.48128 16.6436 6.47363 16.6728 6.47363 16.7005C6.47363 16.9142 6.85741 16.8757 6.88952 17.0725C6.87576 16.9864 6.82683 16.8957 6.80848 16.805C6.76873 16.6021 6.74273 16.3976 6.7198 16.1931C6.56843 14.8064 6.58983 13.3765 6.80083 11.9959C7.01183 10.6153 7.46289 8.9764 8.67231 8.12312C8.735 8.07854 8.79922 8.03703 8.86496 7.99859C8.90013 7.97707 8.93683 7.95862 8.97352 7.93863C8.98881 7.92941 9.0041 7.91864 9.02092 7.91403C9.06526 7.90173 8.98881 7.90327 9.03468 7.90634C9.08208 7.90788 9.14936 7.95247 9.19064 7.97553C9.21204 7.98783 9.25944 8.02165 9.27014 8.03088C9.31449 8.06777 9.32519 8.07854 9.38329 8.14311C9.40775 8.16925 9.49185 8.27072 9.53925 8.33529C9.65545 8.49057 9.75942 8.65815 9.85575 8.82727C10.3465 9.68208 10.6768 10.6368 10.9688 11.5762C11.1156 12.0497 11.2502 12.5279 11.374 13.0076C11.5193 13.5687 11.6294 14.1422 11.8006 14.6957C11.8801 14.954 12.1569 15.2261 12.4168 15.306C12.6293 15.3706 12.7042 15.2107 12.7761 15.0462C12.9519 14.6403 13.0865 14.216 13.218 13.7947C13.5544 12.7231 13.8678 11.6362 14.1369 10.5461C14.2806 9.96343 14.3922 9.3746 14.5222 8.78883C14.617 8.35989 14.6965 7.90019 14.9626 7.54351C15.1583 7.28061 15.4457 6.97466 15.8096 7.06383C15.8341 7.06998 15.8585 7.08074 15.883 7.08843C15.8111 7.0669 15.8631 7.07613 15.9044 7.10226C15.8647 7.07613 15.831 7.05768 15.8784 7.08843C15.9151 7.11303 15.7867 7.01924 15.8463 7.0669C15.9136 7.11764 15.7729 7.00387 15.8111 7.03769C15.8692 7.08689 15.8203 7.04384 15.7821 7.00848C15.7958 7.02078 15.8096 7.03462 15.8218 7.04845C15.8494 7.0792 15.7515 6.96236 15.8096 7.03462C15.8218 7.04999 15.8341 7.0669 15.8478 7.08228C15.9044 7.14993 15.8173 7.03462 15.8509 7.08689C15.9121 7.18067 15.9747 7.27446 16.0298 7.37285C15.9931 7.30674 16.0359 7.38515 16.0481 7.40821C16.065 7.4405 16.0818 7.47432 16.0986 7.50661C16.1322 7.57426 16.1659 7.6419 16.198 7.70955C16.3677 8.07392 16.5129 8.4506 16.6521 8.82881C17.1352 10.1525 17.5312 11.5086 17.9196 12.863C18.2208 13.9131 18.5098 14.9647 18.7957 16.0194C18.9685 16.6605 19.1397 17.3016 19.3095 17.9427C19.3905 18.2487 19.4364 18.5777 19.6183 18.8421C19.759 19.0466 20.0158 19.351 20.2758 19.3925C20.6091 19.4463 20.8384 18.7453 20.9256 18.5285C21.2008 17.8428 21.3935 17.1233 21.5708 16.4068C22.0203 14.5896 22.3445 12.7216 22.479 10.8536C22.4943 10.6399 22.5066 10.4277 22.5142 10.214C22.5173 10.1233 22.5203 10.0342 22.5219 9.94345C22.5219 9.87273 22.4989 9.74512 22.5234 9.67747C22.5907 9.49759 22.8414 9.40227 23.0111 9.42533C23.0341 9.42841 23.0172 9.42841 23.0096 9.42226C22.9744 9.39766 23.005 9.41918 23.0111 9.42379C22.9836 9.40227 22.9561 9.38228 22.9301 9.36076C22.9851 9.40534 22.8689 9.3131 22.9286 9.35922C22.8643 9.31002 22.9377 9.37152 22.9561 9.39612C22.9286 9.35922 22.9805 9.43456 22.9882 9.44686C23.0096 9.48068 23.031 9.51297 23.0494 9.54833C23.0922 9.6252 23.1304 9.70515 23.1656 9.78355C23.2573 9.9865 23.3337 10.1956 23.4025 10.4062C23.5891 10.9781 23.7129 11.567 23.8352 12.1558C24.0661 13.2705 24.297 14.3974 24.6823 15.4705C24.8444 15.921 25.0355 16.3715 25.3061 16.7697C25.4361 16.9603 25.5829 17.1387 25.748 17.3001C25.9131 17.4615 26.196 17.7367 26.4223 17.5538C26.6623 17.36 26.8137 16.9926 26.933 16.7128C27.0706 16.393 27.1791 16.0594 27.2709 15.7242C27.5079 14.8556 27.6424 13.9577 27.699 13.0598C27.8366 10.8982 27.5415 8.65661 26.6394 6.67793C25.829 4.89758 24.4866 3.41857 22.8399 2.3808C21.1152 1.29537 19.1275 0.724977 17.1169 0.488212C16.0726 0.365217 14.9962 0.292958 13.9473 0.397503C13.1201 0.480525 12.3021 0.652718 11.5055 0.894095C9.67991 1.44757 7.96592 2.36081 6.46599 3.54156C4.77493 4.87298 3.36368 6.54571 2.30409 8.42292C1.47232 9.89579 0.866846 11.4963 0.562578 13.1644C0.178803 15.2599 0.291948 17.4169 0.802629 19.4802C1.11607 20.7501 1.55642 22.0093 2.12979 23.1854C2.56096 24.071 3.20772 24.8781 3.87895 25.5915C5.38652 27.195 7.3054 28.4403 9.40011 29.1107C11.5392 29.7948 13.8189 29.7887 16.0053 29.3459C18.0175 28.9385 19.9562 28.1236 21.6213 26.9121C23.2175 25.7514 24.534 24.2339 25.4575 22.4843L25.326 22.4643L25.4667 22.5397L25.0279 22.0492C23.9209 23.7881 22.58 25.3916 20.9424 26.6492C19.4043 27.8331 17.6322 28.6725 15.7423 29.1014C14.6201 29.3551 13.4703 29.4704 12.322 29.4704C12.1997 29.4704 12.4199 29.7241 12.4382 29.7426C12.5299 29.8379 12.6905 30.0039 12.8373 30.0039C14.8464 30.0039 16.8508 29.6411 18.6979 28.8324C20.5449 28.0237 22.0784 26.8568 23.4117 25.4224C24.2313 24.5414 24.9529 23.5728 25.5997 22.5581C25.6899 22.4167 25.2541 22.1169 25.1609 22.0677L25.0202 21.9923C25.0095 21.9862 24.9071 21.9355 24.8887 21.9724C23.6518 24.3139 21.713 26.2126 19.3798 27.4395C18.1918 28.0652 16.9151 28.5126 15.6032 28.7878C14.2913 29.063 12.7914 29.206 11.3924 29.0815C8.63867 28.8385 5.9706 27.5379 4.08995 25.4992C3.68018 25.0549 3.31016 24.5706 2.98908 24.0587C2.57931 23.4052 2.29186 22.6765 2.02276 21.9554C1.47538 20.4933 1.10384 18.9636 0.973875 17.4062C0.772049 14.977 1.19252 12.5417 2.18177 10.3186C3.22913 7.96477 4.83303 5.85079 6.8253 4.22572C8.70289 2.69443 10.9429 1.57364 13.322 1.10319C14.5375 0.863347 15.75 0.855659 16.9823 0.95713C18.3401 1.06936 19.6902 1.32612 20.973 1.78888C22.057 2.18093 23.1273 2.74363 23.9912 3.48468C24.8551 4.22572 25.563 5.19431 26.0553 6.25821C27.1883 8.70889 27.3947 11.61 26.9162 14.2498C26.7602 15.1138 26.5431 16.0624 26.0477 16.8035C26.0018 16.8727 25.9529 16.9388 25.8963 16.9987C25.878 17.0187 25.855 17.0356 25.8382 17.0556L25.7816 17.0833L25.9483 17.2094C26.011 17.2555 25.9284 17.1817 25.9452 17.2048C25.9651 17.2309 25.9131 17.1679 25.9101 17.1632C25.8688 17.1125 25.8306 17.0602 25.7939 17.0064C25.6349 16.7681 25.511 16.5083 25.4009 16.2439C25.1288 15.5905 24.9407 14.9017 24.7756 14.2129C24.5952 13.4626 24.4545 12.7047 24.2832 11.9529C24.138 11.3102 23.9713 10.6522 23.6854 10.0572C23.4775 9.6252 23.1686 9.2024 22.7374 8.97333C22.5295 8.86263 22.3109 8.84264 22.1151 8.99946C22.0265 9.07018 21.9485 9.14398 21.9378 9.25621C21.9271 9.36845 21.9378 9.48375 21.9332 9.59445C21.9041 10.7629 21.7543 11.9314 21.5662 13.0844C21.3782 14.2375 21.1381 15.4306 20.8216 16.579C20.6993 17.0249 20.5648 17.4692 20.3996 17.9012C20.2941 18.1764 20.181 18.4685 20.0006 18.7038C19.9562 18.7622 19.8675 18.8329 19.837 18.859C19.8308 18.8637 19.814 18.8606 19.8094 18.8652C19.7758 18.899 20.1259 19.2096 20.0831 19.0451C20.0556 18.939 20.0097 18.8298 19.9807 18.7207C19.9241 18.5054 19.8675 18.2902 19.8094 18.0765C19.5969 17.2739 19.3813 16.4729 19.1627 15.6719C18.6 13.6164 18.0389 11.5516 17.3355 9.54064C17.0542 8.73348 16.7668 7.82486 16.2102 7.15761C16.0053 6.91316 15.7393 6.6641 15.432 6.55955C15.1032 6.44732 14.7867 6.58261 14.5558 6.8286C14.3861 7.01002 14.25 7.2022 14.1721 7.43743C14.0742 7.73108 14.0008 8.03241 13.9351 8.33529C13.7608 9.11784 13.6079 9.90347 13.3953 10.6768C13.2042 11.3717 13.0116 12.0682 12.8052 12.7585C12.6339 13.332 12.4627 13.9131 12.2318 14.4666C12.1981 14.5481 12.163 14.6788 12.0988 14.7433C12.0774 14.7648 12.0407 14.7679 12.0223 14.7864C12.3251 14.4973 12.4306 15.3814 12.3679 15.0831C12.3449 14.9724 12.3098 14.8648 12.2822 14.7556C12.1905 14.3959 12.1049 14.033 12.0131 13.6733C11.6951 12.4187 11.3327 11.1611 10.8068 9.97727C10.3771 9.01176 9.75177 7.86176 8.7243 7.43435C8.64479 7.40053 8.57599 7.36517 8.49189 7.38823C8.39098 7.4159 8.29159 7.4897 8.20291 7.54505C8.02555 7.65882 7.86042 7.79411 7.71058 7.94324C7.39714 8.25688 7.14944 8.63201 6.95068 9.02714C6.50574 9.91731 6.2871 10.9182 6.16325 11.9021C6.0394 12.8861 6.01647 13.7993 6.05775 14.7464C6.08374 15.3383 6.09291 15.9948 6.27028 16.5652C6.31309 16.702 6.38189 16.8219 6.47669 16.9296C6.55314 17.0172 6.83294 17.3247 6.98278 17.2724C7.13262 17.2201 7.05923 16.905 7.03783 16.7897C6.99807 16.5744 6.9782 16.3561 6.95985 16.1378C6.8941 15.3322 6.88799 14.5189 6.92468 13.7102C6.96902 12.7247 7.07605 11.7299 7.33598 10.7767C7.5531 9.97881 7.89253 9.12246 8.54388 8.58128C8.67078 8.47673 8.85885 8.3153 9.02551 8.28609C9.08055 8.27687 8.9934 8.27994 9.03774 8.27994C9.04691 8.27994 9.11725 8.32914 9.04997 8.28763C9.06526 8.29685 9.11419 8.32299 9.04538 8.28302C9.06067 8.29224 9.08361 8.3153 9.09431 8.3276C9.02398 8.25688 9.15547 8.39371 9.13712 8.37219C9.14783 8.38295 9.21051 8.45982 9.23804 8.49672C9.5683 8.92874 9.80223 9.44378 10.0117 9.94499C10.501 11.1088 10.8542 12.3326 11.1569 13.558C11.2548 13.9562 11.3511 14.3544 11.4581 14.7495C11.533 15.0262 11.637 15.2599 11.8404 15.4675C12.0789 15.7104 12.4397 15.9656 12.7348 15.6873C12.9366 15.4951 13.0544 15.2061 13.1599 14.954C13.3586 14.4773 13.5131 13.9808 13.6629 13.4857C13.8892 12.74 14.0971 11.9898 14.3036 11.2395C14.51 10.4892 14.669 9.66517 14.8464 8.87493C14.9167 8.56283 14.9717 8.19077 15.1185 7.90481C15.2301 7.68649 15.4549 7.40975 15.7102 7.38977C15.7255 7.38977 15.7408 7.40207 15.7561 7.4036C15.7974 7.40668 15.6904 7.37132 15.7561 7.4036C15.753 7.4036 15.6766 7.35287 15.7408 7.39591C15.6231 7.31597 15.6705 7.34518 15.6965 7.36517C15.7408 7.40053 15.5971 7.27907 15.6552 7.33134C15.7133 7.38362 15.5665 7.24063 15.6368 7.31443C15.6766 7.35748 15.565 7.22833 15.6368 7.31597C15.7011 7.39438 15.6093 7.26985 15.6475 7.32827C15.6659 7.35748 15.6873 7.38515 15.7056 7.41436C15.724 7.44358 15.7439 7.47586 15.7622 7.50815C15.7714 7.52352 15.779 7.53736 15.7882 7.55273C15.7959 7.56503 15.7668 7.51122 15.7974 7.56811C15.8402 7.64959 15.8815 7.73108 15.9197 7.81256C16.1521 8.30608 16.3356 8.82419 16.5099 9.34077C17.2102 11.4102 17.7713 13.5287 18.3401 15.6366C18.5557 16.433 18.7682 17.2309 18.9792 18.0288C19.0847 18.4286 19.152 18.7991 19.4088 19.1312C19.6107 19.3925 19.9409 19.7246 20.2941 19.7385C20.5372 19.7477 20.7161 19.5555 20.8446 19.371C21.0342 19.1004 21.1672 18.7899 21.2864 18.4824C21.6427 17.5645 21.8751 16.5959 22.0815 15.6335C22.3154 14.5465 22.502 13.4473 22.6472 12.3449C22.7114 11.8591 22.7665 11.3702 22.8078 10.8813C22.8246 10.6783 22.8399 10.4739 22.8491 10.2694C22.8536 10.1833 22.8567 10.0987 22.8598 10.0126C22.8598 9.97112 22.8628 9.92807 22.8628 9.88656C22.8628 9.87426 22.8598 9.84659 22.8628 9.83275C22.8766 9.78509 22.9072 9.7897 22.927 9.74973C22.8643 9.8758 22.6686 9.55448 22.6014 9.51604C22.6365 9.53449 22.6151 9.54371 22.6059 9.52219C22.6258 9.56678 22.661 9.60829 22.6855 9.65133C22.7512 9.77279 22.8078 9.9004 22.8613 10.0295C22.9958 10.3539 23.109 10.6876 23.2099 11.0243C23.424 11.7407 23.5478 12.4802 23.7099 13.2105C23.8719 13.9408 24.0401 14.6203 24.2664 15.306C24.4591 15.8903 24.6945 16.4776 25.0447 16.9864C25.2144 17.2324 25.4086 17.46 25.6333 17.6568C25.8428 17.8413 26.0813 18.0627 26.378 17.9658C26.8168 17.8213 27.0629 17.2663 27.2342 16.8665C27.6332 15.9348 27.8366 14.9109 27.9543 13.9085C28.1118 12.5786 28.1011 11.2241 27.9115 9.89886C27.7082 8.48442 27.2923 7.08843 26.6042 5.83388C26.0232 4.77459 25.2389 3.83675 24.3169 3.06188C22.3078 1.37224 19.788 0.500512 17.2147 0.169963C15.9273 0.00853183 14.5925 -0.0729523 13.3005 0.0854037C12.189 0.222236 11.1019 0.528185 10.0652 0.952518C7.61884 1.95185 5.46603 3.61997 3.78721 5.66015C2.27657 7.49431 1.10231 9.64211 0.487658 11.9483C-0.206501 14.5511 -0.137697 17.2832 0.554933 19.8799C0.765933 20.6732 1.02892 21.4512 1.33624 22.2122C1.61758 22.9087 1.9249 23.5774 2.34079 24.2032C3.09611 25.3409 4.05478 26.3402 5.12048 27.1873C7.31304 28.9277 10.0316 29.9932 12.8388 30.0008C12.9611 30.0008 12.7394 29.7456 12.7226 29.7287C12.6309 29.6334 12.4703 29.4689 12.3235 29.4674L12.3251 29.4658Z" fill="#231815"/>
<path d="M18.6621 5.56152C19.2921 5.56152 19.8027 5.07074 19.8027 4.46533C19.8027 3.85992 19.2921 3.36914 18.6621 3.36914C18.0322 3.36914 17.5215 3.85992 17.5215 4.46533C17.5215 5.07074 18.0322 5.56152 18.6621 5.56152Z" fill="#231815"/>
<path d="M19.5821 4.49068C19.576 4.87042 19.3696 5.24709 19.0042 5.38393C18.6388 5.52076 18.1999 5.34088 17.9614 5.04108C17.7229 4.74128 17.6724 4.27236 17.8789 3.92644C18.0853 3.58051 18.4369 3.43446 18.8115 3.5267C19.2672 3.63894 19.576 4.05866 19.5821 4.52296C19.5837 4.66902 20.0271 4.58138 20.0255 4.40304C20.0179 3.87109 19.6357 3.44214 19.1403 3.29301C18.6051 3.13158 17.9645 3.31146 17.596 3.73426C17.2566 4.12477 17.203 4.68132 17.4813 5.12102C17.7841 5.59763 18.3849 5.76367 18.9155 5.65451C19.498 5.53459 20.0164 5.0626 20.0255 4.43687C20.0286 4.24776 19.5837 4.33693 19.5821 4.49068Z" fill="#231815"/>
</g>
<defs>
<linearGradient id="paint0_linear_1427_26081" x1="20.2666" y1="4.74953" x2="4.26457" y2="31.5203" gradientUnits="userSpaceOnUse">
<stop stop-color="#10FFA2"/>
<stop offset="1" stop-color="#C7FFE9"/>
</linearGradient>
<clipPath id="clip0_1427_26081">
<rect width="28.0645" height="30" fill="white"/>
</clipPath>
</defs>
</svg>
