<svg width="15" height="15" viewBox="0 0 15 15" fill="none" xmlns="http://www.w3.org/2000/svg">
<path d="M7.4999 5.24993C7.35156 5.24993 7.20656 5.29391 7.08322 5.37632C6.95989 5.45873 6.86376 5.57587 6.807 5.71291C6.75023 5.84995 6.73538 6.00075 6.76432 6.14623C6.79326 6.29172 6.86469 6.42535 6.96957 6.53024C7.07446 6.63513 7.2081 6.70656 7.35358 6.7355C7.49906 6.76443 7.64986 6.74958 7.78691 6.69282C7.92395 6.63605 8.04108 6.53992 8.12349 6.41659C8.2059 6.29325 8.24989 6.14825 8.24989 5.99992C8.24989 5.80101 8.17087 5.61024 8.03022 5.46959C7.88957 5.32894 7.69881 5.24993 7.4999 5.24993ZM12.7498 0H2.24997C1.65324 0 1.08095 0.23705 0.659001 0.659001C0.23705 1.08095 0 1.65324 0 2.24997V9.74986C0 10.3466 0.23705 10.9189 0.659001 11.3408C1.08095 11.7628 1.65324 11.9998 2.24997 11.9998H10.9423L13.7173 14.7823C13.7874 14.8518 13.8705 14.9068 13.9619 14.9441C14.0533 14.9814 14.1511 15.0004 14.2498 14.9998C14.3482 15.0023 14.4458 14.9818 14.5348 14.9398C14.6718 14.8835 14.789 14.788 14.8718 14.6652C14.9545 14.5424 14.9991 14.3979 14.9998 14.2498V2.24997C14.9998 1.65324 14.7627 1.08095 14.3408 0.659001C13.9188 0.23705 13.3466 0 12.7498 0ZM13.4998 12.4423L11.7823 10.7174C11.7123 10.6478 11.6291 10.5928 11.5378 10.5555C11.4464 10.5182 11.3485 10.4993 11.2498 10.4999H2.24997C2.05106 10.4999 1.8603 10.4208 1.71965 10.2802C1.579 10.1395 1.49998 9.94877 1.49998 9.74986V2.24997C1.49998 2.05106 1.579 1.8603 1.71965 1.71965C1.8603 1.579 2.05106 1.49998 2.24997 1.49998H12.7498C12.9487 1.49998 13.1395 1.579 13.2801 1.71965C13.4208 1.8603 13.4998 2.05106 13.4998 2.24997V12.4423ZM4.49994 5.24993C4.3516 5.24993 4.2066 5.29391 4.08327 5.37632C3.95993 5.45873 3.8638 5.57587 3.80704 5.71291C3.75027 5.84995 3.73542 6.00075 3.76436 6.14623C3.7933 6.29172 3.86473 6.42535 3.96962 6.53024C4.0745 6.63513 4.20814 6.70656 4.35362 6.7355C4.49911 6.76443 4.6499 6.74958 4.78695 6.69282C4.92399 6.63605 5.04112 6.53992 5.12353 6.41659C5.20594 6.29325 5.24993 6.14825 5.24993 5.99992C5.24993 5.80101 5.17091 5.61024 5.03026 5.46959C4.88961 5.32894 4.69885 5.24993 4.49994 5.24993V5.24993ZM10.4999 5.24993C10.3515 5.24993 10.2065 5.29391 10.0832 5.37632C9.95985 5.45873 9.86372 5.57587 9.80695 5.71291C9.75019 5.84995 9.73534 6.00075 9.76428 6.14623C9.79321 6.29172 9.86464 6.42535 9.96953 6.53024C10.0744 6.63513 10.2081 6.70656 10.3535 6.7355C10.499 6.76443 10.6498 6.74958 10.7869 6.69282C10.9239 6.63605 11.041 6.53992 11.1234 6.41659C11.2059 6.29325 11.2498 6.14825 11.2498 5.99992C11.2498 5.80101 11.1708 5.61024 11.0302 5.46959C10.8895 5.32894 10.6988 5.24993 10.4999 5.24993Z" fill="#10FFA2"/>
</svg>
