<svg width="16" height="15" viewBox="0 0 16 15" fill="none" xmlns="http://www.w3.org/2000/svg">
<path d="M15.496 13.7354L12.5823 10.975C13.7133 9.62807 14.261 7.91846 14.1128 6.19767C13.9646 4.47689 13.1318 2.87574 11.7855 1.72344C10.4393 0.571149 8.68198 -0.0446995 6.87495 0.00252864C5.06791 0.0497567 3.3485 0.756472 2.07026 1.97736C0.792011 3.19824 0.0520944 4.8405 0.00264744 6.56645C-0.0467995 8.2924 0.597982 9.97085 1.80441 11.2567C3.01084 12.5425 4.68722 13.338 6.48885 13.4795C8.29047 13.6211 10.0804 13.0979 11.4906 12.0177L14.3807 14.7781C14.4538 14.8484 14.5406 14.9042 14.6363 14.9423C14.732 14.9804 14.8347 15 14.9384 15C15.042 15 15.1447 14.9804 15.2404 14.9423C15.3361 14.9042 15.423 14.8484 15.496 14.7781C15.6375 14.6382 15.7166 14.4513 15.7166 14.2568C15.7166 14.0622 15.6375 13.8753 15.496 13.7354V13.7354ZM7.0847 12.0177C5.99739 12.0177 4.93449 11.7097 4.03042 11.1327C3.12635 10.5558 2.42172 9.73568 2.00562 8.77621C1.58952 7.81674 1.48065 6.76097 1.69278 5.7424C1.9049 4.72383 2.4285 3.78822 3.19734 3.05387C3.96619 2.31952 4.94576 1.81943 6.01218 1.61682C7.0786 1.41421 8.18398 1.5182 9.18853 1.91562C10.1931 2.31305 11.0517 2.98607 11.6558 3.84957C12.2598 4.71307 12.5823 5.72827 12.5823 6.76679C12.5823 8.15941 12.0031 9.49499 10.9721 10.4797C9.94107 11.4644 8.54275 12.0177 7.0847 12.0177V12.0177Z" fill="#10FFA2"/>
</svg>
