<svg width="15" height="15" viewBox="0 0 15 15" fill="none" xmlns="http://www.w3.org/2000/svg">
<g clip-path="url(#clip0_1427_26040)">
<path d="M13.5307 7.99493C13.4105 7.85808 13.3442 7.68216 13.3442 7.5C13.3442 7.31784 13.4105 7.14192 13.5307 7.00507L14.4906 5.92521C14.5964 5.80723 14.6621 5.65878 14.6782 5.50115C14.6944 5.34353 14.6602 5.18483 14.5806 5.04783L13.0808 2.45319C13.002 2.31635 12.882 2.20788 12.7379 2.14324C12.5938 2.07861 12.433 2.06111 12.2784 2.09324L10.8686 2.3782C10.6892 2.41526 10.5025 2.38539 10.3436 2.29421C10.1847 2.20303 10.0647 2.05685 10.0062 1.88326L9.54879 0.510951C9.49848 0.362005 9.40264 0.232637 9.2748 0.141132C9.14696 0.0496274 8.9936 0.000614014 8.83639 0.00101983H5.83679C5.67327 -0.00751554 5.51144 0.0377096 5.37603 0.129788C5.24062 0.221866 5.13907 0.355736 5.0869 0.510951L4.66695 1.88326C4.60846 2.05685 4.48846 2.20303 4.32958 2.29421C4.17071 2.38539 3.98396 2.41526 3.80457 2.3782L2.35727 2.09324C2.2107 2.07252 2.06128 2.09565 1.92784 2.15971C1.79439 2.22376 1.68289 2.32587 1.60737 2.45319L0.107574 5.04783C0.0259547 5.1833 -0.0107437 5.34111 0.00272479 5.49869C0.0161933 5.65627 0.0791392 5.80556 0.182563 5.92521L1.13493 7.00507C1.25516 7.14192 1.32146 7.31784 1.32146 7.5C1.32146 7.68216 1.25516 7.85808 1.13493 7.99493L0.182563 9.07479C0.0791392 9.19444 0.0161933 9.34373 0.00272479 9.50131C-0.0107437 9.65889 0.0259547 9.8167 0.107574 9.95217L1.60737 12.5468C1.68618 12.6837 1.80618 12.7921 1.95026 12.8568C2.09434 12.9214 2.25515 12.9389 2.40976 12.9068L3.81957 12.6218C3.99896 12.5847 4.18571 12.6146 4.34458 12.7058C4.50345 12.797 4.62346 12.9431 4.68195 13.1167L5.13939 14.489C5.19157 14.6443 5.29311 14.7781 5.42852 14.8702C5.56393 14.9623 5.72576 15.0075 5.88929 14.999H8.88888C9.04609 14.9994 9.19945 14.9504 9.32729 14.8589C9.45513 14.7674 9.55097 14.638 9.60128 14.489L10.0587 13.1167C10.1172 12.9431 10.2372 12.797 10.3961 12.7058C10.555 12.6146 10.7417 12.5847 10.9211 12.6218L12.3309 12.9068C12.4855 12.9389 12.6463 12.9214 12.7904 12.8568C12.9345 12.7921 13.0545 12.6837 13.1333 12.5468L14.6331 9.95217C14.7127 9.81517 14.7469 9.65647 14.7307 9.49885C14.7146 9.34122 14.6489 9.19277 14.5431 9.07479L13.5307 7.99493ZM12.4134 8.9998L13.0133 9.6747L12.0534 11.3395L11.1686 11.1595C10.6285 11.0491 10.0666 11.1408 9.58973 11.4173C9.11281 11.6938 8.75401 12.1357 8.58142 12.6593L8.29646 13.4992H6.37672L6.10676 12.6443C5.93417 12.1208 5.57537 11.6788 5.09845 11.4023C4.62153 11.1258 4.0597 11.0341 3.51961 11.1445L2.63473 11.3245L1.65986 9.66721L2.25978 8.9923C2.6287 8.57984 2.83265 8.04587 2.83265 7.4925C2.83265 6.93913 2.6287 6.40517 2.25978 5.9927L1.65986 5.3178L2.61973 3.66802L3.50461 3.848C4.0447 3.9584 4.60653 3.86665 5.08345 3.59018C5.56037 3.31371 5.91917 2.87175 6.09176 2.3482L6.37672 1.50082H8.29646L8.58142 2.3557C8.75401 2.87925 9.11281 3.32121 9.58973 3.59768C10.0666 3.87415 10.6285 3.9659 11.1686 3.8555L12.0534 3.67552L13.0133 5.34029L12.4134 6.0152C12.0486 6.42672 11.8472 6.95759 11.8472 7.5075C11.8472 8.05741 12.0486 8.58828 12.4134 8.9998V8.9998ZM7.33659 4.50041C6.74333 4.50041 6.16339 4.67633 5.67011 5.00593C5.17683 5.33553 4.79236 5.804 4.56533 6.35211C4.3383 6.90021 4.27889 7.50333 4.39463 8.08519C4.51037 8.66706 4.79606 9.20153 5.21556 9.62103C5.63506 10.0405 6.16954 10.3262 6.7514 10.442C7.33326 10.5577 7.93638 10.4983 8.48448 10.2713C9.03259 10.0442 9.50106 9.65976 9.83066 9.16648C10.1603 8.6732 10.3362 8.09326 10.3362 7.5C10.3362 6.70446 10.0202 5.9415 9.45762 5.37897C8.89509 4.81644 8.13213 4.50041 7.33659 4.50041V4.50041ZM7.33659 8.9998C7.03996 8.9998 6.74999 8.91183 6.50335 8.74703C6.25671 8.58223 6.06448 8.348 5.95096 8.07395C5.83744 7.79989 5.80774 7.49834 5.86561 7.2074C5.92348 6.91647 6.06632 6.64923 6.27607 6.43948C6.48582 6.22973 6.75306 6.08689 7.04399 6.02902C7.33493 5.97115 7.63649 6.00085 7.91054 6.11437C8.18459 6.22788 8.41883 6.42012 8.58363 6.66676C8.74842 6.9134 8.83639 7.20337 8.83639 7.5C8.83639 7.89777 8.67837 8.27925 8.39711 8.56052C8.11584 8.84178 7.73436 8.9998 7.33659 8.9998Z" fill="#10FFA2"/>
</g>
<defs>
<clipPath id="clip0_1427_26040">
<rect width="14.7346" height="15" fill="white"/>
</clipPath>
</defs>
</svg>
