<svg width="15" height="15" viewBox="0 0 15 15" fill="none" xmlns="http://www.w3.org/2000/svg">
<path d="M7.97267 1.00018L14.0048 7.03233C14.6651 7.69257 14.6651 8.77295 14.0048 9.43319L9.43319 14.0048C8.77295 14.6651 7.69257 14.6651 7.03233 14.0048L1.00018 7.97267C0.680064 7.65255 0.5 7.2224 0.5 6.77224V1.65041C0.5 1.01018 1.01018 0.5 1.65041 0.5H6.77224C7.2224 0.5 7.65255 0.680064 7.97267 1.00018Z" stroke="#10FFA2"/>
<path d="M3.34 4.48859C3.94199 4.48859 4.43 4.00058 4.43 3.39859C4.43 2.7966 3.94199 2.30859 3.34 2.30859C2.73801 2.30859 2.25 2.7966 2.25 3.39859C2.25 4.00058 2.73801 4.48859 3.34 4.48859Z" fill="#10FFA2"/>
</svg>
