<svg width="14" height="15" viewBox="0 0 14 15" fill="none" xmlns="http://www.w3.org/2000/svg">
<g clip-path="url(#clip0_1427_26050)">
<path d="M5.25 12C5.44891 12 5.63968 11.921 5.78033 11.7803C5.92098 11.6397 6 11.4489 6 11.25V6.75C6 6.55109 5.92098 6.36032 5.78033 6.21967C5.63968 6.07902 5.44891 6 5.25 6C5.05109 6 4.86032 6.07902 4.71967 6.21967C4.57902 6.36032 4.5 6.55109 4.5 6.75V11.25C4.5 11.4489 4.57902 11.6397 4.71967 11.7803C4.86032 11.921 5.05109 12 5.25 12ZM12.75 3H9.75V2.25C9.75 1.65326 9.51295 1.08097 9.09099 0.65901C8.66903 0.237053 8.09674 0 7.5 0H6C5.40326 0 4.83097 0.237053 4.40901 0.65901C3.98705 1.08097 3.75 1.65326 3.75 2.25V3H0.75C0.551088 3 0.360322 3.07902 0.21967 3.21967C0.0790176 3.36032 0 3.55109 0 3.75C0 3.94891 0.0790176 4.13968 0.21967 4.28033C0.360322 4.42098 0.551088 4.5 0.75 4.5H1.5V12.75C1.5 13.3467 1.73705 13.919 2.15901 14.341C2.58097 14.7629 3.15326 15 3.75 15H9.75C10.3467 15 10.919 14.7629 11.341 14.341C11.7629 13.919 12 13.3467 12 12.75V4.5H12.75C12.9489 4.5 13.1397 4.42098 13.2803 4.28033C13.421 4.13968 13.5 3.94891 13.5 3.75C13.5 3.55109 13.421 3.36032 13.2803 3.21967C13.1397 3.07902 12.9489 3 12.75 3ZM5.25 2.25C5.25 2.05109 5.32902 1.86032 5.46967 1.71967C5.61032 1.57902 5.80109 1.5 6 1.5H7.5C7.69891 1.5 7.88968 1.57902 8.03033 1.71967C8.17098 1.86032 8.25 2.05109 8.25 2.25V3H5.25V2.25ZM10.5 12.75C10.5 12.9489 10.421 13.1397 10.2803 13.2803C10.1397 13.421 9.94891 13.5 9.75 13.5H3.75C3.55109 13.5 3.36032 13.421 3.21967 13.2803C3.07902 13.1397 3 12.9489 3 12.75V4.5H10.5V12.75ZM8.25 12C8.44891 12 8.63968 11.921 8.78033 11.7803C8.92098 11.6397 9 11.4489 9 11.25V6.75C9 6.55109 8.92098 6.36032 8.78033 6.21967C8.63968 6.07902 8.44891 6 8.25 6C8.05109 6 7.86032 6.07902 7.71967 6.21967C7.57902 6.36032 7.5 6.55109 7.5 6.75V11.25C7.5 11.4489 7.57902 11.6397 7.71967 11.7803C7.86032 11.921 8.05109 12 8.25 12Z" fill="#10FFA2"/>
</g>
<defs>
<clipPath id="clip0_1427_26050">
<rect width="13.5" height="15" fill="white"/>
</clipPath>
</defs>
</svg>
