<svg width="17" height="15" viewBox="0 0 17 15" fill="none" xmlns="http://www.w3.org/2000/svg">
<g clip-path="url(#clip0_1427_26026)">
<path d="M16.6866 12.8906L9.65619 0.703125C9.11795 -0.234375 7.75966 -0.234375 7.21779 0.703125L0.190686 12.8906C-0.35019 13.8248 0.323483 15 1.40758 15H15.4684C16.5482 15 17.2238 13.8281 16.6866 12.8906ZM7.64562 4.55357C7.64562 4.10993 7.99994 3.75 8.43666 3.75C8.87338 3.75 9.22771 4.11161 9.22771 4.55357V8.83929C9.22771 9.28292 8.87338 9.64286 8.46633 9.64286C8.05927 9.64286 7.64562 9.2846 7.64562 8.83929V4.55357ZM8.43666 12.8571C7.86447 12.8571 7.40039 12.3857 7.40039 11.8045C7.40039 11.2232 7.86414 10.7518 8.43666 10.7518C9.00918 10.7518 9.47293 11.2232 9.47293 11.8045C9.47161 12.385 9.01017 12.8571 8.43666 12.8571Z" fill="#10FFA2"/>
</g>
<defs>
<clipPath id="clip0_1427_26026">
<rect width="16.875" height="15" fill="white"/>
</clipPath>
</defs>
</svg>
