<svg width="15" height="15" viewBox="0 0 15 15" fill="none" xmlns="http://www.w3.org/2000/svg">
<circle cx="7.5" cy="7.5" r="7" stroke="#10FFA2"/>
<path d="M7.30084 7.42469C7.41024 7.52552 7.58996 7.52552 7.69936 7.42469L9.38875 5.86331C9.88103 5.41049 9.85322 4.65878 9.30045 4.24041C8.81786 3.87467 8.101 3.94099 7.66107 4.34601L7.48682 4.50442L7.32585 4.34541C6.8867 3.94037 6.16781 3.87407 5.67396 4.23986C5.13635 4.65851 5.1051 5.41076 5.60051 5.86331L7.30084 7.42469ZM11.8799 8.59777C11.6748 8.35427 11.2838 8.30163 11.0058 8.48198L9.13511 9.68747H7.25036C7.11365 9.68747 7.01438 9.58835 7.01438 9.48102C7.01438 9.36144 7.12768 9.27457 7.25036 9.27457H8.47326C8.70924 9.27457 8.95382 9.12595 8.99477 8.91061C9.04556 8.64947 8.80536 8.39968 8.50061 8.39968H5.98652C5.57863 8.39968 5.15636 8.52615 4.82817 8.75857L4.10146 9.27457L3.23614 9.27422C3.09942 9.27422 3.00015 9.37369 3.00015 9.49325L3 10.7812C3 10.9016 3.11332 11 3.23598 11H8.64486C8.98914 11 9.33124 10.9017 9.60911 10.7227L11.7205 9.36219C12.0252 9.18295 12.0846 8.84114 11.8799 8.59777Z" fill="#10FFA2"/>
</svg>
