<svg width="260" height="65" viewBox="0 0 260 65" fill="none" xmlns="http://www.w3.org/2000/svg">
<path d="M59.6226 12.2588C58.8876 11.5232 57.8906 11.1098 56.8508 11.1094C55.811 11.109 54.8136 11.5216 54.0781 12.2566C53.3426 12.9916 52.9291 13.9886 52.9287 15.0284C52.9283 16.0682 53.341 17.0656 54.0759 17.8011C54.4398 18.1653 54.8719 18.4543 55.3475 18.6515C55.8231 18.8487 56.3329 18.9503 56.8477 18.9505C57.3626 18.9507 57.8724 18.8495 58.3482 18.6526C58.8239 18.4558 59.2562 18.1672 59.6204 17.8033C59.9846 17.4393 60.2736 17.0073 60.4708 16.5317C60.668 16.0561 60.7696 15.5463 60.7698 15.0315C60.77 14.5166 60.6688 14.0068 60.472 13.531C60.2751 13.0553 59.9865 12.623 59.6226 12.2588V12.2588Z" fill="#3E3A39"/>
<path d="M60.3549 47.6231V22.6328H53.3652V47.6665C53.3662 48.086 53.4572 48.5004 53.6321 48.8817C53.807 49.2629 54.0618 49.6022 54.3792 49.8765C55.0654 50.4734 55.9441 50.8021 56.8536 50.8021C57.763 50.8021 58.6418 50.4734 59.3279 49.8765C59.648 49.5942 59.9049 49.2477 60.0818 48.8594C60.2588 48.4711 60.3518 48.0498 60.3549 47.6231Z" fill="#3E3A39"/>
<path d="M95.2555 25.2372L94.1722 21.7705C93.7085 20.3015 92.8288 19.5562 91.5722 19.5562C91.0515 19.5671 90.5361 19.6637 90.0468 19.8422L59.5662 30.4242C58.4915 30.7968 57.7895 31.3342 57.4688 32.0318C57.1482 32.7295 57.1915 33.5138 57.5642 34.4888L58.8642 37.8818C61.5725 44.9668 66.2308 48.0652 69.6975 49.4172C72.0849 50.3384 74.6222 50.81 77.1812 50.8081V50.8081C79.2912 50.8169 81.3881 50.4757 83.3865 49.7985C93.2708 46.3665 98.4882 35.5722 95.2555 25.2372ZM76.9862 44.1998C75.3764 44.2004 73.78 43.9067 72.2758 43.3332C69.9575 42.4318 66.8678 40.4038 65.2818 35.8408L65.1258 35.4075L88.6602 27.2218L88.8118 27.6552C89.5071 30.1358 89.5489 32.7542 88.9332 35.2558C87.9235 39.2858 85.3018 42.0635 81.1332 43.4892C79.7994 43.9528 78.3982 44.1929 76.9862 44.1998Z" fill="#009FDE"/>
<path d="M29.6659 16.6831C29.9461 16.291 30.1354 15.8413 30.2201 15.3669C30.3048 14.8924 30.2827 14.405 30.1556 13.9401C29.9913 13.1456 29.5488 12.4357 28.9077 11.9384C28.2666 11.4411 27.469 11.189 26.6586 11.2275C18.9322 11.2275 14.7029 15.1881 14.4126 22.6675L14.3779 23.5125L13.2816 23.5775C12.5233 23.6522 11.821 24.0096 11.3142 24.5785C10.6948 25.2506 10.3567 26.1346 10.3696 27.0485C10.3556 27.969 10.6935 28.8602 11.3142 29.5401C11.8214 30.1049 12.5218 30.4589 13.2772 30.5325L14.3952 30.6018V50.5091H21.3589V30.6018H26.3206C26.7362 30.5992 27.1465 30.5077 27.5239 30.3336C27.9013 30.1595 28.2372 29.9067 28.5089 29.5921C29.1137 28.9029 29.4398 28.0129 29.4232 27.0961C29.4384 26.1866 29.1104 25.3047 28.5046 24.6261C28.2371 24.3122 27.9051 24.0595 27.5312 23.8853C27.1573 23.711 26.7504 23.6194 26.3379 23.6165H21.3372V22.6111C21.3372 20.0111 22.1389 18.4468 26.2469 18.2128C27.7332 18.1305 28.9812 17.5715 29.6659 16.6831Z" fill="#3E3A39"/>
<path d="M144.521 22.5334C144.003 22.326 143.45 22.2186 142.892 22.2171C142.287 22.1828 141.687 22.3432 141.18 22.6746C140.673 23.006 140.286 23.4911 140.075 24.0588L134.333 37.6178L128.752 24.0848C128.063 22.3861 126.395 22.1998 125.719 22.1998C125.223 22.1969 124.732 22.2896 124.271 22.4728C123.368 22.898 122.65 23.6373 122.252 24.5528C122.107 24.9027 122.036 25.2788 122.042 25.6575C122.049 26.0362 122.134 26.4095 122.291 26.7541L130.524 46.7741L124.367 61.3904L131.941 61.4251L146.467 26.9101C146.777 26.131 146.777 25.2626 146.467 24.4834C146.293 24.0427 146.03 23.6423 145.696 23.3069C145.361 22.9715 144.961 22.7083 144.521 22.5334V22.5334Z" fill="#3E3A39"/>
<path d="M107.948 22.2993C106.107 22.2982 104.284 22.6599 102.583 23.3637C100.882 24.0675 99.3365 25.0996 98.0346 26.4011C96.7327 27.7026 95.7 29.2479 94.9957 30.9487C94.2914 32.6495 93.9291 34.4725 93.9297 36.3133C93.9286 38.1546 94.2904 39.978 94.9945 41.6793C95.6985 43.3806 96.7311 44.9264 98.033 46.2283C99.335 47.5303 100.881 48.5628 102.582 49.2669C104.283 49.971 106.107 50.3328 107.948 50.3317C111.384 50.3317 113.464 49.2137 114.396 48.5463L114.907 48.1823L115.003 50.5007H121.966V36.3133C121.967 34.4725 121.605 32.6495 120.9 30.9487C120.196 29.2479 119.163 27.7026 117.861 26.4011C116.56 25.0996 115.014 24.0675 113.313 23.3637C111.612 22.6599 109.789 22.2982 107.948 22.2993V22.2993ZM114.448 39.0173C114.091 39.8558 113.577 40.619 112.936 41.2663C112.294 41.913 111.533 42.4295 110.695 42.7873C109.828 43.1561 108.895 43.3462 107.952 43.3462C107.01 43.3462 106.077 43.1561 105.209 42.7873C104.375 42.4314 103.617 41.9179 102.978 41.275C102.344 40.6278 101.837 39.868 101.483 39.0347C101.121 38.1745 100.934 37.2508 100.934 36.3177C100.934 35.3845 101.121 34.4608 101.483 33.6007C101.839 32.7637 102.349 32.0009 102.986 31.3517C103.626 30.7101 104.382 30.1968 105.214 29.8393C106.083 29.4631 107.022 29.2741 107.97 29.2847C108.907 29.2763 109.836 29.4653 110.695 29.8393C111.535 30.1976 112.298 30.7156 112.94 31.3647C113.583 32.0112 114.096 32.7745 114.452 33.6137C114.813 34.4689 114.998 35.3875 114.998 36.3155C114.998 37.2435 114.813 38.1621 114.452 39.0173H114.448Z" fill="#3E3A39"/>
<path d="M51.2459 25.2592C50.9859 23.4609 49.4519 22.3862 47.1379 22.3862H46.5355C43.981 22.4176 41.5142 23.323 39.5459 24.9516L38.9999 25.4846V22.6506H32.0059V47.6842C32.0107 48.0963 32.1033 48.5027 32.2774 48.8763C32.4515 49.2499 32.7031 49.5821 33.0155 49.8509C33.706 50.4477 34.5881 50.7761 35.5007 50.7761C36.4133 50.7761 37.2954 50.4477 37.9859 49.8509C38.3019 49.5811 38.5561 49.2464 38.7311 48.8695C38.9061 48.4926 38.9978 48.0824 38.9999 47.6669V36.5129C38.9999 32.3529 43.5845 30.0129 45.6819 29.6142C46.112 29.5426 46.5462 29.4978 46.9819 29.4799C47.3675 29.4663 47.7522 29.4331 48.1345 29.3802C49.5299 29.1722 51.6185 27.8636 51.2459 25.2592Z" fill="#3E3A39"/>
<path d="M163.674 43.7189C161.573 46.6959 159.259 48.9709 156.897 50.4529C156.453 49.367 155.832 48.3625 155.06 47.4802C157.357 45.9817 159.274 43.9683 160.658 41.5999L163.674 43.7189ZM166.274 24.6175H158.167C158.102 24.6252 158.036 24.618 157.974 24.5965C157.912 24.5751 157.856 24.5399 157.81 24.4936C157.763 24.4473 157.728 24.3911 157.707 24.3293C157.685 24.2675 157.678 24.2016 157.686 24.1365V12.0032C157.674 11.9366 157.679 11.8682 157.698 11.8035C157.718 11.7389 157.753 11.6798 157.8 11.6309C157.846 11.5821 157.904 11.5448 157.968 11.5222C158.031 11.4996 158.099 11.4921 158.167 11.5005H178.148C178.494 11.5005 178.672 11.6782 178.672 11.9859V24.1192C178.672 24.4269 178.494 24.6002 178.148 24.6002H169.793V26.7019H180.986V30.0645H155.133V26.7192H166.235L166.274 24.6175ZM157.772 40.6162C157.469 40.6162 157.339 40.4429 157.339 40.1352V32.5302C157.339 32.2269 157.473 32.0969 157.772 32.0969H178.187C178.494 32.0969 178.672 32.2312 178.672 32.5302V40.1352C178.68 40.2006 178.672 40.267 178.651 40.3292C178.629 40.3914 178.593 40.4478 178.547 40.4942C178.5 40.5405 178.443 40.5756 178.381 40.5968C178.318 40.6179 178.252 40.6246 178.187 40.6162H170.057V47.7445C170.076 48.6868 169.817 49.6136 169.312 50.4095C168.938 50.9724 168.408 51.4137 167.787 51.6792C166.513 52.2035 164.593 51.9392 162.058 51.0249L161.928 47.1249C164.095 47.8225 165.338 48.0435 165.598 47.8659C166.079 47.5582 166.339 47.2115 166.339 46.8605V40.6162H157.772ZM161.009 34.9829C160.918 34.9829 160.875 35.0262 160.918 35.1129V37.5612L161.009 37.7389H174.954L175.127 37.5612V35.0999L174.954 34.9699L161.009 34.9829ZM175.127 16.6659V14.6942L174.954 14.5642H161.356C161.226 14.5642 161.183 14.6075 161.226 14.6942V16.6615L175.127 16.6659ZM161.226 19.3265V21.4282L161.356 21.6015H174.954L175.127 21.4282V19.3265H161.226ZM175.392 41.5392C176.758 43.4334 177.92 45.4669 178.858 47.6059L175.665 49.3089C174.486 46.7089 173.394 44.7589 172.302 43.4069L175.392 41.5392ZM196.027 37.3835C195.073 39.3963 193.931 41.3144 192.617 43.1122C190.121 46.4315 185.969 49.3652 180.197 51.7789L177.922 48.5332C181.438 47.2145 184.728 45.3563 187.672 43.0255C189.159 41.4915 190.866 38.9999 192.703 35.6589L196.027 37.3835ZM195.984 24.4442C192.382 29.7925 187.415 34.0792 181.597 36.8592L179.456 33.4922L180.548 33.0589C185.315 30.9615 189.51 27.3779 192.968 22.3512L195.984 24.4442ZM195 13.6455C191.152 17.9789 186.645 20.9862 181.532 22.6069L179.829 19.1099L181.467 18.6332C185.315 17.2335 188.942 14.7332 192.179 11.1582L195 13.6455Z" fill="#009FDE"/>
<path d="M243.594 26.4552V29.9955H203.55V26.4552H215.176L213.382 21.6669H205.604V18.1049H241.367V21.6669H233.276L231.747 26.4769L243.594 26.4552ZM237.558 50.6742H209.274C208.966 50.6742 208.793 50.4965 208.793 50.1065V32.7949C208.793 32.4439 208.966 32.2705 209.274 32.2705H237.558C237.948 32.2705 238.13 32.4439 238.13 32.7949V50.1065C238.13 50.4965 237.948 50.6742 237.558 50.6742ZM236.726 12.2896V15.8342H210.6V12.2896H236.726ZM234.433 39.6155V35.9669C234.433 35.8369 234.386 35.7935 234.26 35.7935H212.641C212.511 35.7935 212.468 35.8369 212.511 35.9669V39.5982L234.433 39.6155ZM212.533 43.1559V46.9129C212.489 47.0472 212.533 47.0905 212.663 47.1339H234.26L234.433 46.9129V43.1559H212.533ZM229.337 21.6669H217.36L219.154 26.4769H227.851L229.337 21.6669Z" fill="#009FDE"/>
</svg>
