<svg width="140" height="30" viewBox="0 0 140 30" fill="none" xmlns="http://www.w3.org/2000/svg">
<path d="M29.3666 0.685313C28.9284 0.246722 28.3339 0.000238667 27.714 1.73246e-07C27.094 -0.000238321 26.4993 0.245769 26.0608 0.684002C25.6223 1.12223 25.3757 1.71668 25.3755 2.33665C25.3752 2.95661 25.6213 3.5513 26.0595 3.98983C26.2765 4.20698 26.5341 4.37929 26.8177 4.49687C27.1012 4.61445 27.4052 4.67502 27.7121 4.67514C28.0191 4.67526 28.3231 4.61492 28.6068 4.49752C28.8904 4.38018 29.1482 4.20811 29.3653 3.99114C29.5825 3.77411 29.7548 3.51654 29.8724 3.23297C29.9899 2.9494 30.0505 2.64544 30.0506 2.3385C30.0507 2.03149 29.9904 1.72753 29.8731 1.44384C29.7557 1.16021 29.5836 0.902462 29.3666 0.685313Z" fill="#FBFBFC"/>
<path d="M29.8032 21.7708V6.87067H25.6357V21.7966C25.6363 22.0468 25.6906 22.2938 25.7949 22.5212C25.8992 22.7485 26.0511 22.9508 26.2403 23.1143C26.6495 23.4702 27.1734 23.6662 27.7156 23.6662C28.2579 23.6662 28.7818 23.4702 29.1909 23.1143C29.3818 22.946 29.5349 22.7394 29.6404 22.5079C29.7459 22.2764 29.8014 22.0252 29.8032 21.7708Z" fill="#FBFBFC"/>
<path d="M50.6125 8.42347L49.9666 6.3565C49.6901 5.48063 49.1656 5.03625 48.4164 5.03625C48.1059 5.04275 47.7986 5.10035 47.5069 5.20678L29.3333 11.5161C28.6925 11.7383 28.2739 12.0587 28.0827 12.4746C27.8916 12.8906 27.9174 13.3583 28.1396 13.9396L28.9147 15.9626C30.5295 20.187 33.3069 22.0343 35.3739 22.8404C36.7973 23.3897 38.3102 23.6709 39.8359 23.6697C41.094 23.675 42.3442 23.4716 43.5358 23.0678C49.4291 21.0215 52.5399 14.5856 50.6125 8.42347ZM39.7197 19.7296C38.7599 19.73 37.808 19.5549 36.9112 19.2129C35.5289 18.6755 33.6867 17.4663 32.7411 14.7457L32.6481 14.4874L46.6801 9.60676L46.7705 9.86516C47.1851 11.3442 47.21 12.9054 46.8429 14.3969C46.2409 16.7997 44.6777 18.4559 42.1923 19.306C41.397 19.5824 40.5616 19.7255 39.7197 19.7296Z" fill="#009FDE"/>
<path d="M11.5054 3.32324C11.6725 3.08946 11.7853 2.82133 11.8358 2.53848C11.8863 2.25556 11.8731 1.96496 11.7974 1.68777C11.6994 1.21406 11.4356 0.790791 11.0533 0.494283C10.6711 0.197775 10.1955 0.0474643 9.71233 0.0704193C5.10557 0.0704193 2.58392 2.43187 2.41083 6.89135L2.39014 7.39517L1.73649 7.43393C1.28436 7.47846 0.865626 7.69156 0.563453 8.03076C0.194145 8.43149 -0.00744205 8.95856 0.000249392 9.50346C-0.0080979 10.0523 0.19337 10.5837 0.563453 10.989C0.865864 11.3258 1.28347 11.5369 1.73386 11.5807L2.40045 11.6221V23.4915H6.55246V11.6221H9.5108C9.7586 11.6205 10.0032 11.566 10.2282 11.4622C10.4533 11.3583 10.6535 11.2076 10.8155 11.02C11.1761 10.6091 11.3706 10.0785 11.3607 9.53184C11.3697 8.98956 11.1742 8.46374 10.813 8.05914C10.6535 7.87198 10.4555 7.72131 10.2326 7.61745C10.0097 7.51352 9.76706 7.45891 9.52112 7.45718H6.53952V6.85772C6.53952 5.30751 7.01752 4.37482 9.46686 4.2353C10.353 4.18623 11.0971 3.85294 11.5054 3.32324Z" fill="#FBFBFC"/>
<path d="M79.986 6.8114C79.6771 6.68774 79.3474 6.62371 79.0147 6.62281C78.654 6.60236 78.2963 6.698 77.994 6.89559C77.6917 7.09318 77.4609 7.38241 77.3351 7.7209L73.9115 15.8053L70.584 7.7364C70.1731 6.72358 69.1786 6.6125 68.7756 6.6125C68.4798 6.61077 68.1871 6.66604 67.9122 6.77527C67.3738 7.02879 66.9457 7.46958 66.7084 8.01544C66.622 8.22406 66.5796 8.4483 66.5832 8.6741C66.5874 8.89989 66.6381 9.12247 66.7317 9.32793L71.6405 21.2646L67.9695 29.9793L72.4853 30L81.1463 9.42094C81.3311 8.95642 81.3311 8.43865 81.1463 7.97406C81.0425 7.7113 80.8857 7.47257 80.6866 7.27259C80.4868 7.07261 80.2483 6.91568 79.986 6.8114Z" fill="#FBFBFC"/>
<path d="M58.18 6.67185C57.0823 6.67119 55.9954 6.88685 54.9812 7.30648C53.967 7.72611 53.0455 8.34148 52.2693 9.11748C51.493 9.89349 50.8773 10.8148 50.4574 11.8289C50.0374 12.843 49.8214 13.9299 49.8218 15.0275C49.8211 16.1253 50.0368 17.2125 50.4566 18.2269C50.8764 19.2413 51.4921 20.1629 52.2683 20.9392C53.0446 21.7155 53.9664 22.3311 54.9806 22.7509C55.9948 23.1707 57.0823 23.3864 58.18 23.3858C60.2286 23.3858 61.4688 22.7192 62.0245 22.3212L62.3292 22.1042L62.3864 23.4865H66.538V15.0275C66.5386 13.9299 66.3228 12.843 65.9024 11.8289C65.4827 10.8148 64.8668 9.89349 64.0905 9.11748C63.3148 8.34148 62.393 7.72611 61.3788 7.30648C60.3646 6.88685 59.2777 6.67119 58.18 6.67185ZM62.0555 16.6397C61.8427 17.1397 61.5362 17.5947 61.154 17.9806C60.7712 18.3662 60.3175 18.6742 59.8178 18.8875C59.3009 19.1074 58.7446 19.2208 58.1824 19.2208C57.6207 19.2208 57.0644 19.1074 56.5469 18.8875C56.0496 18.6753 55.5977 18.3692 55.2167 17.9858C54.8387 17.5999 54.5364 17.1469 54.3253 16.6501C54.1095 16.1372 53.998 15.5865 53.998 15.0301C53.998 14.4737 54.1095 13.923 54.3253 13.4101C54.5376 12.9111 54.8417 12.4563 55.2215 12.0692C55.6031 11.6867 56.0538 11.3806 56.5499 11.1675C57.068 10.9432 57.6279 10.8305 58.1931 10.8368C58.7518 10.8318 59.3057 10.9445 59.8178 11.1675C60.3187 11.3811 60.7736 11.6899 61.1564 12.077C61.5398 12.4624 61.8456 12.9175 62.0579 13.4179C62.2731 13.9278 62.3834 14.4755 62.3834 15.0288C62.3834 15.5821 62.2731 16.1298 62.0579 16.6397H62.0555Z" fill="#FBFBFC"/>
<path d="M24.372 8.43665C24.2169 7.36444 23.3023 6.72366 21.9226 6.72366H21.5635C20.0404 6.74239 18.5696 7.28222 17.396 8.25325L17.0705 8.57104V6.88131H12.9004V21.8072C12.9033 22.0529 12.9585 22.2952 13.0623 22.518C13.1661 22.7408 13.3161 22.9388 13.5023 23.0991C13.914 23.4549 14.44 23.6507 14.9841 23.6507C15.5282 23.6507 16.0542 23.4549 16.4659 23.0991C16.6543 22.9382 16.8058 22.7387 16.9102 22.5139C17.0145 22.2892 17.0692 22.0446 17.0705 21.7969V15.1465C17.0705 12.6662 19.804 11.271 21.0545 11.0333C21.3109 10.9906 21.5698 10.9639 21.8296 10.9532C22.0595 10.9451 22.2889 10.9253 22.5168 10.8937C23.3488 10.7697 24.5941 9.98948 24.372 8.43665Z" fill="#FBFBFC"/>
<path d="M91.406 19.443C90.1533 21.2179 88.7736 22.5744 87.3653 23.458C87.1006 22.8106 86.7303 22.2116 86.27 21.6856C87.6396 20.7921 88.7826 19.5917 89.6077 18.1795L91.406 19.443ZM92.9562 8.05402H88.1225C88.0838 8.05862 88.0444 8.05432 88.0075 8.0415C87.9705 8.02874 87.9371 8.00776 87.9097 7.98015C87.8816 7.95255 87.8608 7.91904 87.8483 7.88219C87.8351 7.84534 87.831 7.80605 87.8357 7.76724V0.532932C87.8286 0.493223 87.8316 0.452441 87.8429 0.413864C87.8548 0.375348 87.8757 0.34011 87.9037 0.310954C87.9311 0.281858 87.9657 0.259618 88.0039 0.246143C88.0414 0.232668 88.082 0.228196 88.1225 0.233205H100.036C100.242 0.233205 100.348 0.339156 100.348 0.522618V7.75692C100.348 7.94038 100.242 8.04371 100.036 8.04371H95.0544V9.29682H101.728V11.3017H86.3135V9.30713H92.933L92.9562 8.05402ZM87.887 17.593C87.7064 17.593 87.6288 17.4897 87.6288 17.3062V12.7719C87.6288 12.591 87.7087 12.5135 87.887 12.5135H100.059C100.242 12.5135 100.348 12.5936 100.348 12.7719V17.3062C100.353 17.3452 100.348 17.3848 100.336 17.4219C100.323 17.459 100.301 17.4926 100.274 17.5203C100.246 17.5479 100.212 17.5688 100.175 17.5815C100.137 17.594 100.098 17.598 100.059 17.593H95.2118V21.8432C95.2231 22.405 95.0687 22.9576 94.7676 23.4321C94.5446 23.7677 94.2286 24.0309 93.8583 24.1892C93.0987 24.5018 91.9539 24.3442 90.4425 23.7991L90.365 21.4737C91.657 21.8897 92.3981 22.0214 92.5532 21.9155C92.8399 21.7321 92.995 21.5254 92.995 21.3161V17.593H87.887ZM89.817 14.2342C89.7628 14.2342 89.7371 14.2601 89.7628 14.3118V15.7715L89.817 15.8775H98.1315L98.2347 15.7715V14.304L98.1315 14.2265L89.817 14.2342ZM98.2347 3.313V2.1374L98.1315 2.05989H90.0239C89.9464 2.05989 89.9208 2.08571 89.9464 2.1374V3.31038L98.2347 3.313ZM89.9464 4.89934V6.15245L90.0239 6.25578H98.1315L98.2347 6.15245V4.89934H89.9464ZM98.3927 18.1433C99.2071 19.2727 99.9 20.4852 100.459 21.7605L98.5554 22.7759C97.8525 21.2257 97.2014 20.063 96.5503 19.2569L98.3927 18.1433ZM110.696 15.6656C110.127 16.8657 109.446 18.0093 108.663 19.0812C107.175 21.0603 104.699 22.8095 101.258 24.2486L99.9012 22.3134C101.998 21.5272 103.959 20.4192 105.714 19.0295C106.601 18.1149 107.619 16.6293 108.714 14.6373L110.696 15.6656ZM110.67 7.9507C108.523 11.1395 105.561 13.6954 102.092 15.353L100.816 13.3454L101.467 13.0871C104.309 11.8365 106.81 9.69987 108.872 6.70278L110.67 7.9507ZM110.084 1.51213C107.789 4.09586 105.102 5.88891 102.054 6.85523L101.038 4.7702L102.015 4.48597C104.309 3.65142 106.472 2.16066 108.402 0.0291138L110.084 1.51213Z" fill="#009FDE"/>
<path d="M139.057 9.14969V11.2605H115.181V9.14969H122.113L121.043 6.29474H116.406V4.17095H137.729V6.29474H132.905L131.993 9.16263L139.057 9.14969ZM135.458 23.5899H118.594C118.41 23.5899 118.307 23.484 118.307 23.2514V12.9296C118.307 12.7204 118.41 12.617 118.594 12.617H135.458C135.69 12.617 135.799 12.7204 135.799 12.9296V23.2514C135.799 23.484 135.69 23.5899 135.458 23.5899ZM134.962 0.703659V2.81708H119.385V0.703659H134.962ZM133.595 16.9963V14.8209C133.595 14.7434 133.567 14.7175 133.492 14.7175H120.602C120.524 14.7175 120.498 14.7434 120.524 14.8209V16.986L133.595 16.9963ZM120.537 19.1072V21.3473C120.511 21.4274 120.537 21.4532 120.615 21.4791H133.492L133.595 21.3473V19.1072H120.537ZM130.556 6.29474H123.415L124.485 9.16263H129.67L130.556 6.29474Z" fill="#009FDE"/>
</svg>
