<svg width="200" height="67" viewBox="0 0 200 67" fill="none" xmlns="http://www.w3.org/2000/svg">
<g clip-path="url(#clip0_1624_26131)">
<path d="M80.4459 16.8095C80.4433 16.6434 80.3755 16.4849 80.2572 16.3684C80.1388 16.2518 79.9793 16.1865 79.8132 16.1865H73.5839C73.4187 16.1865 73.2602 16.2522 73.1434 16.369C73.0266 16.4858 72.9609 16.6442 72.9609 16.8095V49.2408C72.9609 49.407 73.0262 49.5664 73.1428 49.6848C73.2593 49.8032 73.4178 49.8709 73.5839 49.8735H79.8132C79.8963 49.8735 79.9786 49.8571 80.0553 49.8253C80.1321 49.7935 80.2018 49.7469 80.2606 49.6882C80.3193 49.6294 80.3659 49.5597 80.3977 49.4829C80.4295 49.4062 80.4459 49.3239 80.4459 49.2408V16.8095Z" fill="#00DC5A"/>
<path d="M24.5281 44.5396C24.5548 45.1228 24.364 45.6951 23.9927 46.1456C23.7216 46.362 23.4089 46.5203 23.074 46.6107C22.7391 46.7011 22.3892 46.7217 22.0461 46.6712C21.3979 46.7438 20.7452 46.5815 20.2065 46.2138C19.9462 46.0242 19.7425 45.7672 19.6173 45.4705C19.4921 45.1738 19.4501 44.8486 19.4959 44.5299V21.4425C19.4625 21.1204 19.51 20.795 19.6341 20.4959C19.7582 20.1968 19.9549 19.9333 20.2065 19.7294C20.7708 19.4282 21.4077 19.2901 22.0461 19.3304C22.6849 19.2793 23.3254 19.4073 23.8954 19.7002C24.4697 20.0604 24.5183 20.8293 24.5281 21.4425V44.5396ZM32.1006 50.1071H29.4045C28.6842 50.1071 28.3046 50 28.2559 49.7762C29.3134 49.4076 30.2608 48.7782 31.0104 47.9463C31.6889 47.1291 32.0362 46.0871 31.9838 45.0263V21.024C32.0273 20.004 31.7179 19.0003 31.1078 18.1818C30.5187 17.4122 29.7455 16.8031 28.8594 16.4104C26.6835 15.592 24.37 15.202 22.0461 15.2618C20.8904 15.2624 19.736 15.3405 18.5907 15.4954C17.5006 15.6737 16.4354 15.9808 15.4177 16.4104C14.506 16.7917 13.708 17.4018 13.1012 18.1818C12.3993 18.9542 12.0288 19.9713 12.0694 21.0142V45.0068C12.0678 46.0206 12.398 47.007 13.0096 47.8155C13.6212 48.6239 14.4806 49.21 15.4566 49.4841C16.4875 49.9222 17.5702 50.2264 18.6783 50.3893C19.8286 50.6215 20.9991 50.7388 22.1726 50.7397C23.0107 50.7435 23.8477 50.6752 24.6741 50.5353C24.6901 51.3889 25.0073 52.2094 25.5695 52.8519C26.0951 53.4845 27.2339 53.8252 28.9567 53.8252H32.1687C32.3348 53.8252 32.4943 53.7599 32.6127 53.6434C32.731 53.5268 32.7988 53.3684 32.8014 53.2023V50.7203C32.8014 50.5525 32.7347 50.3916 32.6161 50.2729C32.4974 50.1543 32.3365 50.0876 32.1687 50.0876" fill="#00DC5A"/>
<path d="M6.85228 16.1865H0.632698C0.467486 16.1865 0.309041 16.2522 0.192219 16.369C0.0753964 16.4858 0.00976563 16.6442 0.00976563 16.8095V23.0485C0.00974597 23.2146 0.0750637 23.3741 0.191614 23.4925C0.308165 23.6108 0.466597 23.6786 0.632698 23.6812H6.86201C7.02208 23.6712 7.17213 23.5998 7.28091 23.482C7.38969 23.3641 7.44883 23.2089 7.44601 23.0485V16.8095C7.44601 16.6442 7.38038 16.4858 7.26356 16.369C7.14674 16.2522 6.98829 16.1865 6.82308 16.1865" fill="#00DC5A"/>
<path d="M44.2281 16.8095C44.2255 16.6434 44.1577 16.4849 44.0394 16.3684C43.921 16.2518 43.7615 16.1865 43.5954 16.1865H37.3661C37.2009 16.1865 37.0424 16.2522 36.9256 16.369C36.8088 16.4858 36.7432 16.6442 36.7432 16.8095V49.2408C36.7431 49.407 36.8085 49.5664 36.925 49.6848C37.0416 49.8032 37.2 49.8709 37.3661 49.8735H43.5954C43.6785 49.8735 43.7608 49.8571 43.8375 49.8253C43.9143 49.7935 43.984 49.7469 44.0428 49.6882C44.1015 49.6294 44.1481 49.5597 44.1799 49.4829C44.2117 49.4062 44.2281 49.3239 44.2281 49.2408V16.8095Z" fill="#00DC5A"/>
<path d="M6.85228 26.3481H0.632698C0.466597 26.3507 0.308165 26.4185 0.191614 26.5369C0.0750637 26.6552 0.00974597 26.8147 0.00976563 26.9808V49.2409C0.00974597 49.407 0.0750637 49.5665 0.191614 49.6848C0.308165 49.8032 0.466597 49.871 0.632698 49.8736H6.86201C6.94464 49.8736 7.02645 49.8571 7.10267 49.8252C7.17889 49.7933 7.248 49.7465 7.30597 49.6877C7.36394 49.6288 7.40962 49.559 7.44035 49.4823C7.47108 49.4056 7.48624 49.3235 7.48495 49.2409V26.9808C7.48624 26.8982 7.47108 26.8161 7.44035 26.7394C7.40962 26.6627 7.36394 26.5929 7.30597 26.534C7.248 26.4751 7.17889 26.4284 7.10267 26.3965C7.02645 26.3646 6.94464 26.3481 6.86201 26.3481" fill="#00DC5A"/>
<path d="M69.5053 17.0138C69.5187 16.9431 69.5187 16.8705 69.5053 16.7997C69.5038 16.6448 69.4455 16.4957 69.3415 16.3809C69.2374 16.2661 69.0948 16.1935 68.9408 16.1768H62.5849C62.4636 16.1758 62.3446 16.2103 62.2426 16.276C62.1406 16.3417 62.0599 16.4358 62.0107 16.5466V16.5466C62.0107 16.5466 58.7305 26.8056 58.4191 28.5575C58.0979 26.8056 54.8275 16.5466 54.8275 16.5466C54.7789 16.4373 54.6998 16.3442 54.5996 16.2786C54.4995 16.213 54.3826 16.1777 54.2629 16.1768H47.8292C47.6761 16.1936 47.5346 16.2666 47.4322 16.3817C47.3297 16.4967 47.2735 16.6457 47.2744 16.7997C47.2904 16.8743 47.3166 16.9464 47.3523 17.0138L54.7301 37.4538V49.2408C54.7301 49.406 54.7958 49.5645 54.9126 49.6813C55.0294 49.7981 55.1879 49.8638 55.3531 49.8638H61.5629C61.7281 49.8638 61.8866 49.7981 62.0034 49.6813C62.1202 49.5645 62.1859 49.406 62.1859 49.2408V37.4538L69.5053 17.0138Z" fill="#00DC5A"/>
<path d="M148.102 22.3185C147.74 22.308 147.385 22.4221 147.096 22.6417C146.807 22.8613 146.602 23.1732 146.516 23.5255V23.5936C146.449 24.0427 146.563 24.5001 146.833 24.8651C147.103 25.2301 147.507 25.473 147.956 25.5403C151.847 26.4246 155.618 27.7708 159.189 29.5504C159.463 29.6784 159.762 29.748 160.065 29.7548C160.36 29.7769 160.654 29.705 160.906 29.5494C161.158 29.3937 161.354 29.1624 161.466 28.8885C161.579 28.5765 161.599 28.2385 161.525 27.9152C161.454 27.5695 161.285 27.2516 161.038 27.0003C160.847 26.8116 160.631 26.651 160.395 26.5233C156.652 24.6353 152.68 23.2384 148.579 22.3672C148.408 22.3532 148.235 22.3532 148.063 22.3672" fill="#00DC5A"/>
<path d="M131.663 29.3071C139.333 28.8691 144.228 26.4747 146.214 22.2018H158.867C159.383 22.2018 160.259 21.9876 160.259 20.5374C160.259 19.0871 159.383 19.0092 158.867 19.0092H146.963C147.047 18.5164 147.102 18.0192 147.129 17.52C147.14 17.228 147.061 16.9395 146.903 16.6939C146.744 16.4483 146.514 16.2575 146.243 16.1477C145.889 16.0174 145.504 15.9932 145.136 16.0779C144.768 16.1626 144.432 16.3525 144.17 16.6246C144.02 16.8169 143.914 17.0394 143.859 17.2767C143.859 17.2767 143.644 18.4058 143.557 18.9216L143.498 19.0092H132.85C131.78 19.0092 131.196 19.5543 131.196 20.5374C131.169 20.7614 131.194 20.9886 131.268 21.2018C131.341 21.415 131.462 21.6088 131.621 21.7688C131.78 21.9288 131.973 22.0509 132.186 22.1258C132.399 22.2008 132.626 22.2267 132.85 22.2018H142.476C142.476 22.2018 142.233 22.4743 142.194 22.523L141.892 22.8442C141.687 23.0609 141.469 23.2656 141.24 23.4574C140.744 23.8809 140.194 24.2375 139.605 24.5183C138.901 24.8517 138.168 25.1189 137.415 25.3164C136.524 25.5394 135.621 25.7084 134.709 25.8226C133.736 25.9686 132.665 26.0562 131.643 26.1438C131.282 26.1561 130.933 26.2782 130.642 26.4938C130.352 26.7094 130.134 27.0083 130.018 27.3507C129.918 27.6581 129.921 27.9896 130.027 28.2951C130.132 28.6006 130.334 28.8636 130.602 29.0443C130.929 29.2153 131.293 29.3054 131.663 29.3071" fill="#00DC5A"/>
<path d="M196.272 39.9847C195.877 39.9935 195.498 40.1407 195.201 40.4004C194.904 40.6601 194.708 41.0159 194.646 41.4057C194.6 41.6626 194.577 41.9233 194.578 42.1844C194.578 43.5471 194.578 44.7053 194.023 45.2796C193.469 45.8539 192.554 45.7176 191.541 45.7468H180.251C174.411 45.7468 173.749 44.7735 173.71 44.4133C173.671 44.0532 174.946 41.7561 188.592 32.7334C189.263 32.3597 189.912 31.9503 190.539 31.507C190.954 31.2829 191.274 30.9155 191.439 30.4733C191.603 30.031 191.602 29.544 191.434 29.1028C191.196 28.6789 190.838 28.3346 190.406 28.113C189.973 27.8914 189.484 27.8023 189.001 27.857H170.508C168.941 27.857 168.707 28.8303 168.707 29.4143C168.707 29.9983 169.184 30.9035 170.654 30.9035H185.526C178.265 35.4684 173.369 39.2157 170.926 42.0773C170.926 42.0773 169.33 43.8293 170.05 45.7079C170.298 46.286 170.667 46.8041 171.132 47.2273C171.597 47.6505 172.147 47.9688 172.746 48.1606C174.479 48.7933 177.506 49.134 181.72 49.134H192.038C194.695 49.134 195.571 48.6862 196.447 47.7616C197.537 46.5936 198.033 44.6859 197.878 42.0773C197.888 41.6824 197.791 41.2921 197.595 40.9489C197.399 40.6057 197.113 40.3227 196.768 40.1307C196.607 40.0553 196.431 40.0154 196.252 40.0139" fill="#00DC5A"/>
<path d="M111.037 42.3206C108.945 41.2454 107.104 39.7394 105.635 37.9017H115.485C115.542 37.977 115.566 38.0713 115.554 38.1645C115.554 38.6219 114.892 39.7705 111.047 42.3206H111.037ZM104.545 29.7452H98.1796C97.8691 29.742 97.5613 29.8016 97.2744 29.9204C97.2795 29.8361 97.2795 29.7516 97.2744 29.6673V28.2949C97.2228 28.0635 97.2574 27.8212 97.3717 27.6136C97.4114 27.579 97.4579 27.5534 97.5083 27.5383C97.5586 27.5232 97.6116 27.519 97.6637 27.526C97.7639 27.5134 97.8653 27.5134 97.9655 27.526H105.168C105.032 28.2724 104.82 29.0029 104.535 29.7062L104.545 29.7452ZM106.813 20.9073C106.771 21.2455 106.843 21.5881 107.017 21.8806C107.409 22.6434 107.76 23.4264 108.069 24.2264H103.406C103.48 24.0335 103.506 23.8258 103.482 23.6208C103.458 23.4158 103.386 23.2196 103.27 23.0486C102.846 22.2917 102.354 21.575 101.8 20.9073H106.813ZM108.497 27.6136H121.15C121.403 27.6136 121.773 27.6136 121.754 27.9737C121.617 28.4904 121.438 28.995 121.218 29.4824C121.162 29.6499 121.123 29.8228 121.102 29.9982C120.769 29.8573 120.411 29.7877 120.05 29.7938H108.117C108.345 29.0883 108.472 28.3544 108.497 27.6136V27.6136ZM117.315 20.1968C117.226 20.316 117.148 20.4431 117.082 20.5764V20.5764C116.611 21.9527 115.843 23.2087 114.833 24.2556H111.436C111.016 23.0453 110.528 21.8592 109.976 20.7029C112.809 20.5569 115.271 20.372 117.335 20.1578L117.315 20.1968ZM124.79 46.0095C121.299 45.8589 117.864 45.0808 114.648 43.7124C116.555 42.3097 118.129 40.5055 119.262 38.4273C119.904 37.0841 120.011 36.1107 119.603 35.4489C119.351 35.1437 119.026 34.9076 118.659 34.7628C118.291 34.6181 117.892 34.5694 117.5 34.6215H106.346C106.598 34.0844 106.816 33.5317 106.998 32.9669H120.206C121.53 32.8403 121.89 32.1201 121.958 31.5458L122.094 31.6042C122.307 31.6782 122.531 31.7177 122.756 31.721C123.095 31.7149 123.423 31.5999 123.691 31.3931C123.959 31.1862 124.153 30.8985 124.245 30.5725C125.219 27.8277 125.365 26.0173 124.674 25.044C124.467 24.7701 124.195 24.5532 123.881 24.4136C123.568 24.274 123.224 24.2163 122.883 24.2458H118.756C119.054 23.7536 119.314 23.2395 119.534 22.708C119.78 22.1879 119.97 21.643 120.099 21.0825C120.154 20.7905 120.12 20.4887 120.002 20.2162C119.945 20.106 119.873 20.0044 119.788 19.9145C120.531 19.8703 121.272 19.7858 122.007 19.6614C122.442 19.602 122.861 19.4599 123.243 19.2429C123.46 19.0735 123.631 18.8514 123.738 18.5975C123.845 18.3437 123.886 18.0666 123.856 17.7926C123.828 17.5426 123.737 17.3039 123.59 17.0994C123.443 16.8949 123.247 16.7314 123.019 16.6247C122.757 16.5135 122.476 16.454 122.192 16.4495C122.091 16.4407 121.99 16.4407 121.89 16.4495C116.004 17.3962 110.05 17.8585 104.088 17.8316C101.83 17.8316 99.4839 17.7635 97.0992 17.6467C95.6489 17.6467 95.2499 18.3864 95.1525 19.0385C95.0552 19.6906 95.4543 20.5569 96.8948 20.6932C97.4144 20.792 97.9427 20.8377 98.4716 20.8294C98.4716 20.8294 98.4716 21.1993 98.4716 21.2285C98.4818 21.389 98.518 21.5468 98.5787 21.6957C98.9476 22.2905 99.3608 22.8566 99.8148 23.3893L100.331 24.2264H96.5833C95.4543 24.2264 94.1111 24.7033 94.1111 26.9614V29.6673C94.0861 29.8915 94.1121 30.1185 94.187 30.3313C94.262 30.5441 94.384 30.7372 94.544 30.8962C94.704 31.0553 94.8978 31.1762 95.1111 31.2499C95.3243 31.3236 95.5514 31.3482 95.7755 31.3219C95.9904 31.3267 96.2045 31.2938 96.4081 31.2246C96.4081 32.1979 96.9921 32.7819 98.0725 32.889H103.348C101.462 37.0743 98.222 40.5028 94.15 42.6223C93.9246 42.7145 93.722 42.8547 93.5563 43.0332C93.3907 43.2118 93.2659 43.4243 93.1909 43.6559C93.1158 43.8876 93.0922 44.1329 93.1217 44.3746C93.1512 44.6164 93.233 44.8488 93.3616 45.0556V45.0556C93.5457 45.2708 93.7763 45.4413 94.036 45.5543C94.2957 45.6673 94.5776 45.7198 94.8605 45.7078C96.2037 45.7078 97.3425 44.7344 98.4035 43.9947C99.5018 43.2382 100.517 42.3671 101.431 41.3959C101.695 41.1342 101.946 40.858 102.18 40.5686C102.43 40.3002 102.664 40.0175 102.881 39.7218C104.319 41.4189 105.99 42.9034 107.845 44.131C104.665 45.3802 101.293 46.0653 97.8779 46.1555C97.5555 46.1593 97.239 46.2431 96.957 46.3994C96.675 46.5557 96.4362 46.7796 96.2621 47.051C96.117 47.2883 96.0377 47.5599 96.0322 47.838C96.0268 48.1161 96.0955 48.3906 96.2313 48.6334C96.367 48.8762 96.5649 49.0784 96.8047 49.2194C97.0445 49.3604 97.3174 49.435 97.5956 49.4356C98.6625 49.387 99.7254 49.2733 100.778 49.095C102.706 48.7582 104.611 48.3031 106.482 47.7323C107.315 47.4741 108.134 47.1719 108.935 46.8271C109.675 46.5059 110.395 46.136 111.096 45.7564C111.096 45.7564 111.32 45.6007 111.349 45.6202C115.534 47.5504 120.03 48.7173 124.625 49.0658C125.031 49.0609 125.421 48.9011 125.714 48.6189C126.006 48.3368 126.18 47.9537 126.2 47.5476C126.22 47.1416 126.084 46.7433 125.82 46.4339C125.557 46.1246 125.185 45.9275 124.781 45.883" fill="#00DC5A"/>
<path d="M131.643 30.0176C131.426 29.9906 131.206 30.0083 130.997 30.0697C130.787 30.131 130.592 30.2347 130.425 30.3743C130.257 30.5138 130.119 30.6864 130.021 30.8812C129.922 31.076 129.865 31.2889 129.852 31.5068C129.815 31.7052 129.821 31.9089 129.868 32.105C129.915 32.301 130.002 32.4852 130.124 32.6456C130.281 32.8204 130.473 32.9601 130.688 33.0556C130.903 33.1512 131.135 33.2006 131.37 33.2004H161.076C161.481 33.1556 161.853 32.9578 162.117 32.6474C162.381 32.3371 162.516 31.9377 162.495 31.531C162.473 31.1243 162.298 30.7411 162.003 30.4597C161.709 30.1784 161.318 30.0202 160.911 30.0176H131.643ZM154.146 32.5094V45.3573C154.146 45.6201 154.088 46.4377 151.976 46.4377C150.619 46.3943 149.271 46.205 147.956 45.8732C147.784 45.8279 147.607 45.805 147.43 45.8051C147.1 45.7995 146.778 45.9035 146.514 46.1008C146.25 46.2981 146.058 46.5775 145.97 46.8952C145.885 47.1156 145.846 47.3513 145.856 47.5875C145.866 47.8237 145.925 48.0552 146.028 48.2676C146.136 48.4369 146.278 48.5811 146.446 48.6902C146.614 48.7994 146.804 48.8711 147.002 48.9003C148.708 49.3138 150.454 49.5422 152.209 49.5816C155.47 49.5816 157.183 48.4039 157.319 46.0387V32.5094" fill="#00DC5A"/>
<path d="M198.608 22.7079C199.066 22.7079 199.845 22.5132 199.991 21.2187V21.1506C199.845 19.8658 199.066 19.6711 198.608 19.6711H168.25C167.725 19.6711 166.858 19.8658 166.858 21.1895C166.858 22.5132 167.725 22.7079 168.25 22.7079H198.608ZM179.531 21.2771V17.4422C179.531 16.9263 179.327 16.0601 178.013 16.0601C176.699 16.0601 176.358 16.9263 176.358 17.4422V25.8712C176.358 26.3384 176.553 27.1268 177.877 27.1268C179.2 27.1268 179.395 26.3384 179.395 25.8712V21.2771H179.531ZM191.085 21.2771V17.4422C191.085 16.9263 190.89 16.0601 189.566 16.0601C188.242 16.0601 187.912 16.9263 187.912 17.4422V25.8712C187.912 26.3384 188.106 27.1268 189.43 27.1268C190.754 27.1268 190.948 26.3384 190.948 25.8712V21.2771H191.085Z" fill="#00DC5A"/>
<path d="M148.248 41.3471C148.248 41.8824 148.033 42.1063 147.488 42.1063H136.782C136.246 42.1063 136.023 41.8824 136.023 41.3471V38.7483C136.023 38.2129 136.246 37.9891 136.782 37.9891H147.488C148.033 37.9891 148.248 38.2129 148.248 38.7483V41.3471ZM150.905 35.7504C150.51 35.3734 149.99 35.1551 149.445 35.1372H134.786C134.243 35.1529 133.726 35.3717 133.336 35.7504C133.02 36.0987 132.834 36.5459 132.811 37.0157V43.1283C132.838 43.5972 133.023 44.0431 133.336 44.3936C133.725 44.7729 134.244 44.9888 134.786 44.997H149.445C149.99 44.9864 150.511 44.771 150.905 44.3936C151.211 44.0398 151.392 43.5952 151.421 43.1283V36.9768C151.396 36.509 151.214 36.0632 150.905 35.7115" fill="#00DC5A"/>
<path d="M78.9568 7.41688C78.3229 6.07197 77.3544 4.91236 76.1438 4.04915C71.8417 1.12916 49.2312 0.0876967 45.2211 0.0292969C43.6541 0.0292969 42.0091 0.0292969 40.2085 0.0292969H40.1306C40.1306 0.0292969 36.6071 0.0292969 35.0401 0.0292969C31.0299 0.0876967 8.41947 1.13889 4.11735 4.04915C2.90562 4.91368 1.93417 6.07272 1.29469 7.41688C0.490789 9.37932 0.0679683 11.4769 0.0488281 13.5975H7.58241C7.6597 12.5723 7.95858 11.576 8.45841 10.6775C9.43174 9.12021 11.3005 8.61408 12.9941 8.37074C19.4118 7.426 25.8793 6.85725 32.3634 6.66741C34.9233 6.58955 40.1014 6.57008 40.1501 6.57008H40.2279C42.7975 6.57008 45.3574 6.57008 47.9172 6.67715C54.3981 6.86699 60.8623 7.43573 67.2768 8.38047C68.9704 8.62381 70.8392 9.12994 71.8125 10.6873C72.3186 11.5837 72.6211 12.5807 72.6982 13.6073H80.2221C80.2068 11.4862 79.7838 9.38793 78.9762 7.42661" fill="#00DC5A"/>
<path d="M78.9568 58.7309C78.3229 60.0758 77.3544 61.2354 76.1438 62.0986C71.8417 65.0186 49.2312 66.0601 45.2211 66.1185C43.6541 66.1185 42.0091 66.1185 40.2085 66.1185H40.1306C40.1306 66.1185 36.6071 66.1185 35.0401 66.1185C31.0299 66.0601 8.41947 65.0089 4.11735 62.0986C2.90562 61.2341 1.93417 60.0751 1.29469 58.7309C0.490789 56.7685 0.0679683 54.6709 0.0488281 52.5503H7.58241C7.6597 53.5755 7.95858 54.5718 8.45841 55.4703C9.43174 57.0276 11.3005 57.5337 12.9941 57.777C19.4118 58.7218 25.8793 59.2905 32.3634 59.4804C34.9233 59.5582 40.1014 59.5777 40.1501 59.5777H40.2279C42.7975 59.5777 45.3574 59.5777 47.9172 59.4706C54.3981 59.2808 60.8623 58.7121 67.2768 57.7673C68.9704 57.524 70.8392 57.0179 71.8125 55.4605C72.3186 54.5641 72.6211 53.5671 72.6982 52.5405H80.2221C80.2068 54.6616 79.7838 56.7599 78.9762 58.7212" fill="#00DC5A"/>
</g>
<defs>
<clipPath id="clip0_1624_26131">
<rect width="200" height="66.1476" fill="white"/>
</clipPath>
</defs>
</svg>
