<svg width="121" height="30" viewBox="0 0 121 30" fill="none" xmlns="http://www.w3.org/2000/svg">
<path d="M36.016 7.51354C36.0149 7.43917 35.9845 7.3682 35.9316 7.31604C35.8785 7.26383 35.8071 7.23459 35.7327 7.23459H32.9435C32.8695 7.23459 32.7986 7.26401 32.7463 7.3163C32.694 7.3686 32.6646 7.43953 32.6646 7.51354V22.035C32.6646 22.1094 32.6938 22.1808 32.746 22.2338C32.7982 22.2868 32.8691 22.3172 32.9435 22.3183H35.7327C35.77 22.3183 35.8068 22.311 35.8411 22.2967C35.8755 22.2825 35.9067 22.2616 35.9331 22.2354C35.9594 22.209 35.9802 22.1778 35.9945 22.1434C36.0087 22.1091 36.016 22.0722 36.016 22.035V7.51354Z" fill="#00DC5A"/>
<path d="M10.9783 19.93C10.9903 20.1911 10.9048 20.4474 10.7386 20.6491C10.6172 20.746 10.4772 20.8169 10.3272 20.8574C10.1773 20.8978 10.0206 20.9071 9.86697 20.8845C9.57673 20.917 9.28447 20.8443 9.04327 20.6796C8.92671 20.5948 8.83551 20.4797 8.77945 20.3468C8.72339 20.214 8.70458 20.0684 8.72509 19.9257V9.58802C8.71013 9.4438 8.7314 9.2981 8.78697 9.16417C8.84254 9.03024 8.93061 8.91226 9.04327 8.82096C9.29594 8.6861 9.58112 8.62426 9.86697 8.64231C10.153 8.61942 10.4398 8.67674 10.695 8.80789C10.9522 8.96917 10.9739 9.31345 10.9783 9.58802V19.93ZM14.369 22.4229H13.1618C12.8393 22.4229 12.6693 22.375 12.6475 22.2748C13.121 22.1097 13.5452 21.8279 13.8808 21.4554C14.1846 21.0895 14.3401 20.6229 14.3167 20.1479V9.40063C14.3362 8.94392 14.1976 8.4945 13.9244 8.12801C13.6607 7.78341 13.3145 7.51068 12.9177 7.33484C11.9434 6.96839 10.9075 6.79377 9.86697 6.82054C9.34949 6.82081 8.83259 6.85578 8.31977 6.92514C7.83167 7.00498 7.35471 7.14248 6.89903 7.33484C6.4908 7.50557 6.13349 7.77875 5.86179 8.12801C5.5475 8.47386 5.38161 8.92928 5.39979 9.39625V20.1392C5.39907 20.5931 5.54692 21.0348 5.82077 21.3968C6.09462 21.7588 6.47943 22.0212 6.91645 22.144C7.37804 22.3401 7.86283 22.4763 8.359 22.5493C8.87406 22.6532 9.39816 22.7058 9.92361 22.7062C10.2989 22.7079 10.6737 22.6773 11.0437 22.6146C11.0508 22.9969 11.1929 23.3642 11.4446 23.6519C11.68 23.9352 12.1899 24.0877 12.9613 24.0877H14.3995C14.4738 24.0877 14.5453 24.0585 14.5983 24.0063C14.6513 23.9541 14.6816 23.8832 14.6828 23.8088V22.6975C14.6828 22.6223 14.6529 22.5503 14.5998 22.4972C14.5467 22.444 14.4746 22.4142 14.3995 22.4142" fill="#00DC5A"/>
<path d="M3.06381 7.23459H0.278925C0.204949 7.23459 0.134004 7.26401 0.0816955 7.3163C0.0293869 7.3686 1.98663e-09 7.43953 1.98663e-09 7.51354V10.3071C-8.801e-06 10.3815 0.0292379 10.4529 0.0814246 10.5059C0.133612 10.5589 0.204551 10.5893 0.278925 10.5904H3.06817C3.13984 10.5859 3.20703 10.554 3.25574 10.5012C3.30444 10.4484 3.33092 10.3789 3.32966 10.3071V7.51354C3.32966 7.43953 3.30028 7.3686 3.24797 7.3163C3.19566 7.26401 3.12471 7.23459 3.05074 7.23459" fill="#00DC5A"/>
<path d="M19.7992 7.51354C19.798 7.43917 19.7677 7.3682 19.7147 7.31604C19.6617 7.26383 19.5903 7.23459 19.5159 7.23459H16.7267C16.6527 7.23459 16.5817 7.26401 16.5294 7.3163C16.4771 7.3686 16.4478 7.43953 16.4478 7.51354V22.035C16.4477 22.1094 16.477 22.1808 16.5292 22.2338C16.5814 22.2868 16.6523 22.3172 16.7267 22.3183H19.5159C19.5531 22.3183 19.59 22.311 19.6243 22.2967C19.6587 22.2825 19.6899 22.2616 19.7162 22.2354C19.7425 22.209 19.7634 22.1778 19.7776 22.1434C19.7919 22.1091 19.7992 22.0722 19.7992 22.035V7.51354Z" fill="#00DC5A"/>
<path d="M3.06381 11.7845H0.278925C0.204551 11.7857 0.133612 11.8161 0.0814247 11.8691C0.0292379 11.9221 -8.801e-06 11.9935 1.98663e-09 12.0678V22.0351C-8.801e-06 22.1094 0.0292379 22.1808 0.0814247 22.2338C0.133612 22.2868 0.204551 22.3172 0.278925 22.3184H3.06817C3.10517 22.3184 3.1418 22.311 3.17593 22.2967C3.21006 22.2824 3.241 22.2614 3.26696 22.2351C3.29291 22.2087 3.31337 22.1775 3.32713 22.1431C3.34089 22.1088 3.34768 22.072 3.3471 22.0351V12.0678C3.34768 12.0309 3.34089 11.9941 3.32713 11.9598C3.31337 11.9254 3.29291 11.8942 3.26696 11.8678C3.241 11.8414 3.21006 11.8205 3.17593 11.8062C3.1418 11.7919 3.10517 11.7845 3.06817 11.7845" fill="#00DC5A"/>
<path d="M31.1172 7.60498C31.1232 7.57332 31.1232 7.54082 31.1172 7.50911C31.1166 7.43976 31.0905 7.37299 31.0439 7.32159C30.9973 7.27019 30.9334 7.23768 30.8645 7.2302H28.0185C27.9642 7.22976 27.9109 7.2452 27.8653 7.27462C27.8196 7.30404 27.7835 7.34617 27.7614 7.39579C27.7614 7.39579 26.2927 11.9894 26.1533 12.7738C26.0094 11.9894 24.5451 7.39579 24.5451 7.39579C24.5233 7.34685 24.4879 7.30516 24.443 7.27579C24.3982 7.24641 24.3459 7.23061 24.2923 7.2302H21.4115C21.343 7.23773 21.2796 7.27041 21.2337 7.32195C21.1879 7.37344 21.1627 7.44016 21.1631 7.50911C21.1703 7.54252 21.182 7.5748 21.198 7.60498L24.5015 16.7572V22.035C24.5015 22.109 24.5309 22.1799 24.5832 22.2322C24.6355 22.2845 24.7064 22.3139 24.7804 22.3139H27.5609C27.6349 22.3139 27.7059 22.2845 27.7582 22.2322C27.8105 22.1799 27.8399 22.109 27.8399 22.035V16.7572L31.1172 7.60498Z" fill="#00DC5A"/>
<path d="M35.3495 3.30787C35.0657 2.70567 34.632 2.18645 34.09 1.79993C32.1636 0.492476 22.0395 0.0261492 20.244 0C19.5423 0 18.8058 0 17.9995 0H17.9646C17.9646 0 16.387 0 15.6853 0C13.8897 0.0261492 3.76563 0.496833 1.8393 1.79993C1.29674 2.18704 0.861761 2.70601 0.575427 3.30787C0.215471 4.18658 0.0261484 5.12579 0.0175781 6.07531H3.39082C3.42543 5.61627 3.55926 5.17017 3.78306 4.76785C4.21888 4.07056 5.05564 3.84393 5.81397 3.73497C8.68757 3.31196 11.5835 3.05729 14.4868 2.97229C15.633 2.93743 17.9516 2.92871 17.9734 2.92871H18.0082C19.1588 2.92871 20.305 2.92871 21.4512 2.97665C24.3531 3.06165 27.2475 3.31631 30.1197 3.73933C30.878 3.84829 31.7148 4.07491 32.1506 4.77224C32.3772 5.17361 32.5126 5.62003 32.5471 6.0797H35.9161C35.9092 5.12996 35.7198 4.19043 35.3582 3.31223" fill="#00DC5A"/>
<path d="M35.3495 26.2843C35.0657 26.8865 34.632 27.4057 34.09 27.7922C32.1636 29.0997 22.0395 29.566 20.244 29.5922C19.5423 29.5922 18.8058 29.5922 17.9995 29.5922H17.9646C17.9646 29.5922 16.387 29.5922 15.6853 29.5922C13.8897 29.566 3.76563 29.0953 1.8393 27.7922C1.29674 27.4051 0.861761 26.8862 0.575427 26.2843C0.215471 25.4056 0.0261484 24.4664 0.0175781 23.5169H3.39082C3.42543 23.9759 3.55926 24.422 3.78306 24.8243C4.21888 25.5216 5.05564 25.7482 5.81397 25.8572C8.68757 26.2802 11.5835 26.5349 14.4868 26.6199C15.633 26.6547 17.9516 26.6635 17.9734 26.6635H18.0082C19.1588 26.6635 20.305 26.6635 21.4512 26.6155C24.3531 26.5305 27.2475 26.2759 30.1197 25.8528C30.878 25.7439 31.7148 25.5173 32.1506 24.8199C32.3772 24.4186 32.5126 23.9722 32.5471 23.5125H35.9161C35.9092 24.4622 35.7198 25.4018 35.3582 26.28" fill="#00DC5A"/>
<path d="M82.6341 7.29534C82.3733 7.28783 82.1176 7.36944 81.9094 7.52651C81.7012 7.68359 81.5535 7.90668 81.4915 8.15868V8.20739C81.4433 8.52862 81.5254 8.85579 81.7199 9.11687C81.9144 9.37794 82.2055 9.55168 82.529 9.59982C85.3321 10.2323 88.0489 11.1953 90.6215 12.4682C90.8189 12.5597 91.0343 12.6095 91.2526 12.6144C91.4651 12.6302 91.677 12.5787 91.8585 12.4674C92.04 12.3561 92.1812 12.1906 92.2619 11.9947C92.3433 11.7716 92.3577 11.5298 92.3044 11.2985C92.2533 11.0513 92.1315 10.8239 91.9536 10.6441C91.816 10.5092 91.6604 10.3943 91.4904 10.3029C88.7938 8.95249 85.9323 7.95332 82.9778 7.33017C82.8546 7.32016 82.73 7.32016 82.606 7.33017" fill="#00DC5A"/>
<path d="M70.7913 12.2941C76.3169 11.9808 79.8434 10.2682 81.2742 7.21184H90.3898C90.7615 7.21184 91.3926 7.05863 91.3926 6.02133C91.3926 4.98396 90.7615 4.92824 90.3898 4.92824H81.8138C81.8743 4.57575 81.914 4.22011 81.9334 3.86305C81.9413 3.65418 81.8844 3.44783 81.7706 3.27215C81.656 3.09648 81.4903 2.96 81.2951 2.88147C81.0401 2.78827 80.7627 2.77096 80.4976 2.83154C80.2325 2.89213 79.9904 3.02796 79.8017 3.22258C79.6936 3.36013 79.6172 3.51928 79.5776 3.68902C79.5776 3.68902 79.4227 4.49664 79.36 4.86558L79.3175 4.92824H71.6464C70.8756 4.92824 70.4548 5.31814 70.4548 6.02133C70.4354 6.18155 70.4534 6.34406 70.5067 6.49656C70.5593 6.64906 70.6465 6.78768 70.761 6.90212C70.8756 7.01657 71.0146 7.1039 71.1681 7.15748C71.3215 7.21112 71.485 7.22965 71.6464 7.21184H78.5813C78.5813 7.21184 78.4062 7.40675 78.3781 7.44159L78.1605 7.67133C78.0128 7.82634 77.8558 7.97275 77.6908 8.10994C77.3335 8.41286 76.9372 8.66793 76.5129 8.86878C76.0057 9.10726 75.4776 9.29838 74.9352 9.43965C74.2933 9.59916 73.6427 9.72004 72.9857 9.80172C72.2847 9.90615 71.5131 9.96881 70.7769 10.0315C70.5168 10.0403 70.2654 10.1276 70.0557 10.2818C69.8468 10.436 69.6897 10.6498 69.6062 10.8947C69.5341 11.1146 69.5363 11.3517 69.6126 11.5702C69.6883 11.7888 69.8338 11.9769 70.0269 12.1061C70.2625 12.2284 70.5247 12.2929 70.7913 12.2941Z" fill="#00DC5A"/>
<path d="M117.337 19.9316C117.053 19.9379 116.779 20.0432 116.566 20.2289C116.352 20.4147 116.21 20.6692 116.166 20.948C116.133 21.1317 116.116 21.3182 116.117 21.505C116.117 22.4797 116.117 23.3081 115.717 23.7189C115.318 24.1297 114.659 24.0322 113.929 24.0531H105.795C101.588 24.0531 101.111 23.3569 101.083 23.0993C101.055 22.8417 101.973 21.1986 111.804 14.7449C112.288 14.4776 112.755 14.1847 113.207 13.8677C113.506 13.7074 113.736 13.4446 113.855 13.1283C113.973 12.8119 113.973 12.4636 113.852 12.148C113.68 11.8448 113.422 11.5985 113.111 11.44C112.799 11.2815 112.447 11.2178 112.099 11.2569H98.776C97.6471 11.2569 97.4785 11.9531 97.4785 12.3708C97.4785 12.7885 97.8222 13.436 98.8812 13.436H109.595C104.364 16.7012 100.837 19.3815 99.0771 21.4284C99.0771 21.4284 97.9273 22.6815 98.4461 24.0253C98.6247 24.4388 98.8906 24.8093 99.2256 25.1121C99.5606 25.4148 99.9568 25.6424 100.388 25.7796C101.637 26.2322 103.818 26.4759 106.853 26.4759H114.287C116.201 26.4759 116.832 26.1556 117.463 25.4942C118.248 24.6588 118.606 23.2942 118.494 21.4284C118.501 21.1459 118.431 20.8667 118.29 20.6212C118.149 20.3758 117.943 20.1733 117.694 20.036C117.578 19.9821 117.452 19.9535 117.323 19.9525" fill="#00DC5A"/>
<path d="M55.9317 21.6024C54.4245 20.8333 53.0982 19.7561 52.0399 18.4417H59.1361C59.1772 18.4955 59.1945 18.563 59.1858 18.6296C59.1858 18.9568 58.7089 19.7784 55.9389 21.6024H55.9317ZM51.2547 12.6075H46.6688C46.4452 12.6052 46.2234 12.6478 46.0167 12.7328C46.0204 12.6725 46.0204 12.6121 46.0167 12.5518V11.5701C45.9795 11.4046 46.0045 11.2313 46.0868 11.0828C46.1154 11.058 46.1489 11.0397 46.1852 11.0289C46.2215 11.0181 46.2596 11.0151 46.2972 11.0201C46.3694 11.0111 46.4424 11.0111 46.5146 11.0201H51.7035C51.6055 11.554 51.4528 12.0765 51.2475 12.5796L51.2547 12.6075ZM52.8886 6.28591C52.8583 6.52782 52.9102 6.77288 53.0356 6.98209C53.318 7.52771 53.5708 8.08777 53.7934 8.66H50.4341C50.4874 8.52202 50.5061 8.37346 50.4888 8.22682C50.4716 8.08019 50.4197 7.93985 50.3361 7.81754C50.0306 7.27614 49.6762 6.76351 49.2771 6.28591H52.8886ZM54.1018 11.0828H63.2174C63.3996 11.0828 63.6662 11.0828 63.6525 11.3404C63.5538 11.7099 63.4248 12.0709 63.2663 12.4195C63.226 12.5393 63.1979 12.663 63.1828 12.7884C62.9429 12.6877 62.685 12.6379 62.4249 12.6422H53.828C53.9923 12.1376 54.0838 11.6127 54.1018 11.0828ZM60.4545 5.77771C60.3904 5.86297 60.3342 5.95388 60.2867 6.04923C59.9473 7.03367 59.394 7.93206 58.6664 8.68088H56.2191C55.9165 7.81518 55.565 6.96679 55.1673 6.13971C57.2083 6.03528 58.982 5.90302 60.4689 5.74981L60.4545 5.77771ZM65.8397 24.241C63.3247 24.1333 60.85 23.5767 58.5331 22.5979C59.907 21.5946 61.0409 20.3041 61.8572 18.8176C62.3197 17.8568 62.3968 17.1606 62.1029 16.6872C61.9213 16.4689 61.6872 16.3 61.4228 16.1965C61.1577 16.093 60.8702 16.0581 60.5878 16.0954H52.5521C52.7337 15.7112 52.8907 15.3159 53.0219 14.9119H62.5373C63.4911 14.8213 63.7505 14.3062 63.7995 13.8954L63.8974 13.9372C64.0509 13.9901 64.2123 14.0184 64.3744 14.0207C64.6186 14.0164 64.8549 13.9341 65.048 13.7862C65.241 13.6382 65.3808 13.4324 65.4471 13.1992C66.1488 11.2359 66.254 9.94099 65.7561 9.24481C65.607 9.04889 65.4111 8.89375 65.1848 8.7939C64.9593 8.69404 64.7115 8.65277 64.4659 8.67387H61.4926C61.7073 8.32181 61.8946 7.95409 62.0531 7.57392C62.2304 7.2019 62.3673 6.81214 62.4602 6.41123C62.4998 6.20237 62.4753 5.9865 62.3903 5.79158C62.3492 5.71276 62.2974 5.64009 62.2361 5.57578C62.7714 5.54417 63.3053 5.48373 63.8348 5.39475C64.1482 5.35226 64.45 5.25062 64.7252 5.0954C64.8815 4.97424 65.0047 4.81537 65.0818 4.63376C65.1589 4.45222 65.1884 4.25402 65.1668 4.05803C65.1467 3.87921 65.0811 3.70848 64.9752 3.5622C64.8693 3.41593 64.7281 3.29898 64.5638 3.22266C64.3751 3.14312 64.1726 3.10056 63.968 3.09734C63.8953 3.09105 63.8225 3.09105 63.7505 3.09734C59.51 3.7745 55.2206 4.10517 50.9254 4.08593C49.2987 4.08593 47.6085 4.03722 45.8905 3.95367C44.8457 3.95367 44.5582 4.48277 44.488 4.9492C44.4179 5.41563 44.7055 6.03528 45.7432 6.13277C46.1176 6.20344 46.4982 6.23613 46.8792 6.23019C46.8792 6.23019 46.8792 6.49477 46.8792 6.51566C46.8866 6.63046 46.9126 6.74333 46.9564 6.84984C47.2221 7.27529 47.5198 7.68021 47.8469 8.06124L48.2188 8.66H45.5188C44.7055 8.66 43.7378 9.00111 43.7378 10.6163V12.5518C43.7198 12.7121 43.7385 12.8745 43.7925 13.0267C43.8465 13.1789 43.9344 13.317 44.0497 13.4308C44.1649 13.5446 44.3045 13.631 44.4582 13.6838C44.6118 13.7365 44.7754 13.7541 44.9369 13.7353C45.0917 13.7387 45.2459 13.7152 45.3926 13.6657C45.3926 14.3618 45.8133 14.7796 46.5917 14.8562H50.3923C49.0336 17.8498 46.6994 20.3022 43.7658 21.8182C43.6034 21.8841 43.4575 21.9844 43.3381 22.1121C43.2188 22.2399 43.1289 22.3919 43.0749 22.5575C43.0207 22.7232 43.0037 22.8987 43.025 23.0716C43.0462 23.2445 43.1052 23.4108 43.1978 23.5587C43.3305 23.7126 43.4966 23.8346 43.6837 23.9154C43.8708 23.9962 44.0739 24.0338 44.2777 24.0252C45.2454 24.0252 46.0658 23.3289 46.8302 22.7998C47.6214 22.2587 48.3528 21.6357 49.0112 20.941C49.2014 20.7538 49.3823 20.5562 49.5508 20.3492C49.731 20.1572 49.8995 19.955 50.0559 19.7435C51.0918 20.9574 52.2957 22.0193 53.6321 22.8973C51.3411 23.7909 48.9118 24.2809 46.4515 24.3454C46.2192 24.3481 45.9912 24.4081 45.7881 24.5199C45.5849 24.6317 45.4129 24.7918 45.2874 24.986C45.1829 25.1557 45.1258 25.35 45.1218 25.5489C45.1179 25.7478 45.1674 25.9441 45.2652 26.1178C45.363 26.2915 45.5056 26.4361 45.6783 26.537C45.8511 26.6378 46.0477 26.6912 46.2481 26.6916C47.0167 26.6568 47.7825 26.5755 48.5408 26.448C49.9298 26.2071 51.3022 25.8816 52.6501 25.4733C53.2502 25.2886 53.8403 25.0724 54.4173 24.8258C54.9504 24.5961 55.4692 24.3315 55.9742 24.06C55.9742 24.06 56.1356 23.9486 56.1564 23.9625C59.1714 25.3432 62.4105 26.1778 65.7208 26.4271C66.0133 26.4236 66.2943 26.3093 66.5054 26.1074C66.7157 25.9057 66.8411 25.6316 66.8555 25.3412C66.8699 25.0508 66.7719 24.7659 66.5818 24.5446C66.3923 24.3233 66.1243 24.1823 65.8332 24.1505" fill="#00DC5A"/>
<path d="M70.7764 12.8023C70.62 12.783 70.4615 12.7957 70.311 12.8396C70.1597 12.8835 70.0192 12.9576 69.8989 13.0575C69.7778 13.1573 69.6784 13.2807 69.6078 13.4201C69.5365 13.5594 69.4954 13.7117 69.4861 13.8675C69.4594 14.0095 69.4637 14.1552 69.4976 14.2954C69.5315 14.4356 69.5941 14.5674 69.682 14.6821C69.7951 14.8071 69.9335 14.9071 70.0883 14.9754C70.2432 15.0437 70.4104 15.0791 70.5797 15.0789H91.9807C92.2725 15.0469 92.5405 14.9054 92.7307 14.6834C92.9209 14.4614 93.0181 14.1758 93.003 13.8849C92.9871 13.5939 92.8611 13.3199 92.6485 13.1186C92.4367 12.9174 92.155 12.8042 91.8618 12.8023H70.7764ZM86.9881 14.5847V23.7745C86.9881 23.9625 86.9463 24.5473 85.4248 24.5473C84.4472 24.5163 83.476 24.3809 82.5287 24.1435C82.4048 24.1111 82.2773 24.0947 82.1497 24.0948C81.912 24.0908 81.68 24.1652 81.4898 24.3063C81.2996 24.4474 81.1613 24.6473 81.0979 24.8745C81.0367 25.0322 81.0086 25.2008 81.0158 25.3697C81.023 25.5387 81.0655 25.7043 81.1397 25.8562C81.2175 25.9773 81.3198 26.0804 81.4408 26.1585C81.5619 26.2366 81.6988 26.2879 81.8414 26.3087C83.0704 26.6045 84.3283 26.7679 85.5927 26.7961C87.942 26.7961 89.1761 25.9537 89.2741 24.2619V14.5847" fill="#00DC5A"/>
<path d="M119.02 7.57382C119.35 7.57382 119.911 7.43455 120.016 6.50862V6.45991C119.911 5.54092 119.35 5.40166 119.02 5.40166H97.1488C96.7706 5.40166 96.146 5.54092 96.146 6.48774C96.146 7.43455 96.7706 7.57382 97.1488 7.57382H119.02ZM105.276 6.5504V3.80737C105.276 3.43836 105.129 2.81879 104.182 2.81879C103.236 2.81879 102.99 3.43836 102.99 3.80737V9.83646C102.99 10.1706 103.131 10.7346 104.084 10.7346C105.038 10.7346 105.178 10.1706 105.178 9.83646V6.5504H105.276ZM113.6 6.5504V3.80737C113.6 3.43836 113.459 2.81879 112.505 2.81879C111.552 2.81879 111.314 3.43836 111.314 3.80737V9.83646C111.314 10.1706 111.454 10.7346 112.407 10.7346C113.361 10.7346 113.501 10.1706 113.501 9.83646V6.5504H113.6Z" fill="#00DC5A"/>
<path d="M82.7394 20.9061C82.7394 21.289 82.5845 21.4491 82.1919 21.4491H74.479C74.0928 21.4491 73.9322 21.289 73.9322 20.9061V19.0472C73.9322 18.6643 74.0928 18.5042 74.479 18.5042H82.1919C82.5845 18.5042 82.7394 18.6643 82.7394 19.0472V20.9061ZM84.6536 16.9029C84.369 16.6332 83.9944 16.4771 83.6018 16.4643H73.041C72.6498 16.4755 72.2774 16.632 71.9964 16.9029C71.7687 17.152 71.6347 17.4719 71.6182 17.8079V22.1802C71.6376 22.5156 71.7709 22.8345 71.9964 23.0852C72.2766 23.3565 72.6505 23.5109 73.041 23.5168H83.6018C83.9944 23.5092 84.3697 23.3552 84.6536 23.0852C84.874 22.8321 85.0044 22.5141 85.0253 22.1802V17.7801C85.0073 17.4455 84.8762 17.1266 84.6536 16.8751" fill="#00DC5A"/>
</svg>
