<svg width="212" height="66" viewBox="0 0 212 66" fill="none" xmlns="http://www.w3.org/2000/svg">
<path d="M58.469 12.1045H68.8166C69.0059 12.6761 69.1344 13.266 69.1998 13.8645C69.2306 19.8617 69.1998 25.8633 69.1998 31.8649V33.2421C69.6403 32.8329 69.9266 32.6085 70.1821 32.3621C76.1378 26.6421 82.0759 20.8649 88.0713 15.1625C88.9857 14.324 90.0133 13.6175 91.124 13.0637C92.0403 12.5885 93.1063 12.4037 94.1107 12.0869H104.894C105.837 12.7909 105.837 13.0241 104.824 14.0361L85.948 32.9033C85.6749 33.1761 85.415 33.4665 85.1286 33.7833C85.4282 34.0957 85.6485 34.3377 85.8819 34.5665L105.264 54.0145C106.304 55.0573 106.282 55.3345 105.128 56.0957H94.5556C94.318 56.0088 94.0753 55.9368 93.8287 55.8801C91.6128 55.529 89.565 54.4863 87.9788 52.9013C82.1023 47.0669 76.1422 41.3205 70.213 35.5389C69.9443 35.2793 69.6579 35.0329 69.2086 34.6237V36.0801C69.2086 42.1565 69.2086 48.2373 69.2086 54.3137C69.1432 54.9122 69.0147 55.5021 68.8254 56.0737H58.469C57.7906 55.5237 57.6232 54.8065 57.6232 53.9485C57.6467 40.7485 57.6467 27.5485 57.6232 14.3485C57.5864 13.935 57.6433 13.5186 57.7897 13.1301C57.9361 12.7416 58.1683 12.3911 58.469 12.1045V12.1045Z" fill="#551227"/>
<path d="M16.8712 56.0781H5.8584V12.1045H16.8712C17.065 12.7865 17.4218 13.4641 17.4262 14.1461C17.4703 20.0685 17.4526 25.9953 17.457 31.9177C17.457 32.2917 17.4923 32.6613 17.5187 33.2113C17.9372 32.8329 18.1839 32.6261 18.3997 32.4017C23.633 27.3373 28.8971 22.2817 34.0819 17.1909C36.421 14.8897 38.7513 12.6589 42.1697 12.1045H52.9534C53.8344 12.8173 53.8344 13.0593 52.8917 13.9921C48.8008 18.0988 44.7026 22.1864 40.597 26.2549C38.1038 28.7365 35.6061 31.2049 32.8837 33.9065C33.2675 34.1271 33.6315 34.3803 33.9718 34.6633C40.415 41.1166 46.8552 47.5773 53.2926 54.0453C54.2661 55.0221 54.2441 55.2905 53.1736 56.0781H42.4031C42.2109 55.9846 42.0104 55.9095 41.804 55.8537C39.6636 55.4845 37.6913 54.4588 36.1611 52.9189C30.3243 47.1021 24.4039 41.3601 18.501 35.5873C18.2235 35.3189 17.9284 35.0681 17.435 34.6149V36.0185C17.435 42.0245 17.435 48.0305 17.4086 54.0585C17.4218 54.7185 17.065 55.3961 16.8712 56.0781Z" fill="#551227"/>
<path d="M177.989 56.0781C177.367 55.1585 176.601 54.3181 176.156 53.3105C170.347 40.2953 164.562 27.2698 158.8 14.2341C158.465 13.4817 158.276 12.8041 158.84 12.1045H170.504C171.099 12.9053 171.887 13.6269 172.266 14.5201C175.83 23.1353 179.315 31.7813 182.839 40.4141C182.997 40.7969 183.169 41.1753 183.402 41.7033C183.636 41.1929 183.799 40.8717 183.935 40.5373C187.46 31.9045 190.948 23.2629 194.508 14.6477C194.895 13.7149 195.675 12.9493 196.27 12.1045H208.362V13.6401C208.199 13.9657 208.023 14.2825 207.877 14.6169C202.104 27.5881 196.324 40.5593 190.539 53.5305C190.098 54.4545 189.367 55.2289 188.777 56.0737L177.989 56.0781Z" fill="#551227"/>
<path d="M153.998 12.1045C155.46 12.7601 155.919 13.8645 155.76 15.4529C155.652 16.9514 155.652 18.4556 155.76 19.9541C155.816 20.3938 155.703 20.8383 155.445 21.1988C155.187 21.5593 154.803 21.8093 154.368 21.8989C153.803 22.0525 153.218 22.1251 152.632 22.1145C148.967 22.1145 145.298 22.1145 141.62 22.1145H140.298V23.4961C140.298 33.4988 140.298 43.4985 140.298 53.4953C140.298 55.6953 140.558 55.2553 138.589 56.0693H126.255C126.043 55.4885 125.651 54.9077 125.647 54.3093C125.612 44.0661 125.62 33.8185 125.62 23.5709V22.1233H111.863C109.885 22.1233 109.41 21.6349 109.41 19.6505C109.41 18.0401 109.467 16.4253 109.41 14.8105C109.343 14.2873 109.424 13.7559 109.643 13.2762C109.863 12.7964 110.212 12.3876 110.652 12.0957L153.998 12.1045Z" fill="#551227"/>
</svg>
