<svg width="90" height="100" viewBox="0 0 90 100" fill="none" xmlns="http://www.w3.org/2000/svg">
<path d="M50 95H45V100H50V95Z" fill="#231815"/>
<path d="M45 95H40V100H45V95Z" fill="#231815"/>
<path d="M40 95H35V100H40V95Z" fill="#231815"/>
<path d="M35 95H30V100H35V95Z" fill="#231815"/>
<path d="M65 90H60V95H65V90Z" fill="#231815"/>
<path d="M60 90H55V95H60V90Z" fill="#231815"/>
<path d="M55 90H50V95H55V90Z" fill="#91FFD4"/>
<path d="M50 90H45V95H50V90Z" fill="#96FFD6"/>
<path d="M45 90H40V95H45V90Z" fill="#9AFFD8"/>
<path d="M40 90H35V95H40V90Z" fill="#9FFFD9"/>
<path d="M35 90H30V95H35V90Z" fill="#A3FFDB"/>
<path d="M30 90H25V95H30V90Z" fill="#A8FFDD"/>
<path d="M25 90H20V95H25V90Z" fill="#231815"/>
<path d="M70 85H65V90H70V85Z" fill="#231815"/>
<path d="M65 85H60V90H65V85Z" fill="#80FFCD"/>
<path d="M60 85H55V90H60V85Z" fill="#85FFCF"/>
<path d="M55 85H50V90H55V85Z" fill="#89FFD1"/>
<path d="M50 85H45V90H50V85Z" fill="#8EFFD3"/>
<path d="M45 85H40V90H45V85Z" fill="#92FFD5"/>
<path d="M40 85H35V90H40V85Z" fill="#97FFD6"/>
<path d="M35 85H30V90H35V85Z" fill="#9CFFD8"/>
<path d="M30 85H25V90H30V85Z" fill="#A0FFDA"/>
<path d="M25 85H20V90H25V85Z" fill="#A5FFDC"/>
<path d="M20 85H15V90H20V85Z" fill="#AAFFDE"/>
<path d="M75 80H70V85H75V80Z" fill="#231815"/>
<path d="M70 80H65V85H70V80Z" fill="#74FFC9"/>
<path d="M65 80H60V85H65V80Z" fill="#78FFCA"/>
<path d="M60 80H55V85H60V80Z" fill="#7DFFCC"/>
<path d="M55 80H50V85H55V80Z" fill="#82FFCE"/>
<path d="M50 80H45V85H50V80Z" fill="#86FFD0"/>
<path d="M45 80H40V85H45V80Z" fill="#8BFFD2"/>
<path d="M40 80H35V85H40V80Z" fill="#8FFFD3"/>
<path d="M35 80H30V85H35V80Z" fill="#94FFD5"/>
<path d="M30 80H25V85H30V80Z" fill="#99FFD7"/>
<path d="M25 80H20V85H25V80Z" fill="#9DFFD9"/>
<path d="M20 80H15V85H20V80Z" fill="#99FFD7"/>
<path d="M15 80H10V85H15V80Z" fill="#A6FFDC"/>
<path d="M80 75H75V80H80V75Z" fill="#231815"/>
<path d="M75 75H70V80H75V75Z" fill="#67FFC4"/>
<path d="M70 75H65V80H70V75Z" fill="#67FFC4"/>
<path d="M35 75H30V80H35V75Z" fill="#8CFFD2"/>
<path d="M30 75H25V80H30V75Z" fill="#91FFD4"/>
<path d="M25 75H20V80H25V75Z" fill="#95FFD6"/>
<path d="M20 75H15V80H20V75Z" fill="#9AFFD8"/>
<path d="M15 75H10V80H15V75Z" fill="#9FFFD9"/>
<path d="M10 75H5V80H10V75Z" fill="#231815"/>
<path d="M25 70H20V75H25V70Z" fill="#8EFFD3"/>
<path d="M20 70H15V75H20V70Z" fill="#92FFD5"/>
<path d="M15 70H10V75H15V70Z" fill="#97FFD6"/>
<path d="M10 70H5V75H10V70Z" fill="#9CFFD8"/>
<path d="M5 70H0V75H5V70Z" fill="#231815"/>
<path d="M25 65H20V70H25V65Z" fill="#86FFD0"/>
<path d="M20 65H15V70H20V65Z" fill="#8BFFD2"/>
<path d="M15 65H10V70H15V65Z" fill="#8FFFD3"/>
<path d="M10 65H5V70H10V65Z" fill="#94FFD5"/>
<path d="M5 65H0V70H5V65Z" fill="#231815"/>
<path d="M20 60H15V65H20V60Z" fill="#83FFCF"/>
<path d="M15 60H10V65H15V60Z" fill="#87FFD0"/>
<path d="M10 60H5V65H10V60Z" fill="#8CFFD2"/>
<path d="M5 60H0V65H5V60Z" fill="#7DFFCC"/>
<path d="M85 55H80V60H85V55Z" fill="#231815"/>
<path d="M70 55H65V60H70V55Z" fill="#231815"/>
<path d="M65 55H60V60H65V55Z" fill="#231815"/>
<path d="M20 55H15V60H20V55Z" fill="#224330"/>
<path d="M15 55H10V60H15V55Z" fill="#80FFCD"/>
<path d="M10 55H5V60H10V55Z" fill="#84FFCF"/>
<path d="M5 55H0V60H5V55Z" fill="#89FFD1"/>
<path d="M90 50H85V55H90V50Z" fill="#231815"/>
<path d="M85 50H80V55H85V50Z" fill="#37FFB1"/>
<path d="M70 50H65V55H70V50Z" fill="#224330"/>
<path d="M65 50H60V55H65V50Z" fill="#4AFFB8"/>
<path d="M20 50H15V55H20V50Z" fill="#231815"/>
<path d="M15 50H10V55H15V50Z" fill="#78FFCA"/>
<path d="M10 50H5V55H10V50Z" fill="#7DFFCC"/>
<path d="M5 50H0V55H5V50Z" fill="#81FFCE"/>
<path d="M90 45H85V50H90V45Z" fill="#231815"/>
<path d="M85 45H80V50H85V45Z" fill="#30FFAE"/>
<path d="M80 45H75V50H80V45Z" fill="#231815"/>
<path d="M70 45H65V50H70V45Z" fill="#3EFFB4"/>
<path d="M65 45H60V50H65V45Z" fill="#42FFB5"/>
<path d="M60 45H55V50H60V45Z" fill="#302623"/>
<path d="M45 45H40V50H45V45Z" fill="#224330"/>
<path d="M40 45H35V50H40V45Z" fill="#231815"/>
<path d="M20 45H15V50H20V45Z" fill="#231815"/>
<path d="M15 45H10V50H15V45Z" fill="#70FFC7"/>
<path d="M10 45H5V50H10V45Z" fill="#75FFC9"/>
<path d="M5 45H0V50H5V45Z" fill="#79FFCB"/>
<path d="M90 40H85V45H90V40Z" fill="#231815"/>
<path d="M85 40H80V45H85V40Z" fill="#28FFAB"/>
<path d="M80 40H75V45H80V40Z" fill="#231815"/>
<path d="M75 40H70V45H75V40Z" fill="#231815"/>
<path d="M70 40H65V45H70V40Z" fill="#36FFB1"/>
<path d="M65 40H60V45H65V40Z" fill="#3AFFB2"/>
<path d="M60 40H55V45H60V40Z" fill="#231815"/>
<path d="M45 40H40V45H45V40Z" fill="#231815"/>
<path d="M40 40H35V45H40V40Z" fill="#51FFBB"/>
<path d="M20 40H15V45H20V40Z" fill="#231815"/>
<path d="M15 40H10V45H15V40Z" fill="#68FFC4"/>
<path d="M10 40H5V45H10V40Z" fill="#6DFFC6"/>
<path d="M5 40H0V45H5V40Z" fill="#231815"/>
<path d="M90 35H85V40H90V35Z" fill="#231815"/>
<path d="M85 35H80V40H85V35Z" fill="#20FFA8"/>
<path d="M80 35H75V40H80V35Z" fill="#231815"/>
<path d="M75 35H70V40H75V35Z" fill="#231815"/>
<path d="M70 35H65V40H70V35Z" fill="#2EFFAE"/>
<path d="M65 35H60V40H65V35Z" fill="#33FFAF"/>
<path d="M60 35H55V40H60V35Z" fill="#37FFB1"/>
<path d="M45 35H40V40H45V35Z" fill="#231815"/>
<path d="M40 35H35V40H40V35Z" fill="#4AFFB8"/>
<path d="M20 35H15V40H20V35Z" fill="#231815"/>
<path d="M15 35H10V40H15V35Z" fill="#61FFC1"/>
<path d="M10 35H5V40H10V35Z" fill="#65FFC3"/>
<path d="M5 35H0V40H5V35Z" fill="#231815"/>
<path d="M90 30H85V35H90V30Z" fill="#231815"/>
<path d="M85 30H80V35H85V30Z" fill="#18FFA5"/>
<path d="M80 30H75V35H80V30Z" fill="#1DFFA7"/>
<path d="M75 30H70V35H75V30Z" fill="#231815"/>
<path d="M70 30H65V35H70V30Z" fill="#26FFAB"/>
<path d="M65 30H60V35H65V30Z" fill="#2BFFAC"/>
<path d="M60 30H55V35H60V30Z" fill="#30FFAE"/>
<path d="M45 30H40V35H45V30Z" fill="#3DFFB4"/>
<path d="M40 30H35V35H40V30Z" fill="#42FFB5"/>
<path d="M35 30H30V35H35V30Z" fill="#231815"/>
<path d="M25 30H20V35H25V30Z" fill="#231815"/>
<path d="M20 30H15V35H20V30Z" fill="#54FFBD"/>
<path d="M15 30H10V35H15V30Z" fill="#59FFBE"/>
<path d="M10 30H5V35H10V30Z" fill="#5EFFC0"/>
<path d="M90 25H85V30H90V25Z" fill="#231815"/>
<path d="M85 25H80V30H85V25Z" fill="#11FFA2"/>
<path d="M80 25H75V30H80V25Z" fill="#15FFA4"/>
<path d="M75 25H70V30H75V25Z" fill="#1AFFA6"/>
<path d="M70 25H65V30H70V25Z" fill="#1FFFA8"/>
<path d="M65 25H60V30H65V25Z" fill="#23FFA9"/>
<path d="M60 25H55V30H60V25Z" fill="#28FFAB"/>
<path d="M55 25H50V30H55V25Z" fill="#231815"/>
<path d="M50 25H45V30H50V25Z" fill="#231815"/>
<path d="M45 25H40V30H45V25Z" fill="#36FFB1"/>
<path d="M40 25H35V30H40V25Z" fill="#3AFFB2"/>
<path d="M35 25H30V30H35V25Z" fill="#3FFFB4"/>
<path d="M30 25H25V30H30V25Z" fill="#231815"/>
<path d="M25 25H20V30H25V25Z" fill="#48FFB8"/>
<path d="M20 25H15V30H20V25Z" fill="#4DFFBA"/>
<path d="M15 25H10V30H15V25Z" fill="#51FFBB"/>
<path d="M10 25H5V30H10V25Z" fill="#231815"/>
<path d="M85 20H80V25H85V20Z" fill="#10FFA2"/>
<path d="M80 20H75V25H80V20Z" fill="#10FFA2"/>
<path d="M75 20H70V25H75V20Z" fill="#12FFA3"/>
<path d="M70 20H65V25H70V20Z" fill="#17FFA5"/>
<path d="M65 20H60V25H65V20Z" fill="#1BFFA6"/>
<path d="M60 20H55V25H60V20Z" fill="#20FFA8"/>
<path d="M55 20H50V25H55V20Z" fill="#25FFAA"/>
<path d="M50 20H45V25H50V20Z" fill="#231815"/>
<path d="M45 20H40V25H45V20Z" fill="#2EFFAE"/>
<path d="M40 20H35V25H40V20Z" fill="#32FFAF"/>
<path d="M35 20H30V25H35V20Z" fill="#37FFB1"/>
<path d="M30 20H25V25H30V20Z" fill="#3CFFB3"/>
<path d="M25 20H20V25H25V20Z" fill="#40FFB5"/>
<path d="M20 20H15V25H20V20Z" fill="#45FFB7"/>
<path d="M15 20H10V25H15V20Z" fill="#231815"/>
<path d="M85 15H80V20H85V15Z" fill="#231815"/>
<path d="M80 15H75V20H80V15Z" fill="#10FFA2"/>
<path d="M75 15H70V20H75V15Z" fill="#10FFA2"/>
<path d="M70 15H65V20H70V15Z" fill="#10FFA2"/>
<path d="M65 15H60V20H65V15Z" fill="#231815"/>
<path d="M60 15H55V20H60V15Z" fill="#231815"/>
<path d="M55 15H50V20H55V15Z" fill="#1DFFA7"/>
<path d="M50 15H45V20H50V15Z" fill="#22FFA9"/>
<path d="M45 15H40V20H45V15Z" fill="#26FFAB"/>
<path d="M40 15H35V20H40V15Z" fill="#2BFFAC"/>
<path d="M35 15H30V20H35V15Z" fill="#2FFFAE"/>
<path d="M30 15H25V20H30V15Z" fill="#34FFB0"/>
<path d="M25 15H20V20H25V15Z" fill="#38FFB2"/>
<path d="M20 15H15V20H20V15Z" fill="#25261E"/>
<path d="M80 10H75V15H80V10Z" fill="#23221B"/>
<path d="M75 10H70V15H75V10Z" fill="#10FFA2"/>
<path d="M70 10H65V15H70V10Z" fill="#10FFA2"/>
<path d="M65 10H60V15H65V10Z" fill="#22261D"/>
<path d="M60 10H55V15H60V10Z" fill="#231815"/>
<path d="M55 10H50V15H55V10Z" fill="#15FFA4"/>
<path d="M50 10H45V15H50V10Z" fill="#1AFFA6"/>
<path d="M45 10H40V15H45V10Z" fill="#1EFFA8"/>
<path d="M40 10H35V15H40V10Z" fill="#23FFA9"/>
<path d="M35 10H30V15H35V10Z" fill="#28FFAB"/>
<path d="M30 10H25V15H30V10Z" fill="#2CFFAD"/>
<path d="M25 10H20V15H25V10Z" fill="#231815"/>
<path d="M75 5H70V10H75V5Z" fill="#231815"/>
<path d="M70 5H65V10H70V5Z" fill="#224330"/>
<path d="M65 5H60V10H65V5Z" fill="#10FFA2"/>
<path d="M60 5H55V10H60V5Z" fill="#10FFA2"/>
<path d="M55 5H50V10H55V5Z" fill="#10FFA2"/>
<path d="M50 5H45V10H50V5Z" fill="#12FFA3"/>
<path d="M45 5H40V10H45V5Z" fill="#17FFA5"/>
<path d="M40 5H35V10H40V5Z" fill="#1BFFA6"/>
<path d="M35 5H30V10H35V5Z" fill="#231815"/>
<path d="M30 5H25V10H30V5Z" fill="#231815"/>
<path d="M60 0H55V5H60V0Z" fill="#231815"/>
<path d="M55 0H50V5H55V0Z" fill="#231815"/>
<path d="M50 0H45V5H50V0Z" fill="#231815"/>
<path d="M45 0H40V5H45V0Z" fill="#231815"/>
<path d="M40 0H35V5H40V0Z" fill="#231815"/>
</svg>
