<svg width="229" height="65" viewBox="0 0 229 65" fill="none" xmlns="http://www.w3.org/2000/svg">
<path d="M35.1176 57.6334L30.4417 58.1404C29.0633 58.2964 27.6806 58.4351 26.3022 58.6127C26.2208 58.6403 26.1344 58.6499 26.0489 58.6407C25.9634 58.6316 25.881 58.6039 25.8074 58.5597C25.7338 58.5155 25.6708 58.4559 25.6229 58.3849C25.575 58.314 25.5434 58.2335 25.5302 58.1491C22.3809 49.1011 19.217 40.0603 16.0386 31.0267C15.9812 30.8315 15.8814 30.651 15.7464 30.4981V59.8651L7.1709 61.0264V6.46542H7.71177C10.0498 6.46542 12.3921 6.46542 14.7301 6.46542C14.9084 6.43601 15.0913 6.47649 15.2401 6.57833C15.389 6.68017 15.4923 6.83543 15.5283 7.01142C19.1138 16.9261 22.7124 26.8393 26.324 36.7511C26.3563 36.8689 26.4231 36.9745 26.5159 37.0544V6.50008H35.1176V57.6334Z" fill="#E50914"/>
<path d="M181.133 6.49981H190.437C192.286 11.2361 194.131 15.9681 196.02 20.7998C196.19 20.4271 196.321 20.1585 196.456 19.8811C198.317 15.5623 200.178 11.2462 202.039 6.93314C202.085 6.77479 202.186 6.6379 202.325 6.54727C202.463 6.45665 202.63 6.41829 202.794 6.43914C205.572 6.43914 208.355 6.43914 211.134 6.43914H211.692C211.592 6.69481 211.518 6.90281 211.431 7.10647C207.88 15.2849 204.324 23.459 200.761 31.6288C200.667 31.8326 200.618 32.0544 200.618 32.2788C200.618 32.5032 200.667 32.725 200.761 32.9288C204.364 42.1212 207.957 51.3151 211.54 60.5105C211.592 60.6405 211.631 60.7791 211.705 61.0088L209.546 60.7271C207.165 60.4108 204.787 60.0858 202.401 59.7825C202.243 59.7767 202.09 59.7205 201.966 59.6222C201.842 59.524 201.753 59.3888 201.712 59.2365C199.749 54.1665 197.775 49.0994 195.789 44.0351C195.749 43.9311 195.706 43.8271 195.606 43.5801L189.25 58.2008L180.208 57.2605C180.644 56.2941 181.006 55.4015 181.394 54.5088C184.567 47.2115 187.74 39.9141 190.912 32.6168C190.989 32.4509 191.028 32.2706 191.028 32.0881C191.028 31.9057 190.989 31.7254 190.912 31.5595C187.705 23.3608 184.502 15.152 181.303 6.93314C181.25 6.80747 181.203 6.67314 181.133 6.49981Z" fill="#E50914"/>
<path d="M63.658 34.8573H52.0902V47.6667L67.3569 46.6353V55.016L43.458 56.7667V6.5H67.3394V14.9327H52.0728V26.4637H54.0356L63.1956 26.3857C63.4966 26.3857 63.6798 26.4117 63.6754 26.793C63.6754 29.3627 63.6754 31.9323 63.6754 34.4977C63.6766 34.6178 63.6707 34.7379 63.658 34.8573Z" fill="#E50914"/>
<path d="M125.344 25.9653V34.4023H113.693V53.8503H105.122V6.5H129.078V14.924H113.724V25.9653H125.344Z" fill="#E50914"/>
<path d="M81.9166 14.9327H72.9268V6.5H99.5126V14.937H90.5358V54.1017L81.9166 54.3703V14.9327Z" fill="#E50914"/>
<path d="M134.67 6.47412H143.245V45.4438C143.245 46.3105 143.145 46.2151 144.069 46.2628L158.001 47.0168V55.4668C156.994 55.4061 156.017 55.3455 155.044 55.2935C152.139 55.1288 149.234 54.9468 146.32 54.8081C142.6 54.6305 138.874 54.4875 135.154 54.3401C134.766 54.3401 134.626 54.2231 134.626 53.8071C134.626 38.1898 134.626 22.5725 134.626 6.95512C134.643 6.80779 134.656 6.66479 134.67 6.47412Z" fill="#E50914"/>
<path d="M173.734 6.5V56.6757L165.181 55.9737V6.5H173.734Z" fill="#E50914"/>
</svg>
