<svg width="113" height="30" viewBox="0 0 113 30" fill="none" xmlns="http://www.w3.org/2000/svg">
<path d="M15.3574 28.1356L12.7878 28.4142C12.0304 28.4999 11.2706 28.5761 10.5131 28.6737C10.4684 28.6889 10.4209 28.6942 10.3739 28.6891C10.3269 28.6841 10.2816 28.6689 10.2412 28.6446C10.2007 28.6203 10.1661 28.5876 10.1398 28.5485C10.1135 28.5096 10.0961 28.4653 10.0889 28.419C8.35824 23.4469 6.61961 18.4788 4.87301 13.5146C4.84146 13.4073 4.78662 13.3081 4.71243 13.2241V29.3619L0 30.0001V0.0175963H0.297221C1.58202 0.0175963 2.86917 0.0175963 4.15395 0.0175963C4.25193 0.00143482 4.35244 0.0236797 4.43421 0.0796431C4.51604 0.135606 4.5728 0.220925 4.59258 0.317636C6.5629 5.76598 8.54041 11.2135 10.5251 16.6603C10.5428 16.725 10.5795 16.783 10.6305 16.8269V0.0366429H15.3574V28.1356Z" fill="#E50914"/>
<path d="M95.5962 0.0363869H100.709C101.725 2.63909 102.739 5.23943 103.777 7.89456C103.87 7.68975 103.942 7.54215 104.017 7.38971C105.039 5.01643 106.062 2.64464 107.085 0.274511C107.11 0.187495 107.165 0.11227 107.242 0.0624671C107.318 0.0126693 107.409 -0.00841041 107.499 0.00304714C109.026 0.00304714 110.555 0.00304714 112.082 0.00304714H112.389C112.334 0.143544 112.293 0.257845 112.246 0.36976C110.294 4.864 108.34 9.35585 106.382 13.8453C106.331 13.9573 106.304 14.0792 106.304 14.2025C106.304 14.3258 106.331 14.4477 106.382 14.5597C108.362 19.6112 110.337 24.6634 112.306 29.7165C112.334 29.7879 112.356 29.8641 112.396 29.9903L111.21 29.8355C109.901 29.6617 108.595 29.4831 107.283 29.3165C107.197 29.3133 107.113 29.2824 107.044 29.2284C106.976 29.1744 106.927 29.1001 106.905 29.0164C105.826 26.2303 104.741 23.4458 103.65 20.6629C103.628 20.6057 103.604 20.5486 103.549 20.4129L100.057 28.4473L95.0879 27.9306C95.3275 27.3995 95.5264 26.909 95.7396 26.4184C97.4833 22.4084 99.2269 18.3983 100.97 14.3883C101.012 14.2971 101.034 14.198 101.034 14.0977C101.034 13.9975 101.012 13.8984 100.97 13.8073C99.2077 9.30189 97.4475 4.79096 95.6896 0.274511C95.6605 0.205453 95.6347 0.131636 95.5962 0.0363869Z" fill="#E50914"/>
<path d="M31.0408 15.6194H24.684V22.6584L33.0734 22.0916V26.697L19.9404 27.6591V0.036377H33.0638V4.67034H24.6745V11.0069H25.7531L30.7867 10.964C30.9521 10.964 31.0528 10.9783 31.0504 11.1878C31.0504 12.6 31.0504 14.012 31.0504 15.4218C31.051 15.4878 31.0478 15.5538 31.0408 15.6194Z" fill="#E50914"/>
<path d="M64.9391 10.733V15.3693H58.5366V26.0565H53.8267V0.036377H66.991V4.66556H58.5537V10.733H64.9391Z" fill="#E50914"/>
<path d="M41.0744 4.67034H36.1343V0.036377H50.7438V4.6727H45.8108V26.1946L41.0744 26.3422V4.67034Z" fill="#E50914"/>
<path d="M70.0637 0.0222168H74.7759V21.437C74.7759 21.9132 74.7209 21.8608 75.2287 21.887L82.8846 22.3014V26.9448C82.3313 26.9115 81.7944 26.8782 81.2597 26.8496C79.6633 26.7591 78.067 26.6591 76.4657 26.5829C74.4214 26.4853 72.3739 26.4067 70.3297 26.3257C70.1165 26.3257 70.0396 26.2614 70.0396 26.0328C70.0396 17.4507 70.0396 8.86865 70.0396 0.286537C70.0489 0.205576 70.056 0.126994 70.0637 0.0222168Z" fill="#E50914"/>
<path d="M91.5301 0.036377V27.6091L86.8301 27.2233V0.036377H91.5301Z" fill="#E50914"/>
</svg>
