<svg width="25" height="25" viewBox="0 0 25 25" fill="none" xmlns="http://www.w3.org/2000/svg">
<path d="M12.7108 18.5V10.756C12.7108 10.5747 12.7108 10.3827 12.7108 10.18C12.7215 9.96667 12.7321 9.748 12.7428 9.524C12.3801 9.876 11.9588 10.1853 11.4788 10.452C10.9988 10.708 10.5081 10.8947 10.0068 11.012L9.67081 9.844C9.86281 9.82267 10.1028 9.75333 10.3908 9.636C10.6895 9.508 10.9988 9.35333 11.3188 9.172C11.6495 8.98 11.9535 8.77733 12.2308 8.564C12.5081 8.35067 12.7215 8.14267 12.8708 7.94H13.9908V18.5H12.7108Z" fill="#FFFFFD"/>
<rect x="0.5" y="0.5" width="24" height="24" rx="12" stroke="#FFFFFD"/>
</svg>
