<svg width="15" height="15" viewBox="0 0 15 15" fill="none" xmlns="http://www.w3.org/2000/svg">
<path d="M14.2281 10.4877H3.74425C3.54564 10.4877 3.35517 10.4087 3.21473 10.2683C3.0743 10.1278 2.9954 9.93722 2.9954 9.73855C2.9954 9.53987 3.0743 9.34933 3.21473 9.20884C3.35517 9.06835 3.54564 8.98943 3.74425 8.98943H11.5622C12.063 8.98946 12.5493 8.82214 12.9441 8.51406C13.3389 8.20597 13.6196 7.77477 13.7414 7.28893L14.977 2.42715C15.005 2.31658 15.0075 2.20107 14.9841 2.08942C14.9608 1.97777 14.9122 1.87293 14.8422 1.7829C14.7694 1.69056 14.6758 1.61667 14.5692 1.56722C14.4625 1.51776 14.3457 1.49413 14.2281 1.49824H3.56452C3.41003 1.06109 3.12415 0.682446 2.74608 0.414217C2.36801 0.145987 1.91626 0.0013031 1.45277 0H0.74885C0.550242 0 0.35977 0.0789248 0.219333 0.219412C0.0788964 0.359899 0 0.55044 0 0.749119C0 0.947798 0.0788964 1.13834 0.219333 1.27883C0.35977 1.41931 0.550242 1.49824 0.74885 1.49824H1.45277C1.62383 1.49325 1.79144 1.54703 1.92769 1.65062C2.06394 1.75421 2.16062 1.90136 2.20162 2.06757L2.24655 2.42715L3.54206 7.49119C2.94624 7.51801 2.38547 7.78051 1.98312 8.22093C1.58077 8.66136 1.36979 9.24364 1.3966 9.83968C1.42342 10.4357 1.68582 10.9967 2.12609 11.3992C2.56636 11.8017 3.14843 12.0127 3.74425 11.9859H3.87904C3.75588 12.3254 3.71631 12.6895 3.76367 13.0475C3.81103 13.4055 3.94393 13.7468 4.15111 14.0425C4.3583 14.3382 4.63367 14.5796 4.95391 14.7463C5.27414 14.913 5.62981 15 5.9908 15C6.35178 15 6.70745 14.913 7.02769 14.7463C7.34793 14.5796 7.6233 14.3382 7.83048 14.0425C8.03767 13.7468 8.17057 13.4055 8.21793 13.0475C8.26529 12.6895 8.22571 12.3254 8.10255 11.9859H9.86984C9.74668 12.3254 9.7071 12.6895 9.75446 13.0475C9.80182 13.4055 9.93472 13.7468 10.1419 14.0425C10.3491 14.3382 10.6245 14.5796 10.9447 14.7463C11.2649 14.913 11.6206 15 11.9816 15C12.3426 15 12.6983 14.913 13.0185 14.7463C13.3387 14.5796 13.6141 14.3382 13.8213 14.0425C14.0285 13.7468 14.1614 13.4055 14.2087 13.0475C14.2561 12.6895 14.2165 12.3254 14.0934 11.9859H14.2281C14.4268 11.9859 14.6172 11.907 14.7577 11.7665C14.8981 11.626 14.977 11.4355 14.977 11.2368C14.977 11.0381 14.8981 10.8476 14.7577 10.7071C14.6172 10.5666 14.4268 10.4877 14.2281 10.4877ZM13.2696 2.99648L12.2886 6.92186C12.2476 7.08807 12.1509 7.23522 12.0147 7.33881C11.8784 7.4424 11.7108 7.49617 11.5398 7.49119H5.0772L3.95393 2.99648H13.2696ZM5.9908 13.4841C5.84269 13.4841 5.69791 13.4402 5.57476 13.3579C5.45161 13.2756 5.35563 13.1586 5.29895 13.0217C5.24227 12.8848 5.22744 12.7342 5.25634 12.5889C5.28523 12.4436 5.35655 12.3101 5.46128 12.2053C5.56601 12.1005 5.69944 12.0292 5.8447 12.0003C5.98997 11.9714 6.14054 11.9862 6.27737 12.0429C6.4142 12.0996 6.53116 12.1956 6.61344 12.3188C6.69573 12.442 6.73965 12.5869 6.73965 12.735C6.73965 12.9337 6.66075 13.1242 6.52031 13.2647C6.37988 13.4052 6.18941 13.4841 5.9908 13.4841ZM11.9816 13.4841C11.8335 13.4841 11.6887 13.4402 11.5656 13.3579C11.4424 13.2756 11.3464 13.1586 11.2897 13.0217C11.2331 12.8848 11.2182 12.7342 11.2471 12.5889C11.276 12.4436 11.3473 12.3101 11.4521 12.2053C11.5568 12.1005 11.6902 12.0292 11.8355 12.0003C11.9808 11.9714 12.1313 11.9862 12.2682 12.0429C12.405 12.0996 12.522 12.1956 12.6042 12.3188C12.6865 12.442 12.7304 12.5869 12.7304 12.735C12.7304 12.9337 12.6515 13.1242 12.5111 13.2647C12.3707 13.4052 12.1802 13.4841 11.9816 13.4841Z" fill="#10FFA2"/>
</svg>
