<svg width="172" height="175" viewBox="0 0 172 175" fill="none" xmlns="http://www.w3.org/2000/svg">
<g clip-path="url(#clip0_1648_26072)">
<path d="M85.9802 172.661C132.229 172.661 169.72 137.296 169.72 93.6707C169.72 50.0457 132.229 14.6807 85.9802 14.6807C39.7319 14.6807 2.24023 50.0457 2.24023 93.6707C2.24023 137.296 39.7319 172.661 85.9802 172.661Z" fill="url(#paint0_radial_1648_26072)"/>
<path d="M167.48 94.6203C167.44 110.78 162.08 126.58 152.33 139.47C142.58 152.36 129.39 161.5 114.45 166.55C98.1903 172.05 80.3003 172.38 63.7903 167.79C48.1703 163.45 33.7703 154.53 23.1503 142.24C12.6603 130.09 6.02028 114.87 4.72028 98.8403C3.41028 82.6403 7.50029 66.3503 16.2803 52.6803C25.0603 39.0103 37.4803 28.9903 52.0303 22.8803C67.7503 16.2803 85.4203 14.7403 102.1 18.1103C118.11 21.3503 133.23 29.2403 144.8 40.8103C156.08 52.1003 163.92 66.7403 166.49 82.5203C167.14 86.5203 167.46 90.5603 167.46 94.6103C167.46 96.4503 171.95 94.4703 171.95 92.7203C171.91 75.9503 166.24 59.5003 156.05 46.1903C145.86 32.8803 131.63 22.9903 115.77 17.6203C98.7903 11.8703 80.0303 11.4803 62.7703 16.2703C46.2303 20.8703 30.9803 30.1903 19.6603 43.1403C8.61028 55.8103 1.60028 71.7103 0.240283 88.5103C-1.11972 105.31 3.24028 122.08 12.3403 136.11C21.4403 150.15 34.9703 161.15 50.4003 167.55C66.9003 174.4 85.2703 176.06 102.78 172.59C119.88 169.2 135.87 160.74 148.27 148.48C160.04 136.84 168.28 121.6 170.94 105.22C171.61 101.09 171.96 96.9203 171.97 92.7303C171.97 90.9003 167.49 92.8703 167.48 94.6203V94.6203Z" fill="#231815"/>
<path d="M30.9501 152.189C30.3201 151.669 29.6901 151.149 29.0801 150.609C29.6901 151.149 30.3201 151.669 30.9501 152.189Z" fill="url(#paint1_radial_1648_26072)"/>
<path d="M57.0198 18.5398C57.2998 18.4398 57.5998 18.3498 57.8798 18.2598C51.7398 20.3198 45.9398 23.0498 40.5498 26.3298C41.4998 25.7498 42.4698 25.1798 43.4498 24.6298V160.71C47.9998 163.25 52.8298 165.39 57.8798 167.09C57.5898 166.99 57.2998 166.91 57.0198 166.81V18.5398Z" fill="url(#paint2_radial_1648_26072)"/>
<path d="M21.2802 42.5297C21.6702 42.0897 22.0702 41.6597 22.4702 41.2197C9.87023 55.0497 2.24023 73.0097 2.24023 92.6697C2.24023 112.33 9.87023 130.29 22.4702 144.12C22.0702 143.69 21.6702 143.26 21.2802 142.82V42.5297V42.5297Z" fill="url(#paint3_radial_1648_26072)"/>
<path d="M71.04 14.96C73.72 14.51 76.44 14.17 79.2 13.96C76.44 14.17 73.72 14.5 71.04 14.96Z" fill="url(#paint4_radial_1648_26072)"/>
<path d="M92.7705 13.96C95.5305 14.17 98.2505 14.51 100.921 14.96C98.2405 14.51 95.5205 14.17 92.7705 13.96Z" fill="url(#paint5_radial_1648_26072)"/>
<path d="M85.9802 13.6797C83.6902 13.6797 81.4402 13.7897 79.2002 13.9597V171.38C81.4402 171.55 83.7002 171.66 85.9802 171.66C88.2602 171.66 90.5202 171.55 92.7602 171.38V13.9597C90.5202 13.7897 88.2602 13.6797 85.9802 13.6797V13.6797Z" fill="url(#paint6_radial_1648_26072)"/>
<path d="M68.0801 15.5093C68.8501 15.3493 69.6301 15.1993 70.4101 15.0693C69.6301 15.2093 68.8501 15.3493 68.0801 15.5093Z" fill="url(#paint7_radial_1648_26072)"/>
<path d="M37.6201 28.21C38.4701 27.64 39.3401 27.08 40.2201 26.54C39.3401 27.08 38.4801 27.64 37.6201 28.21Z" fill="url(#paint8_radial_1648_26072)"/>
<path d="M34.71 30.2398C35.48 29.6798 36.26 29.1298 37.05 28.5898C36.26 29.1298 35.48 29.6798 34.71 30.2398V30.2398Z" fill="url(#paint9_radial_1648_26072)"/>
<path d="M31.8604 32.4198C32.5504 31.8698 33.2504 31.3298 33.9604 30.7998C33.2504 31.3298 32.5504 31.8698 31.8604 32.4198Z" fill="url(#paint10_radial_1648_26072)"/>
<path d="M63.8701 16.4898C64.8301 16.2398 65.7901 16.0098 66.7601 15.7998C65.7901 16.0198 64.8201 16.2398 63.8701 16.4898V16.4898Z" fill="url(#paint11_radial_1648_26072)"/>
<path d="M29.0801 34.7402C29.6901 34.2002 30.3201 33.6802 30.9501 33.1602C30.3201 33.6802 29.6901 34.2002 29.0801 34.7402Z" fill="url(#paint12_radial_1648_26072)"/>
<path d="M60.3799 17.4598C60.8499 17.3198 61.3199 17.1798 61.7899 17.0498C61.3199 17.1798 60.8499 17.3198 60.3799 17.4598Z" fill="url(#paint13_radial_1648_26072)"/>
<path d="M101.561 15.0693C102.341 15.2093 103.121 15.3593 103.891 15.5093C103.121 15.3493 102.341 15.2093 101.561 15.0693Z" fill="url(#paint14_radial_1648_26072)"/>
<path d="M138.01 30.7998C138.72 31.3298 139.41 31.8698 140.1 32.4198C139.41 31.8698 138.71 31.3298 138.01 30.7998Z" fill="url(#paint15_radial_1648_26072)"/>
<path d="M149.521 41.2393C149.911 41.6693 150.311 42.0893 150.691 42.5193C150.311 42.0793 149.911 41.6693 149.521 41.2393Z" fill="url(#paint16_radial_1648_26072)"/>
<path d="M169.73 92.6695C169.73 73.6295 162.59 56.1595 150.69 42.5195V142.81C162.59 129.17 169.73 111.7 169.73 92.6595V92.6695Z" fill="url(#paint17_radial_1648_26072)"/>
<path d="M143.94 35.6797C144.49 36.1797 145.05 36.6797 145.59 37.1997C145.05 36.6797 144.5 36.1797 143.94 35.6797Z" fill="url(#paint18_radial_1648_26072)"/>
<path d="M146.76 38.3594C147.24 38.8394 147.72 39.3094 148.19 39.7894C147.72 39.2994 147.24 38.8294 146.76 38.3594Z" fill="url(#paint19_radial_1648_26072)"/>
<path d="M131.4 26.3193C126.27 23.1893 120.76 20.5593 114.94 18.5293V166.809C119.68 165.159 124.21 163.109 128.51 160.709V24.6293C129.49 25.1693 130.45 25.7393 131.4 26.3193V26.3193Z" fill="url(#paint20_radial_1648_26072)"/>
<path d="M150.691 142.819C150.311 143.249 149.911 143.669 149.521 144.099C149.911 143.669 150.311 143.259 150.691 142.819Z" fill="url(#paint21_radial_1648_26072)"/>
<path d="M148.19 145.55C147.73 146.04 147.24 146.51 146.76 146.98C147.24 146.5 147.72 146.04 148.19 145.55Z" fill="url(#paint22_radial_1648_26072)"/>
<path d="M141.021 33.1602C141.651 33.6802 142.271 34.2002 142.891 34.7302C142.281 34.1902 141.651 33.6702 141.021 33.1602Z" fill="url(#paint23_radial_1648_26072)"/>
<path d="M110.181 17.04C110.651 17.17 111.121 17.31 111.591 17.45C111.121 17.31 110.651 17.17 110.181 17.04Z" fill="url(#paint24_radial_1648_26072)"/>
<path d="M131.76 26.54C132.64 27.08 133.5 27.64 134.35 28.21C133.5 27.64 132.64 27.08 131.76 26.54Z" fill="url(#paint25_radial_1648_26072)"/>
<path d="M114.09 18.25C114.37 18.35 114.66 18.43 114.95 18.53C114.67 18.43 114.38 18.34 114.09 18.25Z" fill="url(#paint26_radial_1648_26072)"/>
<path d="M134.92 28.5898C135.71 29.1298 136.48 29.6798 137.25 30.2398C136.48 29.6798 135.71 29.1298 134.92 28.5898Z" fill="url(#paint27_radial_1648_26072)"/>
<path d="M105.21 15.7998C106.18 16.0098 107.14 16.2398 108.1 16.4898C107.14 16.2398 106.18 16.0198 105.21 15.7998V15.7998Z" fill="url(#paint28_radial_1648_26072)"/>
<path d="M26.3799 37.1997C26.9199 36.6797 27.4799 36.1797 28.0299 35.6797C27.4699 36.1797 26.9199 36.6797 26.3799 37.1997Z" fill="url(#paint29_radial_1648_26072)"/>
<path d="M114.94 166.81C114.66 166.91 114.37 167 114.08 167.09C114.36 166.99 114.65 166.91 114.94 166.81Z" fill="url(#paint30_radial_1648_26072)"/>
<path d="M131.4 159.02C130.45 159.6 129.49 160.17 128.51 160.71C129.49 160.17 130.45 159.6 131.4 159.02Z" fill="url(#paint31_radial_1648_26072)"/>
<path d="M111.591 167.89C111.121 168.03 110.651 168.17 110.181 168.3C110.651 168.17 111.121 168.03 111.591 167.89Z" fill="url(#paint32_radial_1648_26072)"/>
<path d="M103.891 169.84C103.121 170 102.341 170.15 101.561 170.28C102.341 170.14 103.111 170 103.891 169.84Z" fill="url(#paint33_radial_1648_26072)"/>
<path d="M108.1 168.859C107.14 169.099 106.18 169.329 105.21 169.549C106.18 169.339 107.14 169.109 108.1 168.859Z" fill="url(#paint34_radial_1648_26072)"/>
<path d="M100.921 170.39C98.2405 170.84 95.5305 171.18 92.7705 171.39C95.5305 171.18 98.2505 170.85 100.921 170.39Z" fill="url(#paint35_radial_1648_26072)"/>
<path d="M142.891 150.609C142.281 151.139 141.651 151.669 141.021 152.179C141.651 151.659 142.271 151.139 142.891 150.609Z" fill="url(#paint36_radial_1648_26072)"/>
<path d="M145.581 148.149C145.041 148.659 144.491 149.169 143.931 149.669C144.481 149.169 145.041 148.669 145.581 148.149Z" fill="url(#paint37_radial_1648_26072)"/>
<path d="M140.111 152.93C139.421 153.48 138.721 154.02 138.021 154.55C138.731 154.02 139.421 153.48 140.111 152.93Z" fill="url(#paint38_radial_1648_26072)"/>
<path d="M134.34 157.14C133.49 157.71 132.63 158.27 131.75 158.81C132.63 158.27 133.49 157.71 134.34 157.14Z" fill="url(#paint39_radial_1648_26072)"/>
<path d="M137.25 155.109C136.48 155.669 135.71 156.219 134.92 156.749C135.71 156.209 136.48 155.669 137.25 155.109Z" fill="url(#paint40_radial_1648_26072)"/>
<path d="M70.4101 170.28C69.6301 170.14 68.8501 169.99 68.0801 169.84C68.8501 170 69.6301 170.14 70.4101 170.28Z" fill="url(#paint41_radial_1648_26072)"/>
<path d="M37.05 156.759C36.26 156.219 35.48 155.669 34.71 155.109C35.48 155.669 36.26 156.219 37.05 156.759Z" fill="url(#paint42_radial_1648_26072)"/>
<path d="M33.9604 154.55C33.2504 154.02 32.5504 153.48 31.8604 152.93C32.5504 153.48 33.2504 154.02 33.9604 154.55Z" fill="url(#paint43_radial_1648_26072)"/>
<path d="M28.0406 149.669C27.4806 149.169 26.9306 148.669 26.3906 148.149C26.9306 148.669 27.4906 149.169 28.0406 149.669Z" fill="url(#paint44_radial_1648_26072)"/>
<path d="M79.1998 171.38C76.4398 171.17 73.7198 170.83 71.0498 170.38C73.7298 170.83 76.4398 171.17 79.1998 171.38Z" fill="url(#paint45_radial_1648_26072)"/>
<path d="M40.2101 158.81C39.3301 158.27 38.4701 157.71 37.6201 157.14C38.4701 157.71 39.3401 158.27 40.2101 158.81V158.81Z" fill="url(#paint46_radial_1648_26072)"/>
<path d="M25.2103 146.99C24.7303 146.51 24.2503 146.04 23.7803 145.55C24.2503 146.04 24.7303 146.51 25.2103 146.99Z" fill="url(#paint47_radial_1648_26072)"/>
<path d="M66.7601 169.549C65.7901 169.339 64.8301 169.109 63.8701 168.859C64.8301 169.109 65.7901 169.329 66.7601 169.549Z" fill="url(#paint48_radial_1648_26072)"/>
<path d="M43.4505 160.71C42.4705 160.16 41.5105 159.6 40.5605 159.02C41.5105 159.6 42.4805 160.17 43.4505 160.71Z" fill="url(#paint49_radial_1648_26072)"/>
<path d="M23.7803 39.7994C24.2503 39.3094 24.7303 38.8394 25.2203 38.3594C24.7403 38.8394 24.2503 39.3094 23.7803 39.7994Z" fill="url(#paint50_radial_1648_26072)"/>
<path d="M61.7899 168.3C61.3199 168.17 60.8499 168.03 60.3799 167.89C60.8499 168.03 61.3199 168.17 61.7899 168.3Z" fill="url(#paint51_radial_1648_26072)"/>
<path d="M40.5603 26.3299C40.4503 26.3999 40.3303 26.4699 40.2203 26.5399C39.3403 27.0799 38.4803 27.6399 37.6203 28.2099C37.4303 28.3399 37.2403 28.4599 37.0503 28.5899C36.2603 29.1299 35.4803 29.6799 34.7103 30.2399C34.4603 30.4199 34.2103 30.6099 33.9603 30.7999C33.2503 31.3299 32.5503 31.8699 31.8603 32.4199C31.5503 32.6599 31.2503 32.9199 30.9503 33.1599C30.3203 33.6799 29.6903 34.1999 29.0803 34.7399C28.7303 35.0499 28.3803 35.3699 28.0403 35.6799C27.4803 36.1799 26.9303 36.6799 26.3903 37.1999C25.9903 37.5799 25.6103 37.9699 25.2203 38.3599C24.7403 38.8399 24.2503 39.3099 23.7803 39.7999C23.3303 40.2699 22.9103 40.7499 22.4703 41.2299C22.0703 41.6699 21.6703 42.0899 21.2803 42.5399V142.83C21.6703 143.27 22.0703 143.7 22.4703 144.13C22.9103 144.61 23.3403 145.09 23.7803 145.56C24.2503 146.05 24.7303 146.52 25.2103 147C25.6003 147.39 25.9803 147.78 26.3803 148.16C26.9203 148.68 27.4803 149.18 28.0303 149.68C28.3803 149.99 28.7203 150.31 29.0703 150.62C29.6803 151.16 30.3103 151.68 30.9403 152.2C31.2403 152.45 31.5403 152.7 31.8503 152.94C32.5403 153.49 33.2403 154.03 33.9503 154.56C34.2003 154.75 34.4503 154.93 34.7003 155.12C35.4703 155.68 36.2503 156.23 37.0403 156.77C37.2303 156.9 37.4203 157.03 37.6103 157.16C38.4603 157.73 39.3303 158.29 40.2003 158.83C40.3103 158.9 40.4303 158.97 40.5503 159.04C41.5003 159.62 42.4703 160.19 43.4403 160.73V24.6299C42.4603 25.1799 41.5003 25.7399 40.5403 26.3299H40.5603Z" fill="#CE893D"/>
<path d="M79.2003 13.96C76.4403 14.17 73.7203 14.51 71.0403 14.96C70.8303 15 70.6203 15.03 70.4103 15.07C69.6303 15.21 68.8503 15.36 68.0803 15.51C67.6403 15.6 67.2003 15.7 66.7603 15.8C65.7903 16.01 64.8203 16.24 63.8703 16.49C63.1703 16.67 62.4803 16.85 61.7903 17.05C61.3203 17.18 60.8503 17.32 60.3803 17.46C59.5403 17.71 58.7103 17.98 57.8903 18.25C57.6003 18.35 57.3103 18.43 57.0303 18.53V166.81C57.3103 166.91 57.6103 167 57.8903 167.09C58.7103 167.37 59.5403 167.63 60.3803 167.88C60.8503 168.02 61.3203 168.16 61.7903 168.29C62.4803 168.48 63.1703 168.67 63.8703 168.85C64.8303 169.1 65.7903 169.33 66.7603 169.54C67.2003 169.64 67.6403 169.74 68.0903 169.83C68.8603 169.99 69.6403 170.14 70.4203 170.27C70.6303 170.31 70.8503 170.34 71.0603 170.38C73.7403 170.83 76.4503 171.17 79.2103 171.38V13.96H79.2003Z" fill="#CE893D"/>
<path d="M114.94 18.54C114.66 18.44 114.37 18.35 114.08 18.26C113.25 17.98 112.42 17.72 111.58 17.46C111.11 17.32 110.64 17.18 110.17 17.05C109.48 16.85 108.79 16.67 108.09 16.49C107.13 16.24 106.17 16.01 105.2 15.8C104.76 15.7 104.32 15.6 103.88 15.51C103.11 15.35 102.33 15.2 101.55 15.07C101.34 15.03 101.13 15 100.91 14.96C98.2298 14.51 95.5098 14.17 92.7598 13.96V171.38C95.5198 171.17 98.2298 170.83 100.91 170.38C101.12 170.34 101.34 170.31 101.55 170.27C102.33 170.13 103.1 169.99 103.88 169.83C104.33 169.74 104.77 169.64 105.21 169.54C106.18 169.33 107.14 169.1 108.1 168.85C108.8 168.67 109.49 168.49 110.18 168.29C110.65 168.16 111.12 168.02 111.59 167.88C112.43 167.63 113.26 167.36 114.09 167.08C114.37 166.98 114.66 166.9 114.95 166.8V18.54H114.94Z" fill="#CE893D"/>
<path d="M150.69 142.82V42.5296C150.31 42.0896 149.91 41.6696 149.52 41.2496C149.08 40.7696 148.64 40.2796 148.19 39.7996C147.72 39.3096 147.24 38.8396 146.76 38.3696C146.37 37.9796 145.98 37.5896 145.58 37.2096C145.04 36.6996 144.49 36.1896 143.93 35.6896C143.58 35.3696 143.24 35.0596 142.88 34.7496C142.27 34.2196 141.64 33.6896 141.01 33.1796C140.71 32.9296 140.4 32.6796 140.1 32.4296C139.41 31.8796 138.71 31.3396 138.01 30.8096C137.76 30.6196 137.51 30.4296 137.25 30.2496C136.48 29.6896 135.71 29.1396 134.92 28.5996C134.73 28.4696 134.53 28.3396 134.34 28.2096C133.49 27.6396 132.63 27.0796 131.75 26.5396C131.63 26.4696 131.52 26.3996 131.4 26.3296C130.45 25.7496 129.49 25.1796 128.51 24.6396V160.71C129.49 160.17 130.45 159.6 131.4 159.02C131.52 158.95 131.64 158.88 131.75 158.81C132.63 158.27 133.49 157.71 134.34 157.14C134.53 157.01 134.73 156.88 134.92 156.75C135.71 156.21 136.48 155.67 137.25 155.11C137.51 154.92 137.76 154.73 138.01 154.55C138.72 154.02 139.41 153.48 140.1 152.93C140.41 152.68 140.71 152.43 141.01 152.18C141.64 151.66 142.26 151.14 142.88 150.61C143.23 150.3 143.58 149.98 143.93 149.67C144.48 149.17 145.04 148.67 145.58 148.15C145.98 147.77 146.37 147.37 146.76 146.98C147.24 146.51 147.72 146.03 148.19 145.55C148.65 145.07 149.08 144.58 149.52 144.1C149.91 143.67 150.31 143.26 150.69 142.82V142.82Z" fill="#CE893D"/>
<path d="M85.9802 159.39C132.229 159.39 169.72 124.025 169.72 80.4002C169.72 36.7752 132.229 1.41016 85.9802 1.41016C39.7319 1.41016 2.24023 36.7752 2.24023 80.4002C2.24023 124.025 39.7319 159.39 85.9802 159.39Z" fill="url(#paint52_linear_1648_26072)"/>
<path d="M167.65 81.7801C167.61 98.0701 162.21 114.08 152.42 127.1C142.85 139.81 129.8 148.98 114.67 153.84C98.1701 159.14 80.0101 159.35 63.3701 154.52C47.7501 149.98 33.4801 140.99 22.8901 128.62C12.4501 116.43 5.87007 101.15 4.57007 85.1301C3.25007 68.8001 7.41007 52.3601 16.2001 38.5501C24.6401 25.2901 36.9501 14.9001 51.5401 9.03011C67.5601 2.59011 85.4901 1.17011 102.36 4.72011C118.46 8.11011 133.52 16.1601 145.11 27.8601C156.36 39.2101 164.1 53.8801 166.67 69.6801C167.32 73.6801 167.64 77.7201 167.64 81.7701C167.64 82.0001 169.79 80.8101 169.94 80.7101C170.4 80.4101 171.81 79.6701 171.81 79.0101C171.77 62.2201 166.07 45.8501 155.81 32.5601C145.59 19.3101 131.27 9.48011 115.38 4.31011C98.4801 -1.18989 80.0301 -1.42989 62.9701 3.53011C45.9101 8.49011 31.0201 18.0601 19.6401 30.9701C8.68007 43.4101 1.75007 59.1001 0.40007 75.6701C-0.94993 92.3701 3.41007 109.19 12.5801 123.2C21.7501 137.21 35.3401 148.09 50.8301 154.37C67.1701 161 85.4701 162.53 102.7 158.83C119.75 155.17 135.83 146.39 148.23 134.13C159.97 122.54 168.15 107.57 170.81 91.2301C171.47 87.1901 171.79 83.1001 171.8 79.0001C171.8 78.7801 169.65 79.9601 169.5 80.0601C169.04 80.3701 167.63 81.1001 167.63 81.7601L167.65 81.7801Z" fill="#231815"/>
<path d="M85.9792 138.94C120.259 138.94 148.049 112.731 148.049 80.4004C148.049 48.0696 120.259 21.8604 85.9792 21.8604C51.6989 21.8604 23.9092 48.0696 23.9092 80.4004C23.9092 112.731 51.6989 138.94 85.9792 138.94Z" fill="url(#paint53_radial_1648_26072)"/>
<path d="M145.56 80.2403C145.52 92.2103 141.64 103.85 134.52 113.47C127.4 123.09 117.38 130.4 106.13 134.39C94.8796 138.38 81.8596 139.08 70.0296 135.85C58.5596 132.72 48.0196 126.21 40.2396 117.19C32.4596 108.17 27.5296 96.8603 26.5896 84.9603C25.6396 72.9903 28.6396 60.9403 35.0696 50.8003C41.4096 40.8103 50.7796 32.8503 61.5996 28.0803C72.4196 23.3103 85.5396 21.6303 97.6496 23.9403C109.76 26.2503 120.39 32.0603 128.87 40.5103C137.35 48.9603 142.97 59.7103 144.85 71.3403C145.33 74.2903 145.55 77.2603 145.56 80.2503C145.56 81.7203 150.55 81.9203 150.55 80.5603C150.51 68.1003 146.32 55.9103 138.74 46.0203C131.04 35.9703 120.3 28.5903 108.35 24.5303C95.4296 20.1403 81.1996 19.7103 67.9896 23.0803C55.7696 26.2003 44.4696 32.9103 36.0696 42.3403C27.6696 51.7703 22.6696 63.2303 21.6296 75.5003C20.5896 87.7703 23.7996 100.6 30.6096 111.08C37.4096 121.54 47.5096 129.72 58.9996 134.54C71.6096 139.82 85.7896 141.29 99.2296 138.8C111.77 136.48 123.54 130.63 132.74 121.77C141.94 112.91 147.74 101.96 149.78 89.8003C150.29 86.7503 150.54 83.6603 150.55 80.5703C150.55 79.1003 145.56 78.8903 145.56 80.2603V80.2403Z" fill="#231815"/>
<path d="M123.95 104.86C123.95 104.86 67.94 135.06 59.21 83.8003C58.72 54.6403 70.6301 51.7303 73.4101 63.1403C77.2701 76.4803 79.81 81.3703 79.81 81.3703C79.81 81.3703 86.81 54.9703 90.96 53.7203C95.15 55.5303 103.06 94.8703 106.59 94.3703C110.83 93.7803 111.56 64.0203 116.76 63.8703C119.59 63.8703 123.21 97.3503 129.81 84.9203C133.55 73.4003 135.44 44.1003 108.75 34.6903C77.23 25.5603 58.66 42.6103 50.53 53.9503C41.62 66.5003 29.7301 103.18 62.4901 125.43C68.8101 128.23 76.94 130.7 81.06 129.96C101.57 127.48 114.55 120.25 123.95 104.85V104.86Z" fill="url(#paint54_linear_1648_26072)"/>
<path d="M81.0592 130.291C65.2492 130.291 51.4692 120.421 45.4592 109.411C45.4592 109.401 45.4492 109.381 45.4392 109.371C34.3892 86.0407 39.9692 68.4307 46.7792 57.0907C57.5692 39.1307 74.9892 30.5107 88.5692 30.5107C106.779 30.5107 121.239 36.6907 127.899 48.8107C135.719 63.0507 132.689 82.1007 128.929 87.9007C128.139 89.1207 127.339 89.6907 126.529 89.6407H126.369L126.239 89.5407C122.369 86.8707 120.529 78.0007 119.049 70.8707C118.209 66.8207 116.399 61.9607 115.449 61.7307C115.399 61.7207 115.269 61.7607 115.069 61.9707C115.029 70.2907 110.919 94.5207 106.849 95.5207C105.979 95.7307 105.179 95.1507 104.469 93.7807L104.419 93.6607C95.9092 61.5307 93.2592 54.1607 90.9392 53.7407C90.1492 53.6007 89.5392 54.3507 88.8192 55.3607L88.7192 55.5007C87.6792 58.2407 87.2692 61.9907 86.0792 66.3007C83.0092 77.4007 81.4892 82.2707 79.7392 82.2707C78.7492 82.2707 78.3892 80.9307 78.2492 80.4307C77.9192 79.2007 77.5892 77.8707 77.2492 76.5007C75.6492 70.0207 72.3192 58.8207 68.3792 56.8107C68.2292 56.7307 68.0492 56.7307 67.8892 56.8107C59.1792 60.7407 60.5492 83.1007 61.1892 85.8307C61.2592 86.1207 61.3492 87.0407 61.0992 87.2007C60.7892 87.2007 60.5392 86.4707 60.4892 86.2407C59.5092 82.3607 57.9792 60.5407 67.9392 55.5307L68.1392 55.4607L68.3392 55.5307C73.1092 57.2107 76.5692 68.8607 78.3892 76.2207C78.7292 77.5907 79.0492 78.9107 79.3792 80.1307V80.1607C79.5292 80.6607 80.2192 80.7407 80.4592 80.2707C81.6892 77.8407 83.6192 70.8807 84.9592 66.0007C86.2192 61.4207 86.5892 57.8107 87.6592 55.0207L87.7292 54.8907L87.8692 54.6907C88.5492 53.7407 89.5592 52.3107 91.1492 52.6007C93.6492 53.0607 96.1492 57.8707 105.509 93.2407C105.519 93.2907 105.539 93.3407 105.559 93.3807C106.009 94.2007 106.369 94.4507 106.559 94.4007C109.229 93.7507 113.889 72.7607 113.889 61.7707V61.5607L114.019 61.4007C114.559 60.7407 115.119 60.4707 115.699 60.6107C117.289 61.0007 118.829 64.2107 120.159 70.6507C121.529 77.2607 123.219 85.4107 126.399 88.2307C126.609 88.4107 126.919 88.4107 127.129 88.2307C127.349 88.0407 127.619 87.7307 127.909 87.2807C131.529 81.6807 134.439 63.2307 126.829 49.3907C120.379 37.6507 106.809 31.6907 89.2192 31.6907C88.9992 31.6907 88.7792 31.6907 88.5492 31.6907C75.5692 32.2907 58.3092 40.1007 47.7292 57.7007C41.0592 68.7907 35.6092 86.0107 46.4292 108.851C46.4292 108.861 46.4392 108.881 46.4492 108.891C52.2792 119.581 65.7692 129.221 81.3292 129.141C99.5692 129.031 115.829 120.141 123.899 104.871L124.379 105.121C114.009 121.351 100.019 130.181 81.3392 130.301C81.2292 130.301 81.1192 130.301 81.0092 130.301L81.0592 130.291Z" fill="#231815"/>
<path d="M80.1896 129.38C70.5996 129.33 61.0496 125.74 53.8296 119.41C46.4596 112.96 42.7996 103.51 41.0396 94.0704C39.4796 85.7104 39.9496 77.0804 42.6296 69.0004C45.1196 61.5004 49.3396 54.5304 54.6096 48.6704C60.2396 42.4104 67.2696 37.3204 75.1496 34.2704C83.0296 31.2204 90.8396 30.9404 98.9896 32.0304C107.14 33.1204 115.7 35.7804 121.87 41.4304C128.36 47.3604 131.11 56.5604 131.72 65.0804C132.03 69.3404 131.82 73.6504 131.07 77.8604C130.55 80.7704 129.82 83.8004 128.36 86.4004C127.94 87.1504 127.43 87.9804 126.67 88.4404C126.33 88.6404 125.99 88.7504 125.59 88.7304C125.66 88.7304 125.84 88.9004 125.69 88.8004C125.68 88.8004 125.46 88.5404 125.39 88.4404C124.15 86.8204 123.41 84.7904 122.77 82.8704C121.28 78.3804 120.66 73.7004 119.4 69.1604C118.86 67.2304 118.24 65.2304 117.26 63.4804C116.95 62.9304 116.58 62.4404 116.14 61.9904C115.84 61.6804 115.04 60.7504 114.53 60.8104C113.84 60.9004 114.05 63.6604 114 64.2604C113.88 65.7904 113.72 67.3104 113.53 68.8304C112.68 75.6104 111.53 82.5504 109.31 89.0304C108.74 90.7004 108 93.3904 106.38 94.3904C106.26 94.4604 106.14 94.5304 106.01 94.5704C105.84 94.6204 105.64 94.5704 105.48 94.6204C104.98 94.7704 105.45 94.4604 105.59 94.8404C105.1 93.5104 104.77 92.1104 104.4 90.7204C103.73 88.1904 103.05 85.6704 102.36 83.1404C100.52 76.3804 98.6996 69.6004 96.4596 62.9604C95.5496 60.2604 94.6596 57.1804 92.8096 54.9404C92.1796 54.1804 91.2196 53.0404 90.1996 52.8204C88.6296 52.4704 87.7196 54.6804 87.3796 55.8504C86.6896 58.2104 86.3096 60.6404 85.7596 63.0304C84.6996 67.5804 83.3996 72.1504 81.8496 76.5604C81.4396 77.7204 81.0196 78.9104 80.3896 79.9804C80.1996 80.3004 79.9896 80.6404 79.7196 80.9004C79.5296 81.0804 79.1696 81.1604 79.0196 81.3204C78.9796 81.3604 78.9496 81.2804 78.8996 81.3304C79.6796 80.3604 79.7396 83.2404 79.4196 81.8404C79.3396 81.4904 79.2096 81.1504 79.1196 80.8104C78.7696 79.5004 78.4596 78.1904 78.1296 76.8804C77.6396 74.9404 77.1096 73.0104 76.5196 71.1004C75.3796 67.3904 74.0896 63.5404 71.9696 60.2604C71.1196 58.9404 70.0896 57.7404 68.8696 56.7504C68.4696 56.4304 67.8396 55.8304 67.2996 55.8204C66.7896 55.8104 66.1796 56.2904 65.7796 56.5804C63.5896 58.1704 62.3796 60.8104 61.5796 63.3204C59.7696 69.0204 59.5596 75.3204 59.8796 81.2504C59.9296 82.1404 59.9896 83.0304 60.0996 83.9104C60.1596 84.3704 60.5496 86.3904 60.0696 86.1904L61.7096 87.6304C61.1896 86.9804 61.1796 85.6004 61.0896 84.8204C60.9296 83.5104 60.8396 82.1904 60.7896 80.8704C60.6496 77.3404 60.7896 73.7704 61.3296 70.2804C61.8696 66.7904 62.7796 63.3104 64.6896 60.3604C65.5396 59.0504 66.5996 57.8604 67.9096 56.9904C68.4596 56.6204 68.8496 56.2804 69.4796 56.5104C70.2696 56.7904 70.6396 57.4604 71.1296 58.1804C73.6296 61.9404 75.0196 66.4904 76.2496 70.7904C76.9196 73.1204 77.4796 75.4704 78.0796 77.8104C78.3296 78.7804 78.4496 79.5204 79.1496 80.2504C79.5496 80.6704 80.3996 81.6504 81.0796 81.4304C81.6796 81.2404 81.9696 79.9304 82.1596 79.4004C82.5396 78.3904 82.8696 77.3604 83.1996 76.3304C83.9696 73.8904 84.6596 71.4204 85.3496 68.9604C86.0896 66.2904 86.7396 63.6104 87.3096 60.9004C87.6896 59.1204 87.8996 56.8404 88.9996 55.3304C89.8296 54.2004 90.8396 53.1804 92.3496 53.5504C92.5496 53.6004 92.3596 53.5804 92.5796 53.6604C92.6896 53.6904 92.5096 53.6004 92.4296 53.5404C92.4296 53.5404 91.9596 53.0904 92.1896 53.3104C91.9796 53.1004 92.1596 53.3104 92.0496 53.1604C92.2396 53.4404 92.2396 53.4004 92.3796 53.6204C92.6996 54.1004 92.9696 54.6204 93.2296 55.1404C95.4196 59.6104 96.7696 64.5704 98.1896 69.3204C99.5096 73.7504 100.76 78.2104 101.97 82.6704C102.77 85.5904 103.55 88.5104 104.33 91.4304C104.62 92.5204 105 93.2804 105.8 94.0904C106.16 94.4604 106.94 95.3704 107.53 95.2704C108.17 95.1704 108.63 94.1304 108.88 93.6404C109.5 92.4104 109.95 91.0904 110.37 89.7804C111.59 85.9404 112.45 81.9904 113.18 78.0304C113.95 73.8404 114.56 69.5904 114.79 65.3404C114.83 64.5904 114.86 63.8404 114.87 63.0804C114.87 62.7404 114.86 62.5504 115 62.2704C115.12 62.0304 115.45 61.7804 115.69 61.6604C116.07 61.4604 116.37 61.6104 116.74 61.5304C116.76 61.5304 116.91 61.6104 116.91 61.6104C116.64 62.1304 116.05 60.4604 116.45 61.2704C116.62 61.6104 116.85 61.9304 117.01 62.2704C117.49 63.2704 117.85 64.3304 118.17 65.3904C119.72 70.5604 120.32 75.9604 122.05 81.0904C122.69 82.9904 123.46 84.9104 124.66 86.5304C125.38 87.5104 127.26 90.1804 128.49 88.7404C130.54 86.3504 131.28 82.5304 131.82 79.5404C132.63 75.1104 132.81 70.5404 132.41 66.0604C131.56 56.6304 127.89 47.8504 120.82 41.4404C114.17 35.4104 105.6 32.3404 96.7896 31.2704C92.3196 30.7304 87.7796 30.5304 83.3196 31.2404C79.3096 31.8804 75.3996 33.0804 71.6896 34.7104C55.4396 41.8404 42.8096 57.5504 39.9996 75.1704C38.3596 85.4404 40.2896 95.8604 44.3296 105.35C47.9696 113.9 55.1796 120.87 63.3196 125.22C80.6196 134.47 103.72 129.8 117.35 116.05C118.92 114.46 120.38 112.75 121.69 110.94C122.39 109.98 123.05 108.98 123.66 107.97C123.97 107.46 124.32 106.95 124.56 106.41C124.77 105.93 124.66 105.7 125.18 105.98L123.49 104.23C116.13 115.69 105.67 124.89 92.1796 128.06C88.2496 128.98 84.2196 129.39 80.1896 129.4C79.9196 129.4 80.6196 130.15 80.6796 130.21C80.9196 130.46 81.5296 131.21 81.9396 131.21C88.7296 131.2 95.5296 130.02 101.78 127.32C107.88 124.68 113.29 120.67 117.83 115.84C120.66 112.82 123.15 109.51 125.39 106.03C125.61 105.68 123.96 104.42 123.7 104.28L123.22 104.03C123.16 103.98 123.09 103.96 123.02 103.98C115.36 118.33 100.33 126.9 84.3196 128.09C75.5896 128.74 67.0396 126.84 59.5596 122.22C56.0696 120.06 52.9196 117.35 50.3796 114.12C47.5896 110.57 45.8496 106.49 44.3996 102.24C41.6696 94.2404 40.5696 85.6804 41.8396 77.3004C42.8196 70.8904 45.1296 64.7504 48.4096 59.1704C56.0996 46.0504 69.2596 35.9004 84.3696 33.1904C91.9296 31.8304 100.21 32.7304 107.54 34.9404C114.52 37.0404 121.07 40.8004 125.05 47.0704C129.5 54.0804 131.01 62.7604 130.69 70.9604C130.55 74.4704 130.08 78.0004 129.12 81.3804C128.78 82.5904 128.37 83.7904 127.84 84.9204C127.63 85.3704 127.4 85.8204 127.13 86.2504C126.94 86.5604 126.57 86.8604 126.44 87.1704L126.27 87.3404L126.55 88.0304C126.45 88.0304 126.05 87.3604 126.02 87.3204C123.81 83.9504 122.95 79.6004 122.09 75.7304C121.23 71.8604 120.67 67.4304 118.82 63.7104C118.11 62.2804 115.81 58.8004 113.83 59.8904C112.54 60.6004 113 62.3204 112.93 63.5704C112.84 65.2404 112.68 66.9204 112.48 68.5804C111.69 75.3104 110.45 82.1504 108.32 88.5904C107.97 89.6504 107.59 90.7204 107.09 91.7204C106.79 92.3304 106.26 92.8004 105.95 93.3604C105.8 93.6404 105.28 93.1704 106.11 93.7704C106.8 94.2804 106.4 93.9904 106.37 93.5804C106.35 93.2904 106.2 92.9204 106.12 92.6304C105.76 91.2704 105.39 89.9004 105.03 88.5404C104.42 86.2904 103.81 84.0404 103.19 81.8004C101.49 75.6404 99.7696 69.4704 97.7196 63.4204C96.7896 60.6604 95.8496 57.7404 94.2996 55.2404C93.4596 53.8904 92.0796 52.1204 90.4596 51.7204C87.2896 50.9404 86.2296 55.5504 85.7596 57.6604C84.7896 62.0004 83.7596 66.2804 82.5296 70.5504C81.9896 72.4404 81.4296 74.3304 80.7996 76.2004C80.5696 76.8904 80.3196 77.5804 80.0496 78.2604C79.9396 78.5404 79.8296 78.8404 79.6896 79.1104C79.6196 79.2404 79.5596 79.3504 79.4896 79.4704C79.3496 79.6804 78.8696 79.5404 79.1896 79.8004L80.4296 81.0804C79.7996 79.8604 79.6396 78.1004 79.3096 76.7604C79.0196 75.6004 78.7196 74.4504 78.3996 73.3004C77.6996 70.7904 76.9196 68.3004 75.9896 65.8704C74.4896 61.9804 72.5196 57.9004 69.0196 55.4304C68.6196 55.1504 67.8596 54.5404 67.3196 54.5504C66.7196 54.5504 65.9396 55.2704 65.4996 55.6104C64.1196 56.6804 63.0496 58.1004 62.2196 59.6304C60.3496 63.0804 59.5596 67.0804 59.1696 70.9504C58.8196 74.4004 58.7896 77.9004 59.0596 81.3604C59.1496 82.5204 59.2596 83.6804 59.4796 84.8304C59.5796 85.3504 59.7096 85.8504 59.9996 86.3004C60.2596 86.7004 61.4196 88.2104 62.0296 88.0904C62.4996 88.0004 61.7696 82.1304 61.7496 81.6204C61.6196 77.9204 61.7596 74.1904 62.2996 70.5204C62.8396 66.8504 63.6696 63.2104 65.8196 60.3004C66.4196 59.4904 68.1596 57.3504 69.3496 57.7404C69.4796 57.7804 69.6896 58.0804 69.8996 58.3804C70.1796 58.7704 70.4396 59.1804 70.6796 59.6004C71.2896 60.6504 71.8096 61.7604 72.2896 62.8704C74.2996 67.5604 75.5696 72.5204 76.8096 77.4604C77.3396 79.5604 77.8496 81.9004 80.0196 82.9704C80.8296 83.3704 81.4096 83.0504 81.9296 82.3804C82.7596 81.3104 83.2296 79.9004 83.6796 78.6404C84.5096 76.3204 85.1896 73.9404 85.8596 71.5704C86.7796 68.3404 87.6496 65.1104 88.3296 61.8204C88.7796 59.6804 88.9796 56.2804 90.9796 54.9104C91.3196 54.6804 91.9896 54.6904 92.0496 54.6804C92.2096 54.6504 92.1696 54.9104 92.0896 54.6804C92.0896 54.6704 92.4196 54.9804 92.0196 54.6304C92.1196 54.7204 91.7496 54.4004 91.7096 54.3604C91.4796 54.1404 91.3496 53.9104 91.6196 54.3104C91.5896 54.2704 91.8996 54.7604 91.9896 54.9204C92.9196 56.5504 93.5496 58.3504 94.1596 60.1104C96.9896 68.1704 99.1396 76.4904 101.36 84.7304C101.75 86.1804 102.14 87.6304 102.53 89.0804C102.92 90.5304 103.09 92.1904 103.85 93.4504C104.54 94.6004 106.4 96.9604 108 96.3504C108.85 96.0304 109.4 95.0004 109.8 94.2504C110.53 92.8804 111.05 91.3904 111.52 89.9104C113.97 82.2004 115.33 73.8904 115.92 65.8304C115.97 65.1104 116.02 64.3904 116.04 63.6804C116.04 63.5604 116.04 63.4204 116.05 63.3104C116.08 63.1404 116.29 62.7204 116.3 62.6504L115.22 61.6104C115.28 61.6904 115.33 61.7804 115.39 61.8704C115.52 62.1904 115.73 62.5004 115.88 62.8104C117.04 65.3304 117.73 68.0604 118.3 70.7604C119.35 75.7904 120.29 81.1804 122.81 85.7204C123.78 87.4704 125.17 89.1604 126.85 90.2704C128.42 91.3104 129.82 89.0604 130.44 87.8604C132.22 84.4504 132.97 80.4504 133.41 76.6604C134.59 66.4704 133.05 55.2404 127.05 46.6804C121.62 38.9504 113.24 33.9204 104.19 31.5604C95.1396 29.2004 84.6096 28.6404 75.3596 31.7204C57.0596 37.8204 42.4096 55.0804 39.0196 74.0404C36.9796 85.4104 39.2596 96.9904 43.9996 107.41C45.9996 111.82 49.2396 115.68 52.7496 118.97C56.6696 122.64 61.1496 125.69 66.0796 127.83C71.0096 129.97 76.4896 131.17 81.9596 131.2C82.2296 131.2 81.5296 130.45 81.4696 130.39C81.2296 130.14 80.6196 129.39 80.2096 129.39L80.1896 129.38Z" fill="#231815"/>
<path d="M101.77 48.4102C103.918 48.4102 105.66 46.7492 105.66 44.7002C105.66 42.6513 103.918 40.9902 101.77 40.9902C99.6215 40.9902 97.8799 42.6513 97.8799 44.7002C97.8799 46.7492 99.6215 48.4102 101.77 48.4102Z" fill="#231815"/>
<path d="M104.89 44.7604C104.87 46.0504 104.14 47.2704 102.9 47.7104C101.66 48.1504 100.26 47.6804 99.4299 46.7104C98.5399 45.6504 98.3799 44.1304 99.1099 42.9404C99.7699 41.8604 101.03 41.3504 102.26 41.6004C103.74 41.9004 104.87 43.2604 104.89 44.7704C104.9 45.5404 106.43 45.3004 106.42 44.6504C106.39 42.8204 105.21 41.2804 103.48 40.7104C101.64 40.1004 99.4799 40.6504 98.1899 42.1004C96.9799 43.4504 96.7799 45.4404 97.7599 46.9804C98.7899 48.6004 100.84 49.2304 102.66 48.8604C104.67 48.4604 106.39 46.7704 106.42 44.6604C106.43 43.8904 104.9 44.1304 104.89 44.7804V44.7604Z" fill="#231815"/>
</g>
<defs>
<radialGradient id="paint0_radial_1648_26072" cx="0" cy="0" r="1" gradientUnits="userSpaceOnUse" gradientTransform="translate(82.7002 111.991) scale(122.21)">
<stop offset="0.27" stop-color="#E09D32"/>
<stop offset="0.69" stop-color="#E99916"/>
<stop offset="1" stop-color="#F29600"/>
</radialGradient>
<radialGradient id="paint1_radial_1648_26072" cx="0" cy="0" r="1" gradientUnits="userSpaceOnUse" gradientTransform="translate(29.9801 151.579) scale(1.32)">
<stop offset="0.27" stop-color="#E09D32"/>
<stop offset="0.69" stop-color="#E99916"/>
<stop offset="1" stop-color="#F29600"/>
</radialGradient>
<radialGradient id="paint2_radial_1648_26072" cx="0" cy="0" r="1" gradientUnits="userSpaceOnUse" gradientTransform="translate(48.8798 109.93) scale(66.66)">
<stop offset="0.27" stop-color="#E09D32"/>
<stop offset="0.69" stop-color="#E99916"/>
<stop offset="1" stop-color="#F29600"/>
</radialGradient>
<radialGradient id="paint3_radial_1648_26072" cx="0" cy="0" r="1" gradientUnits="userSpaceOnUse" gradientTransform="translate(11.9602 104.6) scale(47.11)">
<stop offset="0.27" stop-color="#E09D32"/>
<stop offset="0.69" stop-color="#E99916"/>
<stop offset="1" stop-color="#F29600"/>
</radialGradient>
<radialGradient id="paint4_radial_1648_26072" cx="0" cy="0" r="1" gradientUnits="userSpaceOnUse" gradientTransform="translate(74.96 14.58) scale(4.9)">
<stop offset="0.27" stop-color="#E09D32"/>
<stop offset="0.69" stop-color="#E99916"/>
<stop offset="1" stop-color="#F29600"/>
</radialGradient>
<radialGradient id="paint5_radial_1648_26072" cx="0" cy="0" r="1" gradientUnits="userSpaceOnUse" gradientTransform="translate(96.6905 14.58) scale(4.9)">
<stop offset="0.27" stop-color="#E09D32"/>
<stop offset="0.69" stop-color="#E99916"/>
<stop offset="1" stop-color="#F29600"/>
</radialGradient>
<radialGradient id="paint6_radial_1648_26072" cx="0" cy="0" r="1" gradientUnits="userSpaceOnUse" gradientTransform="translate(85.7202 110.99) scale(70.37)">
<stop offset="0.27" stop-color="#E09D32"/>
<stop offset="0.69" stop-color="#E99916"/>
<stop offset="1" stop-color="#F29600"/>
</radialGradient>
<radialGradient id="paint7_radial_1648_26072" cx="0" cy="0" r="1" gradientUnits="userSpaceOnUse" gradientTransform="translate(69.2001 15.3393) scale(1.41)">
<stop offset="0.27" stop-color="#E09D32"/>
<stop offset="0.69" stop-color="#E99916"/>
<stop offset="1" stop-color="#F29600"/>
</radialGradient>
<radialGradient id="paint8_radial_1648_26072" cx="0" cy="0" r="1" gradientUnits="userSpaceOnUse" gradientTransform="translate(38.8701 27.56) scale(1.72)">
<stop offset="0.27" stop-color="#E09D32"/>
<stop offset="0.69" stop-color="#E99916"/>
<stop offset="1" stop-color="#F29600"/>
</radialGradient>
<radialGradient id="paint9_radial_1648_26072" cx="0" cy="0" r="1" gradientUnits="userSpaceOnUse" gradientTransform="translate(35.83 29.6098) scale(1.58)">
<stop offset="0.27" stop-color="#E09D32"/>
<stop offset="0.69" stop-color="#E99916"/>
<stop offset="1" stop-color="#F29600"/>
</radialGradient>
<radialGradient id="paint10_radial_1648_26072" cx="0" cy="0" r="1" gradientUnits="userSpaceOnUse" gradientTransform="translate(32.8704 31.7998) scale(1.45)">
<stop offset="0.27" stop-color="#E09D32"/>
<stop offset="0.69" stop-color="#E99916"/>
<stop offset="1" stop-color="#F29600"/>
</radialGradient>
<radialGradient id="paint11_radial_1648_26072" cx="0" cy="0" r="1" gradientUnits="userSpaceOnUse" gradientTransform="translate(65.2601 16.2198) scale(1.76)">
<stop offset="0.27" stop-color="#E09D32"/>
<stop offset="0.69" stop-color="#E99916"/>
<stop offset="1" stop-color="#F29600"/>
</radialGradient>
<radialGradient id="paint12_radial_1648_26072" cx="0" cy="0" r="1" gradientUnits="userSpaceOnUse" gradientTransform="translate(29.9801 34.1302) scale(1.32)">
<stop offset="0.27" stop-color="#E09D32"/>
<stop offset="0.69" stop-color="#E99916"/>
<stop offset="1" stop-color="#F29600"/>
</radialGradient>
<radialGradient id="paint13_radial_1648_26072" cx="0" cy="0" r="1" gradientUnits="userSpaceOnUse" gradientTransform="translate(61.0499 17.2998) scale(0.87)">
<stop offset="0.27" stop-color="#E09D32"/>
<stop offset="0.69" stop-color="#E99916"/>
<stop offset="1" stop-color="#F29600"/>
</radialGradient>
<radialGradient id="paint14_radial_1648_26072" cx="0" cy="0" r="1" gradientUnits="userSpaceOnUse" gradientTransform="translate(102.681 15.3393) scale(1.41)">
<stop offset="0.27" stop-color="#E09D32"/>
<stop offset="0.69" stop-color="#E99916"/>
<stop offset="1" stop-color="#F29600"/>
</radialGradient>
<radialGradient id="paint15_radial_1648_26072" cx="0" cy="0" r="1" gradientUnits="userSpaceOnUse" gradientTransform="translate(139.02 31.7998) scale(1.44001)">
<stop offset="0.27" stop-color="#E09D32"/>
<stop offset="0.69" stop-color="#E99916"/>
<stop offset="1" stop-color="#F29600"/>
</radialGradient>
<radialGradient id="paint16_radial_1648_26072" cx="0" cy="0" r="1" gradientUnits="userSpaceOnUse" gradientTransform="translate(150.081 42.0293) scale(0.899999)">
<stop offset="0.27" stop-color="#E09D32"/>
<stop offset="0.69" stop-color="#E99916"/>
<stop offset="1" stop-color="#F29600"/>
</radialGradient>
<radialGradient id="paint17_radial_1648_26072" cx="0" cy="0" r="1" gradientUnits="userSpaceOnUse" gradientTransform="translate(159.84 104.3) scale(45.81)">
<stop offset="0.27" stop-color="#E09D32"/>
<stop offset="0.69" stop-color="#E99916"/>
<stop offset="1" stop-color="#F29600"/>
</radialGradient>
<radialGradient id="paint18_radial_1648_26072" cx="0" cy="0" r="1" gradientUnits="userSpaceOnUse" gradientTransform="translate(144.73 36.6197) scale(1.19)">
<stop offset="0.27" stop-color="#E09D32"/>
<stop offset="0.69" stop-color="#E99916"/>
<stop offset="1" stop-color="#F29600"/>
</radialGradient>
<radialGradient id="paint19_radial_1648_26072" cx="0" cy="0" r="1" gradientUnits="userSpaceOnUse" gradientTransform="translate(147.45 39.2394) scale(1.06001)">
<stop offset="0.27" stop-color="#E09D32"/>
<stop offset="0.69" stop-color="#E99916"/>
<stop offset="1" stop-color="#F29600"/>
</radialGradient>
<radialGradient id="paint20_radial_1648_26072" cx="0" cy="0" r="1" gradientUnits="userSpaceOnUse" gradientTransform="translate(122.85 109.859) scale(66.34)">
<stop offset="0.27" stop-color="#E09D32"/>
<stop offset="0.69" stop-color="#E99916"/>
<stop offset="1" stop-color="#F29600"/>
</radialGradient>
<radialGradient id="paint21_radial_1648_26072" cx="0" cy="0" r="1" gradientUnits="userSpaceOnUse" gradientTransform="translate(150.081 143.609) scale(0.899999)">
<stop offset="0.27" stop-color="#E09D32"/>
<stop offset="0.69" stop-color="#E99916"/>
<stop offset="1" stop-color="#F29600"/>
</radialGradient>
<radialGradient id="paint22_radial_1648_26072" cx="0" cy="0" r="1" gradientUnits="userSpaceOnUse" gradientTransform="translate(147.45 146.43) scale(1.06001)">
<stop offset="0.27" stop-color="#E09D32"/>
<stop offset="0.69" stop-color="#E99916"/>
<stop offset="1" stop-color="#F29600"/>
</radialGradient>
<radialGradient id="paint23_radial_1648_26072" cx="0" cy="0" r="1" gradientUnits="userSpaceOnUse" gradientTransform="translate(141.921 34.1302) scale(1.32)">
<stop offset="0.27" stop-color="#E09D32"/>
<stop offset="0.69" stop-color="#E99916"/>
<stop offset="1" stop-color="#F29600"/>
</radialGradient>
<radialGradient id="paint24_radial_1648_26072" cx="0" cy="0" r="1" gradientUnits="userSpaceOnUse" gradientTransform="translate(110.861 17.3) scale(0.859998)">
<stop offset="0.27" stop-color="#E09D32"/>
<stop offset="0.69" stop-color="#E99916"/>
<stop offset="1" stop-color="#F29600"/>
</radialGradient>
<radialGradient id="paint25_radial_1648_26072" cx="0" cy="0" r="1" gradientUnits="userSpaceOnUse" gradientTransform="translate(133 27.56) scale(1.72001)">
<stop offset="0.27" stop-color="#E09D32"/>
<stop offset="0.69" stop-color="#E99916"/>
<stop offset="1" stop-color="#F29600"/>
</radialGradient>
<radialGradient id="paint26_radial_1648_26072" cx="0" cy="0" r="1" gradientUnits="userSpaceOnUse" gradientTransform="translate(114.5 18.43) scale(0.53)">
<stop offset="0.27" stop-color="#E09D32"/>
<stop offset="0.69" stop-color="#E99916"/>
<stop offset="1" stop-color="#F29600"/>
</radialGradient>
<radialGradient id="paint27_radial_1648_26072" cx="0" cy="0" r="1" gradientUnits="userSpaceOnUse" gradientTransform="translate(136.04 29.6098) scale(1.57)">
<stop offset="0.27" stop-color="#E09D32"/>
<stop offset="0.69" stop-color="#E99916"/>
<stop offset="1" stop-color="#F29600"/>
</radialGradient>
<radialGradient id="paint28_radial_1648_26072" cx="0" cy="0" r="1" gradientUnits="userSpaceOnUse" gradientTransform="translate(106.6 16.2198) scale(1.76)">
<stop offset="0.27" stop-color="#E09D32"/>
<stop offset="0.69" stop-color="#E99916"/>
<stop offset="1" stop-color="#F29600"/>
</radialGradient>
<radialGradient id="paint29_radial_1648_26072" cx="0" cy="0" r="1" gradientUnits="userSpaceOnUse" gradientTransform="translate(27.1799 36.6197) scale(1.2)">
<stop offset="0.27" stop-color="#E09D32"/>
<stop offset="0.69" stop-color="#E99916"/>
<stop offset="1" stop-color="#F29600"/>
</radialGradient>
<radialGradient id="paint30_radial_1648_26072" cx="0" cy="0" r="1" gradientUnits="userSpaceOnUse" gradientTransform="translate(114.5 166.98) scale(0.53)">
<stop offset="0.27" stop-color="#E09D32"/>
<stop offset="0.69" stop-color="#E99916"/>
<stop offset="1" stop-color="#F29600"/>
</radialGradient>
<radialGradient id="paint31_radial_1648_26072" cx="0" cy="0" r="1" gradientUnits="userSpaceOnUse" gradientTransform="translate(129.9 160.06) scale(1.88)">
<stop offset="0.27" stop-color="#E09D32"/>
<stop offset="0.69" stop-color="#E99916"/>
<stop offset="1" stop-color="#F29600"/>
</radialGradient>
<radialGradient id="paint32_radial_1648_26072" cx="0" cy="0" r="1" gradientUnits="userSpaceOnUse" gradientTransform="translate(110.861 168.14) scale(0.859998)">
<stop offset="0.27" stop-color="#E09D32"/>
<stop offset="0.69" stop-color="#E99916"/>
<stop offset="1" stop-color="#F29600"/>
</radialGradient>
<radialGradient id="paint33_radial_1648_26072" cx="0" cy="0" r="1" gradientUnits="userSpaceOnUse" gradientTransform="translate(102.681 170.11) scale(1.41)">
<stop offset="0.27" stop-color="#E09D32"/>
<stop offset="0.69" stop-color="#E99916"/>
<stop offset="1" stop-color="#F29600"/>
</radialGradient>
<radialGradient id="paint34_radial_1648_26072" cx="0" cy="0" r="1" gradientUnits="userSpaceOnUse" gradientTransform="translate(106.6 169.279) scale(1.75)">
<stop offset="0.27" stop-color="#E09D32"/>
<stop offset="0.69" stop-color="#E99916"/>
<stop offset="1" stop-color="#F29600"/>
</radialGradient>
<radialGradient id="paint35_radial_1648_26072" cx="0" cy="0" r="1" gradientUnits="userSpaceOnUse" gradientTransform="translate(96.6805 171) scale(4.9)">
<stop offset="0.27" stop-color="#E09D32"/>
<stop offset="0.69" stop-color="#E99916"/>
<stop offset="1" stop-color="#F29600"/>
</radialGradient>
<radialGradient id="paint36_radial_1648_26072" cx="0" cy="0" r="1" gradientUnits="userSpaceOnUse" gradientTransform="translate(141.921 151.579) scale(1.32)">
<stop offset="0.27" stop-color="#E09D32"/>
<stop offset="0.69" stop-color="#E99916"/>
<stop offset="1" stop-color="#F29600"/>
</radialGradient>
<radialGradient id="paint37_radial_1648_26072" cx="0" cy="0" r="1" gradientUnits="userSpaceOnUse" gradientTransform="translate(144.731 149.079) scale(1.19001)">
<stop offset="0.27" stop-color="#E09D32"/>
<stop offset="0.69" stop-color="#E99916"/>
<stop offset="1" stop-color="#F29600"/>
</radialGradient>
<radialGradient id="paint38_radial_1648_26072" cx="0" cy="0" r="1" gradientUnits="userSpaceOnUse" gradientTransform="translate(139.021 153.92) scale(1.44)">
<stop offset="0.27" stop-color="#E09D32"/>
<stop offset="0.69" stop-color="#E99916"/>
<stop offset="1" stop-color="#F29600"/>
</radialGradient>
<radialGradient id="paint39_radial_1648_26072" cx="0" cy="0" r="1" gradientUnits="userSpaceOnUse" gradientTransform="translate(133 158.17) scale(1.72)">
<stop offset="0.27" stop-color="#E09D32"/>
<stop offset="0.69" stop-color="#E99916"/>
<stop offset="1" stop-color="#F29600"/>
</radialGradient>
<radialGradient id="paint40_radial_1648_26072" cx="0" cy="0" r="1" gradientUnits="userSpaceOnUse" gradientTransform="translate(136.04 156.119) scale(1.57)">
<stop offset="0.27" stop-color="#E09D32"/>
<stop offset="0.69" stop-color="#E99916"/>
<stop offset="1" stop-color="#F29600"/>
</radialGradient>
<radialGradient id="paint41_radial_1648_26072" cx="0" cy="0" r="1" gradientUnits="userSpaceOnUse" gradientTransform="translate(69.2001 170.11) scale(1.41)">
<stop offset="0.27" stop-color="#E09D32"/>
<stop offset="0.69" stop-color="#E99916"/>
<stop offset="1" stop-color="#F29600"/>
</radialGradient>
<radialGradient id="paint42_radial_1648_26072" cx="0" cy="0" r="1" gradientUnits="userSpaceOnUse" gradientTransform="translate(35.83 156.119) scale(1.58)">
<stop offset="0.27" stop-color="#E09D32"/>
<stop offset="0.69" stop-color="#E99916"/>
<stop offset="1" stop-color="#F29600"/>
</radialGradient>
<radialGradient id="paint43_radial_1648_26072" cx="0" cy="0" r="1" gradientUnits="userSpaceOnUse" gradientTransform="translate(32.8704 153.93) scale(1.45)">
<stop offset="0.27" stop-color="#E09D32"/>
<stop offset="0.69" stop-color="#E99916"/>
<stop offset="1" stop-color="#F29600"/>
</radialGradient>
<radialGradient id="paint44_radial_1648_26072" cx="0" cy="0" r="1" gradientUnits="userSpaceOnUse" gradientTransform="translate(27.1806 149.079) scale(1.2)">
<stop offset="0.27" stop-color="#E09D32"/>
<stop offset="0.69" stop-color="#E99916"/>
<stop offset="1" stop-color="#F29600"/>
</radialGradient>
<radialGradient id="paint45_radial_1648_26072" cx="0" cy="0" r="1" gradientUnits="userSpaceOnUse" gradientTransform="translate(74.9598 171) scale(4.9)">
<stop offset="0.27" stop-color="#E09D32"/>
<stop offset="0.69" stop-color="#E99916"/>
<stop offset="1" stop-color="#F29600"/>
</radialGradient>
<radialGradient id="paint46_radial_1648_26072" cx="0" cy="0" r="1" gradientUnits="userSpaceOnUse" gradientTransform="translate(38.8701 158.17) scale(1.72)">
<stop offset="0.27" stop-color="#E09D32"/>
<stop offset="0.69" stop-color="#E99916"/>
<stop offset="1" stop-color="#F29600"/>
</radialGradient>
<radialGradient id="paint47_radial_1648_26072" cx="0" cy="0" r="1" gradientUnits="userSpaceOnUse" gradientTransform="translate(24.4703 146.44) scale(1.07)">
<stop offset="0.27" stop-color="#E09D32"/>
<stop offset="0.69" stop-color="#E99916"/>
<stop offset="1" stop-color="#F29600"/>
</radialGradient>
<radialGradient id="paint48_radial_1648_26072" cx="0" cy="0" r="1" gradientUnits="userSpaceOnUse" gradientTransform="translate(65.2501 169.279) scale(1.76)">
<stop offset="0.27" stop-color="#E09D32"/>
<stop offset="0.69" stop-color="#E99916"/>
<stop offset="1" stop-color="#F29600"/>
</radialGradient>
<radialGradient id="paint49_radial_1648_26072" cx="0" cy="0" r="1" gradientUnits="userSpaceOnUse" gradientTransform="translate(41.9505 160.06) scale(1.89)">
<stop offset="0.27" stop-color="#E09D32"/>
<stop offset="0.69" stop-color="#E99916"/>
<stop offset="1" stop-color="#F29600"/>
</radialGradient>
<radialGradient id="paint50_radial_1648_26072" cx="0" cy="0" r="1" gradientUnits="userSpaceOnUse" gradientTransform="translate(24.4703 39.2394) scale(1.07)">
<stop offset="0.27" stop-color="#E09D32"/>
<stop offset="0.69" stop-color="#E99916"/>
<stop offset="1" stop-color="#F29600"/>
</radialGradient>
<radialGradient id="paint51_radial_1648_26072" cx="0" cy="0" r="1" gradientUnits="userSpaceOnUse" gradientTransform="translate(61.0499 168.14) scale(0.87)">
<stop offset="0.27" stop-color="#E09D32"/>
<stop offset="0.69" stop-color="#E99916"/>
<stop offset="1" stop-color="#F29600"/>
</radialGradient>
<linearGradient id="paint52_linear_1648_26072" x1="85.9802" y1="-38.9098" x2="85.9802" y2="244.95" gradientUnits="userSpaceOnUse">
<stop stop-color="#FFCB5A"/>
<stop offset="0.49" stop-color="#F3BA3E"/>
<stop offset="1" stop-color="#E6A71E"/>
</linearGradient>
<radialGradient id="paint53_radial_1648_26072" cx="0" cy="0" r="1" gradientUnits="userSpaceOnUse" gradientTransform="translate(85.9792 80.4004) scale(60.33)">
<stop stop-color="#F6BA40"/>
<stop offset="0.47" stop-color="#F4AA24"/>
<stop offset="1" stop-color="#F29600"/>
</radialGradient>
<linearGradient id="paint54_linear_1648_26072" x1="107.23" y1="45.6603" x2="53.17" y2="136.6" gradientUnits="userSpaceOnUse">
<stop stop-color="#F6BB42"/>
<stop offset="1" stop-color="#FAED00"/>
</linearGradient>
<clipPath id="clip0_1648_26072">
<rect width="171.97" height="174.34" fill="white"/>
</clipPath>
</defs>
</svg>
