<svg width="15" height="15" viewBox="0 0 15 15" fill="none" xmlns="http://www.w3.org/2000/svg">
<g clip-path="url(#clip0_1427_26198)">
<path d="M14.9989 3.92972C14.9995 3.83102 14.9805 3.73318 14.9432 3.64181C14.9059 3.55044 14.8509 3.46733 14.7814 3.39726L11.6016 0.217496C11.5316 0.14799 11.4485 0.0930006 11.3571 0.0556799C11.2657 0.0183593 11.1679 -0.000558092 11.0692 1.25348e-05C10.9705 -0.000558092 10.8726 0.0183593 10.7813 0.0556799C10.6899 0.0930006 10.6068 0.14799 10.5367 0.217496L8.41438 2.33984L0.217496 10.5367C0.14799 10.6068 0.0930006 10.6899 0.0556799 10.7813C0.0183593 10.8726 -0.000558092 10.9705 1.25348e-05 11.0692V14.2489C1.25348e-05 14.4478 0.0790242 14.6386 0.219666 14.7792C0.360308 14.9199 0.551059 14.9989 0.749956 14.9989H3.92972C4.03466 15.0046 4.13962 14.9882 4.23781 14.9507C4.336 14.9133 4.42522 14.8556 4.49968 14.7814L12.6516 6.58452L14.7814 4.49968C14.8499 4.42699 14.9056 4.34334 14.9464 4.25219C14.9536 4.19242 14.9536 4.13199 14.9464 4.07221C14.9499 4.0373 14.9499 4.00213 14.9464 3.96722L14.9989 3.92972ZM3.62224 13.499H1.4999V11.3767L8.94684 3.92972L11.0692 6.05206L3.62224 13.499ZM12.1266 4.99464L10.0043 2.8723L11.0692 1.81488L13.184 3.92972L12.1266 4.99464Z" fill="#10FFA2"/>
</g>
<defs>
<clipPath id="clip0_1427_26198">
<rect width="14.9989" height="15" fill="white"/>
</clipPath>
</defs>
</svg>
