<svg width="15" height="15" viewBox="0 0 15 15" fill="none" xmlns="http://www.w3.org/2000/svg">
<path d="M14.2459 7.50217C14.047 7.50217 13.8563 7.58117 13.7157 7.72178C13.5751 7.86239 13.4961 8.0531 13.4961 8.25196V12.7507C13.4961 12.9495 13.4171 13.1402 13.2765 13.2808C13.1359 13.4214 12.9452 13.5004 12.7463 13.5004H2.24935C2.05049 13.5004 1.85978 13.4214 1.71917 13.2808C1.57856 13.1402 1.49957 12.9495 1.49957 12.7507V2.2537C1.49957 2.05484 1.57856 1.86413 1.71917 1.72352C1.85978 1.58291 2.05049 1.50391 2.24935 1.50391H6.74804C6.9469 1.50391 7.13761 1.42492 7.27822 1.28431C7.41883 1.1437 7.49783 0.952985 7.49783 0.75413C7.49783 0.555275 7.41883 0.364565 7.27822 0.223954C7.13761 0.0833422 6.9469 0.00434749 6.74804 0.00434749H2.24935C1.65278 0.00434749 1.08065 0.241332 0.658819 0.663166C0.236984 1.085 0 1.65713 0 2.2537V12.7507C0 13.3472 0.236984 13.9193 0.658819 14.3412C1.08065 14.763 1.65278 15 2.24935 15H12.7463C13.3429 15 13.915 14.763 14.3368 14.3412C14.7587 13.9193 14.9957 13.3472 14.9957 12.7507V8.25196C14.9957 8.0531 14.9167 7.86239 14.776 7.72178C14.6354 7.58117 14.4447 7.50217 14.2459 7.50217ZM2.99913 8.07201V11.2511C2.99913 11.4499 3.07813 11.6407 3.21874 11.7813C3.35935 11.9219 3.55006 12.0009 3.74891 12.0009H6.92799C7.02667 12.0014 7.12449 11.9825 7.21584 11.9452C7.30719 11.9079 7.39028 11.8529 7.46034 11.7834L12.6488 6.58744L14.7782 4.50304C14.8485 4.43334 14.9043 4.35041 14.9423 4.25905C14.9804 4.16768 15 4.06968 15 3.9707C15 3.87172 14.9804 3.77372 14.9423 3.68235C14.9043 3.59098 14.8485 3.50805 14.7782 3.43835L11.5991 0.221784C11.5294 0.151508 11.4465 0.0957289 11.3551 0.0576635C11.2638 0.019598 11.1658 0 11.0668 0C10.9678 0 10.8698 0.019598 10.7784 0.0576635C10.6871 0.0957289 10.6041 0.151508 10.5344 0.221784L8.42006 2.34367L3.21657 7.53966C3.14708 7.60972 3.0921 7.69281 3.05479 7.78416C3.01747 7.87551 2.99856 7.97333 2.99913 8.07201V8.07201ZM11.0668 1.81132L13.1887 3.93321L12.124 4.9979L10.0021 2.87601L11.0668 1.81132ZM4.4987 8.37942L8.94491 3.93321L11.0668 6.05509L6.62058 10.5013H4.4987V8.37942Z" fill="#10FFA2"/>
</svg>
