<svg width="18" height="15" viewBox="0 0 18 15" fill="none" xmlns="http://www.w3.org/2000/svg">
<g clip-path="url(#clip0_1427_26189)">
<path d="M8.35907 1.43364L8.73934 1.84474L9.15044 1.43433C10.2981 0.315787 11.8877 -0.193294 13.4499 0.0667277C15.8103 0.460015 17.5403 2.50251 17.5403 4.89717V5.09587C17.5403 6.5176 16.9511 7.87766 15.9096 8.84718L9.71913 14.6266C9.46219 14.8664 9.12303 15 8.77017 15C8.41731 15 8.07815 14.8664 7.82121 14.6266L1.63036 8.84718C0.590274 7.87766 0 6.5176 0 5.09587V4.89717C0 2.50251 1.73074 0.460015 4.09046 0.0667277C5.62182 -0.193294 7.24224 0.315787 8.35907 1.43364C8.35907 1.43398 8.32824 1.43364 8.35907 1.43364ZM8.73934 4.17089L7.19771 2.5676C6.4543 1.85434 5.39914 1.51586 4.3611 1.68852C2.79378 1.94992 1.64441 3.30758 1.64441 4.89717V5.09587C1.64441 6.06196 2.04557 6.98694 2.75233 7.6447L8.77017 13.2631L14.7894 7.6447C15.4951 6.98694 15.8959 6.06196 15.8959 5.09587V4.89717C15.8959 3.30758 14.7449 1.94992 13.1792 1.68852C12.1412 1.51586 11.086 1.85434 10.3426 2.5676L8.73934 4.17089Z" fill="#10FFA2"/>
</g>
<defs>
<clipPath id="clip0_1427_26189">
<rect width="17.5403" height="15" fill="white"/>
</clipPath>
</defs>
</svg>
