<svg width="18" height="15" viewBox="0 0 18 15" fill="none" xmlns="http://www.w3.org/2000/svg">
<g clip-path="url(#clip0_1427_26204)">
<path d="M5.85937 4.78795C6.17411 4.47656 6.68304 4.47656 6.96763 4.78795L8.54129 6.36496L10.1451 4.78795C10.4598 4.47656 10.9687 4.47656 11.2533 4.78795C11.5949 5.10268 11.5949 5.61161 11.2533 5.89621L9.70647 7.46987L11.2533 9.07366C11.5949 9.38839 11.5949 9.89732 11.2533 10.1819C10.9687 10.5234 10.4598 10.5234 10.1451 10.1819L8.54129 8.63504L6.96763 10.1819C6.68304 10.5234 6.17411 10.5234 5.85937 10.1819C5.54799 9.89732 5.54799 9.38839 5.85937 9.07366L7.43638 7.46987L5.85937 5.89621C5.54799 5.61161 5.54799 5.10268 5.85937 4.78795ZM0 2.14286C0 0.959263 0.959263 0 2.14286 0H15C16.1819 0 17.1429 0.959263 17.1429 2.14286V12.8571C17.1429 14.0391 16.1819 15 15 15H2.14286C0.959263 15 0 14.0391 0 12.8571V2.14286ZM1.60714 2.14286V12.8571C1.60714 13.1518 1.84687 13.3929 2.14286 13.3929H15C15.2946 13.3929 15.5357 13.1518 15.5357 12.8571V2.14286C15.5357 1.84687 15.2946 1.60714 15 1.60714H2.14286C1.84687 1.60714 1.60714 1.84687 1.60714 2.14286Z" fill="#10FFA2"/>
</g>
<defs>
<clipPath id="clip0_1427_26204">
<rect width="17.1429" height="15" fill="white"/>
</clipPath>
</defs>
</svg>
