<svg width="350" height="201" viewBox="0 0 350 201" fill="none" xmlns="http://www.w3.org/2000/svg">
<rect width="350" height="200.667" rx="10" fill="url(#paint0_linear_277_67)"/>
<path d="M112.473 104.456L115.208 112.487C116.687 116.829 118.008 120.302 118.18 120.302C118.183 120.302 118.186 120.301 118.188 120.299C118.377 120.132 123.73 104.589 123.73 104.589H134.103L121.588 141.055H114.378C114.378 141.055 106.682 118.828 106.714 118.744L98.6802 140.775H91.5426L79.185 104.456L89.5082 104.463C89.5082 104.463 95.1631 120.492 95.2385 120.492C95.2388 120.492 95.2388 120.492 95.2391 120.492L100.882 104.456H112.473V104.456ZM75.6606 101.931L76.7964 105.269L89.154 141.588L89.7359 143.299H91.5429H98.6805H100.446L101.051 141.64L106.629 126.342C107.11 127.741 107.629 129.248 108.149 130.754C110.069 136.323 111.994 141.881 111.994 141.881L112.582 143.579H114.378H121.588H123.39L123.975 141.875L136.49 105.408L137.637 102.065H134.103H123.73H121.93L121.344 103.767C120.406 106.491 119.161 110.085 118.097 113.127C117.936 112.666 117.769 112.181 117.596 111.673L114.862 103.643L114.28 101.933H112.473H100.882H99.095L98.5017 103.619L95.2047 112.988C94.1156 109.927 92.8531 106.359 91.8879 103.623L91.2943 101.941L89.5101 101.94L79.1869 101.933L75.6606 101.931Z" fill="white"/>
<path d="M272.239 104.315L272.215 113.873C272.215 113.873 261.919 113.839 256.685 113.839C254.944 113.839 253.762 113.843 253.706 113.853C252.804 114.017 252.23 115.935 252.486 116.777C252.611 117.203 253.555 118.594 254.577 119.871C255.595 121.149 257.27 123.24 258.292 124.517C260.916 127.791 261.276 128.437 261.519 130.317C261.913 133.371 260.469 136.676 257.788 138.855C255.101 141.041 255.219 141.057 235.273 141.057C234.984 141.057 234.694 141.057 234.397 141.057C222.267 141.053 215.851 140.953 214.917 140.745C213.258 140.369 210.615 138.212 203.629 131.51C201.116 129.101 198.8 126.992 198.682 126.992C198.678 126.992 198.677 126.994 198.677 126.997L198.595 141.057L187.272 141.007L187.202 104.742H201.481H212.454C220.064 105.017 225.215 112.599 224.19 117.434C223.957 118.531 223.364 120.121 222.871 120.966C221.859 122.701 219.282 124.928 217.191 125.884C216.418 126.233 215.787 126.64 215.787 126.785C215.787 127.325 218.33 129.829 219.282 130.226C220.095 130.567 222.464 130.642 232.911 130.642C234.135 130.642 235.247 130.643 236.256 130.643C246.757 130.643 246.229 130.567 247.04 128.832C247.608 127.624 247.176 126.902 243.18 122.401C238.117 117.364 238.648 114.951 238.613 113.169C238.541 111.034 240.222 104.316 248.962 104.316L272.239 104.315ZM204.405 121.069C209.252 121.069 210.236 120.994 211.268 120.546C214.75 119.032 214.936 114.559 211.596 112.575C210.865 112.139 209.925 112.067 204.67 112.039L198.589 112.007C198.639 112.054 198.57 120.703 198.57 120.703C198.57 120.703 200.093 121.069 204.405 121.069ZM274.768 101.792H272.238H248.961C243.905 101.792 240.914 103.787 239.295 105.462C236.663 108.185 236.043 111.614 236.09 113.23C236.093 113.365 236.091 113.503 236.09 113.647C236.067 116.274 236.454 119.248 241.344 124.133C242.311 125.222 243.928 127.047 244.539 127.954C243.203 128.118 239.815 128.118 236.256 128.118H234.745L232.91 128.118C226.632 128.118 221.339 128.1 220.254 127.886C220.102 127.787 219.889 127.616 219.655 127.413C221.824 126.077 224.017 124.007 225.05 122.237C225.677 121.16 226.368 119.321 226.658 117.957C227.301 114.922 226.24 111.259 223.819 108.158C220.994 104.54 216.885 102.376 212.544 102.219L212.499 102.217H212.453H201.48H187.201H184.673L184.678 104.746L184.748 141.011L184.753 143.518L187.26 143.529L198.583 143.579L201.102 143.59L201.117 141.071L201.166 132.648C201.397 132.867 201.636 133.095 201.881 133.33C209.523 140.66 212.088 142.691 214.359 143.205C214.984 143.344 216.016 143.575 234.395 143.58H235.271C245.221 143.58 250.215 143.58 253.186 143.293C256.589 142.964 257.684 142.192 259.324 140.856L259.379 140.812C262.749 138.072 264.527 133.927 264.02 129.993C263.689 127.436 263.013 126.373 260.26 122.938L259.442 121.917C258.483 120.718 257.324 119.271 256.548 118.297C255.921 117.514 255.429 116.818 255.133 116.363C255.522 116.362 256.029 116.361 256.684 116.361C261.855 116.361 272.103 116.395 272.206 116.396L274.732 116.404L274.738 113.878L274.761 104.32L274.768 101.792ZM201.109 118.454C201.113 117.816 201.117 117.102 201.121 116.386C201.124 115.755 201.127 115.123 201.128 114.544L204.656 114.562C206.684 114.573 209.735 114.59 210.33 114.758C211.089 115.219 211.513 115.932 211.467 116.67C211.442 117.068 211.252 117.801 210.262 118.231C209.71 118.471 208.83 118.546 204.405 118.546C203.001 118.546 201.918 118.505 201.109 118.454Z" fill="white"/>
<path d="M164.26 104.166L176.967 140.728L166.613 140.775L164.894 135.284L146.379 135.136L144.745 140.633L134.495 140.526L147.042 104.182L164.26 104.166ZM155.933 109.527C155.906 109.632 154.31 114.012 152.708 118.391C151.094 122.807 149.473 127.222 149.451 127.257C149.451 127.257 149.451 127.257 149.451 127.257C149.451 127.257 149.451 127.257 149.451 127.257C149.494 127.244 155.228 127.231 158.903 127.231C160.623 127.231 161.892 127.234 161.915 127.241C161.915 127.242 161.915 127.242 161.915 127.242C161.915 127.242 161.915 127.242 161.915 127.241C161.915 127.241 161.915 127.241 161.915 127.241C161.851 127.074 155.951 109.74 155.933 109.527C155.933 109.526 155.933 109.525 155.933 109.525C155.933 109.525 155.933 109.526 155.933 109.527ZM166.053 101.641L164.258 101.643L147.04 101.659L145.243 101.661L144.657 103.359L132.11 139.703L130.967 143.013L134.469 143.049L144.72 143.157L146.622 143.177L147.165 141.353L148.258 137.675L163.036 137.793L164.205 141.53L164.762 143.308L166.625 143.3L176.98 143.253L180.511 143.236L179.351 139.901L166.643 103.34L166.053 101.641ZM153.083 124.711C153.561 123.408 154.204 121.648 155.078 119.258C155.353 118.508 155.603 117.822 155.833 117.193C156.042 117.81 156.27 118.482 156.517 119.211C156.721 119.813 157.617 122.451 158.385 124.708C156.101 124.708 154.382 124.709 153.083 124.711Z" fill="white"/>
<path d="M168.543 60.527V69.5476H150.477V97.1361H139.705V69.5255L118.617 69.5855C116.075 69.5855 115.735 71.6104 115.735 72.3863C115.735 73.3388 116.356 74.2913 119.769 78.6124C121.983 81.4195 124.017 84.2203 124.285 84.8322C125.749 88.2007 123.856 93.449 120.409 95.5812C117.952 97.0992 118.372 97.1364 100.126 97.1364C99.1878 97.1364 98.2031 97.1364 97.1635 97.1364H77.5232V87.0025H108.401L109.313 86.3685C109.928 85.9396 110.284 85.3497 110.42 84.5423C110.609 83.3816 110.511 83.2302 106.698 78.9344C102.191 73.8564 101.715 72.9291 101.948 69.6867C102.213 65.987 105.512 60.6125 111.278 60.6125L168.543 60.527ZM171.066 58L168.539 58.0038L111.274 58.0889C107.975 58.0889 104.912 59.5139 102.65 62.1015C100.816 64.1996 99.6127 66.9679 99.431 69.5063C99.1241 73.7677 100.105 75.3076 104.811 80.6092C106.176 82.1474 107.475 83.6106 107.908 84.232C107.901 84.2569 107.895 84.273 107.891 84.2821C107.886 84.2859 107.879 84.2916 107.869 84.2985L107.61 84.4789H77.5232H75V87.0022V97.1361V99.6594H77.5232H97.1635H98.7207H100.126C109.122 99.6594 113.562 99.6509 116.178 99.4591C119.171 99.2399 120.126 98.7264 121.557 97.8379L121.736 97.7272C126.234 94.945 128.552 88.3196 126.6 83.826C125.997 82.4515 122.183 77.598 121.75 77.0492C120.553 75.5331 118.576 73.031 118.264 72.3068C118.271 72.2459 118.286 72.1828 118.302 72.139C118.354 72.1257 118.453 72.1081 118.617 72.1081L137.182 72.0554V97.1355V99.6587H139.705H150.477H153V97.1355V72.0702H168.543H171.066V69.547V60.5264V58V58Z" fill="white"/>
<path d="M197.895 60.82L210.568 97.4764L200.232 97.4197L198.554 91.9285L180.122 91.8465L178.475 97.1358H167.95L180.484 60.82H197.895V60.82ZM183.13 84.0405L195.684 84.0247C195.684 84.0247 195.684 84.025 195.684 84.025C195.727 84.025 189.583 65.9835 189.542 65.9709C189.497 65.9693 182.988 84.0405 183.13 84.0405ZM199.692 58.2968H197.895H180.484H178.686L178.099 59.9968L165.565 96.3129L164.41 99.6594H167.951H178.476H180.333L180.885 97.8858L181.977 94.3782L196.685 94.4435L197.82 98.1571L198.363 99.9325L200.219 99.9429L210.555 99.9997L214.118 100.019L212.954 96.652L200.281 59.9956L199.692 58.2968ZM186.636 81.5128C187.414 79.2965 188.498 76.2591 189.479 73.5293C190.408 76.2557 191.437 79.2839 192.187 81.5059L186.636 81.5128Z" fill="white"/>
<path d="M233.487 60.82C241.663 60.82 247.337 60.9367 248.428 61.126C250.951 61.5644 253.232 62.9112 254.941 64.9802C256.73 67.1439 257.14 68.1784 257.373 71.1433C257.708 75.3287 255.717 78.9401 251.79 81.2835C250.646 81.968 249.469 82.6335 249.176 82.7659C248.725 82.971 248.785 83.1665 249.592 84.1127C250.112 84.7215 251.015 85.5888 251.595 86.0399L252.655 86.8631L272.235 87.1438L272.427 97.1358H260.422C251.137 97.1358 248.166 97.0507 247.295 96.7573C245.993 96.3158 242.858 93.66 236.486 87.598L231.938 83.2706L231.986 97.1358H220.302V60.82H233.487ZM231.766 77.1486H237.97C244.007 77.1486 244.196 77.1296 245.057 76.4831C246.597 75.3287 247.142 74.1396 246.979 72.3134C246.811 70.4304 246.086 69.4495 244.266 68.661C243.241 68.2131 242.253 68.1406 237.415 68.1406H231.766V77.1486V77.1486ZM233.487 58.2968H220.304H217.78V60.82V97.1358V99.6591H220.304H231.987H234.519L234.51 97.127L234.483 89.1737L234.748 89.4257C242.628 96.9239 244.953 98.627 246.486 99.1468C247.664 99.5439 249.635 99.6591 260.423 99.6591H272.428H275L274.951 97.0872L274.759 87.0952L274.712 84.6559L272.273 84.6208L253.537 84.3524L253.144 84.0474C253.019 83.95 252.868 83.8213 252.706 83.6756C252.847 83.5923 252.975 83.5157 253.087 83.4494C257.819 80.6256 260.299 76.0667 259.89 70.9427C259.618 67.4861 259 65.929 256.887 63.3729C254.81 60.8595 251.96 59.1787 248.861 58.6403C247.139 58.3416 238.49 58.2968 233.487 58.2968ZM234.289 70.6638H237.415C241.839 70.6638 242.716 70.7373 243.256 70.9732C244.281 71.4173 244.385 71.6328 244.465 72.5367C244.546 73.435 244.435 73.7964 243.544 74.4645C243.514 74.4862 243.492 74.5033 243.473 74.5168C242.885 74.6256 240.702 74.6256 237.97 74.6256H234.29L234.289 70.6638Z" fill="white"/>
<defs>
<linearGradient id="paint0_linear_277_67" x1="175" y1="0" x2="175" y2="200.667" gradientUnits="userSpaceOnUse">
<stop stop-color="#1A1D24"/>
<stop offset="0.239583" stop-color="#878787"/>
<stop offset="0.473958" stop-color="#B3B1B1"/>
<stop offset="0.744792" stop-color="#878787"/>
<stop offset="1" stop-color="#1A1D24"/>
</linearGradient>
</defs>
</svg>
