<svg width="100" height="100" viewBox="0 0 100 100" fill="none" xmlns="http://www.w3.org/2000/svg">
<g clip-path="url(#clip0_154_4741)">
<path d="M59.9998 96.6686H56.6685V100H59.9998V96.6686Z" fill="#231815"/>
<path d="M56.6629 96.6686H53.3315V100H56.6629V96.6686Z" fill="#231815"/>
<path d="M53.3314 96.6686H50V100H53.3314V96.6686Z" fill="#231815"/>
<path d="M49.9999 96.6686H46.6685V100H49.9999V96.6686Z" fill="#231815"/>
<path d="M46.6629 96.6686H43.3315V100H46.6629V96.6686Z" fill="#231815"/>
<path d="M43.3314 96.6686H40V100H43.3314V96.6686Z" fill="#231815"/>
<path d="M39.9999 96.6686H36.6685V100H39.9999V96.6686Z" fill="#231815"/>
<path d="M69.9999 93.3314H66.6685V96.6629H69.9999V93.3314Z" fill="#231815"/>
<path d="M66.6629 93.3314H63.3315V96.6629H66.6629V93.3314Z" fill="#CE893D"/>
<path d="M63.3314 93.3314H60V96.6629H63.3314V93.3314Z" fill="#CE893D"/>
<path d="M59.9998 93.3314H56.6685V96.6629H59.9998V93.3314Z" fill="#CE893D"/>
<path d="M56.6629 93.3314H53.3315V96.6629H56.6629V93.3314Z" fill="#CE893D"/>
<path d="M53.3314 93.3314H50V96.6629H53.3314V93.3314Z" fill="#EC980E"/>
<path d="M49.9999 93.3314H46.6685V96.6629H49.9999V93.3314Z" fill="#EC980F"/>
<path d="M46.6629 93.3314H43.3315V96.6629H46.6629V93.3314Z" fill="#CE893D"/>
<path d="M43.3314 93.3314H40V96.6629H43.3314V93.3314Z" fill="#CE893D"/>
<path d="M39.9999 93.3314H36.6685V96.6629H39.9999V93.3314Z" fill="#CE893D"/>
<path d="M36.6629 93.3314H33.3315V96.6629H36.6629V93.3314Z" fill="#CE893D"/>
<path d="M33.3314 93.3314H30V96.6629H33.3314V93.3314Z" fill="#231815"/>
<path d="M29.9999 93.3314H26.6685V96.6629H29.9999V93.3314Z" fill="#5A524F"/>
<path d="M76.6629 90H73.3315V93.3314H76.6629V90Z" fill="#8E6D31"/>
<path d="M73.3314 90H70V93.3314H73.3314V90Z" fill="#EB9811"/>
<path d="M69.9999 90H66.6685V93.3314H69.9999V90Z" fill="#EB9810"/>
<path d="M66.6629 90H63.3315V93.3314H66.6629V90Z" fill="#CE893D"/>
<path d="M63.3314 90H60V93.3314H63.3314V90Z" fill="#CE893D"/>
<path d="M59.9998 90H56.6685V93.3314H59.9998V90Z" fill="#CE893D"/>
<path d="M56.6629 90H53.3315V93.3314H56.6629V90Z" fill="#AD7435"/>
<path d="M53.3314 90H50V93.3314H53.3314V90Z" fill="#614015"/>
<path d="M49.9999 90H46.6685V93.3314H49.9999V90Z" fill="#543814"/>
<path d="M46.6629 90H43.3315V93.3314H46.6629V90Z" fill="#6E4927"/>
<path d="M43.3314 90H40V93.3314H43.3314V90Z" fill="#CE893D"/>
<path d="M39.9999 90H36.6685V93.3314H39.9999V90Z" fill="#CE893D"/>
<path d="M36.6629 90H33.3315V93.3314H36.6629V90Z" fill="#CE893D"/>
<path d="M33.3314 90H30V93.3314H33.3314V90Z" fill="#EB9811"/>
<path d="M29.9999 90H26.6685V93.3314H29.9999V90Z" fill="#EB9811"/>
<path d="M26.6629 90H23.3315V93.3314H26.6629V90Z" fill="#38261A"/>
<path d="M23.3314 90H20V93.3314H23.3314V90Z" fill="#3F3532"/>
<path d="M83.3314 86.6686H80V90H83.3314V86.6686Z" fill="#231815"/>
<path d="M79.9999 86.6686H76.6685V90H79.9999V86.6686Z" fill="#CE893D"/>
<path d="M76.6629 86.6686H73.3315V90H76.6629V86.6686Z" fill="#DB912A"/>
<path d="M73.3314 86.6686H70V90H73.3314V86.6686Z" fill="#E99917"/>
<path d="M69.9999 86.6686H66.6685V90H69.9999V86.6686Z" fill="#B87917"/>
<path d="M66.6629 86.6686H63.3315V90H66.6629V86.6686Z" fill="#BB8C2B"/>
<path d="M63.3314 86.6686H60V90H63.3314V86.6686Z" fill="#EEB332"/>
<path d="M59.9998 86.6686H56.6685V90H59.9998V86.6686Z" fill="#EFB332"/>
<path d="M56.6629 86.6686H53.3315V90H56.6629V86.6686Z" fill="#EEB331"/>
<path d="M53.3314 86.6686H50V90H53.3314V86.6686Z" fill="#EEB332"/>
<path d="M49.9999 86.6686H46.6685V90H49.9999V86.6686Z" fill="#EEB332"/>
<path d="M46.6629 86.6686H43.3315V90H46.6629V86.6686Z" fill="#EEB231"/>
<path d="M43.3314 86.6686H40V90H43.3314V86.6686Z" fill="#EEB332"/>
<path d="M39.9999 86.6686H36.6685V90H39.9999V86.6686Z" fill="#EEB332"/>
<path d="M36.6629 86.6686H33.3315V90H36.6629V86.6686Z" fill="#231815"/>
<path d="M33.3314 86.6686H30V90H33.3314V86.6686Z" fill="#231815"/>
<path d="M29.9999 86.6686H26.6685V90H29.9999V86.6686Z" fill="#E99917"/>
<path d="M26.6629 86.6686H23.3315V90H26.6629V86.6686Z" fill="#CE893D"/>
<path d="M23.3314 86.6686H20V90H23.3314V86.6686Z" fill="#CE893D"/>
<path d="M19.9999 86.6686H16.6685V90H19.9999V86.6686Z" fill="#231815"/>
<path d="M86.6629 83.3314H83.3315V86.6629H86.6629V83.3314Z" fill="#231815"/>
<path d="M83.3314 83.3314H80V86.6629H83.3314V83.3314Z" fill="#CE893D"/>
<path d="M79.9999 83.3314H76.6685V86.6629H79.9999V83.3314Z" fill="#CE893D"/>
<path d="M76.6629 83.3314H73.3315V86.6629H76.6629V83.3314Z" fill="#2E1F17"/>
<path d="M73.3314 83.3314H70V86.6629H73.3314V83.3314Z" fill="#EFB433"/>
<path d="M69.9999 83.3314H66.6685V86.6629H69.9999V83.3314Z" fill="#EFB434"/>
<path d="M66.6629 83.3314H63.3315V86.6629H66.6629V83.3314Z" fill="#EEB333"/>
<path d="M63.3314 83.3314H60V86.6629H63.3314V83.3314Z" fill="#EEB333"/>
<path d="M59.9998 83.3314H56.6685V86.6629H59.9998V83.3314Z" fill="#EFB433"/>
<path d="M56.6629 83.3314H53.3315V86.6629H56.6629V83.3314Z" fill="#EEB333"/>
<path d="M53.3314 83.3314H50V86.6629H53.3314V83.3314Z" fill="#EFB434"/>
<path d="M49.9999 83.3314H46.6685V86.6629H49.9999V83.3314Z" fill="#EFB433"/>
<path d="M46.6629 83.3314H43.3315V86.6629H46.6629V83.3314Z" fill="#EFB433"/>
<path d="M43.3314 83.3314H40V86.6629H43.3314V83.3314Z" fill="#EFB433"/>
<path d="M39.9999 83.3314H36.6685V86.6629H39.9999V83.3314Z" fill="#EFB433"/>
<path d="M36.6629 83.3314H33.3315V86.6629H36.6629V83.3314Z" fill="#EFB434"/>
<path d="M33.3314 83.3314H30V86.6629H33.3314V83.3314Z" fill="#EFB433"/>
<path d="M29.9999 83.3314H26.6685V86.6629H29.9999V83.3314Z" fill="#A37A28"/>
<path d="M26.6629 83.3314H23.3315V86.6629H26.6629V83.3314Z" fill="#231815"/>
<path d="M23.3314 83.3314H20V86.6629H23.3314V83.3314Z" fill="#CE893D"/>
<path d="M19.9999 83.3314H16.6685V86.6629H19.9999V83.3314Z" fill="#CE893D"/>
<path d="M16.6629 83.3314H13.3315V86.6629H16.6629V83.3314Z" fill="#231815"/>
<path d="M89.9998 80H86.6685V83.3314H89.9998V80Z" fill="#3C2814"/>
<path d="M86.6629 80H83.3315V83.3314H86.6629V80Z" fill="#CE893D"/>
<path d="M83.3314 80H80V83.3314H83.3314V80Z" fill="#CE893D"/>
<path d="M79.9999 80H76.6685V83.3314H79.9999V80Z" fill="#EFB535"/>
<path d="M76.6629 80H73.3315V83.3314H76.6629V80Z" fill="#F0B534"/>
<path d="M73.3314 80H70V83.3314H73.3314V80Z" fill="#EFB434"/>
<path d="M69.9999 80H66.6685V83.3314H69.9999V80Z" fill="#EFB534"/>
<path d="M66.6629 80H63.3315V83.3314H66.6629V80Z" fill="#EFB534"/>
<path d="M63.3314 80H60V83.3314H63.3314V80Z" fill="#EFB434"/>
<path d="M59.9998 80H56.6685V83.3314H59.9998V80Z" fill="#EFB535"/>
<path d="M56.6629 80H53.3315V83.3314H56.6629V80Z" fill="#EFB534"/>
<path d="M53.3314 80H50V83.3314H53.3314V80Z" fill="#EFB534"/>
<path d="M49.9999 80H46.6685V83.3314H49.9999V80Z" fill="#EFB535"/>
<path d="M46.6629 80H43.3315V83.3314H46.6629V80Z" fill="#EFB535"/>
<path d="M43.3314 80H40V83.3314H43.3314V80Z" fill="#EFB434"/>
<path d="M39.9999 80H36.6685V83.3314H39.9999V80Z" fill="#EFB434"/>
<path d="M36.6629 80H33.3315V83.3314H36.6629V80Z" fill="#EFB534"/>
<path d="M33.3314 80H30V83.3314H33.3314V80Z" fill="#EFB434"/>
<path d="M29.9999 80H26.6685V83.3314H29.9999V80Z" fill="#EFB535"/>
<path d="M26.6629 80H23.3315V83.3314H26.6629V80Z" fill="#EFB434"/>
<path d="M23.3314 80H20V83.3314H23.3314V80Z" fill="#3D2C19"/>
<path d="M19.9999 80H16.6685V83.3314H19.9999V80Z" fill="#231815"/>
<path d="M16.6629 80H13.3315V83.3314H16.6629V80Z" fill="#CE893D"/>
<path d="M13.3314 80H10V83.3314H13.3314V80Z" fill="#3C2814"/>
<path d="M93.3314 76.6686H90V80H93.3314V76.6686Z" fill="#837D7B"/>
<path d="M89.9998 76.6686H86.6685V80H89.9998V76.6686Z" fill="#8E6D31"/>
<path d="M86.6629 76.6686H83.3315V80H86.6629V76.6686Z" fill="#CE893D"/>
<path d="M83.3314 76.6686H80V80H83.3314V76.6686Z" fill="#F0B536"/>
<path d="M79.9999 76.6686H76.6685V80H79.9999V76.6686Z" fill="#F0B535"/>
<path d="M76.6629 76.6686H73.3315V80H76.6629V76.6686Z" fill="#F0B535"/>
<path d="M73.3314 76.6686H70V80H73.3314V76.6686Z" fill="#F0B536"/>
<path d="M69.9999 76.6686H66.6685V80H69.9999V76.6686Z" fill="#F0B536"/>
<path d="M66.6629 76.6686H63.3315V80H66.6629V76.6686Z" fill="#F0B536"/>
<path d="M63.3314 76.6686H60V80H63.3314V76.6686Z" fill="#E3AB34"/>
<path d="M59.9998 76.6686H56.6685V80H59.9998V76.6686Z" fill="#231815"/>
<path d="M56.6629 76.6686H53.3315V80H56.6629V76.6686Z" fill="#644010"/>
<path d="M53.3314 76.6686H50V80H53.3314V76.6686Z" fill="#D88806"/>
<path d="M49.9999 76.6686H46.6685V80H49.9999V76.6686Z" fill="#D88805"/>
<path d="M46.6629 76.6686H43.3315V80H46.6629V76.6686Z" fill="#644010"/>
<path d="M43.3314 76.6686H40V80H43.3314V76.6686Z" fill="#231815"/>
<path d="M39.9999 76.6686H36.6685V80H39.9999V76.6686Z" fill="#F0B535"/>
<path d="M36.6629 76.6686H33.3315V80H36.6629V76.6686Z" fill="#F0B536"/>
<path d="M33.3314 76.6686H30V80H33.3314V76.6686Z" fill="#F0B535"/>
<path d="M29.9999 76.6686H26.6685V80H29.9999V76.6686Z" fill="#F0B536"/>
<path d="M26.6629 76.6686H23.3315V80H26.6629V76.6686Z" fill="#F0B536"/>
<path d="M23.3314 76.6686H20V80H23.3314V76.6686Z" fill="#F0B536"/>
<path d="M19.9999 76.6686H16.6685V80H19.9999V76.6686Z" fill="#563F1D"/>
<path d="M16.6629 76.6686H13.3315V80H16.6629V76.6686Z" fill="#231815"/>
<path d="M13.3314 76.6686H10V80H13.3314V76.6686Z" fill="#EB9913"/>
<path d="M9.99985 76.6686H6.66846V80H9.99985V76.6686Z" fill="#231815"/>
<path d="M93.3314 73.3314H90V76.6629H93.3314V73.3314Z" fill="#E79A1C"/>
<path d="M89.9998 73.3314H86.6685V76.6629H89.9998V73.3314Z" fill="#E89A1A"/>
<path d="M86.6629 73.3314H83.3315V76.6629H86.6629V73.3314Z" fill="#F0B636"/>
<path d="M83.3314 73.3314H80V76.6629H83.3314V73.3314Z" fill="#F0B636"/>
<path d="M79.9999 73.3314H76.6685V76.6629H79.9999V73.3314Z" fill="#F0B637"/>
<path d="M76.6629 73.3314H73.3315V76.6629H76.6629V73.3314Z" fill="#F0B637"/>
<path d="M73.3314 73.3314H70V76.6629H73.3314V73.3314Z" fill="#F0B637"/>
<path d="M69.9999 73.3314H66.6685V76.6629H69.9999V73.3314Z" fill="#231815"/>
<path d="M66.6629 73.3314H63.3315V76.6629H66.6629V73.3314Z" fill="#F29803"/>
<path d="M63.3314 73.3314H60V76.6629H63.3314V73.3314Z" fill="#F29906"/>
<path d="M59.9998 73.3314H56.6685V76.6629H59.9998V73.3314Z" fill="#F29A08"/>
<path d="M56.6629 73.3314H53.3315V76.6629H56.6629V73.3314Z" fill="#F29B09"/>
<path d="M53.3314 73.3314H50V76.6629H53.3314V73.3314Z" fill="#F39C0A"/>
<path d="M49.9999 73.3314H46.6685V76.6629H49.9999V73.3314Z" fill="#CB830C"/>
<path d="M46.6629 73.3314H43.3315V76.6629H46.6629V73.3314Z" fill="#F39B09"/>
<path d="M43.3314 73.3314H40V76.6629H43.3314V73.3314Z" fill="#F29B08"/>
<path d="M39.9999 73.3314H36.6685V76.6629H39.9999V73.3314Z" fill="#F29906"/>
<path d="M36.6629 73.3314H33.3315V76.6629H36.6629V73.3314Z" fill="#F29803"/>
<path d="M33.3314 73.3314H30V76.6629H33.3314V73.3314Z" fill="#231815"/>
<path d="M29.9999 73.3314H26.6685V76.6629H29.9999V73.3314Z" fill="#F0B637"/>
<path d="M26.6629 73.3314H23.3315V76.6629H26.6629V73.3314Z" fill="#F0B637"/>
<path d="M23.3314 73.3314H20V76.6629H23.3314V73.3314Z" fill="#F0B637"/>
<path d="M19.9999 73.3314H16.6685V76.6629H19.9999V73.3314Z" fill="#F0B637"/>
<path d="M16.6629 73.3314H13.3315V76.6629H16.6629V73.3314Z" fill="#896725"/>
<path d="M13.3314 73.3314H10V76.6629H13.3314V73.3314Z" fill="#231815"/>
<path d="M9.99985 73.3314H6.66846V76.6629H9.99985V73.3314Z" fill="#E79A1E"/>
<path d="M96.6629 70H93.3315V73.3314H96.6629V70Z" fill="#231815"/>
<path d="M93.3314 70H90V73.3314H93.3314V70Z" fill="#E59B25"/>
<path d="M89.9998 70H86.6685V73.3314H89.9998V70Z" fill="#F1B738"/>
<path d="M86.6629 70H83.3315V73.3314H86.6629V70Z" fill="#F1B739"/>
<path d="M83.3314 70H80V73.3314H83.3314V70Z" fill="#F1B638"/>
<path d="M79.9999 70H76.6685V73.3314H79.9999V70Z" fill="#F1B738"/>
<path d="M76.6629 70H73.3315V73.3314H76.6629V70Z" fill="#231815"/>
<path d="M73.3314 70H70V73.3314H73.3314V70Z" fill="#231815"/>
<path d="M69.9999 70H66.6685V73.3314H69.9999V70Z" fill="#F29905"/>
<path d="M66.6629 70H63.3315V73.3314H66.6629V70Z" fill="#F39C09"/>
<path d="M63.3314 70H60V73.3314H63.3314V70Z" fill="#E6950C"/>
<path d="M59.9998 70H56.6685V73.3314H59.9998V70Z" fill="#231815"/>
<path d="M56.6629 70H53.3315V73.3314H56.6629V70Z" fill="#F9DF13"/>
<path d="M53.3314 70H50V73.3314H53.3314V70Z" fill="#F9E010"/>
<path d="M49.9999 70H46.6685V73.3314H49.9999V70Z" fill="#F9E10F"/>
<path d="M46.6629 70H43.3315V73.3314H46.6629V70Z" fill="#F9E30D"/>
<path d="M43.3314 70H40V73.3314H43.3314V70Z" fill="#FAE40C"/>
<path d="M39.9999 70H36.6685V73.3314H39.9999V70Z" fill="#584B13"/>
<path d="M36.6629 70H33.3315V73.3314H36.6629V70Z" fill="#F39C09"/>
<path d="M33.3314 70H30V73.3314H33.3314V70Z" fill="#F29A06"/>
<path d="M29.9999 70H26.6685V73.3314H29.9999V70Z" fill="#3D2813"/>
<path d="M26.6629 70H23.3315V73.3314H26.6629V70Z" fill="#F1B738"/>
<path d="M23.3314 70H20V73.3314H23.3314V70Z" fill="#F1B739"/>
<path d="M19.9999 70H16.6685V73.3314H19.9999V70Z" fill="#F1B738"/>
<path d="M16.6629 70H13.3315V73.3314H16.6629V70Z" fill="#F0B638"/>
<path d="M13.3314 70H10V73.3314H13.3314V70Z" fill="#A47C2C"/>
<path d="M9.99985 70H6.66846V73.3314H9.99985V70Z" fill="#473118"/>
<path d="M6.66294 70H3.33154V73.3314H6.66294V70Z" fill="#231815"/>
<path d="M96.6629 66.6686H93.3315V70H96.6629V66.6686Z" fill="#E29C2D"/>
<path d="M93.3314 66.6686H90V70H93.3314V66.6686Z" fill="#7D5E25"/>
<path d="M89.9998 66.6686H86.6685V70H89.9998V66.6686Z" fill="#F1B839"/>
<path d="M86.6629 66.6686H83.3315V70H86.6629V66.6686Z" fill="#F1B839"/>
<path d="M83.3314 66.6686H80V70H83.3314V66.6686Z" fill="#F1B73A"/>
<path d="M79.9999 66.6686H76.6685V70H79.9999V66.6686Z" fill="#3D2C1A"/>
<path d="M76.6629 66.6686H73.3315V70H76.6629V66.6686Z" fill="#F29803"/>
<path d="M73.3314 66.6686H70V70H73.3314V66.6686Z" fill="#F39A07"/>
<path d="M69.9999 66.6686H66.6685V70H69.9999V66.6686Z" fill="#F39D0B"/>
<path d="M66.6629 66.6686H63.3315V70H66.6629V66.6686Z" fill="#231815"/>
<path d="M63.3314 66.6686H60V70H63.3314V66.6686Z" fill="#F8D91A"/>
<path d="M59.9998 66.6686H56.6685V70H59.9998V66.6686Z" fill="#F9DB18"/>
<path d="M56.6629 66.6686H53.3315V70H56.6629V66.6686Z" fill="#F9DC15"/>
<path d="M53.3314 66.6686H50V70H53.3314V66.6686Z" fill="#F9DE14"/>
<path d="M49.9999 66.6686H46.6685V70H49.9999V66.6686Z" fill="#F9DF13"/>
<path d="M46.6629 66.6686H43.3315V70H46.6629V66.6686Z" fill="#F9E011"/>
<path d="M43.3314 66.6686H40V70H43.3314V66.6686Z" fill="#F9E20E"/>
<path d="M39.9999 66.6686H36.6685V70H39.9999V66.6686Z" fill="#F9E30C"/>
<path d="M36.6629 66.6686H33.3315V70H36.6629V66.6686Z" fill="#FAE50B"/>
<path d="M33.3314 66.6686H30V70H33.3314V66.6686Z" fill="#231815"/>
<path d="M29.9999 66.6686H26.6685V70H29.9999V66.6686Z" fill="#F39A07"/>
<path d="M26.6629 66.6686H23.3315V70H26.6629V66.6686Z" fill="#231815"/>
<path d="M23.3314 66.6686H20V70H23.3314V66.6686Z" fill="#231815"/>
<path d="M19.9999 66.6686H16.6685V70H19.9999V66.6686Z" fill="#F2B83A"/>
<path d="M16.6629 66.6686H13.3315V70H16.6629V66.6686Z" fill="#F1B73A"/>
<path d="M13.3314 66.6686H10V70H13.3314V66.6686Z" fill="#F1B739"/>
<path d="M9.99985 66.6686H6.66846V70H9.99985V66.6686Z" fill="#231815"/>
<path d="M6.66294 66.6686H3.33154V70H6.66294V66.6686Z" fill="#E19C2E"/>
<path d="M99.9998 63.3314H96.6685V66.6629H99.9998V63.3314Z" fill="#231815"/>
<path d="M96.6629 63.3314H93.3315V66.6629H96.6629V63.3314Z" fill="#996B27"/>
<path d="M93.3314 63.3314H90V66.6629H93.3314V63.3314Z" fill="#F2B93B"/>
<path d="M89.9998 63.3314H86.6685V66.6629H89.9998V63.3314Z" fill="#F2B83B"/>
<path d="M86.6629 63.3314H83.3315V66.6629H86.6629V63.3314Z" fill="#F2B83B"/>
<path d="M83.3314 63.3314H80V66.6629H83.3314V63.3314Z" fill="#F2B83B"/>
<path d="M79.9999 63.3314H76.6685V66.6629H79.9999V63.3314Z" fill="#8A580C"/>
<path d="M76.6629 63.3314H73.3315V66.6629H76.6629V63.3314Z" fill="#F29A06"/>
<path d="M73.3314 63.3314H70V66.6629H73.3314V63.3314Z" fill="#F39C0B"/>
<path d="M69.9999 63.3314H66.6685V66.6629H69.9999V63.3314Z" fill="#231815"/>
<path d="M66.6629 63.3314H63.3315V66.6629H66.6629V63.3314Z" fill="#F8D61F"/>
<path d="M63.3314 63.3314H60V66.6629H63.3314V63.3314Z" fill="#F8D71D"/>
<path d="M59.9998 63.3314H56.6685V66.6629H59.9998V63.3314Z" fill="#F8D81B"/>
<path d="M56.6629 63.3314H53.3315V66.6629H56.6629V63.3314Z" fill="#F5BA1C"/>
<path d="M53.3314 63.3314H50V66.6629H53.3314V63.3314Z" fill="#F5BA1C"/>
<path d="M49.9999 63.3314H46.6685V66.6629H49.9999V63.3314Z" fill="#F9DC16"/>
<path d="M46.6629 63.3314H43.3315V66.6629H46.6629V63.3314Z" fill="#F9DE14"/>
<path d="M43.3314 63.3314H40V66.6629H43.3314V63.3314Z" fill="#F9DF12"/>
<path d="M39.9999 63.3314H36.6685V66.6629H39.9999V63.3314Z" fill="#F9E110"/>
<path d="M36.6629 63.3314H33.3315V66.6629H36.6629V63.3314Z" fill="#F9E20F"/>
<path d="M33.3314 63.3314H30V66.6629H33.3314V63.3314Z" fill="#F9E40D"/>
<path d="M29.9999 63.3314H26.6685V66.6629H29.9999V63.3314Z" fill="#231815"/>
<path d="M26.6629 63.3314H23.3315V66.6629H26.6629V63.3314Z" fill="#F29906"/>
<path d="M23.3314 63.3314H20V66.6629H23.3314V63.3314Z" fill="#B16F08"/>
<path d="M19.9999 63.3314H16.6685V66.6629H19.9999V63.3314Z" fill="#F2B83B"/>
<path d="M16.6629 63.3314H13.3315V66.6629H16.6629V63.3314Z" fill="#F2B93B"/>
<path d="M13.3314 63.3314H10V66.6629H13.3314V63.3314Z" fill="#F2B83B"/>
<path d="M9.99985 63.3314H6.66846V66.6629H9.99985V63.3314Z" fill="#F2B93B"/>
<path d="M6.66294 63.3314H3.33154V66.6629H6.66294V63.3314Z" fill="#231815"/>
<path d="M3.3314 63.3314H0V66.6629H3.3314V63.3314Z" fill="#8E6D31"/>
<path d="M99.9998 60H96.6685V63.3314H99.9998V60Z" fill="#231815"/>
<path d="M96.6629 60H93.3315V63.3314H96.6629V60Z" fill="#3D2C1A"/>
<path d="M93.3314 60H90V63.3314H93.3314V60Z" fill="#F2B93C"/>
<path d="M89.9998 60H86.6685V63.3314H89.9998V60Z" fill="#F2B93C"/>
<path d="M86.6629 60H83.3315V63.3314H86.6629V60Z" fill="#F2B93C"/>
<path d="M83.3314 60H80V63.3314H83.3314V60Z" fill="#231815"/>
<path d="M79.9999 60H76.6685V63.3314H79.9999V60Z" fill="#F29905"/>
<path d="M76.6629 60H73.3315V63.3314H76.6629V60Z" fill="#F39C0B"/>
<path d="M73.3314 60H70V63.3314H73.3314V60Z" fill="#231815"/>
<path d="M69.9999 60H66.6685V63.3314H69.9999V60Z" fill="#F5AE1A"/>
<path d="M66.6629 60H63.3315V63.3314H66.6629V60Z" fill="#F4A51A"/>
<path d="M63.3314 60H60V63.3314H63.3314V60Z" fill="#F4A61D"/>
<path d="M59.9998 60H56.6685V63.3314H59.9998V60Z" fill="#F4A821"/>
<path d="M56.6629 60H53.3315V63.3314H56.6629V60Z" fill="#F4AA24"/>
<path d="M53.3314 60H50V63.3314H53.3314V60Z" fill="#F5AB25"/>
<path d="M49.9999 60H46.6685V63.3314H49.9999V60Z" fill="#F4AA25"/>
<path d="M46.6629 60H43.3315V63.3314H46.6629V60Z" fill="#F4AA24"/>
<path d="M43.3314 60H40V63.3314H43.3314V60Z" fill="#F6C01C"/>
<path d="M39.9999 60H36.6685V63.3314H39.9999V60Z" fill="#F9DF13"/>
<path d="M36.6629 60H33.3315V63.3314H36.6629V60Z" fill="#F9DF12"/>
<path d="M33.3314 60H30V63.3314H33.3314V60Z" fill="#F9E110"/>
<path d="M29.9999 60H26.6685V63.3314H29.9999V60Z" fill="#F9E20E"/>
<path d="M26.6629 60H23.3315V63.3314H26.6629V60Z" fill="#F39C0A"/>
<path d="M23.3314 60H20V63.3314H23.3314V60Z" fill="#F29905"/>
<path d="M19.9999 60H16.6685V63.3314H19.9999V60Z" fill="#231815"/>
<path d="M16.6629 60H13.3315V63.3314H16.6629V60Z" fill="#F2B93C"/>
<path d="M13.3314 60H10V63.3314H13.3314V60Z" fill="#F2B93C"/>
<path d="M9.99985 60H6.66846V63.3314H9.99985V60Z" fill="#F2B93C"/>
<path d="M6.66294 60H3.33154V63.3314H6.66294V60Z" fill="#231815"/>
<path d="M3.3314 60H0V63.3314H3.3314V60Z" fill="#231815"/>
<path d="M99.9998 56.6686H96.6685V60H99.9998V56.6686Z" fill="#2F2016"/>
<path d="M96.6629 56.6686H93.3315V60H96.6629V56.6686Z" fill="#F3BA3D"/>
<path d="M93.3314 56.6686H90V60H93.3314V56.6686Z" fill="#F3BA3E"/>
<path d="M89.9998 56.6686H86.6685V60H89.9998V56.6686Z" fill="#F3BA3D"/>
<path d="M86.6629 56.6686H83.3315V60H86.6629V56.6686Z" fill="#D9A638"/>
<path d="M83.3314 56.6686H80V60H83.3314V56.6686Z" fill="#D88704"/>
<path d="M79.9999 56.6686H76.6685V60H79.9999V56.6686Z" fill="#F39B08"/>
<path d="M76.6629 56.6686H73.3315V60H76.6629V56.6686Z" fill="#F39E0D"/>
<path d="M73.3314 56.6686H70V60H73.3314V56.6686Z" fill="#F3A113"/>
<path d="M69.9999 56.6686H66.6685V60H69.9999V56.6686Z" fill="#F4A418"/>
<path d="M66.6629 56.6686H63.3315V60H66.6629V56.6686Z" fill="#F4A71E"/>
<path d="M63.3314 56.6686H60V60H63.3314V56.6686Z" fill="#F4A922"/>
<path d="M59.9998 56.6686H56.6685V60H59.9998V56.6686Z" fill="#F4AB26"/>
<path d="M56.6629 56.6686H53.3315V60H56.6629V56.6686Z" fill="#F4AC28"/>
<path d="M53.3314 56.6686H50V60H53.3314V56.6686Z" fill="#F5AE29"/>
<path d="M49.9999 56.6686H46.6685V60H49.9999V56.6686Z" fill="#F5AE2A"/>
<path d="M46.6629 56.6686H43.3315V60H46.6629V56.6686Z" fill="#F4AC28"/>
<path d="M43.3314 56.6686H40V60H43.3314V56.6686Z" fill="#F5AB26"/>
<path d="M39.9999 56.6686H36.6685V60H39.9999V56.6686Z" fill="#F9DC16"/>
<path d="M36.6629 56.6686H33.3315V60H36.6629V56.6686Z" fill="#F9DE14"/>
<path d="M33.3314 56.6686H30V60H33.3314V56.6686Z" fill="#F9DF13"/>
<path d="M29.9999 56.6686H26.6685V60H29.9999V56.6686Z" fill="#F9E010"/>
<path d="M26.6629 56.6686H23.3315V60H26.6629V56.6686Z" fill="#302014"/>
<path d="M23.3314 56.6686H20V60H23.3314V56.6686Z" fill="#F39B08"/>
<path d="M19.9999 56.6686H16.6685V60H19.9999V56.6686Z" fill="#E58F03"/>
<path d="M16.6629 56.6686H13.3315V60H16.6629V56.6686Z" fill="#E6B03A"/>
<path d="M13.3314 56.6686H10V60H13.3314V56.6686Z" fill="#F3BA3E"/>
<path d="M9.99985 56.6686H6.66846V60H9.99985V56.6686Z" fill="#F3BA3D"/>
<path d="M6.66294 56.6686H3.33154V60H6.66294V56.6686Z" fill="#E6B03B"/>
<path d="M3.3314 56.6686H0V60H3.3314V56.6686Z" fill="#3B2919"/>
<path d="M99.9998 53.3314H96.6685V56.6629H99.9998V53.3314Z" fill="#231815"/>
<path d="M96.6629 53.3314H93.3315V56.6629H96.6629V53.3314Z" fill="#F3BB3E"/>
<path d="M93.3314 53.3314H90V56.6629H93.3314V53.3314Z" fill="#F3BA3F"/>
<path d="M89.9998 53.3314H86.6685V56.6629H89.9998V53.3314Z" fill="#F3BA3E"/>
<path d="M86.6629 53.3314H83.3315V56.6629H86.6629V53.3314Z" fill="#231815"/>
<path d="M83.3314 53.3314H80V56.6629H83.3314V53.3314Z" fill="#F29804"/>
<path d="M79.9999 53.3314H76.6685V56.6629H79.9999V53.3314Z" fill="#F39C0A"/>
<path d="M76.6629 53.3314H73.3315V56.6629H76.6629V53.3314Z" fill="#F39F11"/>
<path d="M73.3314 53.3314H70V56.6629H73.3314V53.3314Z" fill="#F3A216"/>
<path d="M69.9999 53.3314H66.6685V56.6629H69.9999V53.3314Z" fill="#F4A61C"/>
<path d="M66.6629 53.3314H63.3315V56.6629H66.6629V53.3314Z" fill="#F4A921"/>
<path d="M63.3314 53.3314H60V56.6629H63.3314V53.3314Z" fill="#DA9924"/>
<path d="M59.9998 53.3314H56.6685V56.6629H59.9998V53.3314Z" fill="#F5AE2A"/>
<path d="M56.6629 53.3314H53.3315V56.6629H56.6629V53.3314Z" fill="#F5B02E"/>
<path d="M53.3314 53.3314H50V56.6629H53.3314V53.3314Z" fill="#F5B130"/>
<path d="M49.9999 53.3314H46.6685V56.6629H49.9999V53.3314Z" fill="#F5B130"/>
<path d="M46.6629 53.3314H43.3315V56.6629H46.6629V53.3314Z" fill="#F5B02E"/>
<path d="M43.3314 53.3314H40V56.6629H43.3314V53.3314Z" fill="#F5AE2B"/>
<path d="M39.9999 53.3314H36.6685V56.6629H39.9999V53.3314Z" fill="#F4AB26"/>
<path d="M36.6629 53.3314H33.3315V56.6629H36.6629V53.3314Z" fill="#F9DB17"/>
<path d="M33.3314 53.3314H30V56.6629H33.3314V53.3314Z" fill="#F9DD16"/>
<path d="M29.9999 53.3314H26.6685V56.6629H29.9999V53.3314Z" fill="#F9DE14"/>
<path d="M26.6629 53.3314H23.3315V56.6629H26.6629V53.3314Z" fill="#594A14"/>
<path d="M23.3314 53.3314H20V56.6629H23.3314V53.3314Z" fill="#F29C0A"/>
<path d="M19.9999 53.3314H16.6685V56.6629H19.9999V53.3314Z" fill="#F29803"/>
<path d="M16.6629 53.3314H13.3315V56.6629H16.6629V53.3314Z" fill="#231815"/>
<path d="M13.3314 53.3314H10V56.6629H13.3314V53.3314Z" fill="#F3BB3F"/>
<path d="M9.99985 53.3314H6.66846V56.6629H9.99985V53.3314Z" fill="#F4BB3E"/>
<path d="M6.66294 53.3314H3.33154V56.6629H6.66294V53.3314Z" fill="#F3BB3F"/>
<path d="M3.3314 53.3314H0V56.6629H3.3314V53.3314Z" fill="#231815"/>
<path d="M99.9998 50H96.6685V53.3314H99.9998V50Z" fill="#231815"/>
<path d="M96.6629 50H93.3315V53.3314H96.6629V50Z" fill="#F4BB40"/>
<path d="M93.3314 50H90V53.3314H93.3314V50Z" fill="#F4BB40"/>
<path d="M89.9998 50H86.6685V53.3314H89.9998V50Z" fill="#F4BC40"/>
<path d="M86.6629 50H83.3315V53.3314H86.6629V50Z" fill="#231815"/>
<path d="M83.3314 50H80V53.3314H83.3314V50Z" fill="#F39905"/>
<path d="M79.9999 50H76.6685V53.3314H79.9999V50Z" fill="#F39D0C"/>
<path d="M76.6629 50H73.3315V53.3314H76.6629V50Z" fill="#231815"/>
<path d="M73.3314 50H70V53.3314H73.3314V50Z" fill="#F3A318"/>
<path d="M69.9999 50H66.6685V53.3314H69.9999V50Z" fill="#F3A71F"/>
<path d="M66.6629 50H63.3315V53.3314H66.6629V50Z" fill="#B37D20"/>
<path d="M63.3314 50H60V53.3314H63.3314V50Z" fill="#F8CE29"/>
<path d="M59.9998 50H56.6685V53.3314H59.9998V50Z" fill="#F5B02E"/>
<path d="M56.6629 50H53.3315V53.3314H56.6629V50Z" fill="#F6B333"/>
<path d="M53.3314 50H50V53.3314H53.3314V50Z" fill="#F5B435"/>
<path d="M49.9999 50H46.6685V53.3314H49.9999V50Z" fill="#F5B436"/>
<path d="M46.6629 50H43.3315V53.3314H46.6629V50Z" fill="#F6B333"/>
<path d="M43.3314 50H40V53.3314H43.3314V50Z" fill="#F5B02F"/>
<path d="M39.9999 50H36.6685V53.3314H39.9999V50Z" fill="#F4AD29"/>
<path d="M36.6629 50H33.3315V53.3314H36.6629V50Z" fill="#F7CD1E"/>
<path d="M33.3314 50H30V53.3314H33.3314V50Z" fill="#F9DA19"/>
<path d="M29.9999 50H26.6685V53.3314H29.9999V50Z" fill="#F9DC17"/>
<path d="M26.6629 50H23.3315V53.3314H26.6629V50Z" fill="#F8DD15"/>
<path d="M23.3314 50H20V53.3314H23.3314V50Z" fill="#F29D0C"/>
<path d="M19.9999 50H16.6685V53.3314H19.9999V50Z" fill="#F29906"/>
<path d="M16.6629 50H13.3315V53.3314H16.6629V50Z" fill="#231815"/>
<path d="M13.3314 50H10V53.3314H13.3314V50Z" fill="#F4BB40"/>
<path d="M9.99985 50H6.66846V53.3314H9.99985V50Z" fill="#F4BB40"/>
<path d="M6.66294 50H3.33154V53.3314H6.66294V50Z" fill="#F4BC40"/>
<path d="M3.3314 50H0V53.3314H3.3314V50Z" fill="#231815"/>
<path d="M99.9998 46.6686H96.6685V50H99.9998V46.6686Z" fill="#231815"/>
<path d="M96.6629 46.6686H93.3315V50H96.6629V46.6686Z" fill="#F4BC41"/>
<path d="M93.3314 46.6686H90V50H93.3314V46.6686Z" fill="#F5BC41"/>
<path d="M89.9998 46.6686H86.6685V50H89.9998V46.6686Z" fill="#F5BC41"/>
<path d="M86.6629 46.6686H83.3315V50H86.6629V46.6686Z" fill="#231815"/>
<path d="M83.3314 46.6686H80V50H83.3314V46.6686Z" fill="#F29A06"/>
<path d="M79.9999 46.6686H76.6685V50H79.9999V46.6686Z" fill="#F39D0C"/>
<path d="M76.6629 46.6686H73.3315V50H76.6629V46.6686Z" fill="#3D2D19"/>
<path d="M73.3314 46.6686H70V50H73.3314V46.6686Z" fill="#231815"/>
<path d="M69.9999 46.6686H66.6685V50H69.9999V46.6686Z" fill="#F4A820"/>
<path d="M66.6629 46.6686H63.3315V50H66.6629V46.6686Z" fill="#231815"/>
<path d="M63.3314 46.6686H60V50H63.3314V46.6686Z" fill="#F7CB2C"/>
<path d="M59.9998 46.6686H56.6685V50H59.9998V46.6686Z" fill="#F5B131"/>
<path d="M56.6629 46.6686H53.3315V50H56.6629V46.6686Z" fill="#F5B436"/>
<path d="M53.3314 46.6686H50V50H53.3314V46.6686Z" fill="#F6B73B"/>
<path d="M49.9999 46.6686H46.6685V50H49.9999V46.6686Z" fill="#F6B73B"/>
<path d="M46.6629 46.6686H43.3315V50H46.6629V46.6686Z" fill="#F6B537"/>
<path d="M43.3314 46.6686H40V50H43.3314V46.6686Z" fill="#F5B231"/>
<path d="M39.9999 46.6686H36.6685V50H39.9999V46.6686Z" fill="#F5AE2C"/>
<path d="M36.6629 46.6686H33.3315V50H36.6629V46.6686Z" fill="#231815"/>
<path d="M33.3314 46.6686H30V50H33.3314V46.6686Z" fill="#F8D71C"/>
<path d="M29.9999 46.6686H26.6685V50H29.9999V46.6686Z" fill="#F8D91A"/>
<path d="M26.6629 46.6686H23.3315V50H26.6629V46.6686Z" fill="#F9DA18"/>
<path d="M23.3314 46.6686H20V50H23.3314V46.6686Z" fill="#F39D0D"/>
<path d="M19.9999 46.6686H16.6685V50H19.9999V46.6686Z" fill="#F29A06"/>
<path d="M16.6629 46.6686H13.3315V50H16.6629V46.6686Z" fill="#231815"/>
<path d="M13.3314 46.6686H10V50H13.3314V46.6686Z" fill="#F5BC42"/>
<path d="M9.99985 46.6686H6.66846V50H9.99985V46.6686Z" fill="#F5BC41"/>
<path d="M6.66294 46.6686H3.33154V50H6.66294V46.6686Z" fill="#F5BC41"/>
<path d="M3.3314 46.6686H0V50H3.3314V46.6686Z" fill="#231815"/>
<path d="M99.9998 43.3314H96.6685V46.6629H99.9998V43.3314Z" fill="#231815"/>
<path d="M96.6629 43.3314H93.3315V46.6629H96.6629V43.3314Z" fill="#F5BD41"/>
<path d="M93.3314 43.3314H90V46.6629H93.3314V43.3314Z" fill="#F5BD42"/>
<path d="M89.9998 43.3314H86.6685V46.6629H89.9998V43.3314Z" fill="#F4BC42"/>
<path d="M86.6629 43.3314H83.3315V46.6629H86.6629V43.3314Z" fill="#231815"/>
<path d="M83.3314 43.3314H80V46.6629H83.3314V43.3314Z" fill="#F29A06"/>
<path d="M79.9999 43.3314H76.6685V46.6629H79.9999V43.3314Z" fill="#F29D0D"/>
<path d="M76.6629 43.3314H73.3315V46.6629H76.6629V43.3314Z" fill="#F6C336"/>
<path d="M73.3314 43.3314H70V46.6629H73.3314V43.3314Z" fill="#F7C435"/>
<path d="M69.9999 43.3314H66.6685V46.6629H69.9999V43.3314Z" fill="#F4A820"/>
<path d="M66.6629 43.3314H63.3315V46.6629H66.6629V43.3314Z" fill="#231815"/>
<path d="M63.3314 43.3314H60V46.6629H63.3314V43.3314Z" fill="#F7C930"/>
<path d="M59.9998 43.3314H56.6685V46.6629H59.9998V43.3314Z" fill="#231815"/>
<path d="M56.6629 43.3314H53.3315V46.6629H56.6629V43.3314Z" fill="#F5B537"/>
<path d="M53.3314 43.3314H50V46.6629H53.3314V43.3314Z" fill="#F6B83D"/>
<path d="M49.9999 43.3314H46.6685V46.6629H49.9999V43.3314Z" fill="#58401F"/>
<path d="M46.6629 43.3314H43.3315V46.6629H46.6629V43.3314Z" fill="#302217"/>
<path d="M43.3314 43.3314H40V46.6629H43.3314V43.3314Z" fill="#F5B232"/>
<path d="M39.9999 43.3314H36.6685V46.6629H39.9999V43.3314Z" fill="#F5AF2C"/>
<path d="M36.6629 43.3314H33.3315V46.6629H36.6629V43.3314Z" fill="#231815"/>
<path d="M33.3314 43.3314H30V46.6629H33.3314V43.3314Z" fill="#F8D520"/>
<path d="M29.9999 43.3314H26.6685V46.6629H29.9999V43.3314Z" fill="#F8D61D"/>
<path d="M26.6629 43.3314H23.3315V46.6629H26.6629V43.3314Z" fill="#F8D81B"/>
<path d="M23.3314 43.3314H20V46.6629H23.3314V43.3314Z" fill="#F39D0D"/>
<path d="M19.9999 43.3314H16.6685V46.6629H19.9999V43.3314Z" fill="#F39A07"/>
<path d="M16.6629 43.3314H13.3315V46.6629H16.6629V43.3314Z" fill="#231815"/>
<path d="M13.3314 43.3314H10V46.6629H13.3314V43.3314Z" fill="#F5BD42"/>
<path d="M9.99985 43.3314H6.66846V46.6629H9.99985V43.3314Z" fill="#F5BD42"/>
<path d="M6.66294 43.3314H3.33154V46.6629H6.66294V43.3314Z" fill="#F5BD42"/>
<path d="M3.3314 43.3314H0V46.6629H3.3314V43.3314Z" fill="#231815"/>
<path d="M99.9998 40H96.6685V43.3314H99.9998V40Z" fill="#231815"/>
<path d="M96.6629 40H93.3315V43.3314H96.6629V40Z" fill="#F5BD43"/>
<path d="M93.3314 40H90V43.3314H93.3314V40Z" fill="#F5BD43"/>
<path d="M89.9998 40H86.6685V43.3314H89.9998V40Z" fill="#F5BD44"/>
<path d="M86.6629 40H83.3315V43.3314H86.6629V40Z" fill="#231815"/>
<path d="M83.3314 40H80V43.3314H83.3314V40Z" fill="#F39906"/>
<path d="M79.9999 40H76.6685V43.3314H79.9999V40Z" fill="#F29D0C"/>
<path d="M76.6629 40H73.3315V43.3314H76.6629V40Z" fill="#F7C13A"/>
<path d="M73.3314 40H70V43.3314H73.3314V40Z" fill="#F7C339"/>
<path d="M69.9999 40H66.6685V43.3314H69.9999V40Z" fill="#F4A720"/>
<path d="M66.6629 40H63.3315V43.3314H66.6629V40Z" fill="#F7C535"/>
<path d="M63.3314 40H60V43.3314H63.3314V40Z" fill="#F7C633"/>
<path d="M59.9998 40H56.6685V43.3314H59.9998V40Z" fill="#806522"/>
<path d="M56.6629 40H53.3315V43.3314H56.6629V40Z" fill="#F5B334"/>
<path d="M53.3314 40H50V43.3314H53.3314V40Z" fill="#F5B538"/>
<path d="M49.9999 40H46.6685V43.3314H49.9999V40Z" fill="#231815"/>
<path d="M46.6629 40H43.3315V43.3314H46.6629V40Z" fill="#231815"/>
<path d="M43.3314 40H40V43.3314H43.3314V40Z" fill="#F5B130"/>
<path d="M39.9999 40H36.6685V43.3314H39.9999V40Z" fill="#F4AE2A"/>
<path d="M36.6629 40H33.3315V43.3314H36.6629V40Z" fill="#231815"/>
<path d="M33.3314 40H30V43.3314H33.3314V40Z" fill="#F8D323"/>
<path d="M29.9999 40H26.6685V43.3314H29.9999V40Z" fill="#F8D521"/>
<path d="M26.6629 40H23.3315V43.3314H26.6629V40Z" fill="#4B3C17"/>
<path d="M23.3314 40H20V43.3314H23.3314V40Z" fill="#F39D0C"/>
<path d="M19.9999 40H16.6685V43.3314H19.9999V40Z" fill="#F29906"/>
<path d="M16.6629 40H13.3315V43.3314H16.6629V40Z" fill="#231815"/>
<path d="M13.3314 40H10V43.3314H13.3314V40Z" fill="#F5BD43"/>
<path d="M9.99985 40H6.66846V43.3314H9.99985V40Z" fill="#F6BE44"/>
<path d="M6.66294 40H3.33154V43.3314H6.66294V40Z" fill="#F6BE43"/>
<path d="M3.3314 40H0V43.3314H3.3314V40Z" fill="#231815"/>
<path d="M99.9998 36.6686H96.6685V40H99.9998V36.6686Z" fill="#231815"/>
<path d="M96.6629 36.6686H93.3315V40H96.6629V36.6686Z" fill="#F6BE44"/>
<path d="M93.3314 36.6686H90V40H93.3314V36.6686Z" fill="#F5BD44"/>
<path d="M89.9998 36.6686H86.6685V40H89.9998V36.6686Z" fill="#F7BF45"/>
<path d="M86.6629 36.6686H83.3315V40H86.6629V36.6686Z" fill="#231815"/>
<path d="M83.3314 36.6686H80V40H83.3314V36.6686Z" fill="#F39905"/>
<path d="M79.9999 36.6686H76.6685V40H79.9999V36.6686Z" fill="#F39C0B"/>
<path d="M76.6629 36.6686H73.3315V40H76.6629V36.6686Z" fill="#F6BF3D"/>
<path d="M73.3314 36.6686H70V40H73.3314V36.6686Z" fill="#F7C03B"/>
<path d="M69.9999 36.6686H66.6685V40H69.9999V36.6686Z" fill="#231815"/>
<path d="M66.6629 36.6686H63.3315V40H66.6629V36.6686Z" fill="#F6C337"/>
<path d="M63.3314 36.6686H60V40H63.3314V36.6686Z" fill="#F7C436"/>
<path d="M59.9998 36.6686H56.6685V40H59.9998V36.6686Z" fill="#F7C533"/>
<path d="M56.6629 36.6686H53.3315V40H56.6629V36.6686Z" fill="#F5B231"/>
<path d="M53.3314 36.6686H50V40H53.3314V36.6686Z" fill="#F5B233"/>
<path d="M49.9999 36.6686H46.6685V40H49.9999V36.6686Z" fill="#725A1E"/>
<path d="M46.6629 36.6686H43.3315V40H46.6629V36.6686Z" fill="#F7CB2D"/>
<path d="M43.3314 36.6686H40V40H43.3314V36.6686Z" fill="#F4AF2D"/>
<path d="M39.9999 36.6686H36.6685V40H39.9999V36.6686Z" fill="#F5AD28"/>
<path d="M36.6629 36.6686H33.3315V40H36.6629V36.6686Z" fill="#231815"/>
<path d="M33.3314 36.6686H30V40H33.3314V36.6686Z" fill="#F8D125"/>
<path d="M29.9999 36.6686H26.6685V40H29.9999V36.6686Z" fill="#F8D223"/>
<path d="M26.6629 36.6686H23.3315V40H26.6629V36.6686Z" fill="#231815"/>
<path d="M23.3314 36.6686H20V40H23.3314V36.6686Z" fill="#F39C0B"/>
<path d="M19.9999 36.6686H16.6685V40H19.9999V36.6686Z" fill="#F29804"/>
<path d="M16.6629 36.6686H13.3315V40H16.6629V36.6686Z" fill="#231815"/>
<path d="M13.3314 36.6686H10V40H13.3314V36.6686Z" fill="#F6BE44"/>
<path d="M9.99985 36.6686H6.66846V40H9.99985V36.6686Z" fill="#F6BE44"/>
<path d="M6.66294 36.6686H3.33154V40H6.66294V36.6686Z" fill="#F6BE44"/>
<path d="M3.3314 36.6686H0V40H3.3314V36.6686Z" fill="#231815"/>
<path d="M99.9998 33.3314H96.6685V36.6629H99.9998V33.3314Z" fill="#8E6D31"/>
<path d="M96.6629 33.3314H93.3315V36.6629H96.6629V33.3314Z" fill="#F6BE45"/>
<path d="M93.3314 33.3314H90V36.6629H93.3314V33.3314Z" fill="#F6BF45"/>
<path d="M89.9998 33.3314H86.6685V36.6629H89.9998V33.3314Z" fill="#F7BF46"/>
<path d="M86.6629 33.3314H83.3315V36.6629H86.6629V33.3314Z" fill="#231815"/>
<path d="M83.3314 33.3314H80V36.6629H83.3314V33.3314Z" fill="#F29703"/>
<path d="M79.9999 33.3314H76.6685V36.6629H79.9999V33.3314Z" fill="#F39B09"/>
<path d="M76.6629 33.3314H73.3315V36.6629H76.6629V33.3314Z" fill="#F6BD40"/>
<path d="M73.3314 33.3314H70V36.6629H73.3314V33.3314Z" fill="#F6BD3E"/>
<path d="M69.9999 33.3314H66.6685V36.6629H69.9999V33.3314Z" fill="#231815"/>
<path d="M66.6629 33.3314H63.3315V36.6629H66.6629V33.3314Z" fill="#F6C03A"/>
<path d="M63.3314 33.3314H60V36.6629H63.3314V33.3314Z" fill="#F7C239"/>
<path d="M59.9998 33.3314H56.6685V36.6629H59.9998V33.3314Z" fill="#F7C337"/>
<path d="M56.6629 33.3314H53.3315V36.6629H56.6629V33.3314Z" fill="#A67623"/>
<path d="M53.3314 33.3314H50V36.6629H53.3314V33.3314Z" fill="#231815"/>
<path d="M49.9999 33.3314H46.6685V36.6629H49.9999V33.3314Z" fill="#F7C732"/>
<path d="M46.6629 33.3314H43.3315V36.6629H46.6629V33.3314Z" fill="#F7C930"/>
<path d="M43.3314 33.3314H40V36.6629H43.3314V33.3314Z" fill="#C08724"/>
<path d="M39.9999 33.3314H36.6685V36.6629H39.9999V33.3314Z" fill="#DA9923"/>
<path d="M36.6629 33.3314H33.3315V36.6629H36.6629V33.3314Z" fill="#F7CD2A"/>
<path d="M33.3314 33.3314H30V36.6629H33.3314V33.3314Z" fill="#F8CF28"/>
<path d="M29.9999 33.3314H26.6685V36.6629H29.9999V33.3314Z" fill="#F8D027"/>
<path d="M26.6629 33.3314H23.3315V36.6629H26.6629V33.3314Z" fill="#D98D0F"/>
<path d="M23.3314 33.3314H20V36.6629H23.3314V33.3314Z" fill="#F29B09"/>
<path d="M19.9999 33.3314H16.6685V36.6629H19.9999V33.3314Z" fill="#F29802"/>
<path d="M16.6629 33.3314H13.3315V36.6629H16.6629V33.3314Z" fill="#231815"/>
<path d="M13.3314 33.3314H10V36.6629H13.3314V33.3314Z" fill="#F7BF46"/>
<path d="M9.99985 33.3314H6.66846V36.6629H9.99985V33.3314Z" fill="#F7BF45"/>
<path d="M6.66294 33.3314H3.33154V36.6629H6.66294V33.3314Z" fill="#F6BF46"/>
<path d="M3.3314 33.3314H0V36.6629H3.3314V33.3314Z" fill="#231815"/>
<path d="M96.6629 30H93.3315V33.3314H96.6629V30Z" fill="#231815"/>
<path d="M93.3314 30H90V33.3314H93.3314V30Z" fill="#F7C047"/>
<path d="M89.9998 30H86.6685V33.3314H89.9998V30Z" fill="#F7C047"/>
<path d="M86.6629 30H83.3315V33.3314H86.6629V30Z" fill="#F7BF46"/>
<path d="M83.3314 30H80V33.3314H83.3314V30Z" fill="#231815"/>
<path d="M79.9999 30H76.6685V33.3314H79.9999V30Z" fill="#F29906"/>
<path d="M76.6629 30H73.3315V33.3314H76.6629V30Z" fill="#DCA73D"/>
<path d="M73.3314 30H70V33.3314H73.3314V30Z" fill="#F6BB42"/>
<path d="M69.9999 30H66.6685V33.3314H69.9999V30Z" fill="#F6BD40"/>
<path d="M66.6629 30H63.3315V33.3314H66.6629V30Z" fill="#F7BF3E"/>
<path d="M63.3314 30H60V33.3314H63.3314V30Z" fill="#F7BF3D"/>
<path d="M59.9998 30H56.6685V33.3314H59.9998V30Z" fill="#F7C13B"/>
<path d="M56.6629 30H53.3315V33.3314H56.6629V30Z" fill="#8D6D27"/>
<path d="M53.3314 30H50V33.3314H53.3314V30Z" fill="#231815"/>
<path d="M49.9999 30H46.6685V33.3314H49.9999V30Z" fill="#F7C535"/>
<path d="M46.6629 30H43.3315V33.3314H46.6629V30Z" fill="#F7C632"/>
<path d="M43.3314 30H40V33.3314H43.3314V30Z" fill="#F7C831"/>
<path d="M39.9999 30H36.6685V33.3314H39.9999V30Z" fill="#9A7B23"/>
<path d="M36.6629 30H33.3315V33.3314H36.6629V30Z" fill="#F7CA2E"/>
<path d="M33.3314 30H30V33.3314H33.3314V30Z" fill="#F7CC2C"/>
<path d="M29.9999 30H26.6685V33.3314H29.9999V30Z" fill="#231815"/>
<path d="M26.6629 30H23.3315V33.3314H26.6629V30Z" fill="#F39D0C"/>
<path d="M23.3314 30H20V33.3314H23.3314V30Z" fill="#F39A06"/>
<path d="M19.9999 30H16.6685V33.3314H19.9999V30Z" fill="#231815"/>
<path d="M16.6629 30H13.3315V33.3314H16.6629V30Z" fill="#F7C046"/>
<path d="M13.3314 30H10V33.3314H13.3314V30Z" fill="#F7C047"/>
<path d="M9.99985 30H6.66846V33.3314H9.99985V30Z" fill="#F7C047"/>
<path d="M6.66294 30H3.33154V33.3314H6.66294V30Z" fill="#DDAA41"/>
<path d="M96.6629 26.6686H93.3315V30H96.6629V26.6686Z" fill="#231815"/>
<path d="M93.3314 26.6686H90V30H93.3314V26.6686Z" fill="#F7C048"/>
<path d="M89.9998 26.6686H86.6685V30H89.9998V26.6686Z" fill="#F8C048"/>
<path d="M86.6629 26.6686H83.3315V30H86.6629V26.6686Z" fill="#F7C048"/>
<path d="M83.3314 26.6686H80V30H83.3314V26.6686Z" fill="#231815"/>
<path d="M79.9999 26.6686H76.6685V30H79.9999V26.6686Z" fill="#F29803"/>
<path d="M76.6629 26.6686H73.3315V30H76.6629V26.6686Z" fill="#573912"/>
<path d="M73.3314 26.6686H70V30H73.3314V26.6686Z" fill="#F6BB42"/>
<path d="M69.9999 26.6686H66.6685V30H69.9999V26.6686Z" fill="#F6BB41"/>
<path d="M66.6629 26.6686H63.3315V30H66.6629V26.6686Z" fill="#F6BC41"/>
<path d="M63.3314 26.6686H60V30H63.3314V26.6686Z" fill="#231815"/>
<path d="M59.9998 26.6686H56.6685V30H59.9998V26.6686Z" fill="#231815"/>
<path d="M56.6629 26.6686H53.3315V30H56.6629V26.6686Z" fill="#F7C03C"/>
<path d="M53.3314 26.6686H50V30H53.3314V26.6686Z" fill="#F7C139"/>
<path d="M49.9999 26.6686H46.6685V30H49.9999V26.6686Z" fill="#F7C338"/>
<path d="M46.6629 26.6686H43.3315V30H46.6629V26.6686Z" fill="#F7C436"/>
<path d="M43.3314 26.6686H40V30H43.3314V26.6686Z" fill="#F7C534"/>
<path d="M39.9999 26.6686H36.6685V30H39.9999V26.6686Z" fill="#F7C633"/>
<path d="M36.6629 26.6686H33.3315V30H36.6629V26.6686Z" fill="#F7C831"/>
<path d="M33.3314 26.6686H30V30H33.3314V26.6686Z" fill="#231815"/>
<path d="M29.9999 26.6686H26.6685V30H29.9999V26.6686Z" fill="#F39D0D"/>
<path d="M26.6629 26.6686H23.3315V30H26.6629V26.6686Z" fill="#F29A08"/>
<path d="M23.3314 26.6686H20V30H23.3314V26.6686Z" fill="#F29803"/>
<path d="M19.9999 26.6686H16.6685V30H19.9999V26.6686Z" fill="#231815"/>
<path d="M16.6629 26.6686H13.3315V30H16.6629V26.6686Z" fill="#F8C048"/>
<path d="M13.3314 26.6686H10V30H13.3314V26.6686Z" fill="#F8C148"/>
<path d="M9.99985 26.6686H6.66846V30H9.99985V26.6686Z" fill="#F8C149"/>
<path d="M6.66294 26.6686H3.33154V30H6.66294V26.6686Z" fill="#231815"/>
<path d="M93.3314 23.3314H90V26.6628H93.3314V23.3314Z" fill="#8E6D31"/>
<path d="M89.9998 23.3314H86.6685V26.6628H89.9998V23.3314Z" fill="#F8C149"/>
<path d="M86.6629 23.3314H83.3315V26.6628H86.6629V23.3314Z" fill="#F8C149"/>
<path d="M83.3314 23.3314H80V26.6628H83.3314V23.3314Z" fill="#F8C149"/>
<path d="M79.9999 23.3314H76.6685V26.6628H79.9999V23.3314Z" fill="#231815"/>
<path d="M76.6629 23.3314H73.3315V26.6628H76.6629V23.3314Z" fill="#F29804"/>
<path d="M73.3314 23.3314H70V26.6628H73.3314V23.3314Z" fill="#231815"/>
<path d="M69.9999 23.3314H66.6685V26.6628H69.9999V23.3314Z" fill="#F6BC42"/>
<path d="M66.6629 23.3314H63.3315V26.6628H66.6629V23.3314Z" fill="#F6BB41"/>
<path d="M63.3314 23.3314H60V26.6628H63.3314V23.3314Z" fill="#231815"/>
<path d="M59.9998 23.3314H56.6685V26.6628H59.9998V23.3314Z" fill="#231815"/>
<path d="M56.6629 23.3314H53.3315V26.6628H56.6629V23.3314Z" fill="#F7BE40"/>
<path d="M53.3314 23.3314H50V26.6628H53.3314V23.3314Z" fill="#F6BF3D"/>
<path d="M49.9999 23.3314H46.6685V26.6628H49.9999V23.3314Z" fill="#F7C03C"/>
<path d="M46.6629 23.3314H43.3315V26.6628H46.6629V23.3314Z" fill="#F7C23A"/>
<path d="M43.3314 23.3314H40V26.6628H43.3314V23.3314Z" fill="#F7C338"/>
<path d="M39.9999 23.3314H36.6685V26.6628H39.9999V23.3314Z" fill="#F7C436"/>
<path d="M36.6629 23.3314H33.3315V26.6628H36.6629V23.3314Z" fill="#231815"/>
<path d="M33.3314 23.3314H30V26.6628H33.3314V23.3314Z" fill="#F39E0D"/>
<path d="M29.9999 23.3314H26.6685V26.6628H29.9999V23.3314Z" fill="#F39C0A"/>
<path d="M26.6629 23.3314H23.3315V26.6628H26.6629V23.3314Z" fill="#F29804"/>
<path d="M23.3314 23.3314H20V26.6628H23.3314V23.3314Z" fill="#231815"/>
<path d="M19.9999 23.3314H16.6685V26.6628H19.9999V23.3314Z" fill="#F8C149"/>
<path d="M16.6629 23.3314H13.3315V26.6628H16.6629V23.3314Z" fill="#F8C149"/>
<path d="M13.3314 23.3314H10V26.6628H13.3314V23.3314Z" fill="#F8C14A"/>
<path d="M9.99985 23.3314H6.66846V26.6628H9.99985V23.3314Z" fill="#F8C14A"/>
<path d="M93.3314 20H90V23.3314H93.3314V20Z" fill="#231815"/>
<path d="M89.9998 20H86.6685V23.3314H89.9998V20Z" fill="#F8C14A"/>
<path d="M86.6629 20H83.3315V23.3314H86.6629V20Z" fill="#F8C24A"/>
<path d="M83.3314 20H80V23.3314H83.3314V20Z" fill="#F8C14A"/>
<path d="M79.9999 20H76.6685V23.3314H79.9999V20Z" fill="#F8C14A"/>
<path d="M76.6629 20H73.3315V23.3314H76.6629V20Z" fill="#231815"/>
<path d="M73.3314 20H70V23.3314H73.3314V20Z" fill="#F29803"/>
<path d="M69.9999 20H66.6685V23.3314H69.9999V20Z" fill="#8A590F"/>
<path d="M66.6629 20H63.3315V23.3314H66.6629V20Z" fill="#F6BB42"/>
<path d="M63.3314 20H60V23.3314H63.3314V20Z" fill="#F6BB42"/>
<path d="M59.9998 20H56.6685V23.3314H59.9998V20Z" fill="#F6BB42"/>
<path d="M56.6629 20H53.3315V23.3314H56.6629V20Z" fill="#F6BB42"/>
<path d="M53.3314 20H50V23.3314H53.3314V20Z" fill="#F6BC40"/>
<path d="M49.9999 20H46.6685V23.3314H49.9999V20Z" fill="#F6BE3F"/>
<path d="M46.6629 20H43.3315V23.3314H46.6629V20Z" fill="#F7BF3D"/>
<path d="M43.3314 20H40V23.3314H43.3314V20Z" fill="#8D6C28"/>
<path d="M39.9999 20H36.6685V23.3314H39.9999V20Z" fill="#231815"/>
<path d="M36.6629 20H33.3315V23.3314H36.6629V20Z" fill="#F39D0C"/>
<path d="M33.3314 20H30V23.3314H33.3314V20Z" fill="#F39B07"/>
<path d="M29.9999 20H26.6685V23.3314H29.9999V20Z" fill="#F29804"/>
<path d="M26.6629 20H23.3315V23.3314H26.6629V20Z" fill="#231815"/>
<path d="M23.3314 20H20V23.3314H23.3314V20Z" fill="#F8C24B"/>
<path d="M19.9999 20H16.6685V23.3314H19.9999V20Z" fill="#F9C24B"/>
<path d="M16.6629 20H13.3315V23.3314H16.6629V20Z" fill="#F8C14A"/>
<path d="M13.3314 20H10V23.3314H13.3314V20Z" fill="#F9C24B"/>
<path d="M9.99985 20H6.66846V23.3314H9.99985V20Z" fill="#231815"/>
<path d="M89.9998 16.6686H86.6685V20H89.9998V16.6686Z" fill="#231815"/>
<path d="M86.6629 16.6686H83.3315V20H86.6629V16.6686Z" fill="#F9C24C"/>
<path d="M83.3314 16.6686H80V20H83.3314V16.6686Z" fill="#F9C34C"/>
<path d="M79.9999 16.6686H76.6685V20H79.9999V16.6686Z" fill="#F9C24C"/>
<path d="M76.6629 16.6686H73.3315V20H76.6629V16.6686Z" fill="#F9C34C"/>
<path d="M73.3314 16.6686H70V20H73.3314V16.6686Z" fill="#302319"/>
<path d="M69.9999 16.6686H66.6685V20H69.9999V16.6686Z" fill="#F29803"/>
<path d="M66.6629 16.6686H63.3315V20H66.6629V16.6686Z" fill="#F39A07"/>
<path d="M63.3314 16.6686H60V20H63.3314V16.6686Z" fill="#573812"/>
<path d="M59.9998 16.6686H56.6685V20H59.9998V16.6686Z" fill="#231815"/>
<path d="M56.6629 16.6686H53.3315V20H56.6629V16.6686Z" fill="#735627"/>
<path d="M53.3314 16.6686H50V20H53.3314V16.6686Z" fill="#735627"/>
<path d="M49.9999 16.6686H46.6685V20H49.9999V16.6686Z" fill="#231815"/>
<path d="M46.6629 16.6686H43.3315V20H46.6629V16.6686Z" fill="#231815"/>
<path d="M43.3314 16.6686H40V20H43.3314V16.6686Z" fill="#F39D0C"/>
<path d="M39.9999 16.6686H36.6685V20H39.9999V16.6686Z" fill="#F39B09"/>
<path d="M36.6629 16.6686H33.3315V20H36.6629V16.6686Z" fill="#F39A06"/>
<path d="M33.3314 16.6686H30V20H33.3314V16.6686Z" fill="#F29803"/>
<path d="M29.9999 16.6686H26.6685V20H29.9999V16.6686Z" fill="#231815"/>
<path d="M26.6629 16.6686H23.3315V20H26.6629V16.6686Z" fill="#F9C24B"/>
<path d="M23.3314 16.6686H20V20H23.3314V16.6686Z" fill="#F9C24C"/>
<path d="M19.9999 16.6686H16.6685V20H19.9999V16.6686Z" fill="#F9C34C"/>
<path d="M16.6629 16.6686H13.3315V20H16.6629V16.6686Z" fill="#F8C24B"/>
<path d="M13.3314 16.6686H10V20H13.3314V16.6686Z" fill="#231815"/>
<path d="M86.6629 13.3314H83.3315V16.6628H86.6629V13.3314Z" fill="#231815"/>
<path d="M83.3314 13.3314H80V16.6628H83.3314V13.3314Z" fill="#F9C34D"/>
<path d="M79.9999 13.3314H76.6685V16.6628H79.9999V13.3314Z" fill="#FAC44E"/>
<path d="M76.6629 13.3314H73.3315V16.6628H76.6629V13.3314Z" fill="#F9C34C"/>
<path d="M73.3314 13.3314H70V16.6628H73.3314V13.3314Z" fill="#F9C34D"/>
<path d="M69.9999 13.3314H66.6685V16.6628H69.9999V13.3314Z" fill="#F9C34C"/>
<path d="M66.6629 13.3314H63.3315V16.6628H66.6629V13.3314Z" fill="#231815"/>
<path d="M63.3314 13.3314H60V16.6628H63.3314V13.3314Z" fill="#A4680A"/>
<path d="M59.9998 13.3314H56.6685V16.6628H59.9998V13.3314Z" fill="#F29905"/>
<path d="M56.6629 13.3314H53.3315V16.6628H56.6629V13.3314Z" fill="#F39A06"/>
<path d="M53.3314 13.3314H50V16.6628H53.3314V13.3314Z" fill="#F29A07"/>
<path d="M49.9999 13.3314H46.6685V16.6628H49.9999V13.3314Z" fill="#F39A07"/>
<path d="M46.6629 13.3314H43.3315V16.6628H46.6629V13.3314Z" fill="#F39A07"/>
<path d="M43.3314 13.3314H40V16.6628H43.3314V13.3314Z" fill="#F29906"/>
<path d="M39.9999 13.3314H36.6685V16.6628H39.9999V13.3314Z" fill="#8B590C"/>
<path d="M36.6629 13.3314H33.3315V16.6628H36.6629V13.3314Z" fill="#231815"/>
<path d="M33.3314 13.3314H30V16.6628H33.3314V13.3314Z" fill="#FAC44D"/>
<path d="M29.9999 13.3314H26.6685V16.6628H29.9999V13.3314Z" fill="#F9C34D"/>
<path d="M26.6629 13.3314H23.3315V16.6628H26.6629V13.3314Z" fill="#FAC34C"/>
<path d="M23.3314 13.3314H20V16.6628H23.3314V13.3314Z" fill="#F9C34D"/>
<path d="M19.9999 13.3314H16.6685V16.6628H19.9999V13.3314Z" fill="#F9C34D"/>
<path d="M16.6629 13.3314H13.3315V16.6628H16.6629V13.3314Z" fill="#8E6D31"/>
<path d="M83.3314 10H80V13.3314H83.3314V10Z" fill="#231815"/>
<path d="M79.9999 10H76.6685V13.3314H79.9999V10Z" fill="#FAC34E"/>
<path d="M76.6629 10H73.3315V13.3314H76.6629V10Z" fill="#FAC44E"/>
<path d="M73.3314 10H70V13.3314H73.3314V10Z" fill="#FAC44E"/>
<path d="M69.9999 10H66.6685V13.3314H69.9999V10Z" fill="#FAC44E"/>
<path d="M66.6629 10H63.3315V13.3314H66.6629V10Z" fill="#FAC44E"/>
<path d="M63.3314 10H60V13.3314H63.3314V10Z" fill="#FAC44D"/>
<path d="M59.9998 10H56.6685V13.3314H59.9998V10Z" fill="#FAC44E"/>
<path d="M56.6629 10H53.3315V13.3314H56.6629V10Z" fill="#FAC34E"/>
<path d="M53.3314 10H50V13.3314H53.3314V10Z" fill="#DFAE47"/>
<path d="M49.9999 10H46.6685V13.3314H49.9999V10Z" fill="#DFAE47"/>
<path d="M46.6629 10H43.3315V13.3314H46.6629V10Z" fill="#FAC34E"/>
<path d="M43.3314 10H40V13.3314H43.3314V10Z" fill="#FAC34E"/>
<path d="M39.9999 10H36.6685V13.3314H39.9999V10Z" fill="#FAC44E"/>
<path d="M36.6629 10H33.3315V13.3314H36.6629V10Z" fill="#FAC44E"/>
<path d="M33.3314 10H30V13.3314H33.3314V10Z" fill="#FAC44E"/>
<path d="M29.9999 10H26.6685V13.3314H29.9999V10Z" fill="#F9C34E"/>
<path d="M26.6629 10H23.3315V13.3314H26.6629V10Z" fill="#FAC34E"/>
<path d="M23.3314 10H20V13.3314H23.3314V10Z" fill="#FAC44E"/>
<path d="M19.9999 10H16.6685V13.3314H19.9999V10Z" fill="#3E2E1C"/>
<path d="M79.9999 6.66858H76.6685V10H79.9999V6.66858Z" fill="#231815"/>
<path d="M76.6629 6.66858H73.3315V10H76.6629V6.66858Z" fill="#3E2E1C"/>
<path d="M73.3314 6.66858H70V10H73.3314V6.66858Z" fill="#FBC550"/>
<path d="M69.9999 6.66858H66.6685V10H69.9999V6.66858Z" fill="#FAC44F"/>
<path d="M66.6629 6.66858H63.3315V10H66.6629V6.66858Z" fill="#FBC550"/>
<path d="M63.3314 6.66858H60V10H63.3314V6.66858Z" fill="#FAC44F"/>
<path d="M59.9998 6.66858H56.6685V10H59.9998V6.66858Z" fill="#FAC44F"/>
<path d="M56.6629 6.66858H53.3315V10H56.6629V6.66858Z" fill="#FAC44F"/>
<path d="M53.3314 6.66858H50V10H53.3314V6.66858Z" fill="#FAC44F"/>
<path d="M49.9999 6.66858H46.6685V10H49.9999V6.66858Z" fill="#FBC550"/>
<path d="M46.6629 6.66858H43.3315V10H46.6629V6.66858Z" fill="#FBC550"/>
<path d="M43.3314 6.66858H40V10H43.3314V6.66858Z" fill="#FBC550"/>
<path d="M39.9999 6.66858H36.6685V10H39.9999V6.66858Z" fill="#FBC550"/>
<path d="M36.6629 6.66858H33.3315V10H36.6629V6.66858Z" fill="#FAC450"/>
<path d="M33.3314 6.66858H30V10H33.3314V6.66858Z" fill="#FBC550"/>
<path d="M29.9999 6.66858H26.6685V10H29.9999V6.66858Z" fill="#FBC550"/>
<path d="M26.6629 6.66858H23.3315V10H26.6629V6.66858Z" fill="#FBC54F"/>
<path d="M73.3314 3.33142H70V6.66285H73.3314V3.33142Z" fill="#231815"/>
<path d="M69.9999 3.33142H66.6685V6.66285H69.9999V3.33142Z" fill="#231815"/>
<path d="M66.6629 3.33142H63.3315V6.66285H66.6629V3.33142Z" fill="#FBC550"/>
<path d="M63.3314 3.33142H60V6.66285H63.3314V3.33142Z" fill="#FBC550"/>
<path d="M59.9998 3.33142H56.6685V6.66285H59.9998V3.33142Z" fill="#FBC551"/>
<path d="M56.6629 3.33142H53.3315V6.66285H56.6629V3.33142Z" fill="#FBC550"/>
<path d="M53.3314 3.33142H50V6.66285H53.3314V3.33142Z" fill="#FBC550"/>
<path d="M49.9999 3.33142H46.6685V6.66285H49.9999V3.33142Z" fill="#FBC550"/>
<path d="M46.6629 3.33142H43.3315V6.66285H46.6629V3.33142Z" fill="#FBC550"/>
<path d="M43.3314 3.33142H40V6.66285H43.3314V3.33142Z" fill="#FBC550"/>
<path d="M39.9999 3.33142H36.6685V6.66285H39.9999V3.33142Z" fill="#FBC550"/>
<path d="M36.6629 3.33142H33.3315V6.66285H36.6629V3.33142Z" fill="#FCC651"/>
<path d="M33.3314 3.33142H30V6.66285H33.3314V3.33142Z" fill="#FBC551"/>
<path d="M63.3314 0H60V3.33143H63.3314V0Z" fill="#231815"/>
<path d="M59.9998 0H56.6685V3.33143H59.9998V0Z" fill="#231815"/>
<path d="M56.6629 0H53.3315V3.33143H56.6629V0Z" fill="#231815"/>
<path d="M53.3314 0H50V3.33143H53.3314V0Z" fill="#302319"/>
<path d="M49.9999 0H46.6685V3.33143H49.9999V0Z" fill="#3E2E1C"/>
<path d="M46.6629 0H43.3315V3.33143H46.6629V0Z" fill="#231815"/>
<path d="M43.3314 0H40V3.33143H43.3314V0Z" fill="#231815"/>
<path d="M39.9999 0H36.6685V3.33143H39.9999V0Z" fill="#231815"/>
</g>
<defs>
<clipPath id="clip0_154_4741">
<rect width="100" height="100" fill="white"/>
</clipPath>
</defs>
</svg>
