<svg width="200" height="80" viewBox="0 0 200 80" fill="none" xmlns="http://www.w3.org/2000/svg">
<path d="M171.82 75.2801H27.7605V74.6801C27.7605 67.0001 21.4005 60.7601 13.5805 60.7601H12.9805V18.8201H13.7005C13.8205 18.8401 13.9405 18.8601 14.0605 18.8601C21.7605 18.8601 28.1205 12.7201 28.2405 5.16006V4.58008H171.82V5.16006C171.96 12.7201 178.32 18.8601 186.02 18.8601H186.62V60.7601H186.02C178.2 60.7601 171.84 67.0001 171.84 74.6801V75.2801H171.82ZM28.9605 74.0801H170.62C170.94 66.2201 177.4 59.8801 185.4 59.5601V20.0201C181.56 19.8801 177.96 18.3401 175.2 15.6801C172.44 13.0201 170.84 9.50008 170.64 5.74008H29.4405C29.2405 9.50008 27.6205 13.0201 24.8805 15.6801C22.0205 18.4601 18.2205 20.0001 14.2005 20.0201V59.5601C22.2205 59.8601 28.6805 66.2001 28.9805 74.0801H28.9605Z" fill="#FEB73A"/>
<path d="M33.0973 10.6801L29.8799 13.9956L30.741 14.8313L33.9585 11.5158L33.0973 10.6801Z" fill="#FEB73A"/>
<path d="M34.7204 14.86L33.8604 14.02L37.0804 10.72L37.9404 11.56L34.7204 14.86Z" fill="#FEB73A"/>
<path d="M41.0612 10.6877L37.8438 14.0032L38.7049 14.8389L41.9223 11.5234L41.0612 10.6877Z" fill="#FEB73A"/>
<path d="M45.0524 10.6913L41.835 14.0068L42.6961 14.8425L45.9136 11.527L45.0524 10.6913Z" fill="#FEB73A"/>
<path d="M46.6608 14.86L45.8008 14.02L49.0208 10.72L49.8808 11.56L46.6608 14.86Z" fill="#FEB73A"/>
<path d="M52.9957 10.6789L49.7783 13.9944L50.6395 14.8301L53.8569 11.5146L52.9957 10.6789Z" fill="#FEB73A"/>
<path d="M55.2399 14.86L54.3799 14.02L57.5799 10.72L58.4599 11.56L55.2399 14.86Z" fill="#FEB73A"/>
<path d="M61.5768 10.696L58.3594 14.0115L59.2205 14.8472L62.438 11.5317L61.5768 10.696Z" fill="#FEB73A"/>
<path d="M65.5485 10.6996L62.3311 14.0151L63.1922 14.8508L66.4096 11.5353L65.5485 10.6996Z" fill="#FEB73A"/>
<path d="M67.1803 14.86L66.3203 14.02L69.5403 10.72L70.4003 11.56L67.1803 14.86Z" fill="#FEB73A"/>
<path d="M73.5114 10.6874L70.2939 14.0029L71.1551 14.8386L74.3725 11.5231L73.5114 10.6874Z" fill="#FEB73A"/>
<path d="M77.4977 10.6767L74.2803 13.9922L75.1414 14.8279L78.3589 11.5124L77.4977 10.6767Z" fill="#FEB73A"/>
<path d="M121.68 14.86L120.82 14.02L124.04 10.72L124.9 11.56L121.68 14.86Z" fill="#FEB73A"/>
<path d="M128.021 10.6816L124.804 13.9971L125.665 14.8328L128.882 11.5173L128.021 10.6816Z" fill="#FEB73A"/>
<path d="M132.012 10.6855L128.795 14.001L129.656 14.8367L132.874 11.5212L132.012 10.6855Z" fill="#FEB73A"/>
<path d="M133.641 14.86L132.761 14.02L135.981 10.72L136.841 11.56L133.641 14.86Z" fill="#FEB73A"/>
<path d="M139.956 10.6931L136.738 14.0085L137.599 14.8442L140.817 11.5287L139.956 10.6931Z" fill="#FEB73A"/>
<path d="M143.948 10.6967L140.73 14.0122L141.592 14.8479L144.809 11.5324L143.948 10.6967Z" fill="#FEB73A"/>
<path d="M148.55 10.6757L145.333 13.9912L146.194 14.8269L149.412 11.5114L148.55 10.6757Z" fill="#FEB73A"/>
<path d="M152.522 10.6796L149.305 13.9951L150.166 14.8308L153.383 11.5153L152.522 10.6796Z" fill="#FEB73A"/>
<path d="M154.139 14.8602L153.279 14.0202L156.499 10.7202L157.359 11.5602L154.139 14.8602Z" fill="#FEB73A"/>
<path d="M160.486 10.6872L157.269 14.0027L158.13 14.8384L161.347 11.5229L160.486 10.6872Z" fill="#FEB73A"/>
<path d="M164.458 10.6909L161.24 14.0063L162.101 14.842L165.319 11.5265L164.458 10.6909Z" fill="#FEB73A"/>
<path d="M166.08 14.8602L165.22 14.0202L168.44 10.7202L169.3 11.5602L166.08 14.8602Z" fill="#FEB73A"/>
<path d="M42.0846 64.8478L38.8672 68.1633L39.7283 68.999L42.9458 65.6835L42.0846 64.8478Z" fill="#FEB73A"/>
<path d="M38.0788 64.8383L34.8613 68.1538L35.7225 68.9895L38.9399 65.674L38.0788 64.8383Z" fill="#FEB73A"/>
<path d="M34.0729 64.8491L30.8555 68.1646L31.7166 69.0002L34.9341 65.6847L34.0729 64.8491Z" fill="#FEB73A"/>
<path d="M43.6998 69.0001L42.8398 68.1601L46.0398 64.8601L46.9198 65.7001L43.6998 69.0001Z" fill="#FEB73A"/>
<path d="M50.0475 64.8554L46.8301 68.1709L47.6912 69.0066L50.9087 65.6911L50.0475 64.8554Z" fill="#FEB73A"/>
<path d="M54.0192 64.8393L50.8018 68.1548L51.6629 68.9905L54.8803 65.675L54.0192 64.8393Z" fill="#FEB73A"/>
<path d="M55.6403 69.0001L54.7803 68.1601L58.0003 64.8601L58.8603 65.7001L55.6403 69.0001Z" fill="#FEB73A"/>
<path d="M61.9831 64.8469L58.7656 68.1624L59.6268 68.998L62.8442 65.6825L61.9831 64.8469Z" fill="#FEB73A"/>
<path d="M64.1998 69.0001L63.3398 68.1601L66.5598 64.8601L67.4198 65.7001L64.1998 69.0001Z" fill="#FEB73A"/>
<path d="M70.5583 64.8495L67.3408 68.165L68.202 69.0007L71.4194 65.6852L70.5583 64.8495Z" fill="#FEB73A"/>
<path d="M74.5495 64.8532L71.332 68.1687L72.1932 69.0044L75.4106 65.6889L74.5495 64.8532Z" fill="#FEB73A"/>
<path d="M76.1598 69.0001L75.2998 68.1601L78.4998 64.8601L79.3598 65.7001L76.1598 69.0001Z" fill="#FEB73A"/>
<path d="M82.4928 64.8408L79.2754 68.1562L80.1365 68.9919L83.354 65.6764L82.4928 64.8408Z" fill="#FEB73A"/>
<path d="M86.485 64.8447L83.2676 68.1602L84.1287 68.9958L87.3462 65.6803L86.485 64.8447Z" fill="#FEB73A"/>
<path d="M139.824 65.0727L136.606 68.3882L137.468 69.2239L140.685 65.9084L139.824 65.0727Z" fill="#FEB73A"/>
<path d="M141.44 69.2401L140.58 68.4001L143.78 65.1001L144.64 65.9401L141.44 69.2401Z" fill="#FEB73A"/>
<path d="M147.788 65.0803L144.57 68.3958L145.431 69.2314L148.649 65.9159L147.788 65.0803Z" fill="#FEB73A"/>
<path d="M151.759 65.0842L148.542 68.3997L149.403 69.2353L152.621 65.9198L151.759 65.0842Z" fill="#FEB73A"/>
<path d="M153.381 69.2401L152.521 68.4001L155.741 65.1001L156.601 65.9401L153.381 69.2401Z" fill="#FEB73A"/>
<path d="M159.722 65.0917L156.505 68.4072L157.366 69.2429L160.583 65.9274L159.722 65.0917Z" fill="#FEB73A"/>
<path d="M163.728 65.0812L160.511 68.3967L161.372 69.2324L164.589 65.9169L163.728 65.0812Z" fill="#FEB73A"/>
<path d="M167.714 65.0905L164.496 68.406L165.357 69.2417L168.575 65.9262L167.714 65.0905Z" fill="#FEB73A"/>
<path d="M89.1803 69.2401L88.3203 68.4001L91.5403 65.1001L92.4003 65.9401L89.1803 69.2401Z" fill="#FEB73A"/>
<path d="M95.5465 65.09L92.3291 68.4055L93.1903 69.2412L96.4077 65.9257L95.5465 65.09Z" fill="#FEB73A"/>
<path d="M99.5182 65.0737L96.3008 68.3892L97.1619 69.2248L100.379 65.9093L99.5182 65.0737Z" fill="#FEB73A"/>
<path d="M101.14 69.2401L100.28 68.4001L103.48 65.1001L104.34 65.9401L101.14 69.2401Z" fill="#FEB73A"/>
<path d="M107.482 65.0812L104.265 68.3967L105.126 69.2324L108.343 65.9169L107.482 65.0812Z" fill="#FEB73A"/>
<path d="M111.454 65.0851L108.236 68.4006L109.097 69.2363L112.315 65.9208L111.454 65.0851Z" fill="#FEB73A"/>
<path d="M116.057 65.0839L112.84 68.3994L113.701 69.2351L116.918 65.9196L116.057 65.0839Z" fill="#FEB73A"/>
<path d="M120.029 65.0876L116.812 68.4031L117.673 69.2388L120.89 65.9233L120.029 65.0876Z" fill="#FEB73A"/>
<path d="M121.64 69.2399L120.78 68.3999L124 65.0999L124.86 65.9398L121.64 69.2399Z" fill="#FEB73A"/>
<path d="M127.993 65.0751L124.775 68.3906L125.637 69.2263L128.854 65.9108L127.993 65.0751Z" fill="#FEB73A"/>
<path d="M131.984 65.079L128.767 68.3945L129.628 69.2302L132.845 65.9147L131.984 65.079Z" fill="#FEB73A"/>
<path d="M133.58 69.2399L132.72 68.3999L135.94 65.0999L136.8 65.9398L133.58 69.2399Z" fill="#FEB73A"/>
<path d="M200 79.92H0V75.88L0.580002 75.76C2.34 75.4 3.28 74.68 3.28 74.2C3.28 73.72 2.34 73 0.580002 72.64L0 72.52V67.32L0.580002 67.2C2.34 66.84 3.28 66.12 3.28 65.64C3.28 65.16 2.34 64.44 0.580002 64.08L0 63.96V58.76L0.580002 58.64C2.34 58.28 3.28 57.56 3.28 57.08C3.28 56.6 2.34 55.88 0.580002 55.52L0 55.4V50.2L0.580002 50.08C2.34 49.72 3.28 49 3.28 48.52C3.28 48.04 2.34 47.32 0.580002 46.96L0 46.84V41.64L0.580002 41.52C2.34 41.16 3.28 40.44 3.28 39.96C3.28 39.48 2.34 38.76 0.580002 38.4L0 38.28V33.08L0.580002 32.96C2.34 32.6 3.28 31.88 3.28 31.4C3.28 30.92 2.34 30.2 0.580002 29.84L0 29.72V24.52L0.580002 24.4C2.34 24.04 3.28 23.32 3.28 22.84C3.28 22.36 2.34 21.64 0.580002 21.28L0 21.16V15.96L0.580002 15.84C2.34 15.48 3.28 14.76 3.28 14.28C3.28 13.8 2.34 13.08 0.580002 12.72L0 12.6V7.40002L0.580002 7.28C2.34 6.92 3.28 6.2 3.28 5.72C3.28 5.24 2.34 4.52 0.580002 4.16L0 4.04001V0H200V4.04001L199.42 4.16C197.66 4.52 196.72 5.24 196.72 5.72C196.72 6.2 197.66 6.92 199.42 7.28L200 7.40002V12.6L199.42 12.72C197.66 13.08 196.72 13.8 196.72 14.28C196.72 14.76 197.66 15.48 199.42 15.84L200 15.96V21.16L199.42 21.28C197.66 21.64 196.72 22.36 196.72 22.84C196.72 23.32 197.66 24.04 199.42 24.4L200 24.52V29.72L199.42 29.84C197.66 30.2 196.72 30.92 196.72 31.4C196.72 31.88 197.66 32.6 199.42 32.96L200 33.08V38.28L199.42 38.4C197.66 38.76 196.72 39.48 196.72 39.96C196.72 40.44 197.66 41.16 199.42 41.52L200 41.64V46.84L199.42 46.96C197.66 47.32 196.72 48.04 196.72 48.52C196.72 49 197.66 49.72 199.42 50.08L200 50.2V55.4L199.42 55.52C197.66 55.88 196.72 56.6 196.72 57.08C196.72 57.56 197.66 58.28 199.42 58.64L200 58.76V63.96L199.42 64.08C197.66 64.44 196.72 65.16 196.72 65.64C196.72 66.12 197.66 66.84 199.42 67.2L200 67.32V72.52L199.42 72.64C197.66 73 196.72 73.72 196.72 74.2C196.72 74.68 197.66 75.4 199.42 75.76L200 75.88V79.92ZM1.46 78.5H198.54V77.04C196.48 76.5 195.26 75.46 195.26 74.22C195.26 72.98 196.48 71.94 198.54 71.4V68.48C196.48 67.94 195.26 66.9 195.26 65.66C195.26 64.42 196.48 63.38 198.54 62.84V59.92C196.48 59.38 195.26 58.34 195.26 57.1C195.26 55.86 196.48 54.82 198.54 54.28V51.36C196.48 50.82 195.26 49.78 195.26 48.54C195.26 47.3 196.48 46.26 198.54 45.72V42.8C196.48 42.26 195.26 41.22 195.26 39.98C195.26 38.74 196.48 37.7 198.54 37.16V34.24C196.48 33.7 195.26 32.66 195.26 31.42C195.26 30.18 196.48 29.14 198.54 28.6V25.68C196.48 25.14 195.26 24.1 195.26 22.86C195.26 21.62 196.48 20.58 198.54 20.04V17.12C196.48 16.58 195.26 15.54 195.26 14.3C195.26 13.06 196.48 12.02 198.54 11.48V8.56003C196.48 8.02003 195.26 6.98002 195.26 5.74002C195.26 4.50002 196.48 3.46001 198.54 2.92001V1.46002H1.46V2.92001C3.52 3.46001 4.74 4.50002 4.74 5.74002C4.74 6.98002 3.52 8.02003 1.46 8.56003V11.48C3.52 12.02 4.74 13.06 4.74 14.3C4.74 15.54 3.52 16.58 1.46 17.12V20.04C3.52 20.58 4.74 21.62 4.74 22.86C4.74 24.1 3.52 25.14 1.46 25.68V28.6C3.52 29.14 4.74 30.18 4.74 31.42C4.74 32.66 3.52 33.7 1.46 34.24V37.16C3.52 37.7 4.74 38.74 4.74 39.98C4.74 41.22 3.52 42.26 1.46 42.8V45.72C3.52 46.26 4.74 47.3 4.74 48.54C4.74 49.78 3.52 50.82 1.46 51.36V54.28C3.52 54.82 4.74 55.86 4.74 57.1C4.74 58.34 3.52 59.38 1.46 59.92V62.84C3.52 63.38 4.74 64.42 4.74 65.66C4.74 66.9 3.52 67.94 1.46 68.48V71.4C3.52 71.94 4.74 72.98 4.74 74.22C4.74 75.46 3.52 76.5 1.46 77.04V78.5Z" fill="#FEB73A"/>
<path d="M60.6202 45.2199V35.5199H60.5802L58.6402 36.5599L58.2402 35.2799L60.8402 33.9199H62.3402V45.1999H60.6202V45.2199Z" fill="#10FFA2"/>
<path d="M72.6005 33.9399V35.3799H68.5805L68.2005 38.06C68.4205 38.06 68.6405 38.02 68.9605 38.02C71.0605 38.02 72.8605 39.22 72.8605 41.52C72.8605 43.7 71.1605 45.3799 68.6605 45.3799C67.5405 45.3799 66.5005 45.0799 65.9805 44.7599L66.3805 43.4399C66.8405 43.6999 67.6805 44.02 68.6005 44.02C69.9005 44.02 71.0605 43.16 71.0605 41.68C71.0605 40.2 70.0605 39.3199 68.0005 39.3199C67.4205 39.3199 67.0005 39.34 66.6205 39.4L67.3405 33.9399H72.6205H72.6005Z" fill="#10FFA2"/>
<path d="M74.4404 39.6C74.4404 35.92 75.8604 33.76 78.2404 33.76C80.6204 33.76 81.8804 36.06 81.8804 39.48C81.8804 43.3 80.4804 45.38 78.1204 45.38C75.7604 45.38 74.4404 43.06 74.4404 39.6ZM80.1004 39.54C80.1004 36.86 79.5204 35.14 78.1804 35.14C77.0204 35.14 76.2204 36.72 76.2204 39.54C76.2204 42.36 76.9204 44 78.1404 44C79.6404 44 80.1004 41.88 80.1004 39.54Z" fill="#10FFA2"/>
<path d="M91.2599 38.3599H88.3199V39.8799C88.3199 40.4199 88.2199 40.9999 88.0799 41.6399L87.8399 42.3399C87.0999 44.0399 85.7399 45.3799 83.8199 46.3199L82.9199 45.1799C86.5999 43.7799 86.9399 41.2399 86.9799 39.8799V38.3599H83.2199V37.0799H96.9599V38.3599H92.6399V44.1399C92.6399 44.7799 93.2199 44.8799 93.3799 44.8999H95.1799C95.1799 44.8999 95.6799 44.8599 95.7199 44.3999V42.2199L97.0799 42.3799C97.0399 44.3399 96.9199 45.4599 96.7199 45.6999C96.3999 46.0399 96.0599 46.2199 95.7599 46.2199H92.6399C92.0199 46.1799 91.2799 45.5799 91.2799 44.8799V38.3399L91.2599 38.3599ZM84.4599 33.1799H95.7599V34.4599H84.4599V33.1799Z" fill="#10FFA2"/>
<path d="M99.6401 38.8001L99.3801 39.2001L98.1201 38.7201C99.4001 36.8201 100.2 34.7801 100.46 32.6201L101.68 32.7801C101.48 34.0601 101.2 35.1801 100.88 36.1201V46.3601H99.6401V38.7801V38.8001ZM103.6 43.9201L101.98 44.9001L101.26 44.0201C102.74 43.3401 103.68 42.6401 104.46 41.6001L104.38 41.2401V39.9601H102.38C102.38 39.9601 102.28 39.9801 102.28 40.0601V41.1601H101.22V39.1001C101.22 38.9601 101.28 38.9201 101.42 38.9201H102.6V34.8401C102.6 34.6001 102.72 34.5001 102.96 34.5001H105.76L105.98 33.8201H102.16V32.7801H111.52V33.8201H107.18L107 34.5001H110.54C110.8 34.5001 110.92 34.6001 110.92 34.8401V38.9201H111.52L112.48 39.3801C112.44 39.9801 112.26 40.7201 111.96 41.5401L110.96 41.2401C111.12 40.6001 111.22 40.2401 111.22 40.1401C111.22 40.0001 111.18 39.9601 111.06 39.9601H106.94C107.24 40.1601 107.54 40.4001 107.86 40.7601L107.34 41.3001H107.96C108.32 41.3001 108.36 41.0801 108.5 40.3201L109.46 40.6801C109.3 41.4201 109.16 41.8201 109.1 41.8801C108.84 42.1201 108.6 42.2601 108.38 42.2601H105.26L104.92 42.7001H110.24L111.04 43.2601C111.04 43.2601 111.1 43.3001 111.1 43.3401C111.1 43.3401 110.56 44.2001 108.56 45.1001C109.74 45.3201 110.94 45.3601 112 45.3601L111.66 46.5201C110.1 46.4801 108.54 46.2001 107.04 45.7201C105.48 46.2201 103.78 46.5001 101.94 46.5601L101.74 45.3601C103.12 45.3601 104.34 45.2201 105.38 45.0201L103.54 43.9601L103.6 43.9201ZM104.02 40.7801C103.5 41.7001 102.96 42.3801 102.38 42.8201C102.16 42.4601 101.9 42.1801 101.66 42.0001C102.2 41.5601 102.66 40.9601 102.94 40.2401L104 40.8001L104.02 40.7801ZM103.8 35.9801H109.78V35.5001C109.78 35.4001 109.72 35.3401 109.62 35.3401H103.96C103.86 35.3401 103.8 35.3801 103.8 35.5001V35.9801ZM103.8 37.4401H109.78V36.7801H103.8V37.4401ZM103.8 38.9001H109.78V38.2401H103.8V38.9001ZM105.16 43.6601C105.8 44.0401 106.42 44.3401 106.96 44.5801L108.98 43.7801C108.98 43.7801 108.92 43.6601 108.82 43.6801H105.18L105.16 43.6601ZM107.2 41.2801C106.84 40.9401 106.56 40.7001 106.3 40.5401L106.78 39.9601H105.46V40.7201C105.46 40.9401 105.6 41.2401 106.04 41.2801H107.18H107.2ZM110.62 42.6801C110.26 42.0201 109.92 41.4601 109.62 41.0201L110.48 40.5601C110.98 41.3001 111.34 41.8601 111.52 42.2601L110.64 42.6801H110.62Z" fill="#10FFA2"/>
<path d="M116.56 42.8C116.02 44.2 115.3 45.34 114.46 46.22C114.16 45.82 113.86 45.54 113.58 45.36C114.38 44.56 114.98 43.54 115.36 42.32L116.56 42.8ZM126.18 41.6801L113.96 42.0201L113.86 40.86L119.96 40.7401V39.86H115.2C115.1 39.86 115.04 39.8 115.04 39.7V35.4601C115.04 35.3601 115.08 35.3 115.2 35.3H119.96V34.54H114.2V33.38H119.96V32.54H121.22V33.38H126.92V34.54H121.22V35.3H125.96C126.06 35.3 126.12 35.3401 126.12 35.4601V39.42C126.74 40.32 127.24 41.1601 127.58 41.9001L126.52 42.4001L126.16 41.72L126.18 41.6801ZM119.96 37.1V36.3401H116.26C116.26 36.3401 116.2 36.34 116.22 36.38V37.1H119.96ZM119.96 38.8V38.0201H116.22V38.7401L116.26 38.8H119.96ZM117.46 42.2401H118.7V44.32C118.7 44.76 118.74 45.1201 119.48 45.1201H122.56L123.12 45.04C123.42 44.88 123.5 44.68 123.5 43.54L124.76 43.6801C124.72 44.8601 124.62 45.58 124.44 45.8C124.08 46.26 123.82 46.32 122.98 46.32H118.96C117.9 46.32 117.44 45.58 117.48 44.5V42.2L117.46 42.2401ZM121.3 44.6201C120.8 43.7601 120.36 43.1 120 42.7L121.06 42.08C121.54 42.74 121.98 43.42 122.38 44.08L121.3 44.64V44.6201ZM121.2 36.3401V37.1H124.94V36.38L124.88 36.3401H121.2ZM121.2 38.04V38.82H124.88L124.94 38.76V38.04H121.2ZM125.52 40.6L125.04 39.8401H121.2V40.7L125.52 40.6ZM126.5 45.58C126.02 44.72 125.32 43.7601 124.48 42.6801L125.52 42.0201C126.64 43.58 127.32 44.58 127.56 45L126.5 45.58Z" fill="#10FFA2"/>
<path d="M130.78 44.76C132.66 44.36 133.9 43.46 134.52 42.08H131.9V41.24C131.28 41.84 130.54 42.4 129.7 42.88L128.7 41.94C129.92 41.2 131.04 40.34 132.06 39.4H128.96V38.18H133.1C133.62 37.5 134.06 36.66 134.06 36.58H129.5V35.36H134.56C134.78 34.54 134.96 33.56 135.08 32.52L136.44 32.66C136.34 33.34 136.14 34.28 135.84 35.38H137.76C138.46 34.32 139 33.38 139.32 32.64L140.48 33.24C140.2 33.9 139.8 34.6 139.32 35.38H142.16V36.6H137.74C138.04 37.2 138.36 37.72 138.68 38.2H142.7V39.42H139.64C140.44 40.26 141.54 41.08 142.92 41.9L141.86 42.88C141.32 42.52 140.8 42.14 140.32 41.76L140.28 44.12C140.24 44.92 140.08 46.5 137.88 46.5C137.26 46.5 136.56 46.4 135.7 46.16V44.66C136.32 44.92 136.96 45.16 137.6 45.16C138.04 45.16 138.42 45.04 138.7 44.8C138.98 44.52 139.06 44.06 139.06 42.8C139.06 42.22 139 42.12 138.84 42.12H135.94C135.8 42.56 135.58 42.98 135.32 43.4L135.02 43.84C133.94 45.2 132.08 46.06 129.5 46.38L129.16 45.04L130.8 44.78L130.78 44.76ZM132.22 35.18C131.72 34.36 131.26 33.72 130.84 33.3L131.9 32.54C132.36 33.02 132.82 33.68 133.3 34.48L132.2 35.16L132.22 35.18ZM133.66 39.4C133.34 39.78 132.88 40.28 132.28 40.86H139.36L138.02 39.4H133.66ZM137.2 38.18L136.34 36.58H135.42L134.54 38.18H137.18H137.2Z" fill="#10FFA2"/>
<path d="M85.5996 15.12H83.5996V13.9H83.9996V11.24H83.5996V10.02H86.7196L87.4796 11.98L88.2596 10.02H91.3596V11.24H90.9596V13.9H91.3796V15.12H88.6796V13.9H89.0996V11.06L87.5396 15.12H86.7596L85.2196 11.1V13.9H85.6196V15.12H85.5996Z" fill="#10FFA2"/>
<path d="M92 13.3199C92 12.7999 92.22 12.3599 92.68 11.9999C93.12 11.6399 93.72 11.46 94.48 11.46C95.24 11.46 95.86 11.6399 96.34 11.9799C96.82 12.3199 97.06 12.78 97.06 13.34C97.06 13.9 96.84 14.32 96.38 14.68C95.92 15.04 95.32 15.2199 94.58 15.2199C93.78 15.2199 93.14 15.04 92.68 14.68C92.22 14.32 92 13.8799 92 13.3199ZM93.9 13.3199C93.9 13.8799 94.1 14.1599 94.52 14.1599C94.96 14.1599 95.18 13.88 95.18 13.3C95.18 13.04 95.12 12.84 95.02 12.7C94.92 12.56 94.76 12.4799 94.56 12.4799C94.36 12.4799 94.2 12.56 94.08 12.7C93.96 12.84 93.9 13.0399 93.9 13.3199Z" fill="#10FFA2"/>
<path d="M100.52 15.16H99.0198L97.6598 12.6801H97.2998V11.5601H99.8398V12.6801H99.4398L100.04 14.0201L100.68 12.6801H100.32V11.5601H102.18V12.6801H101.84L100.52 15.16Z" fill="#10FFA2"/>
<path d="M105.46 15.16H103.98L102.88 12.6801H102.5V11.5601H104.94V12.6801H104.58L105 13.86L105.88 11.5601H107.26L108.08 13.86L108.54 12.6801H108.2V11.5601H109.96V12.6801H109.6L108.56 15.16H107.08L106.26 13.3401L105.48 15.16H105.46Z" fill="#10FFA2"/>
<path d="M113.32 13.9999L114.86 14.18C114.8 14.34 114.7 14.4799 114.56 14.5999C114.44 14.7199 114.28 14.84 114.1 14.92C113.74 15.12 113.3 15.2 112.8 15.2C111.96 15.2 111.32 15.02 110.9 14.68C110.48 14.34 110.26 13.9 110.26 13.34C110.26 12.78 110.46 12.3399 110.88 11.9799C111.3 11.6199 111.86 11.4399 112.56 11.4399C113.26 11.4399 113.8 11.62 114.22 11.96C114.64 12.3 114.86 12.8199 114.9 13.4999H112.06C112.06 14.0799 112.28 14.36 112.72 14.36C112.98 14.36 113.16 14.22 113.28 13.96L113.32 13.9999ZM112.12 13.08H113.18V12.96C113.18 12.76 113.14 12.5999 113.04 12.4799C112.94 12.3599 112.8 12.3 112.64 12.3C112.48 12.3 112.34 12.3599 112.26 12.4999C112.18 12.6399 112.12 12.8 112.12 13.02C112.12 13.04 112.12 13.0799 112.12 13.0999V13.08Z" fill="#10FFA2"/>
<path d="M173.54 19.8198H25.54V21.0198H173.54V19.8198Z" fill="#FEB73A"/>
<path d="M173.54 58.0801H25.54V59.2801H173.54V58.0801Z" fill="#FEB73A"/>
<path d="M37.52 29.8799L40.48 35.7599L47.1 36.6999L42.3 41.2799L43.44 47.7599L37.52 44.6999L31.6 47.7599L32.74 41.2799L27.96 36.6999L34.56 35.7599L37.52 29.8799Z" fill="#10FFA2"/>
<path d="M162.66 29.6396L165.62 35.5197L172.24 36.4796L167.46 41.0396L168.58 47.5197L162.66 44.4597L156.76 47.5197L157.88 41.0396L153.1 36.4796L159.72 35.5197L162.66 29.6396Z" fill="#10FFA2"/>
</svg>
