<svg width="200" height="81" viewBox="0 0 200 81" fill="none" xmlns="http://www.w3.org/2000/svg">
<path d="M187.273 75.8067H12.9656L12.7869 75.35C11.6154 72.4909 9.43139 70.1679 6.67154 68.7582L6.27441 68.5596V12.2705L6.67154 12.072C9.43139 10.6821 11.6154 8.33924 12.7869 5.48011L12.9656 5.02344H187.273L187.452 5.48011C188.703 8.49808 191.026 10.9204 194.024 12.2904L194.441 12.4889V68.3412L194.024 68.5398C191.046 69.9098 188.703 72.3321 187.452 75.35L187.273 75.8067ZM13.9186 74.3573H186.3C187.67 71.3393 190.013 68.917 192.991 67.4279V13.4023C190.013 11.933 187.67 9.49083 186.3 6.47286H13.9186C12.628 9.31214 10.444 11.655 7.70398 13.1442V67.6661C10.444 69.1553 12.628 71.4982 13.9186 74.3374V74.3573Z" fill="#FBB03B"/>
<path d="M186.499 80.8498H13.5213V80.135C13.4618 73.1659 7.72365 67.4476 0.714814 67.3881H0V13.4617H0.734688C7.90236 13.4617 13.7 7.74347 13.7596 0.714783V0H186.499V0.714783C186.558 7.68391 192.296 13.4022 199.285 13.4617H200V67.3682H199.285C192.296 67.4278 186.558 73.1659 186.499 80.135V80.8498ZM14.931 79.4004H185.069C185.486 72.2128 191.343 66.3755 198.551 65.9585V14.8913C191.343 14.4743 185.486 8.63696 185.069 1.44943H15.1693C14.7325 8.73623 8.77596 14.6133 1.44944 14.9112V65.9784C8.65683 66.3953 14.5141 72.2327 14.931 79.4202V79.4004Z" fill="#FBB03B"/>
<path d="M17.0155 24.3622L13.8188 27.6978" stroke="#FBB03B" stroke-width="0.73" stroke-miterlimit="10"/>
<path d="M20.9867 24.3622L17.79 27.6978" stroke="#FBB03B" stroke-width="0.73" stroke-miterlimit="10"/>
<path d="M24.9384 24.3622L21.7417 27.6978" stroke="#FBB03B" stroke-width="0.73" stroke-miterlimit="10"/>
<path d="M28.909 24.3622L25.6924 27.6978" stroke="#FBB03B" stroke-width="0.73" stroke-miterlimit="10"/>
<path d="M32.8603 24.3622L29.6636 27.6978" stroke="#FBB03B" stroke-width="0.73" stroke-miterlimit="10"/>
<path d="M36.8114 24.3622L33.6147 27.6978" stroke="#FBB03B" stroke-width="0.73" stroke-miterlimit="10"/>
<path d="M41.3983 24.3622L38.2017 27.6978" stroke="#FBB03B" stroke-width="0.73" stroke-miterlimit="10"/>
<path d="M45.369 24.3622L42.1724 27.6978" stroke="#FBB03B" stroke-width="0.73" stroke-miterlimit="10"/>
<path d="M49.3207 24.3622L46.124 27.6978" stroke="#FBB03B" stroke-width="0.73" stroke-miterlimit="10"/>
<path d="M53.2714 24.3622L50.0747 27.6978" stroke="#FBB03B" stroke-width="0.73" stroke-miterlimit="10"/>
<path d="M57.2426 24.3622L54.0459 27.6978" stroke="#FBB03B" stroke-width="0.73" stroke-miterlimit="10"/>
<path d="M61.1942 24.3622L57.9976 27.6978" stroke="#FBB03B" stroke-width="0.73" stroke-miterlimit="10"/>
<path d="M114.544 24.6005L111.347 27.956" stroke="#FBB03B" stroke-width="0.73" stroke-miterlimit="10"/>
<path d="M118.515 24.6005L115.299 27.956" stroke="#FBB03B" stroke-width="0.73" stroke-miterlimit="10"/>
<path d="M122.467 24.6005L119.27 27.956" stroke="#FBB03B" stroke-width="0.73" stroke-miterlimit="10"/>
<path d="M126.417 24.6005L123.221 27.956" stroke="#FBB03B" stroke-width="0.73" stroke-miterlimit="10"/>
<path d="M130.388 24.6005L127.191 27.956" stroke="#FBB03B" stroke-width="0.73" stroke-miterlimit="10"/>
<path d="M134.34 24.6005L131.143 27.956" stroke="#FBB03B" stroke-width="0.73" stroke-miterlimit="10"/>
<path d="M65.7796 24.6005L62.583 27.956" stroke="#FBB03B" stroke-width="0.73" stroke-miterlimit="10"/>
<path d="M69.7508 24.6005L66.5542 27.956" stroke="#FBB03B" stroke-width="0.73" stroke-miterlimit="10"/>
<path d="M73.7016 24.6005L70.5049 27.956" stroke="#FBB03B" stroke-width="0.73" stroke-miterlimit="10"/>
<path d="M77.6532 24.6005L74.4565 27.956" stroke="#FBB03B" stroke-width="0.73" stroke-miterlimit="10"/>
<path d="M81.6239 24.6005L78.4272 27.956" stroke="#FBB03B" stroke-width="0.73" stroke-miterlimit="10"/>
<path d="M85.5755 24.6005L82.3789 27.956" stroke="#FBB03B" stroke-width="0.73" stroke-miterlimit="10"/>
<path d="M90.1615 24.6005L86.9648 27.956" stroke="#FBB03B" stroke-width="0.73" stroke-miterlimit="10"/>
<path d="M94.133 24.6005L90.9165 27.956" stroke="#FBB03B" stroke-width="0.73" stroke-miterlimit="10"/>
<path d="M98.0839 24.6005L94.8872 27.956" stroke="#FBB03B" stroke-width="0.73" stroke-miterlimit="10"/>
<path d="M102.035 24.6005L98.8379 27.956" stroke="#FBB03B" stroke-width="0.73" stroke-miterlimit="10"/>
<path d="M106.006 24.6005L102.809 27.956" stroke="#FBB03B" stroke-width="0.73" stroke-miterlimit="10"/>
<path d="M109.957 24.6005L106.761 27.956" stroke="#FBB03B" stroke-width="0.73" stroke-miterlimit="10"/>
<path d="M138.926 24.66L135.729 28.0155" stroke="#FBB03B" stroke-width="0.73" stroke-miterlimit="10"/>
<path d="M142.896 24.66L139.68 28.0155" stroke="#FBB03B" stroke-width="0.73" stroke-miterlimit="10"/>
<path d="M146.847 24.66L143.65 28.0155" stroke="#FBB03B" stroke-width="0.73" stroke-miterlimit="10"/>
<path d="M150.799 24.66L147.602 28.0155" stroke="#FBB03B" stroke-width="0.73" stroke-miterlimit="10"/>
<path d="M154.77 24.66L151.573 28.0155" stroke="#FBB03B" stroke-width="0.73" stroke-miterlimit="10"/>
<path d="M158.722 24.66L155.525 28.0155" stroke="#FBB03B" stroke-width="0.73" stroke-miterlimit="10"/>
<path d="M162.812 24.521L159.615 27.8566" stroke="#FBB03B" stroke-width="0.73" stroke-miterlimit="10"/>
<path d="M166.981 24.521L163.765 27.8566" stroke="#FBB03B" stroke-width="0.73" stroke-miterlimit="10"/>
<path d="M171.131 24.521L167.934 27.8566" stroke="#FBB03B" stroke-width="0.73" stroke-miterlimit="10"/>
<path d="M175.28 24.5011L172.083 27.8566" stroke="#FBB03B" stroke-width="0.73" stroke-miterlimit="10"/>
<path d="M179.45 24.5011L176.253 27.8566" stroke="#FBB03B" stroke-width="0.73" stroke-miterlimit="10"/>
<path d="M183.6 24.5011L180.404 27.8367" stroke="#FBB03B" stroke-width="0.73" stroke-miterlimit="10"/>
<path d="M183.243 58.8901H15.3286V60.3395H183.243V58.8901Z" fill="#FBB03B"/>
<path d="M52.3973 48.605V50.7493H51.2854V43.7603H50.5508V41.4373C50.5508 41.2983 50.6103 41.2387 50.7295 41.2387H51.2655V37.7244C51.2655 37.4861 51.3648 37.367 51.6229 37.367H55.316C55.5741 37.367 55.6932 37.4861 55.6932 37.7244V41.2387H55.7329L56.7059 41.6954C56.6662 42.291 56.4874 43.0257 56.1896 43.8596L55.7131 43.7008V49.697C55.7131 50.1338 55.5542 50.4713 55.1969 50.7294C55.038 50.8486 54.7799 50.8883 54.4027 50.8883C54.1048 50.8883 53.7475 50.8486 53.3504 50.789L53.3106 49.5779C53.7276 49.7168 53.9857 49.7963 54.1644 49.7963C54.3232 49.7963 54.6012 49.558 54.6012 49.2602V48.5851H52.3973V48.605ZM51.6031 43.4426H55.2167L55.4748 42.43C55.4748 42.3308 55.4351 42.2712 55.316 42.2712H51.7023C51.7023 42.2712 51.6031 42.2911 51.6031 42.3705V43.4426ZM52.3178 41.2387H52.9334V39.3128C52.9334 39.1738 52.9731 39.0944 53.1518 39.0944H54.6607V38.4987C54.6607 38.4987 54.6012 38.3597 54.5019 38.3597H52.4965C52.3973 38.3597 52.3377 38.3995 52.3377 38.4987V41.2586L52.3178 41.2387ZM52.4172 45.5473H54.621V44.5744C54.621 44.5744 54.5814 44.495 54.5218 44.495H52.5164C52.5164 44.495 52.4172 44.5347 52.4172 44.5744V45.5473ZM52.4172 47.5923H54.621V46.5797H52.4172V47.5923ZM53.8467 41.2586H54.6409V40.0276H53.9659C53.9659 40.0276 53.8467 40.0673 53.8665 40.1467V41.2586H53.8467ZM58.8105 49.6771L58.6317 49.0021L58.4332 48.4263H57.4405C57.3412 48.4263 57.2816 48.3667 57.2816 48.2873V45.587C57.2816 45.4877 57.3214 45.448 57.4405 45.448H63.7941C63.8933 45.448 63.9529 45.4877 63.9529 45.587V48.2873C63.9529 48.2873 63.9132 48.4263 63.7941 48.4263H62.8609L62.4439 49.6573H64.5287V50.6897H56.4675V49.6573H58.7906L58.8105 49.6771ZM62.0071 38.0222H63.8934C63.8934 38.0222 64.0323 38.0619 64.0323 38.1612V42.8668C64.0323 42.9661 63.9927 43.0257 63.8934 43.0257H56.9639C56.9639 43.0257 56.825 42.986 56.825 42.8668V38.1612C56.825 38.1612 56.8647 38.0222 56.9639 38.0222H58.8899V37.0493H59.9422V38.0222H60.9548V37.0493H62.0071V38.0222ZM56.8647 43.6809H64.3302V44.7134H56.8647V43.6809ZM58.8899 39.9879V38.9951H57.917C57.917 38.9951 57.8574 38.9951 57.8773 39.0348V39.9879H58.8899ZM58.8899 42.0329V40.9607H57.8773V41.9734L57.917 42.0329H58.8899ZM62.8609 46.4606H58.3935L58.3538 46.5003V47.3342L58.3935 47.3938H62.8609C62.8609 47.3938 62.9204 47.3938 62.9204 47.3342V46.5003L62.8609 46.4606ZM59.9422 49.6573H61.3321L61.6894 48.6844L61.7689 48.4263H59.5848L59.9422 49.6573ZM60.9747 39.9879V38.9951H59.9621V39.9879H60.9747ZM60.9747 42.0329V40.9607H59.9621V42.0329H60.9747ZM62.027 38.9951V39.9879H62.9999V39.0348L62.9403 38.9951H62.027ZM62.027 40.9607V42.0329H62.9403L62.9999 41.9734V40.9607H62.027Z" fill="#10FFA2"/>
<path d="M65.6009 50.0741C65.7598 48.6843 65.8591 47.4731 65.8591 46.4804C65.8591 46.0435 65.8591 45.6663 65.8194 45.3089H66.8319C66.8716 45.706 66.8717 46.1031 66.8717 46.5399C66.8717 47.6121 66.7724 48.8034 66.5738 50.1337L65.5811 50.0741H65.6009ZM70.6441 46.5995L70.5846 44.8522C70.5846 44.8522 70.5448 44.6934 70.4257 44.6934H66.3554C66.2164 44.6934 66.1569 44.6338 66.1569 44.4949V37.7044C66.1569 37.5257 66.2363 37.4463 66.3951 37.4463H71.4184V38.4788H69.5719V39.5509H71.1206V40.5834H69.5719V41.6357H71.1206V42.6682H69.5719V43.6609H71.5178C71.6766 43.6609 71.7759 43.7404 71.7759 43.8793C71.8156 44.7728 71.8156 45.567 71.8156 46.262C71.8156 50.0146 71.5376 50.7889 69.3536 50.7889C69.1352 50.7889 68.8771 50.7889 68.6189 50.7492L68.4799 49.538C69.016 49.6174 69.433 49.677 69.7109 49.677C69.8896 49.677 70.0286 49.6572 70.0683 49.5976C70.3463 49.3196 70.525 48.9622 70.5647 48.5254L70.6243 47.1951L70.0484 47.3143C69.8697 46.5002 69.6315 45.845 69.4329 45.3288L70.1676 45.1302L70.6441 46.5796V46.5995ZM67.3482 49.6373C67.3879 48.0688 67.2886 46.659 67.0901 45.428L68.0828 45.3883C68.2615 46.8576 68.3211 48.307 68.3012 49.677L67.3283 49.6373H67.3482ZM68.5196 39.5509V38.4788H67.4474C67.3482 38.4788 67.3085 38.5383 67.3283 38.6177V39.5509H68.5196ZM68.5196 41.6357V40.5834H67.3283V41.6357H68.5196ZM67.3283 43.6808H68.5196V42.688H67.3283V43.6808ZM68.9366 48.6446C68.7777 47.493 68.5395 46.4208 68.2615 45.428L69.1153 45.2692C69.4131 46.3414 69.6315 47.4334 69.7904 48.5453L68.9366 48.6446ZM73.7415 48.9821C73.7415 48.9821 73.3643 49.7763 72.4509 50.8485L71.4383 50.1734C72.3715 49.2204 73.0267 47.9893 73.3643 46.4804L74.5158 46.6988L74.1783 47.9298L75.588 49.1211L74.7541 50.0146L73.7614 48.9821H73.7415ZM73.404 40.2459L72.1928 40.8415L71.4383 39.8091C73.5827 38.9354 74.3372 38.3199 75.4689 37.1683L76.3822 37.764L76.2234 37.903C77.1566 38.5383 78.3479 39.1141 79.698 39.6304L79.0825 40.7423L77.7721 40.226V41.1592H73.3841V40.2657L73.404 40.2459ZM75.3696 46.0038C75.3696 46.1031 75.31 46.1627 75.2108 46.1627H72.2723C72.173 46.1627 72.1134 46.1031 72.1134 46.0038V42.0924C72.1134 41.9931 72.1531 41.9336 72.2723 41.9336H75.2108C75.2108 41.9336 75.3696 41.9732 75.3696 42.0924V46.0038ZM74.2578 42.966H73.2253L73.1856 43.0057V45.0706L73.2253 45.1302H74.2578C74.2578 45.1302 74.3173 45.1302 74.3173 45.0706V43.0057L74.2578 42.966ZM77.4743 40.0473C76.7396 39.6502 76.0447 39.1737 75.4292 38.6575C74.8336 39.2134 74.2578 39.6899 73.7018 40.0473H77.4743ZM78.9634 50.8683C78.4869 50.3322 77.9508 49.7564 77.3154 49.1211C76.9977 49.7167 76.5808 50.3124 76.0844 50.8683L75.0718 50.1932C76.005 49.2402 76.6602 48.0092 76.9977 46.4804L78.1493 46.7186C77.9905 47.5327 77.8515 47.9893 77.7721 48.0886C78.467 48.6843 79.1421 49.3196 79.8172 49.9947L78.9634 50.8485V50.8683ZM79.2017 45.984C79.2017 46.0833 79.1421 46.1428 79.0428 46.1428H76.1241C76.0249 46.1428 75.9653 46.0833 75.9653 45.984V42.0725C75.9653 41.9733 76.005 41.9137 76.1241 41.9137H79.0428C79.1421 41.9137 79.2017 41.9534 79.2017 42.0725V45.984ZM78.0898 42.9461H77.0573L77.0176 42.9859V45.0508L77.0573 45.1104H78.0898C78.0898 45.1104 78.1493 45.1104 78.1493 45.0508V42.9859L78.0898 42.9461Z" fill="#10FFA2"/>
<path d="M87.9182 49.6573H80.9888V48.605L82.1801 47.374C84.5825 44.9517 85.9128 43.403 85.9128 41.7153C85.9128 40.6233 85.3767 39.6703 83.9472 39.6703C83.0735 39.6703 82.2794 40.1269 81.7433 40.5439L81.2072 39.3129C81.9021 38.7569 83.014 38.2804 84.2847 38.2804C86.6276 38.2804 87.6601 39.8489 87.6601 41.5366C87.6601 43.5817 86.2305 45.3091 84.245 47.2549L83.3118 48.1881V48.2278H87.8984V49.6573H87.9182Z" fill="#10FFA2"/>
<path d="M96.7933 49.6572H95.0262V44.8721C95.0262 43.7007 94.6093 42.708 93.4379 42.708C92.5841 42.708 91.6509 43.4029 91.6509 44.6339V49.6374H89.8838V37.7045H91.6509V42.5491H91.6906C92.2267 41.6953 93.1797 41.2585 94.0931 41.2585C95.3439 41.2585 96.8132 42.0924 96.8132 44.6736V49.6374L96.7933 49.6572Z" fill="#10FFA2"/>
<path d="M103.207 42.986C103.048 42.9662 102.889 42.9463 102.691 42.9463C101.499 42.9463 100.765 43.8993 100.765 45.3289V49.6772H98.9976V43.9788C98.9976 43.0257 98.9976 42.2315 98.938 41.477H100.467L100.526 42.986H100.586C100.963 41.9536 101.837 41.2983 102.75 41.2983C102.909 41.2983 103.048 41.2983 103.187 41.338V42.986H103.207Z" fill="#10FFA2"/>
<path d="M112.081 46.2224H109.659C109.599 46.6989 109.5 47.1357 109.401 47.4732C108.845 48.9822 107.356 50.1139 105.033 50.8287L104.298 49.6573C106.244 49.1212 108.13 48.5255 108.368 46.2422H106.105C105.986 46.2422 105.946 46.1826 105.946 46.0437V41.338C105.569 41.6755 105.211 41.9337 104.854 42.1521L103.921 41.2189C105.172 40.4247 106.184 39.4121 106.959 38.1612L108.051 38.8363C107.495 39.6503 106.879 40.385 106.264 41.0005H115.735C115.119 40.4842 114.484 39.7496 113.848 38.8561C113.809 38.8164 113.749 38.7767 113.63 38.7767H108.785V37.506H114.126C114.285 37.506 114.404 37.5457 114.484 37.645C115.437 39.0745 116.628 40.2063 118.038 40.9409L117.065 41.9138L116.092 41.2784V46.0039C116.092 46.1429 116.052 46.2025 115.913 46.2025H113.392V48.5652C113.392 49.0219 113.431 49.3992 114.186 49.3992H115.615C116.032 49.3992 116.33 49.2602 116.489 49.0616C116.588 48.9028 116.608 48.3468 116.608 47.4335L117.919 47.6122C117.879 49.6176 117.819 49.836 117.581 50.1338C117.164 50.5706 117.045 50.6897 116.052 50.6897H113.63C112.756 50.6897 112.061 50.1537 112.101 48.8035V46.2224H112.081ZM114.722 42.2712H107.257C107.257 42.2712 107.217 42.2712 107.217 42.3308V44.8921C107.217 44.8921 107.217 44.9715 107.257 44.9715H114.722C114.722 44.9715 114.801 44.9318 114.801 44.8921V42.3308L114.722 42.2712Z" fill="#10FFA2"/>
<path d="M120.738 44.4353V40.9607H119.249V39.7496H120.738V37.089H121.969V39.7496H123.121V40.9607H121.969V43.8794L122.763 43.4426L123.379 44.4751C122.962 44.7332 122.485 44.9913 121.969 45.2494V49.3793C121.969 50.0146 121.572 50.8088 120.48 50.8088C120.182 50.8088 119.805 50.7493 119.368 50.65L119.328 49.3991C119.726 49.4984 120.043 49.5381 120.262 49.5381C120.54 49.5381 120.738 49.4984 120.738 49.0616V45.7656L119.487 46.2223L119.07 45.031L120.758 44.4155L120.738 44.4353ZM132.711 50.928C132.234 50.8287 131.42 50.511 130.348 50.0345C129.554 49.6175 128.68 48.8233 127.787 47.6717L127.568 48.0093C126.754 49.2204 125.225 50.233 123.022 50.9478L122.406 49.7962C124.55 49.2601 126 48.4064 126.715 47.215H122.744V46.123H123.657V40.7026C123.657 40.4445 123.796 40.3253 124.054 40.3253H127.628C128.362 39.7495 128.998 39.2135 129.455 38.6972H125.94C125.404 39.1539 125.007 39.4914 123.796 40.2062L123.121 39.1936C124.431 38.5185 125.444 37.7839 126.139 36.9698L127.112 37.4662L127.012 37.6052H130.527L131.241 38.2406C131.241 38.2406 130.825 39.1142 129.554 40.3253H132.075C132.373 40.3253 132.492 40.4445 132.492 40.7026V46.123H133.187V47.215H128.799C129.395 47.9894 130.348 49.2403 133.247 49.7962L132.711 50.9478V50.928ZM128.363 45.7061L128.323 46.1032H131.301V44.753H129.196C128.819 44.753 128.66 44.5743 128.66 44.1971V41.3777H127.449V42.2116C127.449 43.4823 126.873 44.4949 125.781 45.2295L124.908 44.3758C125.146 44.2765 125.364 44.1375 125.543 43.9985C125.98 43.5816 126.238 42.9661 126.278 42.2116V41.3777H125.007C124.908 41.3777 124.848 41.4372 124.848 41.5365V46.0833H127.092L127.131 45.6862V44.7332H128.363V45.6862V45.7061ZM129.812 43.3632C129.812 43.5419 129.911 43.6411 130.09 43.6411H131.301V41.5365C131.301 41.4372 131.241 41.3777 131.142 41.3777H129.832V43.3632H129.812Z" fill="#10FFA2"/>
<path d="M136.285 49.2006C138.152 48.8035 139.383 47.91 139.998 46.54H137.397V45.7061C136.782 46.3018 136.047 46.8577 135.213 47.3342L134.22 46.401C135.431 45.6664 136.543 44.8126 137.556 43.8794H134.478V42.6683H138.588C139.105 41.9932 139.541 41.1593 139.541 41.0799H135.014V39.8687H140.038C140.256 39.0547 140.435 38.0818 140.554 37.0493L141.904 37.1883C141.805 37.8634 141.606 38.7966 141.308 39.8886H143.215C143.909 38.8363 144.446 37.9031 144.763 37.1684L145.915 37.7641C145.637 38.4193 145.24 39.1142 144.763 39.8886H147.583V41.0997H143.195C143.493 41.6954 143.81 42.2116 144.128 42.6881H148.119V43.8993H145.081C145.875 44.7332 146.967 45.5473 148.337 46.3613L147.285 47.3342C146.749 46.9768 146.233 46.5996 145.756 46.2223L145.716 48.5652C145.677 49.3594 145.518 50.928 143.334 50.928C142.718 50.928 142.023 50.8287 141.169 50.5905V49.1013C141.785 49.3595 142.42 49.5977 143.056 49.5977C143.493 49.5977 143.87 49.4786 144.148 49.2403C144.426 48.9623 144.505 48.5057 144.505 47.2548C144.505 46.679 144.446 46.5797 144.287 46.5797H141.408C141.269 47.0165 141.05 47.4335 140.792 47.8505L140.494 48.2873C139.422 49.6374 137.576 50.4912 135.014 50.8089L134.677 49.4786L136.305 49.2205L136.285 49.2006ZM137.715 39.69C137.218 38.876 136.762 38.2406 136.345 37.8237L137.397 37.0692C137.854 37.5457 138.31 38.2009 138.787 38.9951L137.695 39.6702L137.715 39.69ZM139.144 43.8794C138.827 44.2567 138.37 44.7531 137.774 45.3289H144.803L143.473 43.8794H139.144ZM142.659 42.6683L141.805 41.0799H140.892L140.018 42.6683H142.639H142.659Z" fill="#10FFA2"/>
<path d="M35.5601 34.4283L38.4986 40.2657L45.0706 41.1989L40.3054 45.7457L41.4372 52.1788L35.5601 49.1409L29.683 52.1788L30.8147 45.7457L26.0693 41.1989L32.6215 40.2657L35.5601 34.4283Z" fill="#10FFA2"/>
<path d="M163.764 34.1898L166.703 40.0272L173.275 40.9802L168.529 45.5072L169.641 51.9402L163.764 48.9024L157.907 51.9402L159.019 45.5072L154.273 40.9802L160.845 40.0272L163.764 34.1898Z" fill="#10FFA2"/>
<path d="M84.4635 17.2737H82.478V16.0626H82.8752V13.4219H82.478V12.2107H85.5754L86.3299 14.1565L87.1043 12.2107H90.1818V13.4219H89.7847V16.0626H90.2017V17.2737H87.5212V16.0626H87.9382V13.2431L86.3895 17.2737H85.6152L84.0863 13.2829V16.0626H84.4834V17.2737H84.4635Z" fill="#10FFA2"/>
<path d="M90.8174 15.5066C90.8174 14.9903 91.0358 14.5535 91.4924 14.1961C91.9293 13.8387 92.5249 13.66 93.2794 13.66C94.0339 13.66 94.6494 13.8387 95.1259 14.1763C95.6024 14.5138 95.8407 14.9705 95.8407 15.5264C95.8407 16.0824 95.6223 16.4993 95.1656 16.8567C94.709 17.2141 94.1133 17.3928 93.3786 17.3928C92.5844 17.3928 91.9491 17.2141 91.4924 16.8567C91.0358 16.4993 90.8174 16.0625 90.8174 15.5066ZM92.7036 15.5066C92.7036 16.0625 92.9021 16.3405 93.3191 16.3405C93.7559 16.3405 93.9743 16.0625 93.9743 15.4867C93.9743 15.2286 93.9147 15.03 93.8155 14.8911C93.7162 14.7521 93.5574 14.6726 93.3588 14.6726C93.1603 14.6726 93.0014 14.7521 92.8823 14.8911C92.7631 15.03 92.7036 15.2286 92.7036 15.5066Z" fill="#10FFA2"/>
<path d="M99.2757 17.3333H97.7866L96.4365 14.8713H96.0791V13.7594H98.6007V14.8713H98.2036L98.7992 16.2016L99.4346 14.8713H99.0772V13.7594H100.924V14.8713H100.586L99.2757 17.3333Z" fill="#10FFA2"/>
<path d="M104.18 17.3333H102.71L101.618 14.8713H101.241V13.7594H103.664V14.8713H103.306L103.723 16.0427L104.597 13.7594H105.967L106.781 16.0427L107.237 14.8713H106.9V13.7594H108.647V14.8713H108.29L107.257 17.3333H105.788L104.974 15.5265L104.2 17.3333H104.18Z" fill="#10FFA2"/>
<path d="M111.983 16.1617L113.511 16.3404C113.452 16.4992 113.353 16.6382 113.214 16.7573C113.095 16.8765 112.936 16.9956 112.757 17.075C112.4 17.2736 111.963 17.353 111.466 17.353C110.632 17.353 109.997 17.1743 109.58 16.8368C109.163 16.4992 108.945 16.0624 108.945 15.5065C108.945 14.9505 109.143 14.5137 109.56 14.1563C109.977 13.7989 110.533 13.6202 111.228 13.6202C111.923 13.6202 112.459 13.7989 112.876 14.1365C113.293 14.474 113.511 14.9902 113.551 15.6653H110.732C110.732 16.2411 110.95 16.5191 111.387 16.5191C111.645 16.5191 111.824 16.3801 111.943 16.122L111.983 16.1617ZM110.791 15.2484H111.844V15.1292C111.844 14.9307 111.804 14.7718 111.705 14.6527C111.605 14.5336 111.466 14.474 111.308 14.474C111.149 14.474 111.01 14.5336 110.93 14.6726C110.851 14.8115 110.791 14.9704 110.791 15.1888C110.791 15.2086 110.791 15.2484 110.791 15.2682V15.2484Z" fill="#10FFA2"/>
<path d="M63.5162 10.7415L64.9656 13.6601L68.1821 14.1168L65.8591 16.4001L66.415 19.5968L63.5162 18.068L60.6571 19.5769L61.1931 16.3803L58.8701 14.1168L62.0866 13.6601L63.5162 10.7415Z" fill="#FEB73A"/>
<path d="M128.244 14.2557L131.44 13.66L132.771 10.6818L134.319 13.5409L137.556 13.8784L135.312 16.2412L135.987 19.418L133.049 18.0281L130.249 19.6563L130.666 16.4199L128.244 14.2557Z" fill="#FEB73A"/>
</svg>
