<svg width="83" height="74" viewBox="0 0 83 74" fill="none" xmlns="http://www.w3.org/2000/svg">
<path fill-rule="evenodd" clip-rule="evenodd" d="M6.54131 66.288L6.48008 66.2268L6.41885 66.1656C3.55697 63.5792 2.14902 59.294 3.67943 52.9275C2.36327 53.3101 1.18485 53.9682 0.235995 54.6416C-0.621039 60.5949 0.878742 65.278 4.36809 68.4306C13.9485 78.0875 30.0638 73.129 54.5046 57.4269C74.4 44.6479 91.9998 29.8794 76.6956 8.45358C60.2283 -9.22274 38.4505 3.86233 21.6006 19.9317C15.5095 26.237 10.7959 32.1291 7.35242 37.5315H11.0101C14.1934 32.8025 18.402 27.645 23.7585 22.0896C32.0687 14.1773 41.2971 7.29046 50.2194 4.44389C54.6423 3.0359 58.8816 2.63799 62.8454 3.51033C66.7479 4.36736 70.6199 6.46404 74.3082 10.3819C77.7975 15.3098 79.2514 19.6409 79.4044 23.467C79.5728 27.3236 78.425 30.9813 76.1906 34.5472C71.63 41.8626 62.8147 48.4281 52.8364 54.8405C40.6696 62.6609 30.8902 67.5889 23.131 69.456C15.5095 71.2925 10.3214 70.0988 6.52599 66.2727L6.54131 66.288Z" fill="#B0AEAE"/>
<path fill-rule="evenodd" clip-rule="evenodd" d="M36.0287 63.4568C20.4949 73.5422 11.2053 71.2619 7.54763 67.4206C4.80818 64.5434 3.1706 60.8551 3.69094 56.1261C3.81338 55.0548 4.04296 53.8917 4.42556 52.6674C2.98697 53.2183 1.77793 53.9988 0.874983 54.6875C-0.196309 61.0387 1.94631 65.9973 5.40505 69.6397C10.5319 75.0267 21.5815 76.4653 37.5591 66.1044C49.5575 58.3299 58.3115 45.1836 47.7822 31.1344C37.5744 20.697 20.8163 27.5838 12.399 34.5625C11.4808 35.5726 10.6084 36.5674 9.81261 37.5315H13.7917C13.9907 37.3173 14.1896 37.0877 14.3886 36.8582C18.2758 33.6902 24.0455 30.5528 29.9223 29.3897C35.7838 28.2266 41.3545 29.0836 45.5326 33.2464C50.0626 39.3833 50.2769 44.9388 48.3485 49.8055C46.3131 54.963 41.7065 59.7379 35.9981 63.4415L36.0287 63.4568Z" fill="#B0AEAE"/>
</svg>
