<svg width="161" height="93" viewBox="0 0 161 93" fill="none" xmlns="http://www.w3.org/2000/svg">
<path d="M0 42.75L15.75 93H0V42.75Z" fill="#C59C9C"/>
<path d="M142.5 0L91.5 15.75L56.25 12.75L142.5 0Z" fill="#C59C9C"/>
<path d="M142.5 0L160.5 11.25L136.5 56.25L0 91.5V31.035L142.5 0Z" fill="#EEBCBC"/>
<path d="M153 6L160.5 11.25L144.75 41.25L0 79.5V43.5L153 6Z" fill="#DE9797"/>
<path d="M38.4867 57.1585L39.9327 56.7774L39.5216 55.3322L38.0756 55.7133L38.4867 57.1585ZM39.3072 59.989L39.7183 61.4342L41.1643 61.0532L40.7532 59.6079L39.3072 59.989ZM30.9898 62.2063L29.5438 62.5873L29.9548 64.0326L31.4008 63.6515L30.9898 62.2063ZM30.1692 59.3758L29.7582 57.9306L28.3122 58.3116L28.7232 59.7568L30.1692 59.3758ZM27.4983 45.4879L28.9443 45.1068L28.5333 43.6616L27.0873 44.0426L27.4983 45.4879ZM32.2419 61.8751L32.653 63.3203L34.0989 62.9393L33.6879 61.494L32.2419 61.8751ZM28.5454 62.8672L27.0994 63.2483L27.5105 64.6935L28.9565 64.3125L28.5454 62.8672ZM23.8019 46.48L23.3908 45.0348L21.9448 45.4158L22.3559 46.861L23.8019 46.48ZM37.0257 57.5399L37.8463 60.3704L40.7379 59.5933L39.9173 56.7628L37.0257 57.5399ZM38.8812 58.5441L30.5637 60.7614L31.4004 63.6365L39.7179 61.4192L38.8812 58.5441ZM32.4207 61.8256L31.6002 58.9951L28.7086 59.7722L29.5292 62.6027L32.4207 61.8256ZM30.5652 60.8214L38.8827 58.6041L38.046 55.729L29.7285 57.9463L30.5652 60.8214ZM26.0377 45.8843L30.7813 62.2715L33.6729 61.4944L28.9293 45.1072L26.0377 45.8843ZM31.8163 60.4452L28.1198 61.4374L28.9565 64.3125L32.653 63.3203L31.8163 60.4452ZM29.9914 62.4862L25.2478 46.099L22.3562 46.876L27.0998 63.2633L29.9914 62.4862ZM24.2129 47.9252L27.9094 46.9331L27.0727 44.058L23.3762 45.0501L24.2129 47.9252ZM41.0179 41.8809L42.4639 41.4998L42.0529 40.0546L40.6069 40.4356L41.0179 41.8809ZM45.7615 58.2681L46.1725 59.7133L47.6185 59.3323L47.2075 57.8871L45.7615 58.2681ZM42.0796 59.2449L40.6336 59.6259L41.0447 61.0712L42.4906 60.6901L42.0796 59.2449ZM37.336 42.8577L36.925 41.4124L35.479 41.7935L35.8901 43.2387L37.336 42.8577ZM39.5719 42.2619L44.3155 58.6491L47.2071 57.8721L42.4635 41.4848L39.5719 42.2619ZM45.3505 56.8229L41.6686 57.7996L42.5053 60.6747L46.1871 59.698L45.3505 56.8229ZM43.5406 58.8635L38.797 42.4762L35.9054 43.2533L40.649 59.6405L43.5406 58.8635ZM37.7621 44.3025L41.4439 43.3258L40.6073 40.4506L36.9254 41.4274L37.7621 44.3025ZM46.4884 40.4245L46.0774 38.9793L44.0353 39.5252L45.2639 41.2652L46.4884 40.4245ZM49.5442 39.6134L50.7841 38.7873L50.1615 37.8875L49.1182 38.1685L49.5292 39.6137L49.5442 39.6134ZM56.9064 50.2788L55.6666 51.1048L58.2194 54.8075L58.4093 50.3765L56.9064 50.2788ZM57.4594 37.5111L57.0484 36.0658L56.0051 36.3469L55.9565 37.4134L57.4594 37.5111ZM60.5152 36.6999L62.0185 36.8126L62.1313 34.7092L60.0892 35.2551L60.5002 36.7003L60.5152 36.6999ZM59.4902 54.6259L59.9013 56.0712L60.9296 55.7905L60.9935 54.7386L59.4902 54.6259ZM57.0159 55.2876L55.7914 56.1283L56.4132 56.9981L57.4416 56.7175L57.0305 55.2722L57.0159 55.2876ZM44.7301 40.9184L44.3191 39.4731L42.8731 39.8542L43.2842 41.2994L44.7301 40.9184ZM47.8455 40.0907L49.2747 39.6351L48.8059 38.2813L47.4195 38.6459L47.8306 40.0911L47.8455 40.0907ZM51.9397 52.0827L53.3857 51.7017L53.3838 51.6267L51.9397 52.0827ZM53.1706 56.3284L53.5816 57.7737L55.0276 57.3926L54.6166 55.9474L53.1706 56.3284ZM49.4741 57.3206L48.0281 57.7016L48.4391 59.1469L49.8851 58.7658L49.4741 57.3206ZM59.1742 37.0783L58.7632 35.6331L57.3768 35.9977L57.7114 37.3848L59.1738 37.0634L59.1742 37.0783ZM62.3046 36.2503L63.7506 35.8693L63.3396 34.4241L61.8936 34.8051L62.3046 36.2503ZM67.0482 52.6375L67.4592 54.0828L68.9052 53.7017L68.4942 52.2565L67.0482 52.6375ZM63.3517 53.6297L61.9057 54.0107L62.3167 55.456L63.7627 55.0749L63.3517 53.6297ZM62.1208 49.3839L60.6584 49.7054L60.6602 49.7804L62.1212 49.3989L62.1208 49.3839ZM46.9156 41.9144L49.9714 41.1032L49.1347 38.2281L46.0789 39.0393L46.9156 41.9144ZM48.3205 40.484L55.6827 51.1494L58.1624 49.4973L50.8002 38.8319L48.3205 40.484ZM58.4251 50.4061L58.9781 37.6384L55.9577 37.4584L55.4047 50.2261L58.4251 50.4061ZM57.8862 38.9859L60.942 38.1748L60.1053 35.2997L57.0495 36.1108L57.8862 38.9859ZM59.0127 36.6172L57.9877 54.5432L60.9942 54.7686L62.0192 36.8426L59.0127 36.6172ZM59.0803 53.2257L56.606 53.8873L57.4427 56.7624L59.917 56.1008L59.0803 53.2257ZM58.2415 54.4919L47.7144 39.6438L45.2504 41.3256L55.7775 56.1736L58.2415 54.4919ZM45.1419 42.3936L48.2573 41.5659L47.4206 38.6908L44.3052 39.5185L45.1419 42.3936ZM46.4172 40.5764L50.5113 52.5683L53.3696 51.6571L49.2754 39.6651L46.4172 40.5764ZM50.4945 52.4937L51.7253 56.7395L54.6169 55.9624L53.3861 51.7167L50.4945 52.4937ZM52.7603 54.9132L49.0638 55.9053L49.9005 58.7804L53.597 57.7883L52.7603 54.9132ZM50.9354 56.9542L46.1919 40.5669L43.3003 41.344L48.0438 57.7312L50.9354 56.9542ZM59.6006 38.5382L62.731 37.7102L61.8943 34.8351L58.7639 35.6631L59.6006 38.5382ZM60.859 36.6464L65.6026 53.0336L68.4942 52.2565L63.7506 35.8693L60.859 36.6464ZM66.6375 51.2073L62.941 52.1994L63.7777 55.0745L67.4742 54.0824L66.6375 51.2073ZM64.7977 53.2486L63.5668 49.0029L60.6752 49.78L61.9061 54.0257L64.7977 53.2486ZM63.5837 49.0775L60.637 36.7719L57.6971 37.4151L60.6437 49.7207L63.5837 49.0775ZM69.698 34.281L71.1439 33.9L70.7329 32.4548L69.2869 32.8358L69.698 34.281ZM74.4415 50.6683L74.8526 52.1135L76.2985 51.7325L75.8875 50.2872L74.4415 50.6683ZM70.7597 51.645L69.3137 52.0261L69.7247 53.4713L71.1707 53.0903L70.7597 51.645ZM66.0161 35.2578L65.6051 33.8126L64.1591 34.1936L64.5701 35.6389L66.0161 35.2578ZM68.252 34.6621L72.9956 51.0493L75.8871 50.2722L71.1436 33.885L68.252 34.6621ZM74.0305 49.223L70.3486 50.1998L71.1853 53.0749L74.8672 52.0981L74.0305 49.223ZM72.2206 51.2636L67.4771 34.8764L64.5855 35.6535L69.3291 52.0407L72.2206 51.2636ZM66.4421 36.7027L70.124 35.7259L69.2873 32.8508L65.6054 33.8276L66.4421 36.7027ZM80.7432 31.3357L82.1892 30.9547L81.7782 29.5095L80.3322 29.8905L80.7432 31.3357ZM85.4868 47.723L85.8978 49.1682L87.3438 48.7872L86.9328 47.3419L85.4868 47.723ZM81.8049 48.6997L80.3589 49.0808L80.77 50.526L82.2159 50.145L81.8049 48.6997ZM77.0613 32.3125L76.6503 30.8673L75.2043 31.2483L75.6154 32.6936L77.0613 32.3125ZM85.7515 29.9959L87.1974 29.6149L86.7864 28.1696L85.3404 28.5507L85.7515 29.9959ZM86.5724 32.8414L86.9834 34.2866L88.4294 33.9056L88.0184 32.4603L86.5724 32.8414ZM72.9636 36.4806L71.5176 36.8616L71.9287 38.3069L73.3746 37.9258L72.9636 36.4806ZM72.1427 33.6351L71.7316 32.1899L70.2857 32.5709L70.6967 34.0162L72.1427 33.6351ZM79.2826 31.7321L84.0262 48.1194L86.9178 47.3423L82.1742 30.9551L79.2826 31.7321ZM85.0611 46.2931L81.3792 47.2699L82.2159 50.145L85.8978 49.1682L85.0611 46.2931ZM83.2513 48.3337L78.5077 31.9465L75.6161 32.7235L80.3597 49.1108L83.2513 48.3337ZM77.4727 33.7727L81.1546 32.796L80.3179 29.9209L76.636 30.8976L77.4727 33.7727ZM84.3059 30.3919L85.1268 33.2374L88.0184 32.4603L87.1974 29.6149L84.3059 30.3919ZM86.1617 31.4112L72.553 35.0504L73.3896 37.9255L86.9984 34.2863L86.1617 31.4112ZM74.4246 36.0992L73.6036 33.2537L70.7121 34.0308L71.533 36.8763L74.4246 36.0992ZM72.5687 35.08L86.1775 31.4408L85.3408 28.5657L71.732 32.2049L72.5687 35.08ZM103.447 39.8793L104.893 39.4983L104.482 38.0531L103.036 38.4341L103.447 39.8793ZM104.268 42.7098L104.679 44.1551L106.125 43.774L105.714 42.3288L104.268 42.7098ZM95.4887 45.0587L94.0427 45.4397L94.4537 46.8849L95.8997 46.5039L95.4887 45.0587ZM94.6681 42.2282L94.2571 40.7829L92.8111 41.164L93.2221 42.6092L94.6681 42.2282ZM91.9973 28.3402L93.4432 27.9592L93.0322 26.514L91.5862 26.895L91.9973 28.3402ZM96.7408 44.7274L97.1519 46.1727L98.5978 45.7916L98.1868 44.3464L96.7408 44.7274ZM93.0443 45.7196L91.5984 46.1006L92.0094 47.5459L93.4554 47.1648L93.0443 45.7196ZM88.3008 29.3324L87.8897 27.8871L86.4438 28.2682L86.8548 29.7134L88.3008 29.3324ZM100.281 33.2359L101.727 32.8549L101.316 31.4097L99.8704 31.7907L100.281 33.2359ZM101.07 35.9772L101.481 37.4224L102.927 37.0414L102.516 35.5962L101.07 35.9772ZM93.423 38.0128L91.977 38.3938L92.388 39.8391L93.834 39.458L93.423 38.0128ZM92.6346 35.2715L92.2236 33.8263L90.7776 34.2073L91.1887 35.6526L92.6346 35.2715ZM99.5095 26.323L100.955 25.9419L100.544 24.4967L99.0984 24.8778L99.5095 26.323ZM100.33 29.1685L100.741 30.6137L102.187 30.2327L101.776 28.7874L100.33 29.1685ZM91.551 31.5173L90.1051 31.8983L90.5161 33.3436L91.9621 32.9625L91.551 31.5173ZM90.7301 28.6718L90.3191 27.2266L88.8731 27.6076L89.2841 29.0529L90.7301 28.6718ZM101.986 40.2608L102.807 43.0912L105.699 42.3142L104.878 39.4837L101.986 40.2608ZM103.842 41.265L95.0626 43.6138L95.8993 46.4889L104.679 44.1401L103.842 41.265ZM96.9343 44.6626L96.1137 41.8321L93.2221 42.6092L94.0427 45.4397L96.9343 44.6626ZM95.0788 43.6584L103.858 41.3096L103.021 38.4345L94.2421 40.7833L95.0788 43.6584ZM90.5513 28.7213L95.2948 45.1085L98.1864 44.3314L93.4429 27.9442L90.5513 28.7213ZM96.3298 43.2822L92.6333 44.2744L93.47 47.1495L97.1665 46.1573L96.3298 43.2822ZM94.5049 45.3232L89.7614 28.936L86.8698 29.713L91.6133 46.1003L94.5049 45.3232ZM88.7264 30.7622L92.4229 29.7701L91.5862 26.895L87.8897 27.8871L88.7264 30.7622ZM98.8505 33.6166L99.6388 36.3579L102.53 35.5808L101.742 32.8395L98.8505 33.6166ZM100.674 34.5316L93.027 36.5672L93.8636 39.4423L101.51 37.4067L100.674 34.5316ZM94.899 37.631L94.1106 34.8898L91.219 35.6668L92.0074 38.4081L94.899 37.631ZM93.0757 36.716L100.722 34.6804L99.8858 31.8053L92.239 33.8409L93.0757 36.716ZM98.0789 26.7186L98.8998 29.5641L101.791 28.7871L100.97 25.9416L98.0789 26.7186ZM99.9347 27.7379L91.1554 30.0867L91.9921 32.9618L100.771 30.613L99.9347 27.7379ZM93.012 31.1359L92.1911 28.2904L89.2995 29.0675L90.1204 31.913L93.012 31.1359ZM91.1561 30.1167L99.9355 27.7678L99.0988 24.8927L90.3194 27.2416L91.1561 30.1167ZM108.397 41.6169L106.951 41.9979L107.363 43.4582L108.823 43.0618L108.412 41.6165L108.397 41.6169ZM107.591 38.7711L107.18 37.3258L105.749 37.7065L106.145 39.1371L107.591 38.7561L107.591 38.7711ZM113.106 36.6834L114.256 37.6601L113.091 36.6838L113.106 36.6834ZM113.911 34.6528L115.416 34.8255L113.911 34.6528ZM112.479 28.9716L111.192 29.7088L112.479 28.9716ZM109.804 26.9824L109.601 28.4579L109.804 26.9824ZM104.4 28.092L102.954 28.4731L103.365 29.9183L104.811 29.5373L104.4 28.092ZM103.579 25.2466L103.168 23.8013L101.722 24.1824L102.133 25.6276L103.579 25.2466ZM110.465 24.0101L110.307 25.4845L110.465 24.0101ZM113.325 24.9743L112.562 26.2537L113.31 24.9747L113.325 24.9743ZM115.612 27.0332L114.404 27.9185L115.612 27.0332ZM117.664 34.1394L119.169 34.2971L117.664 34.1394ZM116.806 37.0416L115.468 36.3246L116.806 37.0416ZM105.725 24.6681L107.171 24.287L106.76 22.8418L105.314 23.2228L105.725 24.6681ZM110.469 41.0553L110.88 42.5005L112.326 42.1195L111.915 40.6742L110.469 41.0553ZM106.772 42.0474L105.326 42.4284L105.737 43.8737L107.183 43.4926L106.772 42.0474ZM102.029 25.6602L101.618 24.215L100.172 24.596L100.583 26.0412L102.029 25.6602ZM111.578 39.2121L107.956 40.1874L108.793 43.0625L112.415 42.0872L111.578 39.2121ZM109.829 41.2512L109.023 38.4054L106.115 39.1528L106.921 41.9987L109.829 41.2512ZM107.988 40.2317L111.595 39.2717L110.758 36.3966L107.151 37.3566L107.988 40.2317ZM111.595 39.2717C112.638 38.9907 113.556 38.4878 114.241 37.6905L111.942 35.722C111.708 35.9829 111.354 36.2318 110.758 36.3816L111.594 39.2567L111.595 39.2717ZM114.256 37.6901C114.942 36.8929 115.293 35.9238 115.401 34.8558L112.392 34.5255C112.331 35.0972 112.161 35.4765 111.928 35.7524L114.242 37.7055L114.256 37.6901ZM115.401 34.8408C115.494 33.7732 115.346 32.6365 115.001 31.4447L112.11 32.2218C112.389 33.1751 112.467 33.9234 112.407 34.5251L115.416 34.8554L115.401 34.8408ZM115.001 31.4447L114.788 30.6848L111.896 31.4619L112.11 32.2218L115.001 31.4447ZM114.788 30.6848C114.525 29.776 114.189 28.9591 113.767 28.2494L111.178 29.7392C111.444 30.1677 111.683 30.7319 111.896 31.4469L114.787 30.6698L114.788 30.6848ZM113.767 28.2494C113.344 27.5397 112.818 26.9225 112.176 26.4433L110.39 28.8135C110.649 29.0021 110.912 29.2956 111.178 29.7392L113.767 28.2494ZM112.176 26.4433C111.534 25.9641 110.791 25.6525 109.993 25.5373L109.601 28.4879C109.887 28.5258 110.145 28.6395 110.39 28.8135L112.176 26.4433ZM110.008 25.5369C109.225 25.4213 108.431 25.4861 107.657 25.7004L108.493 28.5755C108.94 28.4594 109.315 28.435 109.601 28.4879L110.023 25.5365L110.008 25.5369ZM107.657 25.7004L103.99 26.6768L104.826 29.5519L108.493 28.5755L107.657 25.7004ZM105.862 27.7406L105.041 24.8951L102.149 25.6722L102.97 28.5177L105.862 27.7406ZM104.006 26.7214L107.673 25.745L106.836 22.8699L103.169 23.8463L104.006 26.7214ZM107.673 25.745C108.627 25.4962 109.495 25.4296 110.308 25.5295L110.64 22.5653C109.39 22.4163 108.118 22.523 106.836 22.8549L107.672 25.73L107.673 25.745ZM110.323 25.5291C111.151 25.6286 111.907 25.8798 112.593 26.2979L114.105 23.7396C113.039 23.1059 111.874 22.7147 110.64 22.5653L110.323 25.5291ZM112.593 26.2979C113.293 26.7007 113.907 27.2556 114.434 27.9477L116.837 26.1925C116.076 25.1911 115.155 24.3587 114.09 23.74L112.593 26.2979ZM114.434 27.9477C114.947 28.6402 115.373 29.4699 115.668 30.4978L118.56 29.7208C118.182 28.3948 117.612 27.2085 116.837 26.1925L114.434 27.9477ZM115.668 30.4978L115.881 31.2278L118.773 30.4507L118.56 29.7208L115.668 30.4978ZM115.881 31.2278C116.177 32.2408 116.275 33.1686 116.191 34.0259L119.199 34.3263C119.303 33.0633 119.166 31.7613 118.773 30.4507L115.881 31.2278ZM116.191 34.0109C116.107 34.8683 115.886 35.639 115.498 36.3389L118.16 37.7882C118.734 36.7236 119.08 35.5596 119.184 34.3267L116.176 34.0113L116.191 34.0109ZM115.498 36.3389C115.125 37.0234 114.614 37.6062 113.967 38.1175L115.841 40.4866C116.813 39.7423 117.586 38.8378 118.16 37.7882L115.498 36.3389ZM113.967 38.1175C113.319 38.6137 112.548 38.993 111.609 39.2414L112.446 42.1165C113.728 41.7695 114.87 41.231 115.841 40.4866L113.967 38.1175ZM104.295 25.0937L109.039 41.4809L111.931 40.7038L107.187 24.3166L104.295 25.0937ZM110.074 39.6546L106.377 40.6468L107.214 43.5219L110.911 42.5298L110.074 39.6546ZM108.249 41.6956L103.505 25.3084L100.614 26.0855L105.357 42.4727L108.249 41.6956ZM102.471 27.1347L106.167 26.1425L105.33 23.2674L101.634 24.2596L102.471 27.1347Z" fill="#D8C45D"/>
<path d="M38.4819 57.1587L39.3025 59.9891L30.985 62.2065L30.1644 59.376L38.4819 57.1587ZM27.4936 45.488L32.2372 61.8753L28.5407 62.8674L23.7971 46.4802L27.4936 45.488ZM41.0278 41.8657L45.7714 58.2529L42.0895 59.2297L37.3459 42.8425L41.0278 41.8657ZM46.4983 40.4093L49.5541 39.5982L56.9163 50.2636L57.4693 37.4959L60.5251 36.6847L59.5001 54.6107L57.0258 55.2724L46.4987 40.4243L46.4983 40.4093ZM44.7396 40.8882L47.855 40.0605L51.9492 52.0525L53.1801 56.2982L49.4836 57.2904L44.74 40.9032L44.7396 40.8882ZM59.1833 37.0332L62.3137 36.2051L67.0573 52.5924L63.3608 53.5845L62.13 49.3388L59.1833 37.0332ZM69.7067 34.2209L74.4503 50.6081L70.7684 51.5848L66.0248 35.1976L69.7067 34.2209ZM80.752 31.2756L85.4955 47.6628L81.8137 48.6395L77.0701 32.2523L80.752 31.2756ZM85.7602 29.9357L86.5812 32.7812L72.9724 36.4204L72.1514 33.5749L85.7602 29.9357ZM103.441 39.8195L104.262 42.65L95.4824 44.9988L94.6619 42.1684L103.441 39.8195ZM92.006 28.2801L96.7496 44.6673L93.0531 45.6594L88.3095 29.2722L92.006 28.2801ZM100.305 33.1754L101.094 35.9167L93.4467 37.9522L92.6584 35.211L100.305 33.1754ZM99.5336 26.2774L100.355 29.1229L91.5752 31.4717L90.7542 28.6263L99.5336 26.2774ZM112.028 40.5964L108.406 41.5717L107.6 38.7259L111.208 37.766C112.028 37.5505 112.663 37.1746 113.131 36.6528C113.582 36.1165 113.85 35.4346 113.935 34.6222C114.02 33.7949 113.891 32.8378 113.579 31.7652L113.365 31.0053C113.135 30.2007 112.848 29.5027 112.503 28.926C112.159 28.3494 111.758 27.8942 111.314 27.5602C110.871 27.2261 110.37 27.0134 109.828 26.9369C109.286 26.8603 108.717 26.8895 108.091 27.0551L104.424 28.0315L103.603 25.186L107.27 24.2096C108.388 23.9117 109.466 23.8249 110.489 23.9495C111.528 24.0738 112.481 24.3952 113.349 24.9138C114.232 25.432 114.999 26.1182 115.636 26.9726C116.287 27.8267 116.777 28.8348 117.107 30.012L117.32 30.7419C117.664 31.9038 117.782 33.0112 117.688 34.0788C117.594 35.1315 117.303 36.099 116.83 36.981C116.356 37.8481 115.715 38.5992 114.905 39.2196C114.095 39.8399 113.131 40.299 112.028 40.5964ZM105.749 24.6225L110.493 41.0097L106.796 42.0018L102.053 25.6146L105.749 24.6225Z" fill="#FFED91"/>
</svg>
