<svg width="200" height="80" viewBox="0 0 200 80" fill="none" xmlns="http://www.w3.org/2000/svg">
<path d="M171.82 75.2801H27.7605V74.6801C27.7605 67.0001 21.4005 60.7601 13.5805 60.7601H12.9805V18.8201H13.7005C13.8205 18.8401 13.9405 18.8601 14.0605 18.8601C21.7605 18.8601 28.1205 12.7201 28.2405 5.16006V4.58008H171.82V5.16006C171.96 12.7201 178.32 18.8601 186.02 18.8601H186.62V60.7601H186.02C178.2 60.7601 171.84 67.0001 171.84 74.6801V75.2801H171.82ZM28.9605 74.08H170.62C170.94 66.22 177.4 59.8801 185.4 59.5601V20.0201C181.56 19.8801 177.96 18.3401 175.2 15.6801C172.44 13.0201 170.84 9.50008 170.64 5.74008H29.4405C29.2405 9.50008 27.6205 13.0201 24.8805 15.6801C22.0205 18.4601 18.2205 20.0001 14.2005 20.0201V59.5601C22.2205 59.8601 28.6805 66.2 28.9805 74.08H28.9605Z" fill="#FC6F51"/>
<path d="M33.1071 10.6855L29.8896 14.001L30.7508 14.8367L33.9682 11.5212L33.1071 10.6855Z" fill="#FC6F51"/>
<path d="M34.7204 14.86L33.8604 14.02L37.0804 10.72L37.9404 11.56L34.7204 14.86Z" fill="#FC6F51"/>
<path d="M41.071 10.673L37.8535 13.9885L38.7147 14.8242L41.9321 11.5087L41.071 10.673Z" fill="#FC6F51"/>
<path d="M45.0426 10.6769L41.8252 13.9924L42.6864 14.8281L45.9038 11.5126L45.0426 10.6769Z" fill="#FC6F51"/>
<path d="M46.6598 14.86L45.7998 14.02L49.0198 10.72L49.8798 11.56L46.6598 14.86Z" fill="#FC6F51"/>
<path d="M53.0055 10.6845L49.7881 14L50.6492 14.8357L53.8667 11.5202L53.0055 10.6845Z" fill="#FC6F51"/>
<path d="M55.2399 14.86L54.3799 14.02L57.5799 10.72L58.4599 11.56L55.2399 14.86Z" fill="#FC6F51"/>
<path d="M61.567 10.6813L58.3496 13.9968L59.2108 14.8325L62.4282 11.517L61.567 10.6813Z" fill="#FC6F51"/>
<path d="M65.5583 10.6852L62.3408 14.0007L63.202 14.8364L66.4194 11.5209L65.5583 10.6852Z" fill="#FC6F51"/>
<path d="M67.1803 14.86L66.3203 14.02L69.5403 10.72L70.4003 11.56L67.1803 14.86Z" fill="#FC6F51"/>
<path d="M73.5221 10.6928L70.3047 14.0083L71.1658 14.844L74.3833 11.5285L73.5221 10.6928Z" fill="#FC6F51"/>
<path d="M77.5075 10.6823L74.29 13.9978L75.1512 14.8335L78.3686 11.518L77.5075 10.6823Z" fill="#FC6F51"/>
<path d="M121.68 14.86L120.82 14.02L124.04 10.72L124.9 11.56L121.68 14.86Z" fill="#FC6F51"/>
<path d="M128.031 10.6872L124.813 14.0027L125.675 14.8384L128.892 11.5229L128.031 10.6872Z" fill="#FC6F51"/>
<path d="M132.003 10.6708L128.785 13.9863L129.646 14.822L132.864 11.5065L132.003 10.6708Z" fill="#FC6F51"/>
<path d="M133.641 14.86L132.761 14.02L135.981 10.72L136.841 11.56L133.641 14.86Z" fill="#FC6F51"/>
<path d="M139.966 10.6784L136.749 13.9939L137.61 14.8296L140.828 11.5141L139.966 10.6784Z" fill="#FC6F51"/>
<path d="M143.958 10.6823L140.74 13.9978L141.601 14.8335L144.819 11.518L143.958 10.6823Z" fill="#FC6F51"/>
<path d="M148.542 10.6811L145.324 13.9966L146.185 14.8323L149.403 11.5168L148.542 10.6811Z" fill="#FC6F51"/>
<path d="M152.534 10.6847L149.316 14.0002L150.178 14.8359L153.395 11.5204L152.534 10.6847Z" fill="#FC6F51"/>
<path d="M154.14 14.86L153.28 14.02L156.5 10.72L157.36 11.56L154.14 14.86Z" fill="#FC6F51"/>
<path d="M160.497 10.6723L157.279 13.9878L158.14 14.8235L161.358 11.508L160.497 10.6723Z" fill="#FC6F51"/>
<path d="M164.468 10.6762L161.251 13.9917L162.112 14.8274L165.33 11.5119L164.468 10.6762Z" fill="#FC6F51"/>
<path d="M166.081 14.86L165.221 14.02L168.441 10.72L169.301 11.56L166.081 14.86Z" fill="#FC6F51"/>
<path d="M42.0944 64.8332L38.877 68.1487L39.7381 68.9844L42.9556 65.6689L42.0944 64.8332Z" fill="#FC6F51"/>
<path d="M38.0885 64.8437L34.8711 68.1592L35.7323 68.9949L38.9497 65.6794L38.0885 64.8437Z" fill="#FC6F51"/>
<path d="M34.0827 64.8342L30.8652 68.1497L31.7264 68.9854L34.9438 65.6699L34.0827 64.8342Z" fill="#FC6F51"/>
<path d="M43.6998 68.9999L42.8398 68.1599L46.0398 64.8599L46.9198 65.6999L43.6998 68.9999Z" fill="#FC6F51"/>
<path d="M50.0573 64.8407L46.8398 68.1562L47.701 68.992L50.9185 65.6765L50.0573 64.8407Z" fill="#FC6F51"/>
<path d="M54.029 64.8444L50.8115 68.1599L51.6727 68.9956L54.8901 65.6801L54.029 64.8444Z" fill="#FC6F51"/>
<path d="M55.6393 68.9999L54.7793 68.1599L57.9993 64.8599L58.8593 65.6999L55.6393 68.9999Z" fill="#FC6F51"/>
<path d="M61.9928 64.832L58.7754 68.1475L59.6366 68.9832L62.854 65.6677L61.9928 64.832Z" fill="#FC6F51"/>
<path d="M64.1998 68.9999L63.3398 68.1599L66.5598 64.8599L67.4198 65.6999L64.1998 68.9999Z" fill="#FC6F51"/>
<path d="M70.568 64.8346L67.3506 68.1501L68.2118 68.9859L71.4292 65.6704L70.568 64.8346Z" fill="#FC6F51"/>
<path d="M74.5397 64.8386L71.3223 68.1541L72.1834 68.9898L75.4009 65.6743L74.5397 64.8386Z" fill="#FC6F51"/>
<path d="M76.1598 68.9999L75.2998 68.1599L78.4998 64.8599L79.3598 65.6999L76.1598 68.9999Z" fill="#FC6F51"/>
<path d="M82.5036 64.8461L79.2861 68.1616L80.1473 68.9973L83.3647 65.6818L82.5036 64.8461Z" fill="#FC6F51"/>
<path d="M86.4948 64.8298L83.2773 68.1453L84.1385 68.981L87.356 65.6655L86.4948 64.8298Z" fill="#FC6F51"/>
<path d="M139.834 65.0781L136.616 68.3936L137.477 69.2293L140.695 65.9138L139.834 65.0781Z" fill="#FC6F51"/>
<path d="M141.439 69.2401L140.579 68.4001L143.779 65.1001L144.639 65.9401L141.439 69.2401Z" fill="#FC6F51"/>
<path d="M147.777 65.0656L144.56 68.3811L145.421 69.2168L148.638 65.9013L147.777 65.0656Z" fill="#FC6F51"/>
<path d="M151.769 65.0695L148.552 68.385L149.413 69.2207L152.63 65.9052L151.769 65.0695Z" fill="#FC6F51"/>
<path d="M153.38 69.2401L152.52 68.4001L155.74 65.1001L156.6 65.9401L153.38 69.2401Z" fill="#FC6F51"/>
<path d="M159.732 65.0771L156.515 68.3926L157.376 69.2283L160.593 65.9128L159.732 65.0771Z" fill="#FC6F51"/>
<path d="M163.718 65.0866L160.501 68.4021L161.362 69.2378L164.58 65.9223L163.718 65.0866Z" fill="#FC6F51"/>
<path d="M167.723 65.0759L164.506 68.3914L165.367 69.2271L168.584 65.9116L167.723 65.0759Z" fill="#FC6F51"/>
<path d="M89.1803 69.2401L88.3203 68.4001L91.5403 65.1001L92.4003 65.9401L89.1803 69.2401Z" fill="#FC6F51"/>
<path d="M95.5573 65.0754L92.3398 68.3909L93.201 69.2266L96.4185 65.9111L95.5573 65.0754Z" fill="#FC6F51"/>
<path d="M99.529 65.079L96.3115 68.3945L97.1727 69.2302L100.39 65.9147L99.529 65.079Z" fill="#FC6F51"/>
<path d="M101.14 69.2401L100.28 68.4001L103.48 65.1001L104.34 65.9401L101.14 69.2401Z" fill="#FC6F51"/>
<path d="M107.493 65.0666L104.275 68.3821L105.137 69.2178L108.354 65.9023L107.493 65.0666Z" fill="#FC6F51"/>
<path d="M111.464 65.0705L108.247 68.386L109.108 69.2217L112.326 65.9062L111.464 65.0705Z" fill="#FC6F51"/>
<path d="M116.067 65.0693L112.85 68.3848L113.711 69.2205L116.928 65.905L116.067 65.0693Z" fill="#FC6F51"/>
<path d="M120.039 65.0732L116.821 68.3887L117.682 69.2244L120.9 65.9089L120.039 65.0732Z" fill="#FC6F51"/>
<path d="M121.639 69.2401L120.779 68.4001L123.999 65.1001L124.859 65.9401L121.639 69.2401Z" fill="#FC6F51"/>
<path d="M128.003 65.0807L124.785 68.3962L125.646 69.2319L128.864 65.9165L128.003 65.0807Z" fill="#FC6F51"/>
<path d="M131.994 65.0644L128.776 68.3799L129.638 69.2156L132.855 65.9001L131.994 65.0644Z" fill="#FC6F51"/>
<path d="M133.58 69.2401L132.72 68.4001L135.94 65.1001L136.8 65.9401L133.58 69.2401Z" fill="#FC6F51"/>
<path d="M200 79.92H0V75.88L0.580002 75.76C2.34 75.4 3.28 74.68 3.28 74.2C3.28 73.72 2.34 73 0.580002 72.64L0 72.52V67.32L0.580002 67.2C2.34 66.84 3.28 66.12 3.28 65.64C3.28 65.16 2.34 64.44 0.580002 64.08L0 63.96V58.76L0.580002 58.64C2.34 58.28 3.28 57.56 3.28 57.08C3.28 56.6 2.34 55.88 0.580002 55.52L0 55.4V50.2L0.580002 50.08C2.34 49.72 3.28 49 3.28 48.52C3.28 48.04 2.34 47.32 0.580002 46.96L0 46.84V41.64L0.580002 41.52C2.34 41.16 3.28 40.44 3.28 39.96C3.28 39.48 2.34 38.76 0.580002 38.4L0 38.28V33.08L0.580002 32.96C2.34 32.6 3.28 31.88 3.28 31.4C3.28 30.92 2.34 30.2 0.580002 29.84L0 29.72V24.52L0.580002 24.4C2.34 24.04 3.28 23.32 3.28 22.84C3.28 22.36 2.34 21.64 0.580002 21.28L0 21.16V15.96L0.580002 15.84C2.34 15.48 3.28 14.76 3.28 14.28C3.28 13.8 2.34 13.08 0.580002 12.72L0 12.6V7.40002L0.580002 7.28C2.34 6.92 3.28 6.2 3.28 5.72C3.28 5.24 2.34 4.52 0.580002 4.16L0 4.04001V0H200V4.04001L199.42 4.16C197.66 4.52 196.72 5.24 196.72 5.72C196.72 6.2 197.66 6.92 199.42 7.28L200 7.40002V12.6L199.42 12.72C197.66 13.08 196.72 13.8 196.72 14.28C196.72 14.76 197.66 15.48 199.42 15.84L200 15.96V21.16L199.42 21.28C197.66 21.64 196.72 22.36 196.72 22.84C196.72 23.32 197.66 24.04 199.42 24.4L200 24.52V29.72L199.42 29.84C197.66 30.2 196.72 30.92 196.72 31.4C196.72 31.88 197.66 32.6 199.42 32.96L200 33.08V38.28L199.42 38.4C197.66 38.76 196.72 39.48 196.72 39.96C196.72 40.44 197.66 41.16 199.42 41.52L200 41.64V46.84L199.42 46.96C197.66 47.32 196.72 48.04 196.72 48.52C196.72 49 197.66 49.72 199.42 50.08L200 50.2V55.4L199.42 55.52C197.66 55.88 196.72 56.6 196.72 57.08C196.72 57.56 197.66 58.28 199.42 58.64L200 58.76V63.96L199.42 64.08C197.66 64.44 196.72 65.16 196.72 65.64C196.72 66.12 197.66 66.84 199.42 67.2L200 67.32V72.52L199.42 72.64C197.66 73 196.72 73.72 196.72 74.2C196.72 74.68 197.66 75.4 199.42 75.76L200 75.88V79.92ZM1.46 78.5H198.54V77.04C196.48 76.5 195.26 75.46 195.26 74.22C195.26 72.98 196.48 71.94 198.54 71.4V68.48C196.48 67.94 195.26 66.9 195.26 65.66C195.26 64.42 196.48 63.38 198.54 62.84V59.92C196.48 59.38 195.26 58.34 195.26 57.1C195.26 55.86 196.48 54.82 198.54 54.28V51.36C196.48 50.82 195.26 49.78 195.26 48.54C195.26 47.3 196.48 46.26 198.54 45.72V42.8C196.48 42.26 195.26 41.22 195.26 39.98C195.26 38.74 196.48 37.7 198.54 37.16V34.24C196.48 33.7 195.26 32.66 195.26 31.42C195.26 30.18 196.48 29.14 198.54 28.6V25.68C196.48 25.14 195.26 24.1 195.26 22.86C195.26 21.62 196.48 20.58 198.54 20.04V17.12C196.48 16.58 195.26 15.54 195.26 14.3C195.26 13.06 196.48 12.02 198.54 11.48V8.56003C196.48 8.02003 195.26 6.98002 195.26 5.74002C195.26 4.50002 196.48 3.46001 198.54 2.92001V1.46002H1.46V2.92001C3.52 3.46001 4.74 4.50002 4.74 5.74002C4.74 6.98002 3.52 8.02003 1.46 8.56003V11.48C3.52 12.02 4.74 13.06 4.74 14.3C4.74 15.54 3.52 16.58 1.46 17.12V20.04C3.52 20.58 4.74 21.62 4.74 22.86C4.74 24.1 3.52 25.14 1.46 25.68V28.6C3.52 29.14 4.74 30.18 4.74 31.42C4.74 32.66 3.52 33.7 1.46 34.24V37.16C3.52 37.7 4.74 38.74 4.74 39.98C4.74 41.22 3.52 42.26 1.46 42.8V45.72C3.52 46.26 4.74 47.3 4.74 48.54C4.74 49.78 3.52 50.82 1.46 51.36V54.28C3.52 54.82 4.74 55.86 4.74 57.1C4.74 58.34 3.52 59.38 1.46 59.92V62.84C3.52 63.38 4.74 64.42 4.74 65.66C4.74 66.9 3.52 67.94 1.46 68.48V71.4C3.52 71.94 4.74 72.98 4.74 74.22C4.74 75.46 3.52 76.5 1.46 77.04V78.5Z" fill="#FC6F51"/>
<path d="M64.44 45.22H57.46V44.16L58.66 42.92C61.08 40.48 62.42 38.92 62.42 37.22C62.42 36.12 61.88 35.16 60.44 35.16C59.56 35.16 58.76 35.62 58.22 36.04L57.68 34.8C58.38 34.24 59.5 33.76 60.78 33.76C63.14 33.76 64.18 35.34 64.18 37.04C64.18 39.1 62.74 40.84 60.74 42.8L59.8 43.74H64.42V45.2L64.44 45.22Z" fill="#FEB73A"/>
<path d="M72.5995 33.9399V35.3799H68.5795L68.1995 38.0599C68.4195 38.0599 68.6395 38.0199 68.9595 38.0199C71.0595 38.0199 72.8595 39.2199 72.8595 41.5199C72.8595 43.6999 71.1595 45.3799 68.6595 45.3799C67.5395 45.3799 66.4995 45.0799 65.9795 44.7599L66.3795 43.4399C66.8395 43.6999 67.6795 44.0199 68.5995 44.0199C69.8995 44.0199 71.0595 43.1599 71.0595 41.6799C71.0595 40.1999 70.0595 39.3199 67.9995 39.3199C67.4195 39.3199 66.9995 39.3399 66.6195 39.3999L67.3395 33.9399H72.6195H72.5995Z" fill="#FEB73A"/>
<path d="M74.4404 39.6C74.4404 35.92 75.8604 33.76 78.2404 33.76C80.6204 33.76 81.8804 36.06 81.8804 39.48C81.8804 43.3 80.4804 45.38 78.1204 45.38C75.7604 45.38 74.4404 43.06 74.4404 39.6ZM80.1004 39.54C80.1004 36.86 79.5204 35.14 78.1804 35.14C77.0204 35.14 76.2204 36.72 76.2204 39.54C76.2204 42.36 76.9204 44 78.1404 44C79.6404 44 80.1004 41.88 80.1004 39.54Z" fill="#FEB73A"/>
<path d="M91.2599 38.3602H88.3199V39.8802C88.3199 40.4202 88.2199 41.0001 88.0799 41.6401L87.8399 42.3401C87.0999 44.0401 85.7399 45.3802 83.8199 46.3202L82.9199 45.1802C86.5999 43.7602 86.9399 41.2402 86.9799 39.8802V38.3602H83.2199V37.0801H96.9599V38.3602H92.6399V44.1401C92.6399 44.7801 93.2199 44.8801 93.3799 44.9001H95.1799C95.1799 44.9001 95.6799 44.8601 95.7199 44.4001V42.2202L97.0799 42.3802C97.0399 44.3402 96.9199 45.4602 96.7199 45.7002C96.3999 46.0402 96.0599 46.2202 95.7599 46.2202H92.6399C92.0199 46.1802 91.2799 45.5802 91.2799 44.8802V38.3401L91.2599 38.3602ZM84.4599 33.1802H95.7599V34.4601H84.4599V33.1802Z" fill="#FEB73A"/>
<path d="M99.6401 38.8001L99.3801 39.2001L98.1201 38.7201C99.4001 36.8201 100.2 34.7801 100.46 32.6201L101.68 32.7801C101.48 34.0601 101.2 35.1801 100.88 36.1201V46.3601H99.6401V38.7801V38.8001ZM103.6 43.9201L101.98 44.9001L101.26 44.0201C102.74 43.3401 103.68 42.6401 104.46 41.6001L104.38 41.2401V39.9601H102.38C102.38 39.9601 102.28 40.0001 102.28 40.0601V41.1601H101.22V39.1001C101.22 38.9601 101.28 38.9201 101.42 38.9201H102.6V34.8401C102.6 34.6001 102.72 34.5001 102.96 34.5001H105.76L105.98 33.8201H102.16V32.7801H111.52V33.8201H107.18L107 34.5001H110.54C110.8 34.5001 110.92 34.6001 110.92 34.8401V38.9201H111.52L112.48 39.3801C112.44 39.9801 112.26 40.7201 111.96 41.5401L110.96 41.2401C111.12 40.6001 111.22 40.2401 111.22 40.1401C111.22 40.0001 111.18 39.9601 111.06 39.9601H106.94C107.24 40.1601 107.54 40.4201 107.86 40.7601L107.34 41.3001H107.96C108.32 41.3001 108.36 41.0801 108.5 40.3201L109.46 40.6801C109.3 41.4201 109.16 41.8201 109.1 41.8801C108.84 42.1201 108.6 42.2801 108.38 42.2601H105.26L104.92 42.7001H110.24L111.04 43.2601C111.04 43.2601 111.1 43.3001 111.1 43.3401C111.1 43.3401 110.56 44.2001 108.56 45.1001C109.74 45.3201 110.94 45.3601 112 45.3601L111.66 46.5201C110.1 46.4801 108.54 46.2001 107.04 45.7201C105.48 46.2201 103.78 46.5001 101.94 46.5601L101.74 45.3601C103.12 45.3601 104.34 45.2201 105.38 45.0201L103.54 43.9601L103.6 43.9201ZM104.02 40.7801C103.5 41.7001 102.96 42.3801 102.38 42.8201C102.16 42.4601 101.9 42.1801 101.66 42.0001C102.2 41.5601 102.66 40.9601 102.94 40.2401L104 40.8001L104.02 40.7801ZM103.8 35.9801H109.78V35.5001C109.78 35.4001 109.72 35.3401 109.62 35.3401H103.96C103.86 35.3401 103.8 35.3801 103.8 35.5001V35.9801ZM103.8 37.4401H109.78V36.7801H103.8V37.4401ZM103.8 38.9001H109.78V38.2401H103.8V38.9001ZM105.16 43.6601C105.8 44.0401 106.42 44.3401 106.96 44.5801L108.98 43.7801C108.98 43.7801 108.92 43.6601 108.82 43.6801H105.18L105.16 43.6601ZM107.2 41.2801C106.84 40.9401 106.56 40.7001 106.3 40.5401L106.78 39.9601H105.46V40.7201C105.46 40.9401 105.6 41.2401 106.04 41.2801H107.18H107.2ZM110.62 42.6801C110.26 42.0201 109.92 41.4601 109.62 41.0201L110.48 40.5601C110.98 41.3001 111.34 41.8601 111.52 42.2601L110.64 42.6801H110.62Z" fill="#FEB73A"/>
<path d="M116.56 42.8C116.02 44.2 115.3 45.34 114.46 46.22C114.16 45.82 113.86 45.54 113.58 45.36C114.38 44.56 114.98 43.5401 115.36 42.3201L116.56 42.8ZM126.18 41.6801L113.96 42.02L113.86 40.86L119.96 40.7401V39.86H115.2C115.1 39.86 115.04 39.8001 115.04 39.7001V35.46C115.04 35.36 115.08 35.3 115.2 35.3H119.96V34.54H114.2V33.3801H119.96V32.54H121.22V33.3801H126.92V34.54H121.22V35.3H125.96C126.06 35.3 126.12 35.34 126.12 35.46V39.42C126.74 40.32 127.24 41.16 127.58 41.9L126.52 42.4L126.16 41.72L126.18 41.6801ZM119.96 37.1V36.34H116.26C116.26 36.34 116.2 36.3401 116.22 36.3801V37.1H119.96ZM119.96 38.8V38.02H116.22V38.7401L116.26 38.8H119.96ZM117.46 42.2401H118.7V44.3201C118.7 44.7601 118.74 45.1201 119.48 45.1201H122.56L123.12 45.04C123.42 44.88 123.5 44.68 123.5 43.54L124.76 43.6801C124.72 44.8601 124.62 45.58 124.44 45.8C124.08 46.26 123.82 46.3201 122.98 46.3201H118.96C117.9 46.3201 117.44 45.5801 117.48 44.5001V42.2001L117.46 42.2401ZM121.3 44.6201C120.8 43.7601 120.36 43.1001 120 42.7001L121.06 42.08C121.54 42.74 121.98 43.42 122.38 44.08L121.3 44.64V44.6201ZM121.2 36.34V37.1H124.94V36.3801L124.88 36.34H121.2ZM121.2 38.04V38.8201H124.88L124.94 38.7601V38.04H121.2ZM125.52 40.6L125.04 39.84H121.2V40.7001L125.52 40.6ZM126.5 45.58C126.02 44.72 125.32 43.7601 124.48 42.6801L125.52 42.02C126.64 43.58 127.32 44.5801 127.56 45.0001L126.5 45.58Z" fill="#FEB73A"/>
<path d="M130.78 44.7601C132.66 44.3601 133.9 43.46 134.52 42.08H131.9V41.2401C131.28 41.8401 130.54 42.4001 129.7 42.8801L128.7 41.9401C129.92 41.2001 131.04 40.34 132.06 39.4H128.96V38.1801H133.1C133.62 37.5001 134.06 36.66 134.06 36.58H129.5V35.36H134.56C134.78 34.54 134.96 33.56 135.08 32.52L136.44 32.66C136.34 33.34 136.14 34.2801 135.84 35.3801H137.76C138.46 34.3201 139 33.38 139.32 32.64L140.48 33.2401C140.2 33.9001 139.8 34.6001 139.32 35.3801H142.16V36.6H137.74C138.04 37.2 138.36 37.7201 138.68 38.2001H142.7V39.42H139.64C140.44 40.26 141.54 41.08 142.92 41.9L141.86 42.8801C141.32 42.5201 140.8 42.1401 140.32 41.7601L140.28 44.1201C140.24 44.9201 140.08 46.5001 137.88 46.5001C137.26 46.5001 136.56 46.4 135.7 46.16V44.66C136.32 44.92 136.96 45.16 137.6 45.16C138.04 45.16 138.42 45.04 138.7 44.8C138.98 44.52 139.06 44.06 139.06 42.8C139.06 42.22 139 42.1201 138.84 42.1201H135.94C135.8 42.5601 135.58 42.98 135.32 43.4L135.02 43.84C133.94 45.2 132.08 46.0601 129.5 46.3801L129.16 45.04L130.8 44.78L130.78 44.7601ZM132.22 35.1801C131.72 34.3601 131.26 33.72 130.84 33.3L131.9 32.54C132.36 33.02 132.82 33.68 133.3 34.48L132.2 35.16L132.22 35.1801ZM133.66 39.4C133.34 39.78 132.88 40.28 132.28 40.86H139.36L138.02 39.4H133.66ZM137.2 38.1801L136.34 36.58H135.42L134.54 38.1801H137.18H137.2Z" fill="#FEB73A"/>
<path d="M85.5996 15.12H83.5996V13.9H83.9996V11.24H83.5996V10.02H86.7196L87.4796 11.98L88.2596 10.02H91.3596V11.24H90.9596V13.9H91.3796V15.12H88.6796V13.9H89.0996V11.06L87.5396 15.12H86.7596L85.2196 11.1V13.9H85.6196V15.12H85.5996Z" fill="#FEB73A"/>
<path d="M92 13.3199C92 12.7999 92.22 12.3599 92.68 11.9999C93.12 11.6399 93.72 11.46 94.48 11.46C95.24 11.46 95.86 11.6399 96.34 11.9799C96.82 12.3199 97.06 12.78 97.06 13.34C97.06 13.9 96.84 14.32 96.38 14.68C95.92 15.04 95.32 15.2199 94.58 15.2199C93.78 15.2199 93.14 15.04 92.68 14.68C92.22 14.32 92 13.8799 92 13.3199ZM93.9 13.3199C93.9 13.8799 94.1 14.1599 94.52 14.1599C94.96 14.1599 95.18 13.88 95.18 13.3C95.18 13.04 95.12 12.84 95.02 12.7C94.92 12.56 94.76 12.4799 94.56 12.4799C94.36 12.4799 94.2 12.56 94.08 12.7C93.96 12.84 93.9 13.0399 93.9 13.3199Z" fill="#FEB73A"/>
<path d="M100.52 15.16H99.0198L97.6598 12.6801H97.2998V11.5601H99.8398V12.6801H99.4398L100.04 14.0201L100.68 12.6801H100.32V11.5601H102.18V12.6801H101.84L100.52 15.16Z" fill="#FEB73A"/>
<path d="M105.46 15.16H103.98L102.88 12.6801H102.5V11.5601H104.94V12.6801H104.58L105 13.86L105.88 11.5601H107.26L108.08 13.86L108.54 12.6801H108.2V11.5601H109.96V12.6801H109.6L108.56 15.16H107.08L106.26 13.3401L105.48 15.16H105.46Z" fill="#FEB73A"/>
<path d="M113.32 13.9999L114.86 14.18C114.8 14.34 114.7 14.4799 114.56 14.5999C114.44 14.7199 114.28 14.84 114.1 14.92C113.74 15.12 113.3 15.2 112.8 15.2C111.96 15.2 111.32 15.02 110.9 14.68C110.48 14.34 110.26 13.9 110.26 13.34C110.26 12.78 110.46 12.3399 110.88 11.9799C111.3 11.6199 111.86 11.4399 112.56 11.4399C113.26 11.4399 113.8 11.62 114.22 11.96C114.64 12.3 114.86 12.8199 114.9 13.4999H112.06C112.06 14.0799 112.28 14.36 112.72 14.36C112.98 14.36 113.16 14.22 113.28 13.96L113.32 13.9999ZM112.12 13.08H113.18V12.96C113.18 12.76 113.14 12.5999 113.04 12.4799C112.94 12.3599 112.8 12.3 112.64 12.3C112.48 12.3 112.34 12.3599 112.26 12.4999C112.18 12.6399 112.12 12.8 112.12 13.02C112.12 13.04 112.12 13.0799 112.12 13.0999V13.08Z" fill="#FEB73A"/>
<path d="M173.54 19.8198H25.54V21.0198H173.54V19.8198Z" fill="#FC6F51"/>
<path d="M173.54 58.0801H25.54V59.2801H173.54V58.0801Z" fill="#FC6F51"/>
<path d="M37.52 29.8799L40.48 35.7599L47.1 36.6999L42.3 41.2799L43.44 47.7599L37.52 44.6999L31.6 47.7599L32.74 41.2799L27.96 36.6999L34.56 35.7599L37.52 29.8799Z" fill="#FEB73A"/>
<path d="M162.66 29.6396L165.62 35.5196L172.24 36.4796L167.46 41.0396L168.58 47.5196L162.66 44.4596L156.76 47.5196L157.88 41.0396L153.1 36.4796L159.72 35.5196L162.66 29.6396Z" fill="#FEB73A"/>
</svg>
