<svg width="497" height="261" viewBox="0 0 497 261" fill="none" xmlns="http://www.w3.org/2000/svg">
<path d="M1.58203 233.875C1.58203 225.571 8.32136 218.832 16.6252 218.832H479.954C488.258 218.832 494.997 225.571 494.997 233.875V245.91C494.997 254.214 488.258 260.953 479.954 260.953H16.6252C8.32136 260.953 1.58203 254.214 1.58203 245.91V233.875Z" fill="#5E7B9B"/>
<path fill-rule="evenodd" clip-rule="evenodd" d="M15.1213 0C6.81745 0 0.078125 6.73932 0.078125 15.0431V242.195C0.078125 250.498 6.81745 257.238 15.1213 257.238H481.459C489.762 257.238 496.502 250.498 496.502 242.195V15.0431C496.502 6.73932 489.762 0 481.459 0H15.1213ZM464.911 41.3235C472.388 41.3235 478.45 35.2611 478.45 27.7847C478.45 20.3082 472.388 14.2459 464.911 14.2459C457.435 14.2459 451.372 20.3082 451.372 27.7847C451.372 35.2611 457.435 41.3235 464.911 41.3235Z" fill="#7698BD"/>
<path d="M477.694 27.7847C477.694 34.8399 471.963 40.5714 464.908 40.5714C457.853 40.5714 452.121 34.8399 452.121 27.7847C452.121 20.7295 457.853 14.998 464.908 14.998C471.963 14.998 477.694 20.7295 477.694 27.7847Z" stroke="#6883A1"/>
<path d="M228.734 15.75H30.1642C21.8561 15.75 15.1211 22.485 15.1211 30.7931V229.363C15.1211 237.671 21.8561 244.406 30.1642 244.406H228.734C237.042 244.406 243.777 237.671 243.777 229.363V30.7931C243.777 22.485 237.042 15.75 228.734 15.75Z" fill="#65788C"/>
<path d="M18.1289 33.8019C18.1289 25.4981 24.8682 18.7588 33.172 18.7588H224.22C232.524 18.7588 239.263 25.4981 239.263 33.8019V224.85C239.263 233.154 232.524 239.893 224.22 239.893H33.172C24.8682 239.893 18.1289 233.154 18.1289 224.85V33.8019Z" fill="#46586B"/>
<path d="M463.407 14.2451C458.142 14.9973 456.457 16.8927 456.457 16.8927C455.886 17.2537 452.125 21.0145 456.457 19.0589C457.39 17.2537 458.609 16.8927 460.399 16.5016C461.121 15.7494 465.664 14.2451 463.407 14.2451Z" fill="#6883A2"/>
<path d="M0 77.4264L17.1191 71.4092L18.127 74.4178L0.075216 81.9394L0 77.4264Z" fill="#6883A1"/>
</svg>
