<svg width="200" height="81" viewBox="0 0 200 81" fill="none" xmlns="http://www.w3.org/2000/svg">
<path d="M190.489 80.8696H9.51056C4.26882 80.8696 0 76.6008 0 71.3591V9.51056C0 4.26882 4.26882 0 9.51056 0H190.489C195.731 0 200 4.26882 200 9.51056V71.3591C200 76.6008 195.731 80.8696 190.489 80.8696ZM9.51056 1.44941C5.06303 1.44941 1.44941 5.06303 1.44941 9.51056V71.3591C1.44941 75.8066 5.06303 79.4202 9.51056 79.4202H190.489C194.937 79.4202 198.551 75.8066 198.551 71.3591V9.51056C198.551 5.06303 194.937 1.44941 190.489 1.44941H9.51056Z" fill="#FC6F51"/>
<path d="M178.855 74.6749H21.1262C15.4874 74.6749 10.9009 70.0884 10.9009 64.4496V16.4202C10.9009 10.7813 15.4874 6.19482 21.1262 6.19482H178.855C184.494 6.19482 189.08 10.7813 189.08 16.4202V64.4496C189.08 70.0884 184.494 74.6749 178.855 74.6749ZM21.1262 7.76336C16.3412 7.76336 12.4694 11.655 12.4694 16.4202V64.4496C12.4694 69.2346 16.361 73.1064 21.1262 73.1064H178.855C183.64 73.1064 187.512 69.2148 187.512 64.4496V16.4202C187.512 11.6351 183.62 7.76336 178.855 7.76336H21.1262Z" fill="#FC6F51"/>
<path d="M182.368 23.9254H18.167V24.6998H182.368V23.9254Z" fill="#FC6F51"/>
<path d="M182.368 55.5146H18.167V56.289H182.368V55.5146Z" fill="#FC6F51"/>
<path d="M37.4265 59.4265L38.3795 61.3326L40.4842 61.6304L38.9553 63.1196L39.3127 65.2242L37.4265 64.2314L35.5601 65.2242L35.9175 63.1196L34.3887 61.6304L36.4933 61.3326L37.4265 59.4265Z" fill="#FC6F51"/>
<path d="M29.4846 59.4265L30.4376 61.3326L32.5423 61.6304L31.0134 63.1196L31.3708 65.2242L29.4846 64.2314L27.6182 65.2242L27.9756 63.1196L26.4468 61.6304L28.5514 61.3326L29.4846 59.4265Z" fill="#FC6F51"/>
<path d="M45.3684 59.4265L46.3214 61.3326L48.4261 61.6304L46.8972 63.1196L47.2546 65.2242L45.3684 64.2314L43.502 65.2242L43.8594 63.1196L42.3306 61.6304L44.4352 61.3326L45.3684 59.4265Z" fill="#FC6F51"/>
<path d="M53.3103 59.4265L54.2633 61.3326L56.3679 61.6304L54.8391 63.1196L55.1965 65.2242L53.3103 64.2314L51.4439 65.2242L51.8013 63.1196L50.2725 61.6304L52.3771 61.3326L53.3103 59.4265Z" fill="#FC6F51"/>
<path d="M61.2527 59.4265L62.2057 61.3326L64.3103 61.6304L62.7815 63.1196L63.1389 65.2242L61.2527 64.2314L59.3863 65.2242L59.7437 63.1196L58.2148 61.6304L60.3195 61.3326L61.2527 59.4265Z" fill="#FC6F51"/>
<path d="M69.1946 59.4265L70.1476 61.3326L72.2522 61.6304L70.7234 63.1196L71.0808 65.2242L69.1946 64.2314L67.3282 65.2242L67.6856 63.1196L66.1567 61.6304L68.2614 61.3326L69.1946 59.4265Z" fill="#FC6F51"/>
<path d="M77.1365 59.4265L78.0895 61.3326L80.1941 61.6304L78.6653 63.1196L79.0227 65.2242L77.1365 64.2314L75.2701 65.2242L75.6275 63.1196L74.0986 61.6304L76.2033 61.3326L77.1365 59.4265Z" fill="#FC6F51"/>
<path d="M85.0783 59.4265L86.0314 61.3326L88.136 61.6304L86.6072 63.1196L86.9646 65.2242L85.0783 64.2314L83.212 65.2242L83.5693 63.1196L82.0405 61.6304L84.1452 61.3326L85.0783 59.4265Z" fill="#FC6F51"/>
<path d="M93.0207 59.4265L93.9738 61.3326L96.0784 61.6304L94.5495 63.1196L94.907 65.2242L93.0207 64.2314L91.1544 65.2242L91.5117 63.1196L89.9829 61.6304L92.0875 61.3326L93.0207 59.4265Z" fill="#FC6F51"/>
<path d="M100.963 59.4265L101.916 61.3326L104.02 61.6304L102.491 63.1196L102.849 65.2242L100.963 64.2314L99.0962 65.2242L99.4536 63.1196L97.9248 61.6304L100.029 61.3326L100.963 59.4265Z" fill="#FC6F51"/>
<path d="M108.905 59.4265L109.858 61.3326L111.962 61.6304L110.433 63.1196L110.791 65.2242L108.905 64.2314L107.038 65.2242L107.396 63.1196L105.867 61.6304L107.971 61.3326L108.905 59.4265Z" fill="#FC6F51"/>
<path d="M116.847 59.4265L117.8 61.3326L119.905 61.6304L118.376 63.1196L118.733 65.2242L116.847 64.2314L114.981 65.2242L115.338 63.1196L113.809 61.6304L115.914 61.3326L116.847 59.4265Z" fill="#FC6F51"/>
<path d="M124.789 59.4265L125.742 61.3326L127.846 61.6304L126.318 63.1196L126.675 65.2242L124.789 64.2314L122.922 65.2242L123.28 63.1196L121.751 61.6304L123.856 61.3326L124.789 59.4265Z" fill="#FC6F51"/>
<path d="M132.731 59.4265L133.684 61.3326L135.788 61.6304L134.26 63.1196L134.617 65.2242L132.731 64.2314L130.864 65.2242L131.222 63.1196L129.693 61.6304L131.798 61.3326L132.731 59.4265Z" fill="#FC6F51"/>
<path d="M140.673 59.4265L141.626 61.3326L143.73 61.6304L142.201 63.1196L142.559 65.2242L140.673 64.2314L138.806 65.2242L139.164 63.1196L137.635 61.6304L139.739 61.3326L140.673 59.4265Z" fill="#FC6F51"/>
<path d="M148.615 59.4265L149.568 61.3326L151.673 61.6304L150.144 63.1196L150.501 65.2242L148.615 64.2314L146.749 65.2242L147.106 63.1196L145.577 61.6304L147.682 61.3326L148.615 59.4265Z" fill="#FC6F51"/>
<path d="M156.557 59.4265L157.51 61.3326L159.615 61.6304L158.086 63.1196L158.443 65.2242L156.557 64.2314L154.69 65.2242L155.048 63.1196L153.519 61.6304L155.624 61.3326L156.557 59.4265Z" fill="#FC6F51"/>
<path d="M164.499 59.4265L165.452 61.3326L167.556 61.6304L166.028 63.1196L166.385 65.2242L164.499 64.2314L162.632 65.2242L162.99 63.1196L161.461 61.6304L163.566 61.3326L164.499 59.4265Z" fill="#FC6F51"/>
<path d="M172.441 59.4265L173.394 61.3326L175.498 61.6304L173.969 63.1196L174.327 65.2242L172.441 64.2314L170.574 65.2242L170.932 63.1196L169.403 61.6304L171.507 61.3326L172.441 59.4265Z" fill="#FC6F51"/>
<path d="M45.3684 13.7599L46.3214 15.666L48.4261 15.9638L46.8972 17.4529L47.2546 19.5576L45.3684 18.5648L43.502 19.5576L43.8594 17.4529L42.3306 15.9638L44.4352 15.666L45.3684 13.7599Z" fill="#FC6F51"/>
<path d="M37.4265 13.7599L38.3795 15.666L40.4842 15.9638L38.9553 17.4529L39.3127 19.5576L37.4265 18.5648L35.5601 19.5576L35.9175 17.4529L34.3887 15.9638L36.4933 15.666L37.4265 13.7599Z" fill="#FC6F51"/>
<path d="M29.4846 13.7599L30.4376 15.666L32.5423 15.9638L31.0134 17.4529L31.3708 19.5576L29.4846 18.5648L27.6182 19.5576L27.9756 17.4529L26.4468 15.9638L28.5514 15.666L29.4846 13.7599Z" fill="#FC6F51"/>
<path d="M52.8941 13.7599L53.8273 15.666L55.9319 15.9638L54.4031 17.4529L54.7803 19.5576L52.8941 18.5648L51.0079 19.5576L51.3652 17.4529L49.8364 15.9638L51.9411 15.666L52.8941 13.7599Z" fill="#FC6F51"/>
<path d="M60.3982 13.7599L61.3512 15.666L63.4559 15.9638L61.927 17.4529L62.2844 19.5576L60.3982 18.5648L58.5318 19.5576L58.8892 17.4529L57.3604 15.9638L59.465 15.666L60.3982 13.7599Z" fill="#FC6F51"/>
<path d="M67.9236 13.7599L68.8568 15.666L70.9614 15.9638L69.4325 17.4529L69.8098 19.5576L67.9236 18.5648L66.0373 19.5576L66.3947 17.4529L64.8857 15.9638L66.9705 15.666L67.9236 13.7599Z" fill="#FC6F51"/>
<path d="M75.4294 13.7599L76.3825 15.666L78.4871 15.9638L76.9582 17.4529L77.3156 19.5576L75.4294 18.5648L73.563 19.5576L73.9204 17.4529L72.3916 15.9638L74.4962 15.666L75.4294 13.7599Z" fill="#FC6F51"/>
<path d="M126.02 13.7599L126.973 15.666L129.058 15.9638L127.549 17.4529L127.906 19.5576L126.02 18.5648L124.134 19.5576L124.491 17.4529L122.982 15.9638L125.087 15.666L126.02 13.7599Z" fill="#FC6F51"/>
<path d="M133.544 13.7599L134.478 15.666L136.582 15.9638L135.053 17.4529L135.411 19.5576L133.544 18.5648L131.658 19.5576L132.016 17.4529L130.487 15.9638L132.591 15.666L133.544 13.7599Z" fill="#FC6F51"/>
<path d="M141.05 13.7599L142.003 15.666L144.088 15.9638L142.579 17.4529L142.936 19.5576L141.05 18.5648L139.164 19.5576L139.541 17.4529L138.012 15.9638L140.117 15.666L141.05 13.7599Z" fill="#FC6F51"/>
<path d="M148.575 13.7599L149.508 15.666L151.613 15.9638L150.084 17.4529L150.442 19.5576L148.575 18.5648L146.689 19.5576L147.046 17.4529L145.518 15.9638L147.622 15.666L148.575 13.7599Z" fill="#FC6F51"/>
<path d="M156.081 13.7599L157.034 15.666L159.138 15.9638L157.61 17.4529L157.967 19.5576L156.081 18.5648L154.195 19.5576L154.572 17.4529L153.043 15.9638L155.148 15.666L156.081 13.7599Z" fill="#FC6F51"/>
<path d="M164.023 13.7599L164.976 15.666L167.08 15.9638L165.552 17.4529L165.909 19.5576L164.023 18.5648L162.136 19.5576L162.514 17.4529L160.985 15.9638L163.089 15.666L164.023 13.7599Z" fill="#FC6F51"/>
<path d="M171.965 13.7599L172.918 15.666L175.022 15.9638L173.493 17.4529L173.851 19.5576L171.965 18.5648L170.078 19.5576L170.456 17.4529L168.927 15.9638L171.031 15.666L171.965 13.7599Z" fill="#FC6F51"/>
<path d="M87.7189 18.9422H85.7334V17.731H86.1305V15.0903H85.7334V13.8792H88.8308L89.5853 15.825L90.3596 13.8792H93.4371V15.0903H93.04V17.731H93.457V18.9422H90.7766V17.731H91.1935V14.9116L89.6448 18.9422H88.8705L87.3417 14.9513V17.731H87.7387V18.9422H87.7189Z" fill="#FEB73A"/>
<path d="M94.0732 17.175C94.0732 16.6588 94.2916 16.2219 94.7483 15.8646C95.1851 15.5072 95.7808 15.3285 96.5352 15.3285C97.2897 15.3285 97.9053 15.5072 98.3818 15.8447C98.8583 16.1822 99.0966 16.6389 99.0966 17.1948C99.0966 17.7508 98.8782 18.1678 98.4215 18.5252C97.9648 18.8825 97.3692 19.0612 96.6345 19.0612C95.8403 19.0612 95.205 18.8825 94.7483 18.5252C94.2916 18.1678 94.0732 17.7309 94.0732 17.175ZM95.9595 17.175C95.9595 17.7309 96.158 18.0089 96.575 18.0089C97.0118 18.0089 97.2302 17.7309 97.2302 17.1552C97.2302 16.897 97.1706 16.6985 97.0713 16.5595C96.9721 16.4205 96.8132 16.3411 96.6147 16.3411C96.4161 16.3411 96.2573 16.4205 96.1382 16.5595C96.019 16.6985 95.9595 16.897 95.9595 17.175Z" fill="#FEB73A"/>
<path d="M102.531 18.982H101.042L99.6919 16.52H99.3345V15.4081H101.856V16.52H101.459L102.055 17.8502L102.69 16.52H102.333V15.4081H104.179V16.52H103.842L102.531 18.982Z" fill="#FEB73A"/>
<path d="M107.436 18.982H105.966L104.874 16.52H104.497V15.4081H106.919V16.52H106.562L106.979 17.6914L107.853 15.4081H109.223L110.037 17.6914L110.493 16.52H110.156V15.4081H111.903V16.52H111.546L110.513 18.982H109.044L108.23 17.1752L107.455 18.982H107.436Z" fill="#FEB73A"/>
<path d="M115.239 17.8303L116.767 18.009C116.708 18.1678 116.609 18.3068 116.47 18.4259C116.35 18.5451 116.192 18.6642 116.013 18.7436C115.655 18.9422 115.219 19.0216 114.722 19.0216C113.888 19.0216 113.253 18.8429 112.836 18.5053C112.419 18.1678 112.201 17.731 112.201 17.175C112.201 16.6191 112.399 16.1823 112.816 15.8249C113.233 15.4675 113.789 15.2888 114.484 15.2888C115.179 15.2888 115.715 15.4675 116.132 15.805C116.549 16.1426 116.767 16.6588 116.807 17.3339H113.988C113.988 17.9097 114.206 18.1876 114.643 18.1876C114.901 18.1876 115.08 18.0487 115.199 17.7905L115.239 17.8303ZM114.047 16.9169H115.1V16.7978C115.1 16.5992 115.06 16.4404 114.961 16.3213C114.861 16.2022 114.722 16.1426 114.563 16.1426C114.405 16.1426 114.266 16.2021 114.186 16.3411C114.107 16.4801 114.047 16.6389 114.047 16.8574C114.047 16.8772 114.047 16.9169 114.047 16.9368V16.9169Z" fill="#FEB73A"/>
<path d="M54.5217 41.7754C54.482 41.9144 54.4224 42.0732 54.3628 42.2321C54.1246 42.8277 53.7076 43.4234 53.1914 43.9793C51.8611 45.389 50.2925 46.0839 47.8702 46.8583L47.3143 45.667C48.8431 45.3096 50.7691 44.6346 51.9802 43.6219C52.9134 42.8079 53.1715 42.1527 53.3105 41.7556H49.0615V37.7647C48.7041 37.9632 48.3269 38.1618 47.9298 38.3405L47.2944 37.2485C49.4388 36.3351 51.186 35.2232 52.417 33.0988L53.4694 33.4363C53.3701 33.5951 53.2906 33.7738 53.1914 33.9128H56.805L57.5595 34.3893C57.0036 36.0174 56.2292 36.8315 55.7924 37.2882H59.5053V41.7357H54.5415L54.5217 41.7754ZM54.1245 37.3279C54.9783 36.6528 55.6137 36.0174 56.0704 35.1041H52.4567C51.7022 36.077 50.9875 36.6329 49.8756 37.3279H54.1444H54.1245ZM53.5289 38.5192H50.2528V40.5841H53.5289V38.5192ZM54.4224 42.3711H55.6336V44.5948C55.6336 45.0912 56.0902 45.2699 56.3086 45.2699H59.1876C59.2869 45.2699 59.4457 45.2103 59.5648 45.1111C59.684 45.0714 59.8031 44.2176 59.9024 43.6021L61.0738 43.9396C60.9547 44.8529 60.8356 45.806 60.5774 45.9847C60.4385 46.1435 60.1208 46.4612 59.7038 46.4612H55.6137C55.0379 46.4612 54.4025 45.8457 54.4025 45.25V42.3512L54.4224 42.3711ZM54.7599 40.5245C54.7599 40.5245 54.7599 40.5643 54.7599 40.5841H58.2941V38.5192H54.7798V40.5245H54.7599Z" fill="#FEB73A"/>
<path d="M71.3384 45.3493H66.871L67.149 46.2626C65.9577 46.62 64.4288 46.8781 62.622 47.0171L62.5228 45.8059C63.8928 45.7066 65.0642 45.5478 66.0173 45.3493H64.5083C64.409 45.3493 64.3494 45.2897 64.3494 45.1706V39.9685L62.9 40.4848L62.3242 39.3729C63.456 39.0751 64.3892 38.6978 65.1238 38.2411H63.7339L63.6942 38.6382L62.5426 38.4198L62.9199 35.7195C62.9596 35.5408 63.0588 35.4614 63.2177 35.4813H66.6923V34.8261H62.9596V33.7936H66.6923V33.2377H67.8638V33.7936H70.5839V33.1185H71.7752V33.7936H75.1307C75.3491 33.7936 75.369 33.873 75.508 34.151V36.8314H74.3365V36.4939H71.7752V37.2087H75.8654C76.0838 37.2087 76.2029 37.308 76.2029 37.5264C76.2029 39.8693 76.0441 40.3458 74.3961 40.2465V45.1507C74.3961 45.2698 74.3564 45.3294 74.2373 45.3294H72.0731L76.0639 45.8258L75.9051 47.0171L71.3186 46.4611L71.3583 45.3294L71.3384 45.3493ZM66.3945 36.9109L66.5534 36.5138H64.1509C64.0516 36.5138 63.9722 36.5138 63.9523 36.6329L63.8531 37.2285H66.1959L66.3945 36.9109ZM65.5606 40.7429H73.1452V40.1075L73.0857 40.0678H65.6003C65.6003 40.0678 65.5407 40.0678 65.5606 40.1075V40.7429ZM65.5606 42.4901H73.1452V41.7158H65.5606V42.4901ZM73.1452 43.463H65.5606V44.2572L65.6003 44.3168H73.0857L73.1452 44.2572V43.463ZM65.9974 39.0353H70.5641V38.261H66.8313L65.9974 39.0353ZM70.5641 37.2285V36.5138H67.7248L67.4468 37.2285H70.5442H70.5641ZM70.5641 35.4813V34.8261H67.8439V35.4813H70.5641ZM71.7554 34.8261V35.4813H74.3167V34.9849C74.3167 34.8856 74.2571 34.8261 74.138 34.8261H71.7554ZM74.2174 39.0155C74.3763 39.0155 74.3763 39.1148 74.3763 39.1942H74.8528C75.0116 39.0155 75.0116 38.9956 75.0116 38.3603C75.0116 38.2808 74.9719 38.2411 74.8528 38.2411H71.7554V39.0155H74.2174Z" fill="#FEB73A"/>
<path d="M80.9484 40.7826V46.7987H79.7174V40.9613C79.36 41.954 78.9232 42.7879 78.4864 43.4431L77.2554 42.9468C78.3474 41.4576 79.082 39.8692 79.4593 38.1816H77.5731V36.9108H79.7174V34.9253L77.8709 35.1636L77.5731 33.9326C79.7968 33.6943 81.4647 33.3766 82.5368 33.059L82.8744 34.2701L80.9484 34.7069V36.9108H82.8744V38.1816H80.9484V38.6581C81.7029 39.7104 82.3978 40.8024 83.053 41.9143L81.9412 42.5894L80.9484 40.7627V40.7826ZM83.5296 45.1904V34.1312C83.5296 33.8532 83.6884 33.6943 83.9664 33.6943H90.1413C90.459 33.6943 90.6178 33.8532 90.6178 34.1312V45.1904H91.4319V46.4611H82.4971V45.1904H83.5296ZM84.8201 37.5263H89.3273V35.1239C89.3273 35.0246 89.2677 34.9651 89.1287 34.9651H84.9988C84.8797 34.9651 84.8201 35.0246 84.8201 35.1239V37.5263ZM84.8201 41.418H89.3273V38.7971H84.8201V41.418ZM84.8201 45.1904H89.3273V42.6688H84.8201V45.1904Z" fill="#FEB73A"/>
<path d="M95.5022 41.4179L95.4029 42.2717C95.0654 44.1381 94.5293 45.5676 93.8542 46.4611L92.5239 46.0838L92.6033 45.9846C93.8145 44.0586 94.4101 42.0136 94.3704 39.8494V33.3171H95.661V36.3946H100.148V33.2178H101.479V36.3946H106.184V37.7249H95.6412V40.1273H102.868C103.087 40.1273 103.206 40.2465 103.206 40.4649V46.8383H101.856V41.6165C101.856 41.4973 101.796 41.4378 101.677 41.4378H95.522L95.5022 41.4179Z" fill="#FEB73A"/>
<path d="M115.774 42.2717H113.352C113.292 42.7482 113.193 43.185 113.094 43.5225C112.538 45.0315 111.049 46.1633 108.726 46.8781L107.991 45.7066C109.937 45.1705 111.823 44.5748 112.061 42.2915H109.798C109.679 42.2915 109.639 42.232 109.639 42.093V37.3873C109.262 37.7249 108.904 37.983 108.547 38.2014L107.614 37.2682C108.865 36.474 109.877 35.4614 110.652 34.2105L111.744 34.8856C111.188 35.6996 110.572 36.4343 109.957 37.0498H119.428C118.832 36.5335 118.177 35.7989 117.541 34.9055C117.502 34.8657 117.442 34.826 117.323 34.826H112.478V33.5553H117.819C117.978 33.5553 118.097 33.595 118.177 33.6943C119.13 35.1239 120.321 36.2556 121.731 36.9902L120.758 37.9631L119.785 37.3277V42.0533C119.785 42.1922 119.745 42.2518 119.606 42.2518H117.085V44.6146C117.085 45.0712 117.124 45.4485 117.879 45.4485H119.328C119.745 45.4485 120.043 45.3095 120.182 45.111C120.281 44.9521 120.301 44.3962 120.301 43.4828L121.612 43.6615C121.572 45.6669 121.512 45.8853 121.274 46.1831C120.857 46.6199 120.738 46.7391 119.745 46.7391H117.323C116.449 46.7391 115.754 46.203 115.794 44.8528V42.2717H115.774ZM118.415 38.3205H110.949C110.949 38.3205 110.91 38.3205 110.91 38.3801V40.9414C110.91 40.9414 110.91 41.0208 110.949 41.0208H118.415C118.415 41.0208 118.494 40.9811 118.494 40.9414V38.3801L118.415 38.3205Z" fill="#FEB73A"/>
<path d="M124.431 40.4847V37.0101H122.942V35.7989H124.431V33.1383H125.662V35.7989H126.814V37.0101H125.662V39.9287L126.456 39.4919L127.072 40.5244C126.655 40.7825 126.178 41.0406 125.662 41.2987V45.4286C125.662 46.0639 125.265 46.8581 124.173 46.8581C123.875 46.8581 123.498 46.7986 123.061 46.6993L123.021 45.4485C123.418 45.5477 123.736 45.5874 123.954 45.5874C124.232 45.5874 124.431 45.5477 124.431 45.1109V41.815L123.18 42.2716L122.763 41.0803L124.451 40.4648L124.431 40.4847ZM136.404 46.9773C135.927 46.878 135.113 46.5603 134.041 46.0838C133.247 45.6668 132.373 44.8726 131.48 43.721L131.261 44.0586C130.447 45.2698 128.918 46.2824 126.714 46.9971L126.099 45.8455C128.243 45.3095 129.693 44.4557 130.407 43.2644H126.436V42.1723H127.35V36.7519C127.35 36.4938 127.489 36.3747 127.747 36.3747H131.321C132.055 35.7989 132.691 35.2628 133.147 34.7466H129.633C129.097 35.2032 128.7 35.5408 127.489 36.2555L126.814 35.243C128.124 34.5679 129.137 33.8332 129.832 33.0192L130.804 33.5155L130.705 33.6545H134.22L134.934 34.2899C134.934 34.2899 134.517 35.1635 133.247 36.3747H135.768C136.066 36.3747 136.185 36.4938 136.185 36.7519V42.1723H136.88V43.2644H132.492C133.088 44.0387 134.041 45.2896 136.94 45.8455L136.404 46.9971V46.9773ZM132.055 41.7554L132.016 42.1525H134.994V40.8023H132.889C132.512 40.8023 132.353 40.6237 132.353 40.2464V37.427H131.142V38.2609C131.142 39.5316 130.566 40.5442 129.474 41.2789L128.601 40.4251C128.839 40.3258 129.057 40.1869 129.236 40.0479C129.673 39.6309 129.931 39.0154 129.971 38.2609V37.427H128.7C128.601 37.427 128.541 37.4866 128.541 37.5858V42.1327H130.785L130.824 41.7355V40.7825H132.055V41.7355V41.7554ZM133.505 39.4125C133.505 39.5912 133.604 39.6905 133.783 39.6905H134.994V37.5858C134.994 37.4866 134.934 37.427 134.835 37.427H133.525V39.4125H133.505Z" fill="#FEB73A"/>
<path d="M139.958 45.25C141.824 44.8529 143.055 43.9595 143.67 42.5895H141.069V41.7556C140.454 42.3512 139.719 42.9071 138.885 43.3837L137.893 42.4505C139.104 41.7158 140.216 40.8621 141.228 39.9289H138.151V38.7177H142.261C142.777 38.0427 143.214 37.2087 143.214 37.1293H138.687V35.9182H143.71C143.929 35.1041 144.107 34.1312 144.226 33.0988L145.577 33.2377C145.477 33.9128 145.279 34.846 144.981 35.938H146.887C147.582 34.8857 148.118 33.9525 148.436 33.2179L149.587 33.8135C149.309 34.4688 148.912 35.1637 148.436 35.938H151.255V37.1492H146.867C147.165 37.7448 147.483 38.2611 147.8 38.7376H151.791V39.9487H148.753C149.548 40.7827 150.64 41.5967 152.01 42.4108L150.957 43.3837C150.421 43.0263 149.905 42.649 149.428 42.2718L149.389 44.6147C149.349 45.4089 149.19 46.9774 147.006 46.9774C146.391 46.9774 145.696 46.8781 144.842 46.6399V45.1508C145.457 45.4089 146.093 45.6471 146.728 45.6471C147.165 45.6471 147.542 45.528 147.82 45.2898C148.098 45.0118 148.178 44.5551 148.178 43.3043C148.178 42.7285 148.118 42.6292 147.959 42.6292H145.08C144.941 43.066 144.723 43.483 144.465 43.8999L144.167 44.3367C143.095 45.6869 141.248 46.5406 138.687 46.8583L138.349 45.528L139.977 45.2699L139.958 45.25ZM141.387 35.7395C140.891 34.9254 140.434 34.2901 140.017 33.8731L141.069 33.1186C141.526 33.5951 141.983 34.2503 142.459 35.0445L141.367 35.7196L141.387 35.7395ZM142.817 39.9289C142.499 40.3061 142.042 40.8025 141.447 41.3783H148.475L147.145 39.9289H142.817ZM146.331 38.7177L145.477 37.1293H144.564L143.69 38.7177H146.311H146.331Z" fill="#FEB73A"/>
<path d="M35.4409 30.4777L38.3795 36.3151L44.9515 37.2482L40.1863 41.795L41.318 48.2281L35.4409 45.1903L29.5638 48.2281L30.6956 41.795L25.9502 37.2482L32.5023 36.3151L35.4409 30.4777Z" fill="#FEB73A"/>
<path d="M163.645 30.2393L166.583 36.0766L173.155 37.0297L168.41 41.5566L169.522 47.9897L163.645 44.9519L157.787 47.9897L158.899 41.5566L154.154 37.0297L160.726 36.0766L163.645 30.2393Z" fill="#FEB73A"/>
</svg>
