<svg width="200" height="80" viewBox="0 0 200 80" fill="none" xmlns="http://www.w3.org/2000/svg">
<path d="M85.5996 15.12H83.5996V13.9H83.9996V11.24H83.5996V10.02H86.7196L87.4796 11.98L88.2596 10.02H91.3596V11.24H90.9596V13.9H91.3796V15.12H88.6796V13.9H89.0996V11.06L87.5396 15.12H86.7596L85.2196 11.1V13.9H85.6196V15.12H85.5996Z" fill="#FC6F51"/>
<path d="M92 13.32C92 12.8 92.22 12.36 92.68 12C93.12 11.64 93.72 11.46 94.48 11.46C95.24 11.46 95.86 11.64 96.34 11.98C96.82 12.32 97.06 12.78 97.06 13.34C97.06 13.9 96.84 14.32 96.38 14.68C95.92 15.04 95.32 15.22 94.58 15.22C93.78 15.22 93.14 15.04 92.68 14.68C92.22 14.32 92 13.88 92 13.32ZM93.9 13.32C93.9 13.88 94.1 14.16 94.52 14.16C94.96 14.16 95.18 13.88 95.18 13.3C95.18 13.04 95.12 12.84 95.02 12.7C94.92 12.56 94.76 12.48 94.56 12.48C94.36 12.48 94.2 12.56 94.08 12.7C93.96 12.84 93.9 13.04 93.9 13.32Z" fill="#FC6F51"/>
<path d="M100.52 15.1601H99.0198L97.6598 12.6801H97.2998V11.5601H99.8398V12.6801H99.4398L100.04 14.0201L100.68 12.6801H100.32V11.5601H102.18V12.6801H101.84L100.52 15.1601Z" fill="#FC6F51"/>
<path d="M105.46 15.1601H103.98L102.88 12.6801H102.5V11.5601H104.94V12.6801H104.58L105 13.8601L105.88 11.5601H107.26L108.08 13.8601L108.54 12.6801H108.2V11.5601H109.96V12.6801H109.6L108.56 15.1601H107.08L106.26 13.3401L105.48 15.1601H105.46Z" fill="#FC6F51"/>
<path d="M113.32 13.9999L114.86 14.1799C114.8 14.3399 114.7 14.4799 114.56 14.5999C114.44 14.7199 114.28 14.8399 114.1 14.9199C113.74 15.1199 113.3 15.1999 112.8 15.1999C111.96 15.1999 111.32 15.0199 110.9 14.6799C110.48 14.3399 110.26 13.8999 110.26 13.3399C110.26 12.7799 110.46 12.3399 110.88 11.9799C111.3 11.6199 111.86 11.4399 112.56 11.4399C113.26 11.4399 113.8 11.6199 114.22 11.9599C114.64 12.2999 114.86 12.8199 114.9 13.4999H112.06C112.06 14.0799 112.28 14.3599 112.72 14.3599C112.98 14.3599 113.16 14.2199 113.28 13.9599L113.32 13.9999ZM112.12 13.0799H113.18V12.9599C113.18 12.7599 113.14 12.5999 113.04 12.4799C112.94 12.3599 112.8 12.2999 112.64 12.2999C112.48 12.2999 112.34 12.3599 112.26 12.4999C112.18 12.6399 112.12 12.7999 112.12 13.0199C112.12 13.0399 112.12 13.0799 112.12 13.0999V13.0799Z" fill="#FC6F51"/>
<path d="M171.82 75.2801H27.7605V74.6801C27.7605 67.0001 21.4005 60.7601 13.5805 60.7601H12.9805V18.8201H13.7005C13.8205 18.8401 13.9405 18.8601 14.0605 18.8601C21.7605 18.8601 28.1205 12.7201 28.2405 5.16008V4.58008H171.82V5.16008C171.96 12.7201 178.32 18.8601 186.02 18.8601H186.62V60.7601H186.02C178.2 60.7601 171.84 67.0001 171.84 74.6801V75.2801H171.82ZM28.9605 74.0801H170.62C170.94 66.2201 177.4 59.8801 185.4 59.5601V20.0201C181.56 19.8801 177.96 18.3401 175.2 15.6801C172.44 13.0201 170.84 9.50008 170.64 5.74008H29.4405C29.2405 9.50008 27.6205 13.0201 24.8805 15.6801C22.0205 18.4601 18.2205 20.0001 14.2005 20.0201V59.5601C22.2205 59.8601 28.6805 66.2001 28.9805 74.0801H28.9605Z" fill="#10FFA2"/>
<path d="M33.0866 10.6948L29.8691 14.0103L30.7303 14.846L33.9477 11.5305L33.0866 10.6948Z" fill="#10FFA2"/>
<path d="M34.7204 14.86L33.8604 14.02L37.0804 10.72L37.9404 11.56L34.7204 14.86Z" fill="#10FFA2"/>
<path d="M41.0504 10.7023L37.833 14.0178L38.6942 14.8535L41.9116 11.538L41.0504 10.7023Z" fill="#10FFA2"/>
<path d="M45.0417 10.686L41.8242 14.0015L42.6854 14.8372L45.9028 11.5217L45.0417 10.686Z" fill="#10FFA2"/>
<path d="M46.6598 14.86L45.7998 14.02L49.0198 10.72L49.8798 11.56L46.6598 14.86Z" fill="#10FFA2"/>
<path d="M53.0055 10.6935L49.7881 14.009L50.6493 14.8447L53.8667 11.5292L53.0055 10.6935Z" fill="#10FFA2"/>
<path d="M55.2399 14.86L54.3799 14.02L57.5799 10.72L58.4599 11.56L55.2399 14.86Z" fill="#10FFA2"/>
<path d="M61.5661 10.7106L58.3486 14.0261L59.2098 14.8618L62.4272 11.5463L61.5661 10.7106Z" fill="#10FFA2"/>
<path d="M65.5377 10.6945L62.3203 14.01L63.1815 14.8457L66.3989 11.5302L65.5377 10.6945Z" fill="#10FFA2"/>
<path d="M67.1803 14.86L66.3203 14.02L69.5403 10.72L70.4003 11.56L67.1803 14.86Z" fill="#10FFA2"/>
<path d="M73.5016 10.7021L70.2842 14.0176L71.1453 14.8533L74.3628 11.5378L73.5016 10.7021Z" fill="#10FFA2"/>
<path d="M77.487 10.6913L74.2695 14.0068L75.1307 14.8425L78.3481 11.527L77.487 10.6913Z" fill="#10FFA2"/>
<path d="M121.68 14.86L120.82 14.02L124.04 10.72L124.9 11.56L121.68 14.86Z" fill="#10FFA2"/>
<path d="M128.01 10.6962L124.793 14.0117L125.654 14.8474L128.872 11.5319L128.01 10.6962Z" fill="#10FFA2"/>
<path d="M132.003 10.7001L128.785 14.0156L129.646 14.8513L132.864 11.5358L132.003 10.7001Z" fill="#10FFA2"/>
<path d="M133.641 14.86L132.761 14.02L135.981 10.72L136.841 11.56L133.641 14.86Z" fill="#10FFA2"/>
<path d="M139.965 10.7077L136.748 14.0232L137.609 14.8589L140.827 11.5434L139.965 10.7077Z" fill="#10FFA2"/>
<path d="M143.937 10.6913L140.72 14.0068L141.581 14.8425L144.798 11.527L143.937 10.6913Z" fill="#10FFA2"/>
<path d="M148.541 10.6901L145.323 14.0056L146.184 14.8413L149.402 11.5258L148.541 10.6901Z" fill="#10FFA2"/>
<path d="M152.512 10.694L149.295 14.0095L150.156 14.8452L153.374 11.5297L152.512 10.694Z" fill="#10FFA2"/>
<path d="M154.14 14.86L153.28 14.02L156.5 10.72L157.36 11.56L154.14 14.86Z" fill="#10FFA2"/>
<path d="M160.476 10.7016L157.259 14.0171L158.12 14.8528L161.337 11.5373L160.476 10.7016Z" fill="#10FFA2"/>
<path d="M164.448 10.6852L161.23 14.0007L162.092 14.8364L165.309 11.5209L164.448 10.6852Z" fill="#10FFA2"/>
<path d="M166.08 14.86L165.22 14.02L168.44 10.72L169.3 11.56L166.08 14.86Z" fill="#10FFA2"/>
<path d="M42.0739 64.8622L38.8564 68.1777L39.7176 69.0134L42.9351 65.6979L42.0739 64.8622Z" fill="#10FFA2"/>
<path d="M38.068 64.8527L34.8506 68.1682L35.7118 69.0039L38.9292 65.6884L38.068 64.8527Z" fill="#10FFA2"/>
<path d="M34.0827 64.8635L30.8652 68.179L31.7264 69.0147L34.9438 65.6992L34.0827 64.8635Z" fill="#10FFA2"/>
<path d="M43.6998 68.9999L42.8398 68.1599L46.0398 64.8599L46.9198 65.6999L43.6998 68.9999Z" fill="#10FFA2"/>
<path d="M50.0377 64.8498L46.8203 68.1653L47.6815 69.001L50.8989 65.6855L50.0377 64.8498Z" fill="#10FFA2"/>
<path d="M54.0094 64.8537L50.792 68.1692L51.6532 69.0049L54.8706 65.6894L54.0094 64.8537Z" fill="#10FFA2"/>
<path d="M55.6403 68.9999L54.7803 68.1599L58.0003 64.8599L58.8603 65.6999L55.6403 68.9999Z" fill="#10FFA2"/>
<path d="M61.9723 64.8613L58.7549 68.1768L59.6161 69.0125L62.8335 65.697L61.9723 64.8613Z" fill="#10FFA2"/>
<path d="M64.1998 69.0001L63.3398 68.1601L66.5598 64.8601L67.4198 65.7001L64.1998 69.0001Z" fill="#10FFA2"/>
<path d="M70.5475 64.8439L67.3301 68.1594L68.1912 68.9951L71.4087 65.6796L70.5475 64.8439Z" fill="#10FFA2"/>
<path d="M74.5397 64.8478L71.3223 68.1633L72.1834 68.999L75.4009 65.6835L74.5397 64.8478Z" fill="#10FFA2"/>
<path d="M76.1598 69.0001L75.2998 68.1601L78.4998 64.8601L79.3598 65.7001L76.1598 69.0001Z" fill="#10FFA2"/>
<path d="M82.4831 64.8554L79.2656 68.1709L80.1268 69.0066L83.3442 65.6911L82.4831 64.8554Z" fill="#10FFA2"/>
<path d="M86.4743 64.8591L83.2568 68.1746L84.118 69.0103L87.3354 65.6948L86.4743 64.8591Z" fill="#10FFA2"/>
<path d="M139.813 65.0873L136.596 68.4028L137.457 69.2385L140.674 65.923L139.813 65.0873Z" fill="#10FFA2"/>
<path d="M141.439 69.2401L140.579 68.4001L143.779 65.1001L144.639 65.9401L141.439 69.2401Z" fill="#10FFA2"/>
<path d="M147.777 65.0949L144.56 68.4104L145.421 69.2461L148.638 65.9306L147.777 65.0949Z" fill="#10FFA2"/>
<path d="M151.749 65.0988L148.531 68.4143L149.392 69.25L152.61 65.9345L151.749 65.0988Z" fill="#10FFA2"/>
<path d="M153.38 69.2401L152.52 68.4001L155.74 65.1001L156.6 65.9401L153.38 69.2401Z" fill="#10FFA2"/>
<path d="M159.712 65.0863L156.494 68.4019L157.355 69.2376L160.573 65.922L159.712 65.0863Z" fill="#10FFA2"/>
<path d="M163.717 65.0959L160.5 68.4114L161.361 69.2471L164.579 65.9316L163.717 65.0959Z" fill="#10FFA2"/>
<path d="M167.703 65.0851L164.485 68.4006L165.347 69.2363L168.564 65.9208L167.703 65.0851Z" fill="#10FFA2"/>
<path d="M89.1803 69.2401L88.3203 68.4001L91.5403 65.1001L92.4003 65.9401L89.1803 69.2401Z" fill="#10FFA2"/>
<path d="M95.5368 65.0844L92.3193 68.3999L93.1805 69.2356L96.3979 65.9201L95.5368 65.0844Z" fill="#10FFA2"/>
<path d="M99.5085 65.0883L96.291 68.4038L97.1522 69.2395L100.37 65.924L99.5085 65.0883Z" fill="#10FFA2"/>
<path d="M101.14 69.2401L100.28 68.4001L103.48 65.1001L104.34 65.9401L101.14 69.2401Z" fill="#10FFA2"/>
<path d="M107.472 65.0959L104.255 68.4114L105.116 69.2471L108.333 65.9316L107.472 65.0959Z" fill="#10FFA2"/>
<path d="M111.444 65.0995L108.227 68.415L109.088 69.2507L112.305 65.9352L111.444 65.0995Z" fill="#10FFA2"/>
<path d="M116.047 65.0783L112.829 68.3938L113.69 69.2295L116.908 65.914L116.047 65.0783Z" fill="#10FFA2"/>
<path d="M120.039 65.0822L116.821 68.3977L117.682 69.2334L120.9 65.9179L120.039 65.0822Z" fill="#10FFA2"/>
<path d="M121.64 69.2399L120.78 68.3999L124 65.0999L124.86 65.9398L121.64 69.2399Z" fill="#10FFA2"/>
<path d="M127.982 65.0898L124.765 68.4053L125.626 69.241L128.843 65.9255L127.982 65.0898Z" fill="#10FFA2"/>
<path d="M131.973 65.0934L128.756 68.4089L129.617 69.2446L132.834 65.9291L131.973 65.0934Z" fill="#10FFA2"/>
<path d="M133.58 69.2399L132.72 68.3999L135.94 65.0999L136.8 65.9398L133.58 69.2399Z" fill="#10FFA2"/>
<path d="M200 79.92H0V75.88L0.580002 75.76C2.34 75.4 3.28 74.68 3.28 74.2C3.28 73.72 2.34 73 0.580002 72.64L0 72.52V67.32L0.580002 67.2C2.34 66.84 3.28 66.12 3.28 65.64C3.28 65.16 2.34 64.44 0.580002 64.08L0 63.96V58.76L0.580002 58.64C2.34 58.28 3.28 57.56 3.28 57.08C3.28 56.6 2.34 55.88 0.580002 55.52L0 55.4V50.2L0.580002 50.08C2.34 49.72 3.28 49 3.28 48.52C3.28 48.04 2.34 47.32 0.580002 46.96L0 46.84V41.64L0.580002 41.52C2.34 41.16 3.28 40.44 3.28 39.96C3.28 39.48 2.34 38.76 0.580002 38.4L0 38.28V33.08L0.580002 32.96C2.34 32.6 3.28 31.88 3.28 31.4C3.28 30.92 2.34 30.2 0.580002 29.84L0 29.72V24.52L0.580002 24.4C2.34 24.04 3.28 23.32 3.28 22.84C3.28 22.36 2.34 21.64 0.580002 21.28L0 21.16V15.96L0.580002 15.84C2.34 15.48 3.28 14.76 3.28 14.28C3.28 13.8 2.34 13.08 0.580002 12.72L0 12.6V7.4L0.580002 7.28C2.34 6.92 3.28 6.2 3.28 5.72C3.28 5.24 2.34 4.52 0.580002 4.16L0 4.04V0H200V4.04L199.42 4.16C197.66 4.52 196.72 5.24 196.72 5.72C196.72 6.2 197.66 6.92 199.42 7.28L200 7.4V12.6L199.42 12.72C197.66 13.08 196.72 13.8 196.72 14.28C196.72 14.76 197.66 15.48 199.42 15.84L200 15.96V21.16L199.42 21.28C197.66 21.64 196.72 22.36 196.72 22.84C196.72 23.32 197.66 24.04 199.42 24.4L200 24.52V29.72L199.42 29.84C197.66 30.2 196.72 30.92 196.72 31.4C196.72 31.88 197.66 32.6 199.42 32.96L200 33.08V38.28L199.42 38.4C197.66 38.76 196.72 39.48 196.72 39.96C196.72 40.44 197.66 41.16 199.42 41.52L200 41.64V46.84L199.42 46.96C197.66 47.32 196.72 48.04 196.72 48.52C196.72 49 197.66 49.72 199.42 50.08L200 50.2V55.4L199.42 55.52C197.66 55.88 196.72 56.6 196.72 57.08C196.72 57.56 197.66 58.28 199.42 58.64L200 58.76V63.96L199.42 64.08C197.66 64.44 196.72 65.16 196.72 65.64C196.72 66.12 197.66 66.84 199.42 67.2L200 67.32V72.52L199.42 72.64C197.66 73 196.72 73.72 196.72 74.2C196.72 74.68 197.66 75.4 199.42 75.76L200 75.88V79.92ZM1.46 78.5H198.54V77.04C196.48 76.5 195.26 75.46 195.26 74.22C195.26 72.98 196.48 71.94 198.54 71.4V68.48C196.48 67.94 195.26 66.9 195.26 65.66C195.26 64.42 196.48 63.38 198.54 62.84V59.92C196.48 59.38 195.26 58.34 195.26 57.1C195.26 55.86 196.48 54.82 198.54 54.28V51.36C196.48 50.82 195.26 49.78 195.26 48.54C195.26 47.3 196.48 46.26 198.54 45.72V42.8C196.48 42.26 195.26 41.22 195.26 39.98C195.26 38.74 196.48 37.7 198.54 37.16V34.24C196.48 33.7 195.26 32.66 195.26 31.42C195.26 30.18 196.48 29.14 198.54 28.6V25.68C196.48 25.14 195.26 24.1 195.26 22.86C195.26 21.62 196.48 20.58 198.54 20.04V17.12C196.48 16.58 195.26 15.54 195.26 14.3C195.26 13.06 196.48 12.02 198.54 11.48V8.56C196.48 8.02 195.26 6.98 195.26 5.74C195.26 4.5 196.48 3.46 198.54 2.92V1.46H1.46V2.92C3.52 3.46 4.74 4.5 4.74 5.74C4.74 6.98 3.52 8.02 1.46 8.56V11.48C3.52 12.02 4.74 13.06 4.74 14.3C4.74 15.54 3.52 16.58 1.46 17.12V20.04C3.52 20.58 4.74 21.62 4.74 22.86C4.74 24.1 3.52 25.14 1.46 25.68V28.6C3.52 29.14 4.74 30.18 4.74 31.42C4.74 32.66 3.52 33.7 1.46 34.24V37.16C3.52 37.7 4.74 38.74 4.74 39.98C4.74 41.22 3.52 42.26 1.46 42.8V45.72C3.52 46.26 4.74 47.3 4.74 48.54C4.74 49.78 3.52 50.82 1.46 51.36V54.28C3.52 54.82 4.74 55.86 4.74 57.1C4.74 58.34 3.52 59.38 1.46 59.92V62.84C3.52 63.38 4.74 64.42 4.74 65.66C4.74 66.9 3.52 67.94 1.46 68.48V71.4C3.52 71.94 4.74 72.98 4.74 74.22C4.74 75.46 3.52 76.5 1.46 77.04V78.5Z" fill="#10FFA2"/>
<path d="M173.54 19.8198H25.54V21.0198H173.54V19.8198Z" fill="#10FFA2"/>
<path d="M173.54 58.0801H25.54V59.2801H173.54V58.0801Z" fill="#10FFA2"/>
<path d="M68.3202 33.9399V35.3799H64.3002L63.9202 38.0599C64.1402 38.0599 64.3602 38.0199 64.6802 38.0199C66.7802 38.0199 68.5802 39.2199 68.5802 41.5199C68.5802 43.6999 66.8802 45.3799 64.3802 45.3799C63.2602 45.3799 62.2202 45.0799 61.7002 44.7599L62.1002 43.4399C62.5602 43.6999 63.4002 44.0199 64.3202 44.0199C65.6202 44.0199 66.7802 43.1599 66.7802 41.6799C66.7802 40.1999 65.7802 39.3199 63.7202 39.3199C63.1402 39.3199 62.7202 39.3399 62.3402 39.3999L63.0602 33.9399H68.3402H68.3202Z" fill="#FC6F51"/>
<path d="M70.1602 39.6C70.1602 35.92 71.5802 33.76 73.9602 33.76C76.3402 33.76 77.6002 36.06 77.6002 39.48C77.6002 43.3 76.2002 45.38 73.8402 45.38C71.4802 45.38 70.1602 43.06 70.1602 39.6ZM75.8202 39.54C75.8202 36.86 75.2402 35.14 73.9002 35.14C72.7402 35.14 71.9402 36.72 71.9402 39.54C71.9402 42.36 72.6402 44 73.8602 44C75.3602 44 75.8202 41.88 75.8202 39.54Z" fill="#FC6F51"/>
<path d="M86.9806 38.3599H84.0406V39.8799C84.0406 40.4199 83.9406 40.9999 83.8006 41.6399L83.5606 42.3399C82.8206 44.0399 81.4606 45.3799 79.5406 46.3199L78.6406 45.1799C82.3206 43.7599 82.6606 41.2399 82.7006 39.8799V38.3599H78.9406V37.0799H92.6806V38.3599H88.3606V44.1399C88.3606 44.7799 88.9406 44.8799 89.1006 44.8999H90.9006C90.9006 44.8999 91.4006 44.8599 91.4406 44.3999V42.2199L92.8006 42.3799C92.7606 44.3399 92.6406 45.4599 92.4406 45.6999C92.1206 46.0399 91.7806 46.2199 91.4806 46.2199H88.3606C87.7406 46.1799 87.0006 45.5799 87.0006 44.8799V38.3399L86.9806 38.3599ZM80.1806 33.1799H91.4806V34.4599H80.1806V33.1799Z" fill="#FC6F51"/>
<path d="M95.3598 38.8001L95.0998 39.2001L93.8398 38.7201C95.1198 36.8201 95.9198 34.7801 96.1798 32.6201L97.3998 32.7801C97.1998 34.0601 96.9198 35.1801 96.5998 36.1201V46.3601H95.3598V38.7801V38.8001ZM99.3198 43.9201L97.6998 44.9001L96.9798 44.0201C98.4598 43.3401 99.3998 42.6401 100.18 41.6001L100.1 41.2401V39.9601H98.0998C98.0998 39.9601 97.9998 40.0001 97.9998 40.0601V41.1601H96.9398V39.1001C96.9398 38.9601 96.9998 38.9201 97.1398 38.9201H98.3198V34.8401C98.3198 34.6001 98.4398 34.5001 98.6798 34.5001H101.48L101.7 33.8201H97.8798V32.7801H107.24V33.8201H102.9L102.72 34.5001H106.26C106.52 34.5001 106.64 34.6001 106.64 34.8401V38.9201H107.24L108.2 39.3801C108.16 39.9801 107.98 40.7201 107.68 41.5401L106.68 41.2401C106.84 40.6001 106.94 40.2401 106.94 40.1401C106.94 40.0001 106.9 39.9601 106.78 39.9601H102.66C102.96 40.1601 103.26 40.4201 103.58 40.7601L103.06 41.3001H103.68C104.04 41.3001 104.08 41.0801 104.22 40.3201L105.18 40.6801C105.02 41.4201 104.88 41.8201 104.82 41.8801C104.56 42.1201 104.32 42.2801 104.1 42.2601H100.98L100.64 42.7001H105.96L106.76 43.2601C106.76 43.2601 106.82 43.3001 106.82 43.3401C106.82 43.3401 106.28 44.2001 104.28 45.1001C105.46 45.3201 106.66 45.3601 107.72 45.3601L107.38 46.5201C105.82 46.4801 104.26 46.2001 102.76 45.7201C101.2 46.2201 99.4998 46.5001 97.6598 46.5601L97.4598 45.3601C98.8398 45.3601 100.06 45.2201 101.1 45.0201L99.2598 43.9601L99.3198 43.9201ZM99.7398 40.7801C99.2198 41.7001 98.6798 42.3801 98.0998 42.8201C97.8798 42.4601 97.6198 42.1801 97.3798 42.0001C97.9198 41.5601 98.3798 40.9601 98.6598 40.2401L99.7198 40.8001L99.7398 40.7801ZM99.5198 35.9801H105.5V35.5001C105.5 35.4001 105.44 35.3401 105.34 35.3401H99.6798C99.5798 35.3401 99.5198 35.3801 99.5198 35.5001V35.9801ZM99.5198 37.4401H105.5V36.7801H99.5198V37.4401ZM99.5198 38.9001H105.5V38.2401H99.5198V38.9001ZM100.88 43.6601C101.52 44.0401 102.14 44.3401 102.68 44.5801L104.7 43.7801C104.7 43.7801 104.64 43.6601 104.54 43.6801H100.9L100.88 43.6601ZM102.92 41.2801C102.56 40.9401 102.28 40.7001 102.02 40.5401L102.5 39.9601H101.18V40.7201C101.18 40.9401 101.32 41.2401 101.76 41.2801H102.9H102.92ZM106.34 42.6801C105.98 42.0201 105.64 41.4601 105.34 41.0201L106.2 40.5601C106.7 41.3001 107.06 41.8601 107.24 42.2601L106.36 42.6801H106.34Z" fill="#FC6F51"/>
<path d="M112.28 42.8C111.74 44.2 111.02 45.34 110.18 46.22C109.88 45.82 109.58 45.54 109.3 45.36C110.1 44.56 110.7 43.54 111.08 42.32L112.28 42.8ZM121.9 41.68L109.68 42.02L109.58 40.86L115.68 40.74V39.86H110.92C110.82 39.86 110.76 39.8 110.76 39.7V35.46C110.76 35.36 110.8 35.3 110.92 35.3H115.68V34.54H109.92V33.38H115.68V32.54H116.94V33.38H122.64V34.54H116.94V35.3H121.68C121.78 35.3 121.84 35.34 121.84 35.46V39.42C122.46 40.32 122.96 41.16 123.3 41.9L122.24 42.4L121.88 41.72L121.9 41.68ZM115.68 37.1V36.34H111.98C111.98 36.34 111.92 36.34 111.94 36.38V37.1H115.68ZM115.68 38.8V38.02H111.94V38.74L111.98 38.8H115.68ZM113.18 42.24H114.42V44.32C114.42 44.76 114.46 45.12 115.2 45.12H118.28L118.84 45.04C119.14 44.88 119.22 44.68 119.22 43.54L120.48 43.68C120.44 44.86 120.34 45.58 120.16 45.8C119.8 46.26 119.54 46.32 118.7 46.32H114.68C113.62 46.32 113.16 45.58 113.2 44.5V42.2L113.18 42.24ZM117.02 44.62C116.52 43.76 116.08 43.1 115.72 42.7L116.78 42.08C117.26 42.74 117.7 43.42 118.1 44.08L117.02 44.64V44.62ZM116.92 36.34V37.1H120.66V36.38L120.6 36.34H116.92ZM116.92 38.04V38.82H120.6L120.66 38.76V38.04H116.92ZM121.24 40.6L120.76 39.84H116.92V40.7L121.24 40.6ZM122.22 45.58C121.74 44.72 121.04 43.76 120.2 42.68L121.24 42.02C122.36 43.58 123.04 44.58 123.28 45L122.22 45.58Z" fill="#FC6F51"/>
<path d="M126.5 44.76C128.38 44.36 129.62 43.46 130.24 42.08H127.62V41.24C127 41.84 126.26 42.4 125.42 42.88L124.42 41.94C125.64 41.2 126.76 40.34 127.78 39.4H124.68V38.18H128.82C129.34 37.5 129.78 36.66 129.78 36.58H125.22V35.36H130.28C130.5 34.54 130.68 33.56 130.8 32.52L132.16 32.66C132.06 33.34 131.86 34.28 131.56 35.38H133.48C134.18 34.32 134.72 33.38 135.04 32.64L136.2 33.24C135.92 33.9 135.52 34.6 135.04 35.38H137.88V36.6H133.46C133.76 37.2 134.08 37.72 134.4 38.2H138.42V39.42H135.36C136.16 40.26 137.26 41.08 138.64 41.9L137.58 42.88C137.04 42.52 136.52 42.14 136.04 41.76L136 44.12C135.96 44.92 135.8 46.5 133.6 46.5C132.98 46.5 132.28 46.4 131.42 46.16V44.66C132.04 44.92 132.68 45.16 133.32 45.16C133.76 45.16 134.14 45.04 134.42 44.8C134.7 44.52 134.78 44.06 134.78 42.8C134.78 42.22 134.72 42.12 134.56 42.12H131.66C131.52 42.56 131.3 42.98 131.04 43.4L130.74 43.84C129.66 45.2 127.8 46.06 125.22 46.38L124.88 45.04L126.52 44.78L126.5 44.76ZM127.94 35.18C127.44 34.36 126.98 33.72 126.56 33.3L127.62 32.54C128.08 33.02 128.54 33.68 129.02 34.48L127.92 35.16L127.94 35.18ZM129.38 39.4C129.06 39.78 128.6 40.28 128 40.86H135.08L133.74 39.4H129.38ZM132.92 38.18L132.06 36.58H131.14L130.26 38.18H132.9H132.92Z" fill="#FC6F51"/>
<path d="M37.52 29.8799L40.48 35.7599L47.1 36.6999L42.3 41.2799L43.44 47.7599L37.52 44.6999L31.6 47.7599L32.74 41.2799L27.96 36.6999L34.56 35.7599L37.52 29.8799Z" fill="#FC6F51"/>
<path d="M162.66 29.6396L165.62 35.5196L172.24 36.4796L167.46 41.0396L168.58 47.5196L162.66 44.4596L156.76 47.5196L157.88 41.0396L153.1 36.4796L159.72 35.5196L162.66 29.6396Z" fill="#FC6F51"/>
</svg>
