<svg width="200" height="81" viewBox="0 0 200 81" fill="none" xmlns="http://www.w3.org/2000/svg">
<path d="M187.255 75.7992H12.9644L12.7857 75.3426C11.6144 72.4837 9.43053 70.1609 6.67095 68.7514L6.27393 68.5528V12.2693L6.67095 12.0708C9.43053 10.6811 11.6144 8.33841 12.7857 5.47957L12.9644 5.02295H187.255L187.433 5.47957C188.684 8.49724 191.007 10.9193 194.005 12.2892L194.422 12.4877V68.3345L194.005 68.533C191.027 69.9028 188.684 72.3249 187.433 75.3426L187.255 75.7992ZM13.9174 74.3499H186.282C187.652 71.3323 189.994 68.9102 192.972 67.4212V13.401C189.994 11.9318 187.652 9.48989 186.282 6.47222H13.9174C12.6269 9.31122 10.4431 11.6539 7.70335 13.1429V67.6595C10.4431 69.1484 12.6269 71.4911 13.9174 74.3301V74.3499Z" fill="#10FFA2"/>
<path d="M186.46 80.8418H13.5001V80.1271C13.4405 73.1586 7.70297 67.4409 0.714682 67.3814H0V13.4604H0.734555C7.90152 13.4604 13.6788 7.74271 13.7582 0.714712V0H186.48V0.714712C186.54 7.68315 192.277 13.4008 199.285 13.4604H200V67.3615H199.285C192.297 67.4211 186.559 73.1586 186.5 80.1271V80.8418H186.46ZM14.9097 79.3925H185.031C185.448 72.2057 191.304 66.3689 198.511 65.952V14.8898C191.304 14.4729 185.448 8.6361 185.031 1.44928H15.1479C14.7111 8.73536 8.75521 14.6119 1.42942 14.9097V65.9718C8.6361 66.3887 14.4928 72.2255 14.9097 79.4124V79.3925Z" fill="#10FFA2"/>
<path d="M17.0145 24.3597L13.7983 27.6951" stroke="#10FFA2" stroke-width="0.73" stroke-miterlimit="10"/>
<path d="M20.9654 24.3597L17.769 27.6951" stroke="#10FFA2" stroke-width="0.73" stroke-miterlimit="10"/>
<path d="M24.9156 24.3597L21.7192 27.6951" stroke="#10FFA2" stroke-width="0.73" stroke-miterlimit="10"/>
<path d="M28.8863 24.3597L25.6899 27.6951" stroke="#10FFA2" stroke-width="0.73" stroke-miterlimit="10"/>
<path d="M32.8375 24.3597L29.6411 27.6951" stroke="#10FFA2" stroke-width="0.73" stroke-miterlimit="10"/>
<path d="M36.8082 24.3597L33.6118 27.6951" stroke="#10FFA2" stroke-width="0.73" stroke-miterlimit="10"/>
<path d="M41.3736 24.3597L38.1772 27.6951" stroke="#10FFA2" stroke-width="0.73" stroke-miterlimit="10"/>
<path d="M45.3443 24.3597L42.1479 27.6951" stroke="#10FFA2" stroke-width="0.73" stroke-miterlimit="10"/>
<path d="M49.2954 24.3597L46.0991 27.6951" stroke="#10FFA2" stroke-width="0.73" stroke-miterlimit="10"/>
<path d="M53.2661 24.3597L50.0698 27.6951" stroke="#10FFA2" stroke-width="0.73" stroke-miterlimit="10"/>
<path d="M57.2164 24.3597L54.02 27.6951" stroke="#10FFA2" stroke-width="0.73" stroke-miterlimit="10"/>
<path d="M61.1871 24.3597L57.9907 27.6951" stroke="#10FFA2" stroke-width="0.73" stroke-miterlimit="10"/>
<path d="M114.512 24.598L111.316 27.9532" stroke="#10FFA2" stroke-width="0.73" stroke-miterlimit="10"/>
<path d="M118.483 24.598L115.287 27.9532" stroke="#10FFA2" stroke-width="0.73" stroke-miterlimit="10"/>
<path d="M122.434 24.598L119.238 27.9532" stroke="#10FFA2" stroke-width="0.73" stroke-miterlimit="10"/>
<path d="M126.405 24.598L123.208 27.9532" stroke="#10FFA2" stroke-width="0.73" stroke-miterlimit="10"/>
<path d="M130.355 24.598L127.159 27.9532" stroke="#10FFA2" stroke-width="0.73" stroke-miterlimit="10"/>
<path d="M134.326 24.598L131.129 27.9532" stroke="#10FFA2" stroke-width="0.73" stroke-miterlimit="10"/>
<path d="M65.7539 24.598L62.5576 27.9532" stroke="#10FFA2" stroke-width="0.73" stroke-miterlimit="10"/>
<path d="M69.7246 24.598L66.5283 27.9532" stroke="#10FFA2" stroke-width="0.73" stroke-miterlimit="10"/>
<path d="M73.6758 24.598L70.4795 27.9532" stroke="#10FFA2" stroke-width="0.73" stroke-miterlimit="10"/>
<path d="M77.6465 24.598L74.4502 27.9532" stroke="#10FFA2" stroke-width="0.73" stroke-miterlimit="10"/>
<path d="M81.5968 24.598L78.4004 27.9532" stroke="#10FFA2" stroke-width="0.73" stroke-miterlimit="10"/>
<path d="M85.5675 24.598L82.3711 27.9532" stroke="#10FFA2" stroke-width="0.73" stroke-miterlimit="10"/>
<path d="M90.1328 24.598L86.9365 27.9532" stroke="#10FFA2" stroke-width="0.73" stroke-miterlimit="10"/>
<path d="M94.1035 24.598L90.9072 27.9532" stroke="#10FFA2" stroke-width="0.73" stroke-miterlimit="10"/>
<path d="M98.0537 24.598L94.8574 27.9532" stroke="#10FFA2" stroke-width="0.73" stroke-miterlimit="10"/>
<path d="M102.024 24.598L98.8281 27.9532" stroke="#10FFA2" stroke-width="0.73" stroke-miterlimit="10"/>
<path d="M105.976 24.598L102.779 27.9532" stroke="#10FFA2" stroke-width="0.73" stroke-miterlimit="10"/>
<path d="M109.946 24.598L106.75 27.9532" stroke="#10FFA2" stroke-width="0.73" stroke-miterlimit="10"/>
<path d="M138.893 24.6576L135.696 28.0128" stroke="#10FFA2" stroke-width="0.73" stroke-miterlimit="10"/>
<path d="M142.863 24.6576L139.667 28.0128" stroke="#10FFA2" stroke-width="0.73" stroke-miterlimit="10"/>
<path d="M146.814 24.6576L143.618 28.0128" stroke="#10FFA2" stroke-width="0.73" stroke-miterlimit="10"/>
<path d="M150.785 24.6576L147.588 28.0128" stroke="#10FFA2" stroke-width="0.73" stroke-miterlimit="10"/>
<path d="M154.735 24.6576L151.539 28.0128" stroke="#10FFA2" stroke-width="0.73" stroke-miterlimit="10"/>
<path d="M158.706 24.6576L155.49 28.0128" stroke="#10FFA2" stroke-width="0.73" stroke-miterlimit="10"/>
<path d="M162.775 24.5186L159.579 27.8539" stroke="#10FFA2" stroke-width="0.73" stroke-miterlimit="10"/>
<path d="M166.944 24.5186L163.748 27.8539" stroke="#10FFA2" stroke-width="0.73" stroke-miterlimit="10"/>
<path d="M171.094 24.5186L167.897 27.8539" stroke="#10FFA2" stroke-width="0.73" stroke-miterlimit="10"/>
<path d="M175.263 24.4987L172.066 27.8538" stroke="#10FFA2" stroke-width="0.73" stroke-miterlimit="10"/>
<path d="M179.412 24.4987L176.215 27.8538" stroke="#10FFA2" stroke-width="0.73" stroke-miterlimit="10"/>
<path d="M183.562 24.4987L180.366 27.834" stroke="#10FFA2" stroke-width="0.73" stroke-miterlimit="10"/>
<path d="M183.204 58.8843H15.3066V60.3336H183.204V58.8843Z" fill="#10FFA2"/>
<path d="M84.2368 17.272H82.2515V16.061H82.6486V13.4205H82.2515V12.2095H85.3485L86.103 14.1551L86.8773 12.2095H89.9545V13.4205H89.5574V16.061H89.9743V17.272H87.2942V16.061H87.7111V13.2418L86.1625 17.272H85.3883L83.8596 13.2815V16.061H84.2566V17.272H84.2368Z" fill="#10FFA2"/>
<path d="M90.5903 15.505C90.5903 14.9888 90.8087 14.5521 91.2653 14.1947C91.7021 13.8374 92.2977 13.6587 93.0521 13.6587C93.8065 13.6587 94.4219 13.8374 94.8984 14.1749C95.3749 14.5124 95.6132 14.969 95.6132 15.5249C95.6132 16.0808 95.3948 16.4977 94.9382 16.855C94.4815 17.2124 93.8859 17.3911 93.1513 17.3911C92.3572 17.3911 91.722 17.2124 91.2653 16.855C90.8087 16.4977 90.5903 16.0609 90.5903 15.505ZM92.4763 15.505C92.4763 16.0609 92.6749 16.3389 93.0918 16.3389C93.5285 16.3389 93.747 16.0609 93.747 15.4852C93.747 15.2271 93.6874 15.0286 93.5881 14.8896C93.4888 14.7506 93.3301 14.6712 93.1315 14.6712C92.933 14.6712 92.7741 14.7506 92.655 14.8896C92.5359 15.0286 92.4763 15.2271 92.4763 15.505Z" fill="#10FFA2"/>
<path d="M99.0474 17.3316H97.5584L96.2084 14.8698H95.8511V13.7581H98.3724V14.8698H97.9754L98.5709 16.2L99.2063 14.8698H98.8489V13.7581H100.695V14.8698H100.358L99.0474 17.3316Z" fill="#10FFA2"/>
<path d="M103.951 17.3316H102.482L101.39 14.8698H101.013V13.7581H103.435V14.8698H103.078L103.495 16.0412L104.368 13.7581H105.738L106.552 16.0412L107.009 14.8698H106.671V13.7581H108.418V14.8698H108.061L107.029 17.3316H105.559L104.746 15.525L103.971 17.3316H103.951Z" fill="#10FFA2"/>
<path d="M111.753 16.1601L113.282 16.3388C113.222 16.4976 113.123 16.6366 112.984 16.7557C112.865 16.8748 112.706 16.9939 112.528 17.0733C112.17 17.2719 111.733 17.3513 111.237 17.3513C110.403 17.3513 109.768 17.1726 109.351 16.8351C108.934 16.4976 108.716 16.0608 108.716 15.5049C108.716 14.9491 108.914 14.5123 109.331 14.1549C109.748 13.7976 110.304 13.6189 110.999 13.6189C111.694 13.6189 112.23 13.7976 112.647 14.1351C113.064 14.4726 113.282 14.9888 113.322 15.6638H110.503C110.503 16.2395 110.721 16.5174 111.158 16.5174C111.416 16.5174 111.594 16.3785 111.714 16.1204L111.753 16.1601ZM110.562 15.2468H111.614V15.1277C111.614 14.9292 111.575 14.7704 111.475 14.6513C111.376 14.5321 111.237 14.4726 111.078 14.4726C110.92 14.4726 110.781 14.5321 110.701 14.6711C110.622 14.8101 110.562 14.9689 110.562 15.1873C110.562 15.2071 110.562 15.2469 110.562 15.2667V15.2468Z" fill="#10FFA2"/>
<path d="M58.13 48.6002V50.7443H57.0182V43.756H56.2837V41.4332C56.2837 41.2942 56.3432 41.2347 56.4624 41.2347H56.9984V37.7207C56.9984 37.4824 57.0976 37.3633 57.3557 37.3633H61.0484C61.3065 37.3633 61.4256 37.4824 61.4256 37.7207V41.2347H61.4653L62.4382 41.6913C62.3985 42.2869 62.2198 43.0214 61.922 43.8553L61.4455 43.6964V49.6921C61.4455 50.1288 61.2867 50.4663 60.9293 50.7244C60.7705 50.8435 60.5124 50.8833 60.1352 50.8833C59.8374 50.8833 59.48 50.8436 59.083 50.784L59.0432 49.573C59.4602 49.7119 59.7182 49.7913 59.8969 49.7913C60.0557 49.7913 60.3337 49.5531 60.3337 49.2553V48.5803H58.13V48.6002ZM57.3359 43.4384H60.9492L61.2072 42.4258C61.2072 42.3266 61.1675 42.267 61.0484 42.267H57.4351C57.4351 42.267 57.3359 42.2869 57.3359 42.3663V43.4384ZM58.0506 41.2347H58.666V39.3089C58.666 39.1699 58.7058 39.0905 58.8844 39.0905H60.3932V38.4949C60.3932 38.4949 60.3337 38.356 60.2344 38.356H58.2293C58.13 38.356 58.0705 38.3957 58.0705 38.4949V41.2545L58.0506 41.2347ZM58.1499 45.5428H60.3536V44.57C60.3536 44.57 60.3139 44.4906 60.2543 44.4906H58.2491C58.2491 44.4906 58.1499 44.5303 58.1499 44.57V45.5428ZM58.1499 47.5876H60.3536V46.5751H58.1499V47.5876ZM59.5793 41.2545H60.3734V40.0236H59.6984C59.6984 40.0236 59.5793 40.0633 59.5991 40.1427V41.2545H59.5793ZM64.5426 49.6722L64.3639 48.9972L64.1654 48.4215H63.1727C63.0735 48.4215 63.0139 48.3619 63.0139 48.2825V45.5825C63.0139 45.4832 63.0536 45.4435 63.1727 45.4435H69.5257C69.6249 45.4435 69.6845 45.4832 69.6845 45.5825V48.2825C69.6845 48.2825 69.6448 48.4215 69.5257 48.4215H68.5926L68.1757 49.6524H70.2602V50.6847H62.1999V49.6524H64.5227L64.5426 49.6722ZM67.7389 38.0185H69.625C69.625 38.0185 69.7639 38.0582 69.7639 38.1574V42.8626C69.7639 42.9619 69.7242 43.0214 69.625 43.0214H62.6962C62.6962 43.0214 62.5573 42.9817 62.5573 42.8626V38.1574C62.5573 38.1574 62.5969 38.0185 62.6962 38.0185H64.622V37.0457H65.6742V38.0185H66.6867V37.0457H67.7389V38.0185ZM62.597 43.6766H70.0617V44.7089H62.597V43.6766ZM64.622 39.9839V38.9913H63.6492C63.6492 38.9913 63.5896 38.9913 63.6095 39.031V39.9839H64.622ZM64.622 42.0288V40.9567H63.6095V41.9692L63.6492 42.0288H64.622ZM68.5926 46.456H64.1256L64.0859 46.4957V47.3296L64.1256 47.3891H68.5926C68.5926 47.3891 68.6521 47.3891 68.6521 47.3296V46.4957L68.5926 46.456ZM65.6742 49.6524H67.0639L67.4212 48.6796L67.5007 48.4215H65.3168L65.6742 49.6524ZM66.7066 39.9839V38.9913H65.694V39.9839H66.7066ZM66.7066 42.0288V40.9567H65.694V42.0288H66.7066ZM67.7588 38.9913V39.9839H68.7316V39.031L68.672 38.9913H67.7588ZM67.7588 40.9567V42.0288H68.672L68.7316 41.9692V40.9567H67.7588Z" fill="#FC6F51"/>
<path d="M71.3319 50.0692C71.4907 48.6795 71.59 47.4684 71.59 46.4758C71.59 46.039 71.59 45.6618 71.5503 45.3044H72.5628C72.6025 45.7015 72.6025 46.0986 72.6025 46.5353C72.6025 47.6074 72.5032 48.7986 72.3047 50.1287L71.312 50.0692H71.3319ZM76.3746 46.5949L76.315 44.8478C76.315 44.8478 76.2753 44.689 76.1562 44.689H72.0863C71.9473 44.689 71.8878 44.6294 71.8878 44.4905V37.7007C71.8878 37.522 71.9672 37.4426 72.126 37.4426H77.1488V38.475H75.3025V39.547H76.851V40.5794H75.3025V41.6316H76.851V42.664H75.3025V43.6566H77.2481C77.407 43.6566 77.5062 43.736 77.5062 43.875C77.5459 44.7684 77.5459 45.5625 77.5459 46.2574C77.5459 50.0096 77.268 50.7839 75.0841 50.7839C74.8658 50.7839 74.6077 50.7839 74.3496 50.7442L74.2106 49.5331C74.7466 49.6126 75.1635 49.6721 75.4415 49.6721C75.6202 49.6721 75.7591 49.6523 75.7988 49.5927C76.0768 49.3148 76.2555 48.9574 76.2952 48.5206L76.3547 47.1905L75.779 47.3096C75.6003 46.4956 75.362 45.8405 75.1635 45.3243L75.8981 45.1258L76.3746 46.575V46.5949ZM73.079 49.6324C73.1187 48.064 73.0194 46.6544 72.8209 45.4236L73.8135 45.3839C73.9922 46.853 74.0518 48.3023 74.0319 49.6721L73.0591 49.6324H73.079ZM74.2503 39.547V38.475H73.1782C73.0789 38.475 73.0392 38.5345 73.0591 38.6139V39.547H74.2503ZM74.2503 41.6316V40.5794H73.0591V41.6316H74.2503ZM73.0591 43.6765H74.2503V42.6838H73.0591V43.6765ZM74.6672 48.6398C74.5084 47.4883 74.2701 46.4162 73.9922 45.4236L74.8459 45.2647C75.1437 46.3368 75.3621 47.4287 75.5209 48.5405L74.6672 48.6398ZM79.4717 48.9773C79.4717 48.9773 79.0945 49.7714 78.1812 50.8434L77.1687 50.1684C78.1018 49.2155 78.7569 47.9846 79.0944 46.4758L80.2459 46.6942L79.9084 47.925L81.318 49.1162L80.4842 50.0096L79.4915 48.9773H79.4717ZM79.1341 40.2419L77.9231 40.8375L77.1687 39.8051C79.3128 38.9316 80.0672 38.3162 81.1989 37.1647L82.1121 37.7603L81.9533 37.8992C82.8864 38.5345 84.0776 39.1103 85.4276 39.6265L84.8121 40.7382L83.5018 40.2221V41.1551H79.1143V40.2617L79.1341 40.2419ZM81.0996 45.9993C81.0996 46.0986 81.04 46.1581 80.9408 46.1581H78.0026C77.9033 46.1581 77.8437 46.0986 77.8437 45.9993V42.0882C77.8437 41.989 77.8834 41.9294 78.0026 41.9294H80.9408C80.9408 41.9294 81.0996 41.9691 81.0996 42.0882V45.9993ZM79.9879 42.9618H78.9555L78.9158 43.0015V45.0662L78.9555 45.1258H79.9879C79.9879 45.1258 80.0474 45.1258 80.0474 45.0662V43.0015L79.9879 42.9618ZM83.2041 40.0434C82.4695 39.6463 81.7746 39.1698 81.1592 38.6537C80.5636 39.2095 79.9879 39.686 79.432 40.0434H83.2041ZM84.693 50.8633C84.2166 50.3273 83.6805 49.7515 83.0452 49.1162C82.7275 49.7118 82.3106 50.3074 81.8143 50.8633L80.8018 50.1883C81.7349 49.2353 82.39 48.0045 82.7275 46.4758L83.8791 46.714C83.7202 47.528 83.5812 47.9846 83.5018 48.0839C84.1967 48.6795 84.8717 49.3148 85.5467 49.9898L84.693 50.8434V50.8633ZM84.9313 45.9794C84.9313 46.0787 84.8717 46.1383 84.7725 46.1383H81.8541C81.7548 46.1383 81.6952 46.0787 81.6952 45.9794V42.0684C81.6952 41.9691 81.7349 41.9096 81.8541 41.9096H84.7725C84.8717 41.9096 84.9313 41.9493 84.9313 42.0684V45.9794ZM83.8195 42.9419H82.7872L82.7474 42.9816V45.0464L82.7872 45.1059H83.8195C83.8195 45.1059 83.8791 45.1059 83.8791 45.0464V42.9816L83.8195 42.9419Z" fill="#FC6F51"/>
<path d="M91.0462 43.617C92.3367 43.8553 93.4485 44.8876 93.4485 46.456C93.4485 48.2825 92.019 49.8112 89.4381 49.8112C88.2469 49.8112 87.1947 49.4737 86.6587 49.1163L87.1153 47.7862C87.5322 48.0443 88.4256 48.4215 89.3786 48.4215C91.0065 48.4215 91.6616 47.3891 91.6616 46.3766C91.6616 44.9273 90.4109 44.2722 89.0808 44.2722H88.3065V43.0413H89.0411C90.0337 43.0413 91.3043 42.4655 91.3043 41.2346C91.3043 40.3611 90.7286 39.6662 89.5175 39.6662C88.7234 39.6662 87.9293 40.0435 87.4925 40.3413L87.0558 39.1104C87.6315 38.6934 88.7433 38.2964 89.9146 38.2964C92.0588 38.2964 93.0911 39.567 93.0911 40.9964C93.0911 42.1479 92.3565 43.1405 91.0661 43.617H91.0462Z" fill="#FC6F51"/>
<path d="M102.522 49.6524H100.755V44.8678C100.755 43.6964 100.338 42.7038 99.1665 42.7038C98.3128 42.7038 97.3797 43.3986 97.3797 44.6295V49.6325H95.6128V37.7008H97.3797V42.545H97.4194C97.9555 41.6913 98.9084 41.2545 99.8216 41.2545C101.072 41.2545 102.542 42.0883 102.542 44.6692V49.6325L102.522 49.6524Z" fill="#FC6F51"/>
<path d="M108.934 42.9818C108.776 42.962 108.617 42.9421 108.418 42.9421C107.227 42.9421 106.492 43.8951 106.492 45.3245V49.6723H104.726V43.9745C104.726 43.0215 104.726 42.2274 104.666 41.473H106.195L106.254 42.9818H106.314C106.691 41.9495 107.565 41.2943 108.478 41.2943C108.637 41.2943 108.776 41.2943 108.915 41.334V42.9818H108.934Z" fill="#FC6F51"/>
<path d="M117.808 46.2178H115.386C115.326 46.6943 115.227 47.1311 115.128 47.4686C114.572 48.9774 113.083 50.109 110.76 50.8237L110.026 49.6524C111.971 49.1164 113.857 48.5208 114.096 46.2377H111.832C111.713 46.2377 111.673 46.1781 111.673 46.0392V41.334C111.296 41.6715 110.939 41.9296 110.582 42.1479L109.648 41.2149C110.899 40.4207 111.912 39.4082 112.686 38.1575L113.778 38.8325C113.222 39.6465 112.607 40.381 111.991 40.9965H121.461C120.846 40.4803 120.21 39.7457 119.575 38.8523C119.535 38.8126 119.476 38.7729 119.357 38.7729H114.512V37.5023H119.853C120.012 37.5023 120.131 37.542 120.21 37.6413C121.163 39.0707 122.354 40.2023 123.764 40.9369L122.791 41.9097L121.818 41.2744V45.9994C121.818 46.1384 121.779 46.198 121.64 46.198H119.118V48.5605C119.118 49.0171 119.158 49.3943 119.912 49.3943H121.342C121.759 49.3943 122.057 49.2553 122.215 49.0568C122.315 48.898 122.335 48.3421 122.335 47.4289L123.645 47.6075C123.605 49.6127 123.546 49.8311 123.307 50.1289C122.89 50.5657 122.771 50.6848 121.779 50.6848H119.357C118.483 50.6848 117.788 50.1487 117.828 48.7987V46.2178H117.808ZM120.448 42.2671H112.984C112.984 42.2671 112.944 42.2671 112.944 42.3266V44.8877C112.944 44.8877 112.944 44.9671 112.984 44.9671H120.448C120.448 44.9671 120.528 44.9274 120.528 44.8877V42.3266L120.448 42.2671Z" fill="#FC6F51"/>
<path d="M126.464 44.431V40.9567H124.975V39.7456H126.464V37.0853H127.695V39.7456H128.846V40.9567H127.695V43.8751L128.489 43.4383L129.105 44.4707C128.688 44.7287 128.211 44.9868 127.695 45.2449V49.3744C127.695 50.0097 127.298 50.8038 126.206 50.8038C125.908 50.8038 125.531 50.7442 125.094 50.645L125.054 49.3942C125.452 49.4935 125.769 49.5332 125.988 49.5332C126.266 49.5332 126.464 49.4935 126.464 49.0567V45.7611L125.213 46.2177L124.796 45.0265L126.484 44.4111L126.464 44.431ZM138.436 50.9229C137.959 50.8236 137.145 50.506 136.073 50.0295C135.279 49.6126 134.405 48.8185 133.512 47.667L133.294 48.0045C132.48 49.2155 130.951 50.2281 128.747 50.9428L128.132 49.7913C130.276 49.2553 131.725 48.4016 132.44 47.2104H128.469V46.1185H129.382V40.6986C129.382 40.4405 129.521 40.3214 129.78 40.3214H133.353C134.088 39.7456 134.723 39.2096 135.18 38.6934H131.666C131.13 39.15 130.732 39.4875 129.521 40.2022L128.846 39.1897C130.157 38.5147 131.169 37.7802 131.864 36.9662L132.837 37.4625L132.738 37.6015H136.252L136.966 38.2368C136.966 38.2368 136.549 39.1103 135.279 40.3214H137.8C138.098 40.3214 138.217 40.4405 138.217 40.6986V46.1185H138.912V47.2104H134.524C135.12 47.9847 136.073 49.2354 138.972 49.7913L138.436 50.9428V50.9229ZM134.088 45.7015L134.048 46.0986H137.026V44.7486H134.921C134.544 44.7486 134.385 44.5699 134.385 44.1927V41.3736H133.174V42.2074C133.174 43.478 132.599 44.4905 131.507 45.2251L130.633 44.3714C130.871 44.2721 131.09 44.1332 131.269 43.9942C131.705 43.5773 131.963 42.9618 132.003 42.2074V41.3736H130.733C130.633 41.3736 130.574 41.4331 130.574 41.5324V46.0788H132.817L132.857 45.6817V44.7287H134.088V45.6817V45.7015ZM135.537 43.3589C135.537 43.5376 135.636 43.6368 135.815 43.6368H137.026V41.5324C137.026 41.4331 136.966 41.3736 136.867 41.3736H135.557V43.3589H135.537Z" fill="#FC6F51"/>
<path d="M142.01 49.1957C143.876 48.7987 145.107 47.9053 145.722 46.5354H143.121V45.7016C142.506 46.2972 141.771 46.8531 140.937 47.3296L139.945 46.3965C141.156 45.6619 142.268 44.8082 143.28 43.8751H140.203V42.6641H144.313C144.829 41.9891 145.265 41.1552 145.265 41.0758H140.739V39.8648H145.762C145.98 39.0508 146.159 38.078 146.278 37.0457L147.628 37.1846C147.529 37.8596 147.33 38.7927 147.032 39.8846H148.938C149.633 38.8324 150.169 37.8993 150.487 37.1648L151.638 37.7604C151.36 38.4155 150.963 39.1104 150.487 39.8846H153.306V41.0957H148.918C149.216 41.6913 149.534 42.2075 149.852 42.6839H153.842V43.895H150.804C151.599 44.7288 152.691 45.5428 154.06 46.3568L153.008 47.3296C152.472 46.9722 151.956 46.595 151.479 46.2178L151.44 48.5604C151.4 49.3546 151.241 50.923 149.057 50.923C148.442 50.923 147.747 50.8237 146.893 50.5855V49.0965C147.509 49.3546 148.144 49.5928 148.779 49.5928C149.216 49.5928 149.593 49.4737 149.871 49.2354C150.149 48.9575 150.229 48.5009 150.229 47.2501C150.229 46.6744 150.169 46.5751 150.01 46.5751H147.132C146.993 47.0119 146.774 47.4288 146.516 47.8457L146.218 48.2825C145.146 49.6325 143.3 50.4862 140.739 50.8038L140.401 49.4737L142.029 49.2156L142.01 49.1957ZM143.439 39.6861C142.943 38.8721 142.486 38.2368 142.069 37.8199L143.121 37.0655C143.578 37.542 144.035 38.1971 144.511 38.9913L143.419 39.6663L143.439 39.6861ZM144.868 43.8751C144.551 44.2523 144.094 44.7487 143.499 45.3244H150.527L149.196 43.8751H144.868ZM148.382 42.6641L147.529 41.0758H146.615L145.742 42.6641H148.363H148.382Z" fill="#FC6F51"/>
<path d="M41.2945 34.4249L44.2327 40.2617L50.8041 41.1948L46.0394 45.7412L47.171 52.1736L41.2945 49.1361L35.418 52.1736L36.5496 45.7412L31.8047 41.1948L38.3562 40.2617L41.2945 34.4249Z" fill="#FC6F51"/>
<path d="M169.485 34.1865L172.424 40.0233L178.995 40.9763L174.25 45.5028L175.362 51.9352L169.485 48.8977L163.629 51.9352L164.741 45.5028L159.996 40.9763L166.567 40.0233L169.485 34.1865Z" fill="#FC6F51"/>
<path d="M63.2916 10.7404L64.7408 13.6588L67.9571 14.1154L65.6343 16.3985L66.1901 19.5948L63.2916 18.0662L60.4328 19.575L60.9688 16.3786L58.646 14.1154L61.8622 13.6588L63.2916 10.7404Z" fill="#10FFA2"/>
<path d="M128.013 14.2543L131.209 13.6587L132.539 10.6808L134.088 13.5396L137.324 13.8771L135.08 16.2396L135.755 19.4161L132.817 18.0264L130.018 19.6544L130.435 16.4183L128.013 14.2543Z" fill="#10FFA2"/>
</svg>
