<svg width="200" height="81" viewBox="0 0 200 81" fill="none" xmlns="http://www.w3.org/2000/svg">
<path d="M190.489 80.8697H9.51059C4.26885 80.8697 0 76.6008 0 71.3591V9.51057C0 4.26884 4.26885 0 9.51059 0H190.489C195.731 0 200 4.26884 200 9.51057V71.3591C200 76.6008 195.731 80.8697 190.489 80.8697ZM9.51059 1.44942C5.06306 1.44942 1.44944 5.06304 1.44944 9.51057V71.3591C1.44944 75.8066 5.06306 79.4202 9.51059 79.4202H190.489C194.937 79.4202 198.551 75.8066 198.551 71.3591V9.51057C198.551 5.06304 194.937 1.44942 190.489 1.44942H9.51059Z" fill="#00FF99"/>
<path d="M178.537 74.6749H20.9472C15.3084 74.6749 10.7417 70.0884 10.7417 64.4694V16.44C10.7417 10.8012 15.3282 6.2345 20.9472 6.2345H178.537C184.176 6.2345 188.742 10.821 188.742 16.44V64.4694C188.742 70.1082 184.156 74.6749 178.537 74.6749ZM20.9472 7.76334C16.182 7.76334 12.2904 11.6549 12.2904 16.4201V64.4495C12.2904 69.2147 16.182 73.1063 20.9472 73.1063H178.537C183.302 73.1063 187.194 69.2147 187.194 64.4495V16.4201C187.194 11.6549 183.302 7.76334 178.537 7.76334H20.9472Z" fill="#00FF99"/>
<path d="M181.296 23.9254H18.4648V24.6998H181.296V23.9254Z" fill="#00FF99"/>
<path d="M181.296 55.5146H18.4648V56.289H181.296V55.5146Z" fill="#00FF99"/>
<path d="M45.2888 13.7599L46.2418 15.666L48.3465 15.9638L46.8176 17.4529L47.175 19.5576L45.2888 18.5648L43.4224 19.5576L43.7798 17.4529L42.251 15.9638L44.3556 15.666L45.2888 13.7599Z" fill="#10FFA2"/>
<path d="M37.3469 13.7599L38.2999 15.666L40.4046 15.9638L38.8757 17.4529L39.2331 19.5576L37.3469 18.5648L35.4805 19.5576L35.8379 17.4529L34.3091 15.9638L36.4137 15.666L37.3469 13.7599Z" fill="#10FFA2"/>
<path d="M29.405 13.7599L30.358 15.666L32.4627 15.9638L30.9338 17.4529L31.2912 19.5576L29.405 18.5648L27.5386 19.5576L27.896 17.4529L26.3672 15.9638L28.4718 15.666L29.405 13.7599Z" fill="#10FFA2"/>
<path d="M52.8145 13.7599L53.7477 15.666L55.8523 15.9638L54.3235 17.4529L54.7007 19.5576L52.8145 18.5648L50.9283 19.5576L51.2857 17.4529L49.7568 15.9638L51.8615 15.666L52.8145 13.7599Z" fill="#10FFA2"/>
<path d="M60.3191 13.7599L61.2721 15.666L63.3768 15.9638L61.8479 17.4529L62.2053 19.5576L60.3191 18.5648L58.4527 19.5576L58.8101 17.4529L57.2812 15.9638L59.3859 15.666L60.3191 13.7599Z" fill="#10FFA2"/>
<path d="M67.844 13.7599L68.7772 15.666L70.8818 15.9638L69.3529 17.4529L69.7302 19.5576L67.844 18.5648L65.9577 19.5576L66.3151 17.4529L64.8062 15.9638L66.8909 15.666L67.844 13.7599Z" fill="#10FFA2"/>
<path d="M75.3498 13.7599L76.3029 15.666L78.4075 15.9638L76.8787 17.4529L77.2361 19.5576L75.3498 18.5648L73.4835 19.5576L73.8408 17.4529L72.312 15.9638L74.4166 15.666L75.3498 13.7599Z" fill="#10FFA2"/>
<path d="M125.941 13.7599L126.894 15.666L128.978 15.9638L127.47 17.4529L127.827 19.5576L125.941 18.5648L124.054 19.5576L124.412 17.4529L122.903 15.9638L125.007 15.666L125.941 13.7599Z" fill="#10FFA2"/>
<path d="M133.465 13.7599L134.398 15.666L136.503 15.9638L134.974 17.4529L135.331 19.5576L133.465 18.5648L131.579 19.5576L131.936 17.4529L130.407 15.9638L132.512 15.666L133.465 13.7599Z" fill="#10FFA2"/>
<path d="M140.97 13.7599L141.924 15.666L144.008 15.9638L142.499 17.4529L142.857 19.5576L140.97 18.5648L139.084 19.5576L139.461 17.4529L137.933 15.9638L140.037 15.666L140.97 13.7599Z" fill="#10FFA2"/>
<path d="M148.496 13.7599L149.429 15.666L151.534 15.9638L150.005 17.4529L150.363 19.5576L148.496 18.5648L146.61 19.5576L146.967 17.4529L145.438 15.9638L147.543 15.666L148.496 13.7599Z" fill="#10FFA2"/>
<path d="M156.001 13.7599L156.954 15.666L159.059 15.9638L157.53 17.4529L157.887 19.5576L156.001 18.5648L154.115 19.5576L154.492 17.4529L152.963 15.9638L155.068 15.666L156.001 13.7599Z" fill="#10FFA2"/>
<path d="M163.943 13.7599L164.896 15.666L167.001 15.9638L165.472 17.4529L165.829 19.5576L163.943 18.5648L162.057 19.5576L162.434 17.4529L160.905 15.9638L163.01 15.666L163.943 13.7599Z" fill="#10FFA2"/>
<path d="M171.885 13.7599L172.839 15.666L174.943 15.9638L173.414 17.4529L173.772 19.5576L171.885 18.5648L169.999 19.5576L170.377 17.4529L168.848 15.9638L170.952 15.666L171.885 13.7599Z" fill="#10FFA2"/>
<path d="M37.3469 59.4265L38.2999 61.3326L40.4046 61.6304L38.8757 63.1195L39.2331 65.2242L37.3469 64.2314L35.4805 65.2242L35.8379 63.1195L34.3091 61.6304L36.4137 61.3326L37.3469 59.4265Z" fill="#10FFA2"/>
<path d="M29.405 59.4265L30.358 61.3326L32.4627 61.6304L30.9338 63.1195L31.2912 65.2242L29.405 64.2314L27.5386 65.2242L27.896 63.1195L26.3672 61.6304L28.4718 61.3326L29.405 59.4265Z" fill="#10FFA2"/>
<path d="M45.2888 59.4265L46.2418 61.3326L48.3465 61.6304L46.8176 63.1195L47.175 65.2242L45.2888 64.2314L43.4224 65.2242L43.7798 63.1195L42.251 61.6304L44.3556 61.3326L45.2888 59.4265Z" fill="#10FFA2"/>
<path d="M53.2312 59.4265L54.1842 61.3326L56.2888 61.6304L54.76 63.1195L55.1174 65.2242L53.2312 64.2314L51.3648 65.2242L51.7222 63.1195L50.1934 61.6304L52.298 61.3326L53.2312 59.4265Z" fill="#10FFA2"/>
<path d="M61.1731 59.4265L62.1261 61.3326L64.2307 61.6304L62.7019 63.1195L63.0593 65.2242L61.1731 64.2314L59.3067 65.2242L59.6641 63.1195L58.1353 61.6304L60.2399 61.3326L61.1731 59.4265Z" fill="#10FFA2"/>
<path d="M69.115 59.4265L70.068 61.3326L72.1726 61.6304L70.6438 63.1195L71.0012 65.2242L69.115 64.2314L67.2486 65.2242L67.606 63.1195L66.0771 61.6304L68.1818 61.3326L69.115 59.4265Z" fill="#10FFA2"/>
<path d="M77.0569 59.4265L78.0099 61.3326L80.1145 61.6304L78.5857 63.1195L78.9431 65.2242L77.0569 64.2314L75.1905 65.2242L75.5479 63.1195L74.019 61.6304L76.1237 61.3326L77.0569 59.4265Z" fill="#10FFA2"/>
<path d="M84.9992 59.4265L85.9523 61.3326L88.0569 61.6304L86.5281 63.1195L86.8855 65.2242L84.9992 64.2314L83.1329 65.2242L83.4902 63.1195L81.9614 61.6304L84.0661 61.3326L84.9992 59.4265Z" fill="#10FFA2"/>
<path d="M92.9411 59.4265L93.8942 61.3326L95.9988 61.6304L94.47 63.1195L94.8274 65.2242L92.9411 64.2314L91.0748 65.2242L91.4321 63.1195L89.9033 61.6304L92.008 61.3326L92.9411 59.4265Z" fill="#10FFA2"/>
<path d="M100.883 59.4265L101.836 61.3326L103.941 61.6304L102.412 63.1195L102.769 65.2242L100.883 64.2314L99.0167 65.2242L99.374 63.1195L97.8452 61.6304L99.9498 61.3326L100.883 59.4265Z" fill="#10FFA2"/>
<path d="M108.825 59.4265L109.778 61.3326L111.883 61.6304L110.354 63.1195L110.711 65.2242L108.825 64.2314L106.959 65.2242L107.316 63.1195L105.787 61.6304L107.892 61.3326L108.825 59.4265Z" fill="#10FFA2"/>
<path d="M116.767 59.4265L117.72 61.3326L119.825 61.6304L118.296 63.1195L118.654 65.2242L116.767 64.2314L114.901 65.2242L115.258 63.1195L113.729 61.6304L115.834 61.3326L116.767 59.4265Z" fill="#10FFA2"/>
<path d="M124.709 59.4265L125.662 61.3326L127.767 61.6304L126.238 63.1195L126.595 65.2242L124.709 64.2314L122.843 65.2242L123.2 63.1195L121.671 61.6304L123.776 61.3326L124.709 59.4265Z" fill="#10FFA2"/>
<path d="M132.651 59.4265L133.604 61.3326L135.709 61.6304L134.18 63.1195L134.537 65.2242L132.651 64.2314L130.785 65.2242L131.142 63.1195L129.613 61.6304L131.718 61.3326L132.651 59.4265Z" fill="#10FFA2"/>
<path d="M140.593 59.4265L141.546 61.3326L143.651 61.6304L142.122 63.1195L142.479 65.2242L140.593 64.2314L138.727 65.2242L139.084 63.1195L137.555 61.6304L139.66 61.3326L140.593 59.4265Z" fill="#10FFA2"/>
<path d="M148.535 59.4265L149.488 61.3326L151.593 61.6304L150.064 63.1195L150.422 65.2242L148.535 64.2314L146.669 65.2242L147.026 63.1195L145.498 61.6304L147.602 61.3326L148.535 59.4265Z" fill="#10FFA2"/>
<path d="M156.477 59.4265L157.43 61.3326L159.535 61.6304L158.006 63.1195L158.363 65.2242L156.477 64.2314L154.611 65.2242L154.968 63.1195L153.439 61.6304L155.544 61.3326L156.477 59.4265Z" fill="#10FFA2"/>
<path d="M164.419 59.4265L165.372 61.3326L167.477 61.6304L165.948 63.1195L166.305 65.2242L164.419 64.2314L162.553 65.2242L162.91 63.1195L161.381 61.6304L163.486 61.3326L164.419 59.4265Z" fill="#10FFA2"/>
<path d="M172.361 59.4265L173.314 61.3326L175.419 61.6304L173.89 63.1195L174.247 65.2242L172.361 64.2314L170.495 65.2242L170.852 63.1195L169.323 61.6304L171.428 61.3326L172.361 59.4265Z" fill="#10FFA2"/>
<path d="M87.6393 18.9422H85.6538V17.731H86.0509V15.0903H85.6538V13.8792H88.7512L89.5057 15.8249L90.28 13.8792H93.3575V15.0903H92.9605V17.731H93.3774V18.9422H90.697V17.731H91.1139V14.9116L89.5652 18.9422H88.7909L87.2621 14.9513V17.731H87.6592V18.9422H87.6393Z" fill="#FC6F51"/>
<path d="M93.9937 17.175C93.9937 16.6588 94.2121 16.222 94.6687 15.8646C95.1055 15.5072 95.7012 15.3285 96.4557 15.3285C97.2102 15.3285 97.8257 15.5072 98.3022 15.8447C98.7787 16.1823 99.017 16.6389 99.017 17.1949C99.017 17.7508 98.7986 18.1678 98.3419 18.5252C97.8852 18.8825 97.2896 19.0612 96.5549 19.0612C95.7607 19.0612 95.1254 18.8825 94.6687 18.5252C94.2121 18.1678 93.9937 17.731 93.9937 17.175ZM95.8799 17.175C95.8799 17.731 96.0784 18.0089 96.4954 18.0089C96.9322 18.0089 97.1506 17.731 97.1506 17.1552C97.1506 16.897 97.091 16.6985 96.9918 16.5595C96.8925 16.4205 96.7336 16.3411 96.5351 16.3411C96.3365 16.3411 96.1777 16.4205 96.0586 16.5595C95.9394 16.6985 95.8799 16.897 95.8799 17.175Z" fill="#FC6F51"/>
<path d="M102.452 18.982H100.962L99.6123 16.52H99.2549V15.4081H101.776V16.52H101.379L101.975 17.8503L102.61 16.52H102.253V15.4081H104.1V16.52H103.762L102.452 18.982Z" fill="#FC6F51"/>
<path d="M107.356 18.982H105.887L104.795 16.52H104.417V15.4081H106.84V16.52H106.482L106.899 17.6914L107.773 15.4081H109.143L109.957 17.6914L110.414 16.52H110.076V15.4081H111.823V16.52H111.466L110.434 18.982H108.964L108.15 17.1752L107.376 18.982H107.356Z" fill="#FC6F51"/>
<path d="M115.159 17.8303L116.688 18.009C116.628 18.1678 116.529 18.3068 116.39 18.4259C116.271 18.545 116.112 18.6642 115.933 18.7436C115.576 18.9421 115.139 19.0216 114.643 19.0216C113.809 19.0216 113.173 18.8429 112.756 18.5053C112.34 18.1678 112.121 17.731 112.121 17.175C112.121 16.6191 112.32 16.1823 112.737 15.8249C113.154 15.4675 113.71 15.2888 114.404 15.2888C115.099 15.2888 115.635 15.4675 116.052 15.805C116.469 16.1426 116.688 16.6588 116.727 17.3339H113.908C113.908 17.9097 114.126 18.1877 114.563 18.1877C114.821 18.1877 115 18.0487 115.119 17.7906L115.159 17.8303ZM113.968 16.9169H115.02V16.7978C115.02 16.5992 114.98 16.4404 114.881 16.3213C114.782 16.2021 114.643 16.1426 114.484 16.1426C114.325 16.1426 114.186 16.2021 114.107 16.3411C114.027 16.4801 113.968 16.639 113.968 16.8574C113.968 16.8772 113.968 16.9169 113.968 16.9368V16.9169Z" fill="#FC6F51"/>
<path d="M50.6699 34.5083H57.5596V35.6003L53.0327 45.7066H51.2259L55.7528 35.9577H50.6699V34.5083Z" fill="#FC6F51"/>
<path d="M71.2792 46.5207C68.3804 44.9323 66.514 43.1652 65.7992 41.2789C65.4418 42.0533 65.005 42.8078 64.4491 43.5027C63.3372 44.7734 61.7091 45.9052 59.664 46.7986L58.8301 45.647C62.3643 44.3962 64.4292 42.3313 65.005 39.5118H58.8698V38.2014H65.1638L65.2036 37.8639V35.1636H59.9221V33.8531H71.7756V35.1636H66.514V38.2213H72.7882V39.5317H66.653C66.6927 39.9089 66.7919 40.2862 66.9508 40.6436C67.6259 42.5695 69.6114 44.3168 72.8875 45.8456L71.8749 46.8781L71.2792 46.5405V46.5207Z" fill="#FC6F51"/>
<path d="M74.1191 35.4615H78.9439V36.6727H74.1191V35.4615ZM75.4097 45.9251V46.5009H74.1787V41.4379C74.1787 41.1996 74.3177 41.0606 74.5758 41.0606H78.3284C78.5865 41.0606 78.7255 41.1996 78.7255 41.4379V45.528C78.7255 45.7861 78.5865 45.9251 78.3086 45.9251H75.4097ZM74.556 33.5356H78.527V34.7467H74.556V33.5356ZM74.556 37.3477H78.4873V38.4993H74.556V37.3477ZM74.556 39.2141H78.4873V40.3657H74.556V39.2141ZM77.5144 42.4108C77.5144 42.2718 77.4349 42.2122 77.296 42.2122H75.6083C75.4693 42.2122 75.4097 42.2718 75.4097 42.4108V44.7934H77.2364C77.3952 44.7934 77.4945 44.714 77.4945 44.5353V42.4108H77.5144ZM80.6713 44.5948V39.5715H79.2815V38.3603H83.3914V39.5715H81.9619V44.297C82.7363 44.0587 83.3716 43.8205 83.868 43.6021L84.4041 44.7537C82.9745 45.3096 81.3464 45.7663 79.48 46.084L79.0233 44.8728L80.6713 44.5948ZM85.8138 46.1038C84.543 44.2374 83.7687 41.0408 83.5503 36.5932H79.5992V35.3821H83.5106L83.4709 33.0988L84.7615 33.2179L84.7218 35.3821H87.7596V36.5932H84.7615C84.9004 39.9488 85.4365 42.6093 86.3101 44.6345C86.4293 44.9721 86.5484 45.1309 86.6676 45.1309C86.8264 45.1309 86.8462 44.0786 86.8462 43.1057L88.0971 43.4234C87.9978 44.8331 87.8986 45.7266 87.7794 46.1237C87.6603 46.4215 87.422 46.8782 86.8462 46.8782C86.608 46.8782 86.3697 46.7392 86.1315 46.4811L85.8336 46.084L85.8138 46.1038ZM86.5683 35.2828C86.0917 34.707 85.6351 34.2702 85.2578 33.9724L86.1116 33.1186C86.5484 33.4562 86.9852 33.893 87.4816 34.4886L86.5484 35.2828H86.5683Z" fill="#FC6F51"/>
<path d="M91.5909 42.4505C91.3328 43.9794 90.9357 45.3891 90.4195 46.6201L89.0693 46.2428C89.9231 44.0786 90.3996 42.1527 90.4393 40.4849V34.0121C90.4393 33.7739 90.5585 33.6349 90.8166 33.6349H101.717C101.995 33.6349 102.134 33.7739 102.134 34.032V45.2104C102.134 46.8385 100.724 46.8385 100.228 46.8385C99.6918 46.8385 99.0366 46.7789 98.2821 46.6598L98.2424 45.2104C99.0962 45.4288 99.7315 45.5479 100.148 45.5479C100.625 45.5479 100.863 45.4288 100.863 44.8331V42.4704H96.8128V46.4811H95.5421V42.4704H91.6108L91.5909 42.4505ZM91.6902 41.1798H95.5024V38.5987H91.6902V41.1798ZM95.5024 37.3478V34.8858H91.8491C91.7498 34.8858 91.6902 34.9453 91.6902 35.0446V37.3279H95.5024V37.3478ZM96.7731 34.8858V37.3478H100.824V35.0645C100.824 34.9652 100.764 34.9056 100.665 34.9056H96.793L96.7731 34.8858ZM96.7731 41.1798H100.824V38.5987H96.7731V41.1798Z" fill="#FC6F51"/>
<path d="M112.38 42.2717H109.958C109.898 42.7482 109.799 43.185 109.7 43.5225C109.144 45.0315 107.655 46.1633 105.332 46.878L104.597 45.7066C106.543 45.1705 108.429 44.5749 108.667 42.2915H106.404C106.285 42.2915 106.245 42.232 106.245 42.093V37.3873C105.868 37.7249 105.51 37.983 105.153 38.2014L104.22 37.2682C105.471 36.474 106.483 35.4614 107.258 34.2105L108.35 34.8856C107.794 35.6996 107.178 36.4343 106.563 37.0498H116.033C115.438 36.5336 114.783 35.7989 114.147 34.9054C114.108 34.8657 114.048 34.826 113.929 34.826H109.084V33.5553H114.425C114.584 33.5553 114.703 33.595 114.783 33.6943C115.736 35.1238 116.927 36.2556 118.337 36.9902L117.364 37.9631L116.391 37.3278V42.0533C116.391 42.1923 116.351 42.2518 116.212 42.2518H113.691V44.6146C113.691 45.0712 113.73 45.4485 114.485 45.4485H115.934C116.351 45.4485 116.649 45.3095 116.788 45.1109C116.887 44.9521 116.907 44.3962 116.907 43.4828L118.218 43.6615C118.178 45.6669 118.118 45.8853 117.88 46.1831C117.463 46.6199 117.344 46.7391 116.351 46.7391H113.929C113.055 46.7391 112.36 46.203 112.4 44.8528V42.2717H112.38ZM115.021 38.3205H107.555C107.555 38.3205 107.516 38.3205 107.516 38.3801V40.9414C107.516 40.9414 107.516 41.0208 107.555 41.0208H115.021C115.021 41.0208 115.1 40.9811 115.1 40.9414V38.3801L115.021 38.3205Z" fill="#FC6F51"/>
<path d="M121.036 40.4847V37.01H119.547V35.7989H121.036V33.1383H122.267V35.7989H123.419V37.01H122.267V39.9287L123.062 39.4919L123.677 40.5244C123.26 40.7825 122.784 41.0406 122.267 41.2987V45.4286C122.267 46.0639 121.87 46.8581 120.778 46.8581C120.481 46.8581 120.103 46.7986 119.666 46.6993L119.627 45.4484C120.024 45.5477 120.342 45.5874 120.56 45.5874C120.838 45.5874 121.036 45.5477 121.036 45.1109V41.815L119.786 42.2716L119.369 41.0803L121.056 40.4648L121.036 40.4847ZM133.009 46.9773C132.533 46.878 131.718 46.5603 130.646 46.0838C129.852 45.6668 128.978 44.8726 128.085 43.721L127.867 44.0586C127.053 45.2697 125.524 46.2823 123.32 46.9971L122.704 45.8455C124.849 45.3095 126.298 44.4557 127.013 43.2644H123.042V42.1723H123.955V36.7519C123.955 36.4938 124.094 36.3747 124.352 36.3747H127.926C128.661 35.7989 129.296 35.2628 129.753 34.7466H126.238C125.702 35.2032 125.305 35.5408 124.094 36.2555L123.419 35.2429C124.73 34.5679 125.742 33.8332 126.437 33.0192L127.41 33.5155L127.311 33.6545H130.825L131.54 34.2899C131.54 34.2899 131.123 35.1635 129.852 36.3747H132.374C132.672 36.3747 132.791 36.4938 132.791 36.7519V42.1723H133.486V43.2644H129.098C129.693 44.0387 130.646 45.2896 133.545 45.8455L133.009 46.9971V46.9773ZM128.661 41.7554L128.621 42.1525H131.599V40.8024H129.495C129.117 40.8024 128.959 40.6237 128.959 40.2464V37.427H127.747V38.2609C127.747 39.5316 127.172 40.5442 126.08 41.2789L125.206 40.4251C125.444 40.3258 125.663 40.1868 125.841 40.0479C126.278 39.6309 126.536 39.0154 126.576 38.2609V37.427H125.305C125.206 37.427 125.146 37.4866 125.146 37.5858V42.1326H127.39L127.43 41.7355V40.7825H128.661V41.7355V41.7554ZM130.11 39.4125C130.11 39.5912 130.21 39.6905 130.388 39.6905H131.599V37.5858C131.599 37.4866 131.54 37.427 131.441 37.427H130.13V39.4125H130.11Z" fill="#FC6F51"/>
<path d="M136.563 45.25C138.43 44.8529 139.661 43.9595 140.276 42.5895H137.675V41.7556C137.06 42.3512 136.325 42.9072 135.491 43.3837L134.499 42.4505C135.71 41.7158 136.822 40.8621 137.834 39.9289H134.757V38.7177H138.867C139.383 38.0427 139.82 37.2088 139.82 37.1293H135.293V35.9182H140.316C140.534 35.1041 140.713 34.1312 140.832 33.0988L142.182 33.2377C142.083 33.9128 141.885 34.846 141.587 35.938H143.493C144.188 34.8857 144.724 33.9525 145.042 33.2179L146.193 33.8135C145.915 34.4688 145.518 35.1637 145.042 35.938H147.861V37.1492H143.473C143.771 37.7448 144.089 38.2611 144.406 38.7376H148.397V39.9488H145.359C146.153 40.7827 147.245 41.5967 148.615 42.4108L147.563 43.3837C147.027 43.0263 146.511 42.649 146.034 42.2718L145.995 44.6147C145.955 45.4089 145.796 46.9774 143.612 46.9774C142.996 46.9774 142.302 46.8782 141.448 46.6399V45.1508C142.063 45.4089 142.699 45.6472 143.334 45.6472C143.771 45.6472 144.148 45.528 144.426 45.2898C144.704 45.0118 144.783 44.5551 144.783 43.3043C144.783 42.7285 144.724 42.6292 144.565 42.6292H141.686C141.547 43.066 141.329 43.483 141.071 43.8999L140.773 44.3367C139.701 45.6869 137.854 46.5406 135.293 46.8583L134.955 45.528L136.583 45.2699L136.563 45.25ZM137.993 35.7395C137.497 34.9254 137.04 34.2901 136.623 33.8731L137.675 33.1186C138.132 33.5951 138.589 34.2503 139.065 35.0445L137.973 35.7196L137.993 35.7395ZM139.423 39.9289C139.105 40.3061 138.648 40.8025 138.053 41.3783H145.081L143.751 39.9289H139.423ZM142.937 38.7177L142.083 37.1293H141.17L140.296 38.7177H142.917H142.937Z" fill="#FC6F51"/>
<path d="M35.3613 30.4777L38.2999 36.315L44.8719 37.2482L40.1067 41.795L41.2384 48.2281L35.3613 45.1903L29.4842 48.2281L30.616 41.795L25.8706 37.2482L32.4227 36.315L35.3613 30.4777Z" fill="#FC6F51"/>
<path d="M163.565 30.2393L166.503 36.0766L173.076 37.0297L168.33 41.5566L169.442 47.9897L163.565 44.9519L157.708 47.9897L158.82 41.5566L154.074 37.0297L160.646 36.0766L163.565 30.2393Z" fill="#FC6F51"/>
</svg>
