<svg width="200" height="81" viewBox="0 0 200 81" fill="none" xmlns="http://www.w3.org/2000/svg">
<path d="M190.489 80.8697H9.51056C4.26882 80.8697 0 76.6008 0 71.3591V9.51057C0 4.26884 4.26882 0 9.51056 0H190.489C195.731 0 200 4.26884 200 9.51057V71.3591C200 76.6008 195.731 80.8697 190.489 80.8697ZM9.51056 1.44943C5.06303 1.44943 1.44941 5.06304 1.44941 9.51057V71.3591C1.44941 75.8066 5.06303 79.4202 9.51056 79.4202H190.489C194.937 79.4202 198.551 75.8066 198.551 71.3591V9.51057C198.551 5.06304 194.937 1.44943 190.489 1.44943H9.51056Z" fill="#FEB73A"/>
<path d="M178.855 74.6749H21.1262C15.4874 74.6749 10.9009 70.0884 10.9009 64.4496V16.4202C10.9009 10.7813 15.4874 6.19482 21.1262 6.19482H178.855C184.494 6.19482 189.08 10.7813 189.08 16.4202V64.4496C189.08 70.0884 184.494 74.6749 178.855 74.6749ZM21.1262 7.76338C16.3412 7.76338 12.4694 11.655 12.4694 16.4202V64.4496C12.4694 69.2346 16.361 73.1064 21.1262 73.1064H178.855C183.64 73.1064 187.512 69.2148 187.512 64.4496V16.4202C187.512 11.6351 183.62 7.76338 178.855 7.76338H21.1262Z" fill="#FEB73A"/>
<path d="M182.309 23.9254H18.1079V24.6998H182.309V23.9254Z" fill="#FBB03B"/>
<path d="M182.309 55.5146H18.1079V56.289H182.309V55.5146Z" fill="#FBB03B"/>
<path d="M37.4265 59.4265L38.3795 61.3326L40.4842 61.6304L38.9553 63.1196L39.3127 65.2242L37.4265 64.2314L35.5601 65.2242L35.9175 63.1196L34.3887 61.6304L36.4933 61.3326L37.4265 59.4265Z" fill="#FEB73A"/>
<path d="M29.4846 59.4265L30.4376 61.3326L32.5423 61.6304L31.0134 63.1196L31.3708 65.2242L29.4846 64.2314L27.6182 65.2242L27.9756 63.1196L26.4468 61.6304L28.5514 61.3326L29.4846 59.4265Z" fill="#FEB73A"/>
<path d="M45.3684 59.4265L46.3214 61.3326L48.4261 61.6304L46.8972 63.1196L47.2546 65.2242L45.3684 64.2314L43.502 65.2242L43.8594 63.1196L42.3306 61.6304L44.4352 61.3326L45.3684 59.4265Z" fill="#FEB73A"/>
<path d="M53.3103 59.4265L54.2633 61.3326L56.3679 61.6304L54.8391 63.1196L55.1965 65.2242L53.3103 64.2314L51.4439 65.2242L51.8013 63.1196L50.2725 61.6304L52.3771 61.3326L53.3103 59.4265Z" fill="#FEB73A"/>
<path d="M61.2527 59.4265L62.2057 61.3326L64.3103 61.6304L62.7815 63.1196L63.1389 65.2242L61.2527 64.2314L59.3863 65.2242L59.7437 63.1196L58.2148 61.6304L60.3195 61.3326L61.2527 59.4265Z" fill="#FEB73A"/>
<path d="M69.1946 59.4265L70.1476 61.3326L72.2522 61.6304L70.7234 63.1196L71.0808 65.2242L69.1946 64.2314L67.3282 65.2242L67.6856 63.1196L66.1567 61.6304L68.2614 61.3326L69.1946 59.4265Z" fill="#FEB73A"/>
<path d="M77.1365 59.4265L78.0895 61.3326L80.1941 61.6304L78.6653 63.1196L79.0227 65.2242L77.1365 64.2314L75.2701 65.2242L75.6275 63.1196L74.0986 61.6304L76.2033 61.3326L77.1365 59.4265Z" fill="#FEB73A"/>
<path d="M85.0783 59.4265L86.0314 61.3326L88.136 61.6304L86.6072 63.1196L86.9646 65.2242L85.0783 64.2314L83.212 65.2242L83.5693 63.1196L82.0405 61.6304L84.1452 61.3326L85.0783 59.4265Z" fill="#FEB73A"/>
<path d="M93.0207 59.4265L93.9738 61.3326L96.0784 61.6304L94.5495 63.1196L94.907 65.2242L93.0207 64.2314L91.1544 65.2242L91.5117 63.1196L89.9829 61.6304L92.0875 61.3326L93.0207 59.4265Z" fill="#FEB73A"/>
<path d="M100.963 59.4265L101.916 61.3326L104.02 61.6304L102.491 63.1196L102.849 65.2242L100.963 64.2314L99.0962 65.2242L99.4536 63.1196L97.9248 61.6304L100.029 61.3326L100.963 59.4265Z" fill="#FEB73A"/>
<path d="M108.905 59.4265L109.858 61.3326L111.962 61.6304L110.433 63.1196L110.791 65.2242L108.905 64.2314L107.038 65.2242L107.396 63.1196L105.867 61.6304L107.971 61.3326L108.905 59.4265Z" fill="#FEB73A"/>
<path d="M116.847 59.4265L117.8 61.3326L119.905 61.6304L118.376 63.1196L118.733 65.2242L116.847 64.2314L114.981 65.2242L115.338 63.1196L113.809 61.6304L115.914 61.3326L116.847 59.4265Z" fill="#FEB73A"/>
<path d="M124.789 59.4265L125.742 61.3326L127.846 61.6304L126.318 63.1196L126.675 65.2242L124.789 64.2314L122.922 65.2242L123.28 63.1196L121.751 61.6304L123.856 61.3326L124.789 59.4265Z" fill="#FEB73A"/>
<path d="M132.731 59.4265L133.684 61.3326L135.788 61.6304L134.26 63.1196L134.617 65.2242L132.731 64.2314L130.864 65.2242L131.222 63.1196L129.693 61.6304L131.798 61.3326L132.731 59.4265Z" fill="#FEB73A"/>
<path d="M140.673 59.4265L141.626 61.3326L143.73 61.6304L142.201 63.1196L142.559 65.2242L140.673 64.2314L138.806 65.2242L139.164 63.1196L137.635 61.6304L139.739 61.3326L140.673 59.4265Z" fill="#FEB73A"/>
<path d="M148.615 59.4265L149.568 61.3326L151.673 61.6304L150.144 63.1196L150.501 65.2242L148.615 64.2314L146.749 65.2242L147.106 63.1196L145.577 61.6304L147.682 61.3326L148.615 59.4265Z" fill="#FEB73A"/>
<path d="M156.557 59.4265L157.51 61.3326L159.615 61.6304L158.086 63.1196L158.443 65.2242L156.557 64.2314L154.69 65.2242L155.048 63.1196L153.519 61.6304L155.624 61.3326L156.557 59.4265Z" fill="#FEB73A"/>
<path d="M164.499 59.4265L165.452 61.3326L167.556 61.6304L166.028 63.1196L166.385 65.2242L164.499 64.2314L162.632 65.2242L162.99 63.1196L161.461 61.6304L163.566 61.3326L164.499 59.4265Z" fill="#FEB73A"/>
<path d="M172.441 59.4265L173.394 61.3326L175.498 61.6304L173.969 63.1196L174.327 65.2242L172.441 64.2314L170.574 65.2242L170.932 63.1196L169.403 61.6304L171.507 61.3326L172.441 59.4265Z" fill="#FEB73A"/>
<path d="M45.3684 13.7599L46.3214 15.666L48.4261 15.9638L46.8972 17.4529L47.2546 19.5576L45.3684 18.5648L43.502 19.5576L43.8594 17.4529L42.3306 15.9638L44.4352 15.666L45.3684 13.7599Z" fill="#FEB73A"/>
<path d="M37.4265 13.7599L38.3795 15.666L40.4842 15.9638L38.9553 17.4529L39.3127 19.5576L37.4265 18.5648L35.5601 19.5576L35.9175 17.4529L34.3887 15.9638L36.4933 15.666L37.4265 13.7599Z" fill="#FEB73A"/>
<path d="M29.4846 13.7599L30.4376 15.666L32.5423 15.9638L31.0134 17.4529L31.3708 19.5576L29.4846 18.5648L27.6182 19.5576L27.9756 17.4529L26.4468 15.9638L28.5514 15.666L29.4846 13.7599Z" fill="#FEB73A"/>
<path d="M52.8941 13.7599L53.8273 15.666L55.9319 15.9638L54.4031 17.4529L54.7803 19.5576L52.8941 18.5648L51.0079 19.5576L51.3652 17.4529L49.8364 15.9638L51.9411 15.666L52.8941 13.7599Z" fill="#FEB73A"/>
<path d="M60.3982 13.7599L61.3512 15.666L63.4559 15.9638L61.927 17.4529L62.2844 19.5576L60.3982 18.5648L58.5318 19.5576L58.8892 17.4529L57.3604 15.9638L59.465 15.666L60.3982 13.7599Z" fill="#FEB73A"/>
<path d="M67.9236 13.7599L68.8568 15.666L70.9614 15.9638L69.4325 17.4529L69.8098 19.5576L67.9236 18.5648L66.0373 19.5576L66.3947 17.4529L64.8857 15.9638L66.9705 15.666L67.9236 13.7599Z" fill="#FEB73A"/>
<path d="M75.4294 13.7599L76.3825 15.666L78.4871 15.9638L76.9582 17.4529L77.3156 19.5576L75.4294 18.5648L73.563 19.5576L73.9204 17.4529L72.3916 15.9638L74.4962 15.666L75.4294 13.7599Z" fill="#FEB73A"/>
<path d="M126.02 13.7599L126.973 15.666L129.058 15.9638L127.549 17.4529L127.906 19.5576L126.02 18.5648L124.134 19.5576L124.491 17.4529L122.982 15.9638L125.087 15.666L126.02 13.7599Z" fill="#FEB73A"/>
<path d="M133.544 13.7599L134.478 15.666L136.582 15.9638L135.053 17.4529L135.411 19.5576L133.544 18.5648L131.658 19.5576L132.016 17.4529L130.487 15.9638L132.591 15.666L133.544 13.7599Z" fill="#FEB73A"/>
<path d="M141.05 13.7599L142.003 15.666L144.088 15.9638L142.579 17.4529L142.936 19.5576L141.05 18.5648L139.164 19.5576L139.541 17.4529L138.012 15.9638L140.117 15.666L141.05 13.7599Z" fill="#FEB73A"/>
<path d="M148.575 13.7599L149.508 15.666L151.613 15.9638L150.084 17.4529L150.442 19.5576L148.575 18.5648L146.689 19.5576L147.046 17.4529L145.518 15.9638L147.622 15.666L148.575 13.7599Z" fill="#FEB73A"/>
<path d="M156.081 13.7599L157.034 15.666L159.138 15.9638L157.61 17.4529L157.967 19.5576L156.081 18.5648L154.195 19.5576L154.572 17.4529L153.043 15.9638L155.148 15.666L156.081 13.7599Z" fill="#FEB73A"/>
<path d="M164.023 13.7599L164.976 15.666L167.08 15.9638L165.552 17.4529L165.909 19.5576L164.023 18.5648L162.136 19.5576L162.514 17.4529L160.985 15.9638L163.089 15.666L164.023 13.7599Z" fill="#FEB73A"/>
<path d="M171.965 13.7599L172.918 15.666L175.022 15.9638L173.493 17.4529L173.851 19.5576L171.965 18.5648L170.078 19.5576L170.456 17.4529L168.927 15.9638L171.031 15.666L171.965 13.7599Z" fill="#FEB73A"/>
<path d="M87.7189 18.9422H85.7334V17.731H86.1305V15.0903H85.7334V13.8792H88.8308L89.5853 15.8249L90.3596 13.8792H93.4371V15.0903H93.04V17.731H93.457V18.9422H90.7766V17.731H91.1935V14.9116L89.6448 18.9422H88.8705L87.3417 14.9513V17.731H87.7387V18.9422H87.7189Z" fill="#10FFA2"/>
<path d="M94.0732 17.175C94.0732 16.6588 94.2916 16.222 94.7483 15.8646C95.1851 15.5072 95.7808 15.3285 96.5352 15.3285C97.2897 15.3285 97.9053 15.5072 98.3818 15.8447C98.8583 16.1823 99.0966 16.6389 99.0966 17.1949C99.0966 17.7508 98.8782 18.1678 98.4215 18.5252C97.9648 18.8825 97.3692 19.0613 96.6345 19.0613C95.8403 19.0613 95.205 18.8825 94.7483 18.5252C94.2916 18.1678 94.0732 17.731 94.0732 17.175ZM95.9595 17.175C95.9595 17.731 96.158 18.0089 96.575 18.0089C97.0118 18.0089 97.2302 17.7309 97.2302 17.1552C97.2302 16.897 97.1706 16.6985 97.0713 16.5595C96.9721 16.4205 96.8132 16.3411 96.6147 16.3411C96.4161 16.3411 96.2573 16.4205 96.1382 16.5595C96.019 16.6985 95.9595 16.897 95.9595 17.175Z" fill="#10FFA2"/>
<path d="M102.531 18.982H101.042L99.6919 16.52H99.3345V15.4081H101.856V16.52H101.459L102.055 17.8503L102.69 16.52H102.333V15.4081H104.179V16.52H103.842L102.531 18.982Z" fill="#10FFA2"/>
<path d="M107.436 18.982H105.966L104.874 16.52H104.497V15.4081H106.919V16.52H106.562L106.979 17.6914L107.853 15.4081H109.223L110.037 17.6914L110.493 16.52H110.156V15.4081H111.903V16.52H111.546L110.513 18.982H109.044L108.23 17.1752L107.455 18.982H107.436Z" fill="#10FFA2"/>
<path d="M115.239 17.8303L116.767 18.009C116.708 18.1678 116.609 18.3068 116.47 18.4259C116.35 18.5451 116.192 18.6642 116.013 18.7436C115.655 18.9421 115.219 19.0216 114.722 19.0216C113.888 19.0216 113.253 18.8429 112.836 18.5053C112.419 18.1678 112.201 17.731 112.201 17.175C112.201 16.6191 112.399 16.1823 112.816 15.8249C113.233 15.4675 113.789 15.2888 114.484 15.2888C115.179 15.2888 115.715 15.4675 116.132 15.805C116.549 16.1426 116.767 16.6588 116.807 17.3339H113.988C113.988 17.9097 114.206 18.1877 114.643 18.1877C114.901 18.1877 115.08 18.0487 115.199 17.7905L115.239 17.8303ZM114.047 16.9169H115.1V16.7978C115.1 16.5992 115.06 16.4404 114.961 16.3213C114.861 16.2021 114.722 16.1426 114.563 16.1426C114.405 16.1426 114.266 16.2021 114.186 16.3411C114.107 16.4801 114.047 16.639 114.047 16.8574C114.047 16.8772 114.047 16.9169 114.047 16.9368V16.9169Z" fill="#10FFA2"/>
<path d="M35.4409 30.4777L38.3795 36.315L44.9515 37.2482L40.1863 41.795L41.318 48.2281L35.4409 45.1903L29.5638 48.2281L30.6956 41.795L25.9502 37.2482L32.5023 36.315L35.4409 30.4777Z" fill="#10FFA2"/>
<path d="M163.645 30.2393L166.583 36.0766L173.155 37.0297L168.41 41.5566L169.522 47.9897L163.645 44.9518L157.787 47.9897L158.899 41.5566L154.154 37.0297L160.726 36.0766L163.645 30.2393Z" fill="#10FFA2"/>
<path d="M56.6266 45.7066H54.9786V42.7482H50.2134V41.6363L54.6808 34.5083H56.6266V41.4377H58.0562V42.7482H56.6266V45.7066ZM51.8614 41.4377H54.9786V38.0822C54.9786 37.4468 55.0183 36.7718 55.058 36.1364H54.9985C54.6411 36.8512 54.3631 37.4071 54.0454 38.0028L51.8614 41.4179V41.4377Z" fill="#10FFA2"/>
<path d="M71.3588 46.5208C68.46 44.9324 66.5936 43.1653 65.8788 41.2791C65.5214 42.0534 65.0846 42.8079 64.5287 43.5028C63.4168 44.7736 61.7886 45.9053 59.7436 46.7988L58.9097 45.6472C62.4439 44.3963 64.5088 42.3314 65.0846 39.512H58.9494V38.2015H65.2434L65.2832 37.864V35.1637H60.0017V33.8533H71.8552V35.1637H66.5936V38.2214H72.8678V39.5318H66.7326C66.7723 39.9091 66.8715 40.2863 67.0304 40.6437C67.7055 42.5696 69.691 44.3169 72.9671 45.8457L71.9545 46.8782L71.3588 46.5407V46.5208Z" fill="#10FFA2"/>
<path d="M74.1987 35.4615H79.0235V36.6727H74.1987V35.4615ZM75.4893 45.9251V46.5009H74.2583V41.4379C74.2583 41.1996 74.3973 41.0606 74.6554 41.0606H78.408C78.6661 41.0606 78.8051 41.1996 78.8051 41.4379V45.528C78.8051 45.7861 78.6661 45.9251 78.3881 45.9251H75.4893ZM74.6355 33.5356H78.6066V34.7467H74.6355V33.5356ZM74.6355 37.3477H78.5669V38.4993H74.6355V37.3477ZM74.6355 39.2141H78.5669V40.3657H74.6355V39.2141ZM77.594 42.4108C77.594 42.2718 77.5145 42.2122 77.3756 42.2122H75.6879C75.5489 42.2122 75.4893 42.2718 75.4893 42.4108V44.7934H77.316C77.4748 44.7934 77.5741 44.714 77.5741 44.5353V42.4108H77.594ZM80.7509 44.5948V39.5715H79.3611V38.3603H83.471V39.5715H82.0415V44.297C82.8159 44.0587 83.4512 43.8205 83.9476 43.6021L84.4837 44.7537C83.0541 45.3096 81.426 45.7663 79.5596 46.084L79.1029 44.8728L80.7509 44.5948ZM85.8934 46.1038C84.6226 44.2374 83.8483 41.0408 83.6299 36.5932H79.6787V35.3821H83.5902L83.5505 33.0988L84.841 33.2179L84.8014 35.3821H87.8392V36.5932H84.841C84.98 39.9487 85.5161 42.6093 86.3897 44.6345C86.5089 44.9721 86.628 45.1309 86.7471 45.1309C86.906 45.1309 86.9258 44.0786 86.9258 43.1057L88.1767 43.4234C88.0774 44.8331 87.9782 45.7266 87.859 46.1237C87.7399 46.4215 87.5016 46.8782 86.9258 46.8782C86.6876 46.8782 86.4493 46.7392 86.211 46.4811L85.9132 46.084L85.8934 46.1038ZM86.6479 35.2828C86.1713 34.707 85.7147 34.2702 85.3374 33.9724L86.1912 33.1186C86.628 33.4561 87.0648 33.893 87.5612 34.4886L86.628 35.2828H86.6479Z" fill="#10FFA2"/>
<path d="M91.6705 42.4505C91.4124 43.9794 91.0153 45.3891 90.4991 46.6201L89.1489 46.2428C90.0027 44.0786 90.4792 42.1527 90.5189 40.4849V34.0121C90.5189 33.7739 90.6381 33.6349 90.8962 33.6349H101.797C102.075 33.6349 102.214 33.7739 102.214 34.032V45.2104C102.214 46.8385 100.804 46.8385 100.307 46.8385C99.7714 46.8385 99.1162 46.7789 98.3617 46.6598L98.322 45.2104C99.1758 45.4288 99.8111 45.5479 100.228 45.5479C100.705 45.5479 100.943 45.4288 100.943 44.8331V42.4704H96.8924V46.4811H95.6217V42.4704H91.6904L91.6705 42.4505ZM91.7698 41.1798H95.582V38.5987H91.7698V41.1798ZM95.582 37.3478V34.8858H91.9287C91.8294 34.8858 91.7698 34.9453 91.7698 35.0446V37.3279H95.582V37.3478ZM96.8527 34.8858V37.3478H100.903V35.0645C100.903 34.9652 100.844 34.9056 100.744 34.9056H96.8725L96.8527 34.8858ZM96.8527 41.1798H100.903V38.5987H96.8527V41.1798Z" fill="#10FFA2"/>
<path d="M112.46 42.2717H110.037C109.978 42.7482 109.879 43.185 109.779 43.5225C109.223 45.0315 107.734 46.1633 105.411 46.878L104.677 45.7066C106.622 45.1705 108.509 44.5749 108.747 42.2915H106.483C106.364 42.2915 106.325 42.232 106.325 42.093V37.3873C105.947 37.7249 105.59 37.983 105.233 38.2014L104.299 37.2682C105.55 36.474 106.563 35.4614 107.337 34.2105L108.429 34.8856C107.873 35.6996 107.258 36.4343 106.642 37.0498H116.113C115.517 36.5336 114.862 35.7989 114.227 34.9054C114.187 34.8657 114.128 34.826 114.008 34.826H109.164V33.5553H114.505C114.664 33.5553 114.783 33.595 114.862 33.6943C115.815 35.1238 117.007 36.2556 118.416 36.9902L117.443 37.9631L116.47 37.3278V42.0533C116.47 42.1922 116.431 42.2518 116.292 42.2518H113.77V44.6146C113.77 45.0712 113.81 45.4485 114.564 45.4485H116.014C116.431 45.4485 116.729 45.3095 116.868 45.1109C116.967 44.9521 116.987 44.3962 116.987 43.4828L118.297 43.6615C118.257 45.6669 118.198 45.8853 117.96 46.1831C117.543 46.6199 117.424 46.7391 116.431 46.7391H114.008C113.135 46.7391 112.44 46.203 112.48 44.8528V42.2717H112.46ZM115.1 38.3205H107.635C107.635 38.3205 107.595 38.3205 107.595 38.3801V40.9414C107.595 40.9414 107.595 41.0208 107.635 41.0208H115.1C115.1 41.0208 115.18 40.9811 115.18 40.9414V38.3801L115.1 38.3205Z" fill="#10FFA2"/>
<path d="M121.116 40.4847V37.01H119.627V35.7989H121.116V33.1383H122.347V35.7989H123.499V37.01H122.347V39.9287L123.141 39.4919L123.757 40.5244C123.34 40.7825 122.863 41.0406 122.347 41.2987V45.4286C122.347 46.0639 121.95 46.8581 120.858 46.8581C120.56 46.8581 120.183 46.7986 119.746 46.6993L119.706 45.4484C120.103 45.5477 120.421 45.5874 120.64 45.5874C120.917 45.5874 121.116 45.5477 121.116 45.1109V41.815L119.865 42.2716L119.448 41.0803L121.136 40.4648L121.116 40.4847ZM133.089 46.9773C132.612 46.878 131.798 46.5603 130.726 46.0838C129.932 45.6668 129.058 44.8726 128.165 43.721L127.946 44.0586C127.132 45.2697 125.603 46.2823 123.399 46.9971L122.784 45.8455C124.928 45.3094 126.378 44.4557 127.092 43.2644H123.121V42.1723H124.035V36.7519C124.035 36.4938 124.174 36.3747 124.432 36.3747H128.006C128.74 35.7989 129.376 35.2628 129.832 34.7465H126.318C125.782 35.2032 125.385 35.5408 124.174 36.2555L123.499 35.2429C124.809 34.5678 125.822 33.8332 126.517 33.0192L127.49 33.5155L127.39 33.6545H130.905L131.619 34.2899C131.619 34.2899 131.202 35.1635 129.932 36.3747H132.453C132.751 36.3747 132.87 36.4938 132.87 36.7519V42.1723H133.565V43.2644H129.177C129.773 44.0387 130.726 45.2896 133.625 45.8455L133.089 46.9971V46.9773ZM128.74 41.7554L128.701 42.1525H131.679V40.8023H129.574C129.197 40.8023 129.038 40.6237 129.038 40.2464V37.427H127.827V38.2609C127.827 39.5316 127.251 40.5442 126.159 41.2789L125.286 40.4251C125.524 40.3258 125.742 40.1868 125.921 40.0479C126.358 39.6309 126.616 39.0154 126.656 38.2609V37.427H125.385C125.286 37.427 125.226 37.4865 125.226 37.5858V42.1326H127.47L127.509 41.7355V40.7825H128.74V41.7355V41.7554ZM130.19 39.4125C130.19 39.5912 130.289 39.6905 130.468 39.6905H131.679V37.5858C131.679 37.4865 131.619 37.427 131.52 37.427H130.21V39.4125H130.19Z" fill="#10FFA2"/>
<path d="M136.643 45.25C138.509 44.8529 139.74 43.9595 140.356 42.5895H137.755V41.7556C137.139 42.3512 136.405 42.9072 135.571 43.3837L134.578 42.4505C135.789 41.7158 136.901 40.8621 137.914 39.9289H134.836V38.7177H138.946C139.462 38.0427 139.899 37.2087 139.899 37.1293H135.372V35.9182H140.396C140.614 35.1041 140.793 34.1312 140.912 33.0988L142.262 33.2377C142.163 33.9128 141.964 34.846 141.666 35.938H143.572C144.267 34.8857 144.803 33.9525 145.121 33.2179L146.273 33.8135C145.995 34.4688 145.598 35.1637 145.121 35.938H147.941V37.1492H143.553C143.85 37.7448 144.168 38.2611 144.486 38.7376H148.477V39.9487H145.439C146.233 40.7827 147.325 41.5967 148.695 42.4108L147.643 43.3837C147.107 43.0263 146.59 42.649 146.114 42.2718L146.074 44.6147C146.035 45.4089 145.876 46.9774 143.692 46.9774C143.076 46.9774 142.381 46.8782 141.527 46.6399V45.1508C142.143 45.4089 142.778 45.6472 143.414 45.6472C143.85 45.6472 144.228 45.528 144.506 45.2898C144.784 45.0118 144.863 44.5551 144.863 43.3043C144.863 42.7285 144.803 42.6292 144.645 42.6292H141.766C141.627 43.066 141.408 43.4829 141.15 43.8999L140.852 44.3367C139.78 45.6869 137.934 46.5406 135.372 46.8583L135.035 45.528L136.663 45.2699L136.643 45.25ZM138.073 35.7395C137.576 34.9254 137.12 34.2901 136.703 33.8731L137.755 33.1186C138.212 33.5951 138.668 34.2503 139.145 35.0445L138.053 35.7196L138.073 35.7395ZM139.502 39.9289C139.184 40.3061 138.728 40.8025 138.132 41.3783H145.161L143.831 39.9289H139.502ZM143.017 38.7177L142.163 37.1293H141.249L140.376 38.7177H142.997H143.017Z" fill="#10FFA2"/>
</svg>
