<?xml version="1.0" encoding="UTF-8"?><svg id="a" xmlns="http://www.w3.org/2000/svg" viewBox="0 0 120 160"><defs><style>.b{stroke:#10ffa2;stroke-width:5px;}</style></defs><path class="b" d="M107.85,62.32c0,5.21-.94,10.17-2.83,14.89-1.89,4.72-4.38,9.15-7.47,13.28-3.09,4.14-6.61,7.94-10.55,11.43-3.94,3.48-7.93,6.63-11.96,9.42h30.86l-2.34,40.62-91.41-3.12v-35.55c3.45-1.17,7.08-2.59,10.89-4.25s7.55-3.56,11.23-5.71c3.68-2.15,7.16-4.56,10.45-7.23,3.29-2.67,6.18-5.58,8.69-8.74,2.51-3.16,4.49-6.59,5.96-10.3s2.2-7.71,2.2-12.01c0-2.47-.44-4.65-1.32-6.54-.88-1.89-2.1-3.47-3.66-4.74s-3.37-2.21-5.42-2.83c-2.05-.62-4.25-.93-6.59-.93-1.95,0-3.94,.21-5.96,.63-2.02,.42-4,1.03-5.96,1.81s-3.79,1.74-5.52,2.88c-1.73,1.14-3.27,2.43-4.64,3.86L13.91,20.92c2.41-2.41,5.18-4.43,8.3-6.05,3.12-1.63,6.41-2.94,9.86-3.96,3.45-1.01,6.97-1.74,10.55-2.2,3.58-.45,7.1-.68,10.55-.68,7.68,0,14.84,1.38,21.48,4.15,6.64,2.77,12.42,6.58,17.33,11.43,4.92,4.85,8.79,10.6,11.62,17.24s4.25,13.8,4.25,21.48Z"/></svg>