<?xml version="1.0" encoding="UTF-8"?><svg id="a" xmlns="http://www.w3.org/2000/svg" viewBox="0 0 120 160"><defs><style>.b{stroke:#10ffa2;stroke-width:5px;}</style></defs><path class="b" d="M110.2,104.51c0,8.66-1.38,16.16-4.15,22.51-2.77,6.35-6.62,11.62-11.57,15.82-4.95,4.2-10.86,7.32-17.72,9.38-6.87,2.05-14.4,3.08-22.61,3.08-3.71,0-7.52-.36-11.43-1.07s-7.78-1.69-11.62-2.93c-3.84-1.24-7.57-2.7-11.18-4.39-3.61-1.69-6.98-3.52-10.11-5.47l3.71-39.26c2.47,1.69,5.24,3.3,8.3,4.83,3.06,1.53,6.23,2.9,9.52,4.1,3.29,1.21,6.61,2.17,9.96,2.88,3.35,.72,6.59,1.07,9.72,1.07,1.82,0,3.69-.15,5.62-.44,1.92-.29,3.66-.83,5.22-1.61s2.85-1.89,3.86-3.32c1.01-1.43,1.51-3.29,1.51-5.57,0-1.43-.65-2.77-1.95-4-1.3-1.24-2.87-2.29-4.69-3.17-1.82-.88-3.71-1.56-5.66-2.05s-3.58-.73-4.88-.73c-.91,0-2,.05-3.27,.15s-2.56,.24-3.86,.44c-1.3,.2-2.56,.47-3.76,.83-1.21,.36-2.13,.8-2.78,1.32l.59-27.93c1.11,.13,2.15,.23,3.12,.29,.98,.07,2.02,.1,3.12,.1,2.28,0,4.75-.21,7.42-.63,2.67-.42,5.14-1.17,7.42-2.25,2.28-1.07,4.18-2.55,5.71-4.44,1.53-1.89,2.29-4.33,2.29-7.32,0-2.15-.59-3.89-1.76-5.22-1.17-1.33-2.62-2.36-4.35-3.08-1.73-.72-3.6-1.2-5.62-1.46-2.02-.26-3.84-.39-5.47-.39-5.27,0-10.47,.91-15.58,2.73-5.11,1.82-9.62,4.49-13.53,8.01L11.56,19.75c5.99-4.88,12.81-8.61,20.46-11.18,7.65-2.57,15.35-3.86,23.1-3.86,7.1,0,13.88,1.03,20.36,3.08,6.48,2.05,12.19,5.08,17.14,9.08,4.95,4,8.89,8.94,11.82,14.79s4.39,12.63,4.39,20.31c0,2.21-.33,4.46-.98,6.74-.65,2.28-1.53,4.49-2.64,6.64-1.11,2.15-2.41,4.15-3.91,6.01-1.5,1.86-3.09,3.47-4.79,4.83,2.73,1.24,4.98,2.9,6.74,4.98,1.76,2.08,3.16,4.39,4.2,6.93,1.04,2.54,1.76,5.22,2.15,8.06s.59,5.62,.59,8.35Z"/></svg>