<svg width="160" height="89" viewBox="0 0 160 89" fill="none" xmlns="http://www.w3.org/2000/svg">
<g clip-path="url(#clip0_175_3574)">
<path d="M121.904 30.392C121.952 30.176 121.8 29.96 121.544 29.976L120.696 30.128C121.128 30.312 121.536 30.584 121.896 30.392H121.904ZM113.504 30.504L113.976 33.176C114.056 33.648 114.344 33.848 114.768 33.768L120.432 32.768C120.248 32.408 119.712 32.64 119.512 32.136C119.368 32.328 119.072 32.568 119.472 32.528C118.28 32.632 116.848 32.888 116.208 32.072L117.072 31.904C117.072 31.904 117.064 31.752 116.968 31.704C118.264 31.8 119.032 31.424 120.456 31.176C120.28 30.824 119.88 30.768 119.8 30.28L116.352 30.888C116.264 30.904 116.216 30.848 116.208 30.76L116.024 29.728C115.864 29.864 115.712 29.952 115.488 29.816C115.368 30.16 115.44 30.904 115.736 30.672C115.504 30.816 115.272 31.648 114.664 31.976C114.448 31.936 114.256 31.672 114.168 31.544C114.16 31.528 114.144 31.528 114.136 31.512C114.104 31.44 114.12 31.472 114.168 31.544C114.52 31.952 114.68 31.136 115.232 31.2C114.56 30.928 114.896 30.304 114.072 30.072C113.496 30.696 114.496 30.328 114.152 30.816C114.024 30.56 113.776 30.512 113.504 30.504ZM126.76 47.376C127.136 47.408 127.52 47.432 127.92 47.44C127.736 47.344 127.552 47.24 127.4 47.128C127.424 47.2 126.992 47.216 126.76 47.376ZM120.456 32.768L120.976 32.68C121.072 32.344 121.048 32.008 120.912 31.744C120.248 31.856 120.392 32.344 120.456 32.776V32.768ZM125.408 65.512C125.616 65.44 125.84 65.112 125.648 64.992L125.216 65.064C125.096 65.216 125.072 65.352 125.408 65.512ZM106.432 7.536L106.368 8.472C107.168 7.712 108.576 8.848 108.768 7.568C108.712 7.648 109.112 8.168 109.584 8.144C109.648 8.048 109.744 7.984 109.944 8.008C109.824 8.104 109.704 8.136 109.584 8.144C109.456 8.32 109.464 8.6 109.192 8.528C109.304 8.88 110.28 8.904 110.4 8.568L110.144 8.416L110.88 8.584C110.856 8.288 110.608 8.28 110.512 8.08L111.16 7.36C110.944 7.224 110.704 6.776 110.936 6.32L104.608 7.44C105.152 7.76 105.528 7.68 106.44 7.552L106.432 7.536ZM50.6162 20.368C50.5362 20.08 50.4642 19.8 50.1202 20.264C50.2002 20.32 50.2642 20.368 50.3202 20.424L50.6162 20.368ZM129.336 47.44L128.944 47.184C128.864 47.288 128.816 47.376 128.784 47.448C128.968 47.448 129.144 47.448 129.336 47.448V47.44ZM100.808 8.52C101.152 8.352 101.496 8.152 101.808 7.912L98.7202 8.456C98.9922 8.808 99.2882 8.888 99.6002 9.08C99.8002 8.952 100.256 8.784 100.744 8.552C100.744 8.544 100.744 8.536 100.744 8.52H100.808ZM118.8 35.48C118.84 35.328 118.896 35.408 118.952 35.464C118.928 35.32 118.912 35.176 118.888 35.032L118.608 35.08C118.592 35.176 118.64 35.304 118.8 35.472V35.48ZM69.5922 51.904L69.2322 49.856L68.6082 49.968L68.7362 50.016L67.8642 50.184L67.9362 50.088L62.7522 51L62.7282 51.104L62.6082 51.032L60.6242 51.384L61.2642 49.864L67.2322 48.816C67.4402 48.776 67.5442 48.64 67.5042 48.432L67.2962 47.24C67.2242 47.224 67.1522 47.216 67.0802 47.2L67.2242 47.848C66.8962 47.792 66.0962 47.864 65.4002 48.136C65.8642 48.008 65.0962 47.536 65.1682 47.44L64.9522 47.728C64.7522 47.544 64.6642 47.384 64.6322 47.256L61.0002 47.896L60.8082 46.808C60.6802 46.96 60.4722 47.184 60.4882 47.368C59.4482 47.432 59.2002 46.584 58.3202 46.6C58.5602 45.768 58.9602 46.568 59.2002 46.576C59.1122 46.52 58.8802 45.824 58.4082 45.96C58.7442 45.328 58.9842 44.496 59.7522 44.968C61.0802 43.824 62.0882 45 63.3602 44.096L63.5122 43.608L60.3362 44.168L60.1362 43.04L65.4642 42.096C65.6722 42.056 65.7762 41.92 65.7362 41.68L65.1442 38.32L66.9922 37.992L66.6322 35.944L64.7842 36.272L64.1842 32.888C64.1442 32.68 64.0082 32.584 63.7922 32.624L58.4642 33.56L58.2482 32.344L55.7922 32.776L56.0082 33.992L55.3122 34.112L55.2802 34.4L54.8082 34.536L55.1922 34.136L52.1122 34.68C51.2562 35.312 51.7122 35.752 51.3602 36.192L50.6802 35.752L51.0722 35.6C51.0962 35.4 50.9762 35.096 50.7682 35.192C50.7122 35.232 50.6642 35.272 50.6162 35.304C50.6722 35.24 50.7202 35.208 50.7682 35.192C50.9442 35.064 51.1522 34.92 51.3682 34.816L50.5122 34.968C50.3042 35.008 50.2002 35.144 50.2402 35.352L50.8402 38.736L49.0802 39.048L49.4402 41.096L51.2002 40.784L51.7922 44.144C51.8322 44.376 51.9762 44.48 52.1842 44.44L57.6642 43.472L57.8642 44.6L51.9282 45.648C51.7442 45.68 51.6722 45.784 51.7042 45.992L51.9122 47.168L52.4002 47.08C52.7522 47.72 52.0962 47.432 52.0802 47.824C52.1442 47.896 52.2162 47.92 52.2962 47.92C52.2002 47.968 52.1362 48.024 52.0802 48.08L52.6002 51.032C52.6402 51.24 52.7522 51.344 52.9282 51.312L58.3522 50.352L57.5922 51.896L51.5362 52.968L51.8962 55.016L55.8962 54.312L54.2402 56.256L54.8482 57.744L56.8642 58.088C57.5602 57.568 57.1842 57.144 57.5762 56.76L58.3522 57.232L57.8802 57.368C57.8402 57.568 57.9682 57.872 58.2162 57.792C58.2802 57.752 58.3442 57.72 58.4002 57.68C58.3362 57.744 58.2722 57.768 58.2162 57.792C57.9842 57.928 57.6962 58.08 57.4082 58.184L57.4882 58.2C55.2002 58.88 53.5682 59.352 52.6882 59.504L53.7762 61.76C55.9042 61.232 57.5282 60.728 58.6242 60.2L61.2402 58.76L66.5682 59.568L67.7282 57.28L67.4482 57.24L67.1682 58L66.5042 57.152L66.6002 57.128L63.5602 56.704C64.3682 55.792 65.2722 54.376 66.1602 52.504L69.5522 51.904H69.5922ZM51.3282 37.728C51.2242 37.576 51.1842 37.376 51.1122 37.232C51.7602 37.192 51.1762 37.44 51.3282 37.728C51.3682 37.784 51.4082 37.832 51.4722 37.872C51.4002 37.824 51.3522 37.776 51.3282 37.728ZM52.5842 47.856C52.7282 47.8 52.8402 47.744 52.8242 47.864C52.7362 47.848 52.6562 47.848 52.5842 47.856ZM62.2562 52.608C62.4642 53.016 62.9682 52.488 62.9122 52.728C62.6722 52.72 62.0082 53.288 62.2562 52.608ZM64.6562 36.28C64.6562 36.28 64.6722 36.32 64.6802 36.352C64.6642 36.616 64.6802 36.512 64.6562 36.28C64.4962 35.792 64.2002 36.456 64.0162 36.6C63.5122 36.4 64.0882 35.56 63.7122 35.312C64.4322 34.888 64.6082 35.824 64.6482 36.28H64.6562ZM64.1922 37.872L63.7522 37.464L64.1602 37.576L64.1922 37.872ZM65.3042 41.624C65.0802 41.76 64.0642 41.288 64.1602 42.184L63.3202 41.808C63.8082 41.128 64.6562 41.512 65.3122 41.632L65.3042 41.624ZM61.9442 35.064L62.0802 35.128L62.3602 36.704L60.9282 36.96C60.9682 37.008 61.0162 37.048 61.0562 37.104C61.6082 37.584 62.0402 37.272 62.7602 37.136C63.1922 37.392 62.9042 37.784 62.7842 38.128C63.2962 38.44 63.2242 37.696 63.4402 38.248C62.6962 38.072 62.9602 39.072 62.9922 39.376C62.9442 39.312 62.8802 39.256 62.8082 39.216L63.0002 40.304L62.9042 40.448L62.3842 40.544C62.7122 40.576 62.9842 40.736 62.6882 41.008L63.3282 40.984C62.4562 41.84 62.0882 40.656 61.2562 41.104H61.2482C61.4402 41.36 61.7602 41.424 62.0242 41.584C61.8882 41.776 61.6402 41.768 61.4162 41.912C60.9442 42.04 60.9042 41.6 60.8002 41.4L61.2482 41.12H61.2562L62.0562 40.616L59.8162 41.008L59.5202 39.344L62.1362 38.88L62.1042 38.568C61.8082 38.808 61.1362 38.536 61.4242 38.992C60.8242 38.624 60.0642 38.304 59.3282 38.128L59.7842 37.848C59.5282 37.872 59.3042 37.568 59.2962 37.272L59.1602 37.296L58.8642 35.632L61.9522 35.088L61.9442 35.064ZM53.0562 36.72C53.0162 36.664 53.0402 36.632 53.1362 36.616L56.4082 36.04L56.7042 37.704L53.3442 38.296L53.0642 36.72H53.0562ZM54.0802 41.992L53.9682 41.888L53.6962 40.344L57.0562 39.752L57.3522 41.416L54.0802 41.992ZM56.9842 36.592C57.0002 36.2 56.4882 36 56.5922 35.656L57.3842 35.36C57.3682 35.216 57.4082 34.968 57.3282 34.912H58.5682L58.0402 35.112L58.2322 36.048C57.9922 36.84 57.5362 36 56.9922 36.592H56.9842ZM57.3042 45.12C57.2402 45.048 57.1522 45.016 57.0562 45.016C57.4642 44.864 57.5042 44.472 57.8402 44.896C57.4002 45.328 58.2162 45.4 57.8482 45.736L56.8882 45.856C56.5042 45.2 57.2562 45.52 57.2962 45.12H57.3042ZM56.7682 45.064C56.6002 45.112 56.4642 45.168 56.4962 45.048C56.6002 45.064 56.6882 45.072 56.7682 45.064ZM54.7842 48.984L54.6722 48.88L54.4002 47.336C54.3602 47.28 54.3842 47.248 54.4722 47.232L58.2562 46.568L58.5682 48.32L54.7842 48.984ZM60.2962 57.44C59.9602 57.4 59.5042 57.6 59.6642 57.04C59.8402 56.456 60.2002 56.808 60.4802 56.424C60.3442 56.616 60.1282 56.912 59.9042 57.048L60.2962 57.44C60.4562 57.456 60.6002 57.528 60.6242 57.768L60.2962 57.44ZM61.5442 56.512L61.5042 56.904L61.0242 56.2L61.9202 56.328C61.8802 56.72 61.7202 56.768 61.5442 56.512ZM60.7682 56.328L57.8162 55.896C57.7202 55.88 57.6802 55.856 57.6802 55.824C57.6802 55.784 57.6882 55.752 57.7122 55.728C57.5042 55.672 57.9042 55.48 57.7762 55.24C57.7362 55.184 57.6802 55.128 57.6162 55.088C57.7042 55.136 57.7522 55.192 57.7762 55.24C57.8322 55.32 57.8722 55.408 57.9042 55.496L59.2802 53.736L60.6562 53.496C60.2962 53.4 60.8642 53.144 60.6802 52.768L61.1442 52.64C61.1042 53.024 60.4242 53.016 60.7362 53.48L61.0642 53.424C61.1842 53.256 61.6402 53.032 61.6882 52.768C61.6482 52.68 61.6002 52.584 61.5362 52.456C61.6642 52.568 61.7042 52.672 61.6882 52.768C61.8002 53.016 61.7762 53.144 61.4562 53.36L63.4402 53.008C62.6722 54.336 61.7762 55.44 60.7762 56.328H60.7682ZM64.6642 52.416C64.8002 52.224 65.0002 51.784 65.2562 51.944C64.9602 52.184 65.1762 52.736 64.6642 52.416ZM65.3522 51.304C64.9042 50.896 65.6482 51.072 65.6002 50.624L66.0322 50.88C65.8082 51.024 65.2322 50.952 65.3522 51.304ZM112.984 24.112C112.968 23.976 112.88 23.912 112.728 23.816C112.608 23.88 112.536 23.976 112.488 24.096C112.592 24.296 112.92 24.36 112.976 24.112H112.984ZM112.448 24.44L112.488 24.096C112.448 24.192 112.432 24.304 112.448 24.44ZM112.192 6.104L111.552 6.216C111.784 6.264 112 6.264 112.192 6.104ZM24.2802 66.256C24.2802 66.368 24.2322 66.44 24.1522 66.488C24.4402 66.568 24.7362 66.664 25.0562 66.784C25.5362 64.704 25.5922 62.376 25.1362 59.816L23.7762 60.024V60.08C23.7762 60.08 23.7522 60.048 23.7442 60.032L22.6962 60.192L22.7522 60.232C22.7522 60.232 22.7122 60.256 22.6882 60.272C22.7682 60.576 22.8242 60.896 22.8802 61.2C23.1762 62.864 23.1362 64.472 22.8162 66C22.8482 65.928 22.8802 65.856 22.9122 65.768C23.1922 65.816 23.3842 66.216 23.6482 66.12C23.6882 65.872 23.4402 65.576 23.3122 65.624L23.8802 65.728L23.9522 65.232C24.3282 64.936 24.4082 64.992 24.5362 65.48L23.8162 65.824C23.9522 66.32 24.7602 65.624 24.8322 66.224C24.8162 66.616 24.3762 66.472 24.2882 66.272L24.2802 66.256ZM128.672 3.176H128.64C128.64 3.176 128.664 3.216 128.68 3.24V3.176H128.672ZM67.6242 43.048C67.5922 42.752 67.6482 42.504 67.4082 42.496C67.1922 41.944 68.8402 41.552 68.7842 41.8L68.7362 42.04C69.3282 41.568 70.5922 41.36 70.3602 40.664C69.8562 39.656 68.7842 40.96 68.3042 40.248L68.3202 40.4L67.5602 40.072C67.4722 39.992 67.4322 39.944 67.4162 39.912C67.2722 40.96 67.0642 42.016 66.7922 43.072C67.0482 43.048 67.3122 43.032 67.6242 43.048ZM57.9842 77.456C58.0322 77.576 58.1282 77.6 58.2482 77.592C58.1442 77.52 58.0562 77.472 57.9842 77.456ZM59.6802 77.432C59.5522 77.928 59.1602 77.76 58.8082 77.68C58.8082 77.712 58.8242 77.736 58.8242 77.784C58.5522 77.904 58.2322 78.24 58.3922 78.624C58.6962 77.936 59.2322 78.832 59.6242 78.336L59.1122 78.216C59.4162 78.232 60.2162 78.144 59.6882 77.432H59.6802ZM71.2082 42.728C71.2802 42.752 71.3282 42.784 71.3682 42.824C71.3522 42.784 71.3362 42.744 71.3202 42.704C71.2802 42.712 71.2402 42.72 71.2082 42.728ZM67.4242 39.84C67.5282 39.776 67.9122 39.832 67.8082 39.392C67.6802 39.464 67.5762 39.472 67.4722 39.48C67.4562 39.6 67.4402 39.72 67.4242 39.84ZM71.6242 48.28C71.5442 48.208 71.4642 48.152 71.3762 48.096C71.4322 48.192 71.4882 48.288 71.5442 48.384L71.6162 48.28H71.6242ZM31.5042 58.376L29.2642 59.136C30.1362 61.248 30.8322 63.08 31.2642 64.632L33.5362 64.048C33.0402 62.296 32.3282 60.376 31.5042 58.376ZM31.4002 61.408C31.8162 61.408 32.2882 61.312 32.2322 61.952C32.0802 61.856 31.5922 61.8 31.4002 61.408ZM159.376 62.472L160 62.36L159.416 59.056C159.104 59.272 158.8 59.752 158.88 58.976C159.024 58.976 159.192 58.92 159.376 58.824L158.992 56.624L158.96 56.664C158.96 56.552 158.952 56.472 158.96 56.408L157.408 47.6C156.92 47.672 156.48 48.024 156.152 47.84C156.184 47.544 156.744 47.84 156.512 47.432C155.352 47.536 155.152 45.968 153.976 45.984L154.536 45.032C155 45.832 156.096 45.944 156.72 46.504V46.152C156.744 46.384 156.896 46.536 156.528 46.664L157.344 47.264L155.072 34.376L154.984 34.392L154.888 33.504C154.888 33.504 154.912 33.544 154.928 33.568L154.416 30.656C154.072 30.856 153.696 31 153.264 30.968C153.28 31.12 153.224 31.368 153.392 31.472L152.584 31.392L153.024 30.96C152.448 30.736 151.736 30.904 151.064 31.072L151.28 32.28C151.792 32.352 152.64 31.992 152.984 32.624C152.312 32.752 151.784 32.544 151.36 32.304C151.392 32.432 151.424 32.624 151.376 32.816L152.104 36.952L152.408 36.928L152.024 36.392C152.096 35.792 153.104 36.024 153.4 36.216C152.912 36.576 153.16 36.2 152.704 36.256C152.832 36.424 152.776 36.808 152.896 36.904C152.96 36.904 153.024 36.896 153.08 36.896C153.088 36.896 153.096 36.896 153.112 36.88L153.384 36.6L153.48 36.952C153.36 36.904 153.216 36.896 153.072 36.896C152.984 36.936 152.92 36.936 152.888 36.904C152.56 36.936 152.24 37.024 152.112 37.008L152.176 37.36L153.016 37.08L152.808 37.368C153.128 37.48 153.464 37.768 153.488 38.12L153.912 38.048C153.216 38.952 154.848 39.264 154.584 40.024C154.368 40.096 154.024 40.12 153.96 40.328C154.088 39.728 153.208 39.272 153.072 38.8C152.832 38.984 152.64 39.104 152.504 39.16L155.152 54.2L155.568 53.776C155.392 54.408 155.896 54.528 156.488 54.52L156.44 54.344C157.672 54.512 157.264 54.736 158.384 54.936L157.96 55.552C157.296 55.296 156.16 55.488 155.536 54.936C156.016 54.576 155.536 54.672 155.224 54.6L156.104 59.608L147.344 61.152C148.12 61.44 148.896 61.8 149.448 62.432L149.704 62.064C149.312 62.768 150.128 62.304 150.2 62.568L149.952 62.936C149.048 62.664 147.608 62.192 146.48 62.376C146.504 62.176 146.232 61.72 145.864 61.416L142.392 62.032C142.064 62.936 143.264 63.704 143.184 64.152C142.848 63.784 142.136 63.352 141.608 63.152C141.128 63.12 140.712 63.36 140.28 63.504C139.864 63.448 140.08 63.136 140.016 62.992L139.656 62.944C139.904 62.888 139.992 62.928 140.016 62.992L140.272 63.024C140.024 62.808 140.192 62.584 140.456 62.376L126.104 64.904C126.16 64.952 126.176 64.992 126.168 65.024C126.72 66.008 127.424 65.752 128.248 66.664C126.168 67.92 125.68 65.176 123.848 65.304L122.336 65.568C122.264 65.6 122.192 65.608 122.12 65.608L109.752 67.792C109.816 68.08 109.736 68.336 109.712 68.576C109.504 68.256 109.288 68.336 108.912 68.272C109.104 67.896 109.544 68.136 109.64 67.816L104.072 68.8C104.072 68.8 104.048 68.864 104.032 68.88C103.976 68.88 103.936 68.856 103.904 68.832L100.536 69.424L100.256 69.808L99.9202 69.592L100.2 69.48L98.9362 69.704L98.9682 69.768C98.9682 70.536 98.3682 69.888 98.0562 70.552C97.9842 70.264 97.6642 70.16 97.5362 69.96L96.4242 70.152C96.4242 70.152 96.3842 70.192 96.3602 70.224C96.3682 70.2 96.3602 70.184 96.3682 70.168L93.1762 70.728C93.1762 71.016 93.3122 71.24 93.2002 71.52L92.5122 71.288L92.8082 71.056C92.7922 70.968 92.7522 70.88 92.6962 70.816L74.1602 74.088C74.1602 74.6 74.2642 75.264 73.6322 74.408C73.7362 74.408 74.0402 74.432 73.8882 74.152H73.8402L62.1042 76.216L62.1682 76.352C61.5522 76.312 62.2002 78.256 61.3762 78.752L61.4322 77.936C61.3122 78.008 61.1922 78.096 61.0802 78.192C61.4322 78.592 61.4242 79.664 61.9842 79.648C62.1282 79.648 62.3042 79.576 62.5362 79.392C62.5602 79.456 62.5602 79.496 62.5762 79.552L63.8562 79.328L63.7202 78.92C64.3762 78.92 64.4402 77.192 65.0322 77.832C64.8162 78.08 64.8242 78.416 65.0322 78.6C65.4082 78.4 65.2482 78.016 65.4402 77.528C65.5202 77.888 65.9922 77.28 66.0082 77.944L65.7042 77.84C65.5842 78.016 65.7122 78.176 65.7682 78.304C65.0162 78.368 64.7282 79.264 63.8082 78.944C63.8242 79.048 63.9042 79.184 63.9602 79.304L67.8722 78.616C68.1762 78.392 68.4082 78.176 68.4082 78.176C68.2802 78.304 68.3442 78.4 68.4722 78.512L109.784 71.232C109.696 71.176 109.664 71.112 109.8 71.032C111.112 70.896 112.616 70.784 114.064 70.392L114.032 70.024L114.432 70.184C114.432 70.232 114.408 70.264 114.384 70.304C114.76 70.192 115.128 70.064 115.488 69.904C115.448 69.88 115.392 69.848 115.336 69.832L115.152 69.848C115.192 69.792 115.264 69.808 115.336 69.832L115.952 69.776L115.624 70.224L116.584 70.056C116.936 69.864 117.168 69.56 117.488 69.032C117.432 69.28 117.544 69.632 117.856 69.544C117.912 69.296 117.736 69.192 117.968 69.048C118.728 69.368 119.576 69.048 120.168 69.272C120.336 69.376 120.376 68.136 121.064 67.864C121.064 67.864 121.128 67.88 121.224 67.896L120.128 67.232L121.16 67.552C121.872 67.12 120.184 67.016 120.864 66.504L121.008 67.032C121.36 67.008 121.648 67.2 121.664 66.816C121.736 67.08 121.144 67.944 121.904 67.688C121.904 67.744 121.88 67.784 121.856 67.816C121.92 67.768 121.976 67.704 122 67.608C122.64 67.864 123.704 68.272 123.664 68.808L126.088 68.384C125.872 68.296 125.656 68.232 125.504 68.072L126.384 68.056C126.368 67.904 126.44 67.808 126.272 67.704L126.6 67.768L126.44 67.816L126.648 68.288L145.904 64.896C145.496 64.584 145.176 64.568 144.792 64.352C144.84 64.408 144.872 64.488 144.856 64.608L144.784 64.344H144.8C144.616 64.112 144.056 64.264 144.016 64.12C144.784 64.344 144.04 63.344 144.832 63.656C144.448 63.976 144.928 64.008 145.088 64.144C145.752 64.184 145.8 64.52 145.984 64.88L157.728 62.808C157.648 62.768 157.568 62.728 157.472 62.68C157.768 62.8 158.416 62.528 158.888 62.608L159.32 62.536C159.232 62.312 158.936 62.184 159.024 61.88C159.12 62.024 159.256 62.304 159.424 62.52L159.376 62.472ZM153.352 35.272C153.24 35.312 152.896 35.328 152.944 35.504L152.584 35.048C152.44 35.384 151.968 34.968 152.224 35.456C151.952 35.408 151.912 35.072 151.824 34.744C151.792 34.752 151.752 34.76 151.72 34.768C151.752 34.752 151.784 34.736 151.816 34.72C151.784 34.608 151.744 34.488 151.688 34.392C152.472 34.224 153.704 34.392 153.352 35.272ZM153.776 37.568L153.424 37.36L153.792 37.024L153.768 37.568H153.776ZM153.888 37.92L155.112 37.272V37.96C154.424 38.384 154.616 37.952 153.888 37.92ZM153.288 41.432L153.608 41.328L153.648 41.888L153.288 41.432ZM153.816 43.464L154.872 43.552L153.712 43.96C153.936 43.816 153.76 43.712 153.824 43.464H153.816ZM157.504 51.168L156.248 50.68L157.152 50.112C157.04 50.608 157.44 50.568 157.768 50.632L157.504 51.168ZM67.3042 77.528C67.7602 77.688 67.6642 77.768 68.0562 78.232C67.4722 78.248 67.5442 78.28 67.3042 77.528ZM67.6642 77.016C67.6642 77.016 67.6642 76.992 67.6642 77.016L67.8242 76.968L68.3362 77.288C67.4082 78.416 67.6242 77.2 67.6642 77.016ZM70.3042 78.152L69.8802 77.448L70.3842 78.024L70.3042 78.152ZM69.7602 75.504C70.1842 74.928 70.0402 75.112 70.6002 75.04C70.7362 75.536 71.4802 75.024 71.5602 75.768C71.0002 75.008 70.6962 75.936 69.7602 75.512V75.504ZM72.0402 77.312L71.9042 77.504L71.5122 77.264H71.4722L71.4882 77.248L71.2962 77.136L71.4322 76.944L71.6962 77.104L72.0082 76.888L72.2882 77.312L72.0082 77.296L72.0402 77.312ZM72.8162 76.8C71.7602 77.152 72.0562 75.4 72.5442 75.288L72.7762 75.44L72.7522 75.304L73.0802 76L72.7202 75.704C72.0722 76.08 73.3282 76.28 72.8162 76.8ZM74.9842 76.376L74.9202 76.44C74.9202 76.44 74.9042 76.464 74.8962 76.472L74.9762 76.872C74.7202 76.792 74.7682 76.64 74.8962 76.472L74.2082 77.152L74.3602 77.432L73.8482 76.864L74.1922 76.384C74.1282 76.272 74.0162 76.128 73.9202 75.976C73.8402 75.944 73.7922 75.84 73.8002 75.608C73.7762 75.72 73.8402 75.848 73.9202 75.976C74.2242 76.112 75.0242 75.24 75.2882 75.952C75.2322 76.096 75.0802 76.256 74.9602 76.408C74.9682 76.408 74.9762 76.4 74.9922 76.392L74.9842 76.376ZM90.2242 72.92C90.1362 72.56 90.2402 72.488 90.4402 72.672L90.3522 72.312L90.8962 72.832L90.2162 72.928L90.2242 72.92ZM91.2242 72.496C91.2722 72.288 91.3362 71.984 91.4562 71.808L91.0642 71.552C90.9442 71.576 90.8242 71.552 90.7362 71.336L91.0642 71.552C91.3202 71.504 91.5842 71.224 91.6322 71.76C91.6722 72.32 91.3122 72.088 91.2242 72.496ZM93.2002 72.52C93.7442 72.328 93.3042 72.688 93.5122 72.912C93.3842 72.8 93.2962 72.632 93.2002 72.52ZM108.424 71.304C108.456 71.008 108.424 70.44 109.008 70.44L108.424 71.304ZM114.112 69.496L114.28 69.6C113.768 69.744 112.936 69.88 112.72 70.12L112.664 70.288C112.64 70.224 112.664 70.168 112.72 70.12L112.968 69.36C112.48 69.344 111.8 69.768 111.008 69.84C111.072 69.744 111.376 69.504 111.272 69.304L111.704 69.568C111.184 68.408 110.312 70.112 109.88 69.008C110.92 68.944 110.296 69.12 111.4 68.96C112.192 70.424 113.616 67.8 114.872 69.136L114.112 69.504V69.496ZM119.744 68.744L119.384 68.384L119.872 68.4C119.8 68.496 119.576 68.64 119.744 68.744ZM122.752 65.736C123.072 65.632 123.92 66.112 124.072 66.632C123.672 66.48 122.72 66.032 122.752 65.736ZM150.952 63.024L150.92 63.104C150.784 63.096 150.744 63.024 150.736 62.944C150.688 62.904 150.672 62.856 150.72 62.792C150.728 62.832 150.728 62.888 150.736 62.944C150.784 62.976 150.864 63.008 150.952 63.024L151.064 62.768L151.408 63.128C151.288 63.08 151.112 63.056 150.96 63.024H150.952ZM158.184 55.592C158.424 55.608 158.488 55.392 158.656 55.152C158.568 55.272 158.536 55.576 158.848 55.856L158.184 55.6V55.592ZM153.472 38.168C153.472 38.352 153.4 38.544 153.176 38.736C153.152 38.752 153.144 38.76 153.12 38.776C153.144 38.864 153.184 38.928 153.312 38.936C153.344 38.656 153.904 38.216 153.472 38.168ZM66.0802 43.16C66.1522 43.152 66.2162 43.144 66.2882 43.128C66.2722 43.128 66.2642 43.128 66.2402 43.128L66.0802 43.16ZM151.864 23.688L151.528 24.32C151.248 23.904 150.592 24.536 149.968 24.896L150.24 26.44C151.056 26.104 150.632 26.76 150.72 27.12C150.76 27.208 150.824 27.28 150.944 27.32C150.808 27.296 150.744 27.216 150.72 27.12C150.592 26.848 150.696 26.448 150.24 26.448L150.488 27.84C150.576 27.92 150.552 28.112 150.576 28.328L150.76 29.384C151.784 29.464 151.352 28.52 152.456 28.656C152.456 28.632 152.456 28.608 152.456 28.584C152.28 28.504 152.104 28.368 151.952 28.336C152.232 28.256 152.456 28.384 152.456 28.584C152.664 28.68 152.856 28.712 153 28.424L153.248 29.272C153.544 29.456 153.84 29.4 154.176 29.272L153.952 27.984C153.856 28.144 153.768 28.264 153.528 28.04L153.736 27.744C153.792 27.648 153.832 27.576 153.864 27.504L153.8 27.128C153.44 27.232 152.64 27.792 152.48 27.256C152.488 27.344 152.48 27.408 152.48 27.448C152.512 27.448 152.544 27.464 152.576 27.464C152.512 27.48 152.488 27.472 152.48 27.448C152.12 27.368 151.792 26.712 152.048 27C152.824 27.344 153.272 26.984 153.696 26.552L153.192 23.704C152.928 23.776 152.688 23.912 152.552 24.096L151.864 23.672V23.688ZM151.984 27.952L151.024 28.072C150.968 27.472 151.624 27.592 151.936 27.504L151.984 27.952ZM146.776 0.04L146.704 0L145.44 0.224C145.928 0.304 146.464 0.344 146.768 0.048L146.776 0.04ZM30.8722 81.704C30.8722 81.704 30.8162 81.736 30.7922 81.76L30.6722 82.296C30.9762 82.184 31.2962 81.984 31.6082 81.848C31.3682 81.808 31.1362 81.688 30.9522 81.696L30.8642 81.712L30.8722 81.704ZM129.576 47.432C129.904 47.424 130.24 47.408 130.592 47.384L130.704 47.072C130.368 47.456 129.768 46.864 129.576 47.424V47.432ZM114.184 6.264C115.208 5.36 116.6 6.472 116.496 5.328L112.784 5.984L112.8 6.12C113.36 6.04 114.016 6.16 114.184 6.264ZM74.5042 76.152C74.5602 76.336 74.7122 76.496 74.8722 76.432L74.7922 76.064C74.7042 76.12 74.6002 76.136 74.4962 76.152H74.5042ZM114.088 9.184L114.528 9.104C114.504 8.928 114.512 8.72 114.424 8.496C113.712 8.232 113.624 8.816 113.424 9.296L113.776 9.232C113.776 9.232 113.712 9.192 113.696 9.16L114.008 9.08C114.048 9.104 114.08 9.144 114.096 9.176L114.088 9.184ZM113.304 25C113.28 24.744 112.904 24.976 112.544 25.08L113.296 29.352C113.824 29.304 114.44 29.096 114.912 28.912L114.552 29.4C114.664 29.728 115.336 29.288 115.456 29.032C115.432 29.008 115.4 28.976 115.392 28.936L115.48 28.992C115.48 28.992 115.464 29.024 115.456 29.04C115.544 29.136 115.712 29.136 115.904 29.112L115.36 26.024C115.344 25.936 115.368 25.896 115.464 25.88L132.968 22.792L133.144 22.888L133.984 27.64C134 27.728 133.952 27.8 133.856 27.816L122.984 29.736C123.024 29.8 123.056 29.888 123.064 30C123.168 30.192 121.728 30.296 122.432 30.872C121.88 30.952 121.376 30.784 120.944 31.216C121.128 31.472 121.032 32.112 121.576 31.88C121.944 31.544 122.4 31.264 122.496 31.464C122.016 31.448 122.2 31.704 122.064 32.048C122.904 31.576 123.072 31.688 123.6 31.304C124.128 31.768 124.76 30.904 125.24 31.608L124.976 32.144L124.912 31.552C124.168 31.376 122.584 32.36 121.584 32.032C121.512 32.2 121.448 32.424 121.376 32.632L124.64 32.056L125.6 37.496L125.776 37.528L125.64 37.712L126.896 44.856C126.608 44.824 126.328 44.768 126.056 44.72C126.024 44.744 125.984 44.768 125.912 44.776L125.704 44.648C123.248 44.128 121.128 42.952 119.368 41.096C119.384 40.232 119.36 39.368 119.304 38.512C119.256 38.44 119.232 38.36 119.264 38.288H119.296C119.24 37.48 119.144 36.68 119.024 35.888C119.024 35.888 119.024 35.896 119.024 35.904C118.904 35.552 118.224 35.976 118.648 35.4C118.184 35.536 117.816 35.872 117.688 36.216C117.776 36.264 117.936 36.216 118.016 36.28L117.408 36.6L117.608 36.16C117.52 36.392 116.856 36.208 116.448 36.328C116.8 38.96 116.824 41.104 116.504 42.688C115.984 44.52 115.088 46.512 113.896 48.64C114.184 48.704 114.208 49.224 114.816 49.168C114.608 49.384 114.704 49.728 114.624 49.96L116.016 50.392C117.088 48.488 118.056 46.36 118.832 44.048C121.072 46.072 123.44 47.08 126.544 47.376C125.992 46.864 126.264 46.144 125.704 45.712C126.392 45.2 126.152 46.04 126.312 46.176C126.288 46.088 126.576 45.416 126.176 45.264C126.8 44.96 127.488 44.44 127.704 45.232C129.32 45.072 129.248 46.536 130.672 46.536L131.168 46.184C130.664 46.928 132.288 46.384 132.16 47.192L132.432 46.912C132.6 47.024 132.76 47.112 132.92 47.208C133.968 47.096 135.072 46.944 136.264 46.76L136.608 46.696C136.456 46.6 136.352 46.472 136.392 46.248L136.304 46.376L136 45.712C135.936 45.064 136.288 45.904 136.6 45.32C136.36 45.304 136.312 45.128 136.072 45.112C136.288 45.04 136.64 45.016 137.288 44.8L137.872 46.04C137.856 46.2 137.872 46.336 137.912 46.464L140.96 45.928L141.2 43.04L134.744 44.176C132.928 44.496 131.184 44.712 129.552 44.848L128.528 39.024L134.656 37.944C134.832 37.696 135.24 37.696 135.536 37.752C135.52 37.768 135.512 37.776 135.496 37.792L138.464 37.272L138.016 34.744L128.08 36.496L127.216 31.592L136.304 29.992C136.792 29.904 136.992 29.624 136.904 29.152L135.368 20.448C135.296 20.032 135.008 19.84 134.528 19.92L112.992 23.72C112.896 23.736 112.816 23.768 112.744 23.8L114.408 24C114.912 25.008 113.384 24.216 113.304 25.008V25ZM113.856 28.832L113.744 28.48L114.4 28.6L113.864 28.832H113.856ZM126.672 42.384L126.608 41.792L126.768 41.752L126.672 42.392V42.384ZM133.496 45.656C133.256 45.64 132.88 44.712 132.376 45.456L132.048 44.704C132.808 44.448 133.136 45.2 133.496 45.656ZM134.312 36.848L134.112 37.288L133.76 37.08L134.304 36.848H134.312ZM133.016 36.064L133.672 36.184L132.992 36.608C133.136 36.416 132.56 36.344 133.016 36.064ZM76.3922 40.544L76.3682 40.576L75.4242 40C75.4962 39.904 75.7202 39.76 75.6242 39.56L74.9122 39.688L75.0482 40.184C74.6642 39.528 74.0002 40.096 73.8642 39.6L73.8402 39.632C73.8722 40.008 73.9042 40.376 73.9282 40.736C74.4242 40.768 75.0402 40.84 75.6882 40.84C75.3682 40.928 74.7762 41.4 74.1362 41.432L74.4242 41.888C74.2882 41.976 74.1362 42.04 73.9762 42.104C73.9922 43.2 73.9362 44.264 73.8162 45.312C74.2322 45.288 74.6402 45.264 75.0722 45.072L74.8962 44.968C75.3602 44.952 75.8482 45.232 76.2402 45.184C76.4322 43.44 76.4562 41.896 76.3922 40.536V40.544ZM67.2482 31.192C67.7362 33.832 67.8082 36.512 67.5042 39.208C67.6482 39.048 67.8322 38.848 68.0402 38.552L69.4722 39.144C69.7362 39.48 70.0562 39.616 70.4082 39.648C70.3842 39.536 70.3602 39.424 70.3442 39.312C70.1842 38.392 70.1202 37.512 70.1602 36.68L73.3682 36.112C73.5042 36.888 73.6162 37.64 73.7042 38.376C73.9842 38.272 74.2402 38.224 74.4482 38.272L74.4322 38.128C75.0162 38.344 75.6002 38.552 76.1762 37.944C76.0642 37.064 75.9282 36.304 75.8162 35.68L77.3922 35.4L77.2322 34.472L75.7602 34.6L76.4562 34.328L76.2802 34.224C76.5282 34.272 76.9282 34.016 77.1762 34.168L76.9682 32.992L70.0642 34.208L69.7042 30.752L68.7042 30.928C68.6082 31.032 68.3442 31.096 68.1682 31.176C68.1602 31.28 68.1282 31.336 68.0162 31.272C68.0402 31.24 68.0962 31.208 68.1682 31.176C68.1682 31.136 68.1682 31.08 68.1682 31.024L67.2482 31.184V31.192ZM74.7042 34.528L74.7522 34.976L74.4482 34.368L74.7042 34.528ZM73.8162 34.544H73.5762C73.6242 34.632 73.6162 34.72 73.6162 34.808L73.7042 35.04C73.6162 34.984 73.6082 34.904 73.6162 34.808L73.4882 34.488L73.8162 34.544ZM72.2402 49.528C72.4002 49.648 72.5922 49.776 72.8082 49.712C73.2482 49.28 73.1522 49.224 73.2482 48.584L73.4242 48.688L73.7442 47.912C73.2642 47.896 73.0722 47.64 72.8162 47.488C72.2722 47.92 71.8562 48.192 71.5522 48.416C71.6802 48.632 71.8162 48.856 71.9522 49.088C72.3202 48.896 72.7202 48.752 72.9602 48.976L72.1202 49.352C72.1522 49.408 72.1922 49.472 72.2322 49.528H72.2402ZM69.2802 43.6C69.4002 44.064 69.6002 44.6 69.8642 45.2C70.4722 45.376 71.0962 45.672 71.6962 45.96C72.0082 45.752 72.2962 45.624 72.5602 45.536C72.1842 44.784 71.7842 43.896 71.4162 42.96C71.4162 43.024 71.3922 43.096 71.3682 43.168C71.4242 43.256 71.4722 43.36 71.5282 43.48C71.2482 43.448 71.3042 43.32 71.3682 43.168C70.7762 42.144 70.1122 43.008 69.2082 42.064C69.1842 42.608 68.0642 43.464 67.3042 43.144L67.2802 43.688C66.8002 43.672 66.7362 43.912 66.4642 43.608L66.2882 43.968C66.3922 44.016 66.4082 44.064 66.2002 44.144L66.2882 43.968C66.0722 43.872 65.4482 43.816 65.3922 43.632C65.2722 43.856 64.7522 43.992 64.8482 44.304C64.9682 44.656 65.6322 44.08 65.6882 44.68C65.2642 45.264 65.3122 44.176 64.8962 44.752L64.9122 44.896L64.8642 44.448C64.6482 44.736 64.1442 44.424 64.0482 45.064L63.8322 44.512C63.8082 45.056 62.6722 44.92 63.1442 45.632L62.3442 45.704C62.3442 45.76 62.3522 45.8 62.3602 45.848L64.4642 45.48L64.6002 45.544C64.7442 45.448 64.9122 45.424 65.1042 45.16L64.9682 45.352C65.0242 45.944 65.6402 45.624 65.9682 45.68L65.8242 45.872C65.9042 46.616 66.4802 45.992 66.8962 46.104C66.8482 45.656 66.7522 45.456 66.3842 45.792C65.6242 45.464 67.2242 44.632 66.1202 44.792L66.7442 44.616C66.7042 44.792 66.8002 44.928 66.9202 45.056L66.7682 44.184L69.0802 44.36L69.2962 43.616L69.2802 43.6ZM64.7602 46.464L64.8002 46.712C64.8482 46.624 64.8562 46.544 64.7602 46.464ZM146.192 3.52L147.464 10.712C147.536 10.8 147.648 10.856 147.864 10.832C147.864 10.816 147.864 10.8 147.872 10.776C148.016 10.576 148.192 10.688 148.272 10.736C148.104 10.792 147.968 10.816 147.856 10.832C147.632 11.808 148.84 10.824 148.776 11.744C149.088 11.656 149.688 10.488 149.856 11.288L149.376 11.272C149.576 11.68 149.984 12.48 150.128 12.288L150.216 13.184C149.648 13.12 149.432 12.56 148.776 12.44C148.432 12.616 148.144 12.84 147.888 13.08L148.184 14.752C149.408 13.808 148.56 16.4 150.016 15.848L148.536 16.344C148.936 16.024 148.688 15.816 148.36 15.776L148.528 16.712C148.792 16.616 149.048 16.616 149.24 16.912C148.76 16.896 148.688 16.992 148.888 17.4L148.664 17.456L149.128 20.088C149.128 20.088 149.152 20.088 149.168 20.088C149.176 19.392 149.144 19.096 149.448 18.864C149.296 19.752 150 18.784 150.216 19.336C150.032 19.928 149.8 19.224 149.52 19.608C149.704 19.864 149.896 20.112 150.064 20.224L150.136 20.128C150.928 20.064 151.36 20.32 151.592 21.024C151.048 20.408 150.8 21.936 150.4 21.128L151.392 20.616L150.792 20.248C150.504 20.4 149.888 20.504 149.232 20.712L149.8 23.944C150.072 23.944 150.384 23.968 150.768 24.008C150.672 23.808 150.72 23.56 150.552 23.456L151.6 23.36C151.168 23.272 150.944 22 150.064 22.592L150.968 22.032L150.88 21.976L152.616 20.488L152.32 18.808L152.152 18.704L152.224 18.608L152.296 18.648L150.8 10.176L150.712 10.136L150.792 10.112L149.208 1.112C148.976 0.976 148.728 0.864 148.44 1.344C148.552 0.68 148.944 1.04 149.168 0.88L149.112 0.56C147.68 1.056 147.384 -0.04 146.88 1.792C145.896 1.608 145.72 1.504 144.96 1.872L145.048 1.928L143.552 2.272L143.384 3.008L142.8 2.792C143.2 2.76 142.992 2.352 143.056 2.112C142.16 1.984 141.016 1.84 140.024 2.352C138.824 2.376 139.6 1.808 139.752 1.24L128.84 3.168C129.016 3.464 128.304 3.096 128.496 3.696C127.92 3.752 127.592 3.728 127.544 3.4L126.72 3.544C126.736 3.616 126.76 3.696 126.816 3.792C126.736 3.696 126.648 3.632 126.568 3.576L124.52 3.936C123.944 4.272 123.352 4.664 122.824 4.848C122.528 4.928 122.624 4.488 122.568 4.28L121.824 4.408C121.192 4.824 120.944 4.8 120.896 4.576L119.792 4.768C120.2 5.128 120.328 5.936 120.656 5.608C121.552 5.744 121.872 6.496 122.192 7.248C121.864 7.192 121.272 7.664 121.52 6.976C120.64 6.992 119.336 7.592 118.84 8.272C118.664 8.168 118.568 7.968 118.392 7.856C117.352 8.304 116.88 8.52 116.272 8.816L146.216 3.536L146.192 3.52ZM148.536 13.28L148.064 13.416L148.672 13.088L148.528 13.288L148.536 13.28ZM151.08 14.552L151.456 15.056L150.952 14.888L151.08 14.552ZM151.416 15.456L151.528 15.808C151.904 15.816 151.664 16.36 151.648 16.624C151.672 16.672 151.688 16.704 151.712 16.76C151.656 16.76 151.64 16.704 151.648 16.624C151.344 15.976 151.088 16.688 150.256 16.704C150.76 16.176 150.848 16.232 151.416 15.456ZM149.808 9.672C149.808 9.672 149.84 9.64 149.848 9.608C149.904 9.616 149.936 9.64 149.968 9.656C150.296 9.632 150.528 9.736 150.392 10.224C149.6 10.376 150.336 9.848 149.968 9.656C149.912 9.656 149.864 9.656 149.8 9.672C149.624 9.896 149.12 9.616 149.16 10.032C149.248 10.216 149.232 10.56 149.568 10.4L149.656 10.2L149.672 10.344C149.632 10.368 149.6 10.384 149.568 10.4L149.464 10.632C148.944 10.32 148.792 10.36 148.504 9.912L148.816 9.824C149.008 9.88 149.432 9.736 149.8 9.672H149.808ZM148.816 2.696L148.76 2.944L148.448 3.032L148.808 3.392C148.376 3.128 148.024 3.616 147.952 3.704C148.056 3.216 148.256 2.776 148.808 2.696H148.816ZM135.272 2.384L136.296 2.168C136.096 2.608 136.296 3.016 136.488 3.272L135.096 3.816C134.72 3.304 135.472 2.792 135.616 2.592L135.272 2.384ZM134.256 3.432L134.384 3.936L134.072 4.024L134.256 3.432ZM122.616 6.8L123.36 6.976C122.808 7.056 122.936 7.552 122.424 7.24C122.496 7.136 122.632 6.952 122.624 6.8H122.616ZM27.1682 65.44C27.1682 65.44 27.1922 65.456 27.2162 65.464C27.8402 64.8 28.7042 65.296 29.4642 65.152C29.3602 64.128 29.2082 63.064 29.0082 61.944C28.8642 61.112 28.7042 60.224 28.4882 59.344L26.1682 59.664C26.4002 60.6 26.5922 61.552 26.7602 62.496C26.9122 63.336 27.0242 64.16 27.1122 64.976C27.1442 64.96 27.1762 64.936 27.2162 64.928C27.2962 65.04 27.2162 65.128 27.1362 65.208C27.1362 65.288 27.1522 65.368 27.1602 65.448L27.1682 65.44ZM65.1922 43.656L65.2242 43.304L63.5842 43.592C63.7442 44.272 64.7282 42.976 65.1842 43.656H65.1922ZM78.6082 15.4V15.44L78.6882 15.424C78.6882 15.424 78.6322 15.4 78.6082 15.4ZM33.5442 81.232H33.4962L33.5202 81.248C33.5202 81.248 33.5362 81.24 33.5442 81.232ZM4.44019 25.12C4.44019 25.12 4.48819 25.088 4.51219 25.072L3.65619 25.224L3.60019 25.472C3.85619 25.472 4.16819 25.312 4.52819 25.16C4.49619 25.16 4.47219 25.144 4.44019 25.12ZM24.7922 45.376C24.2242 45.824 23.9762 45.52 23.5522 45.376C24.1042 45.376 24.3602 45.192 24.7442 45.072C24.7282 45.016 24.7122 44.96 24.6962 44.912C24.6882 44.904 24.6802 44.896 24.6642 44.88L24.6882 44.896C24.3522 43.816 24.0562 42.992 23.8162 42.432L22.8722 42.704C23.1202 43.064 23.6722 42.96 23.8002 43.488C23.6482 43.392 23.5602 43.192 23.3682 43.344L23.4082 43.64C23.3762 43.4 22.8242 43.16 22.7362 42.744L21.8962 42.984C21.9602 43.128 22.0242 43.28 22.0802 43.432C22.3602 43.536 22.6322 43.616 22.8402 43.544C22.5762 43.824 22.4322 43.872 22.2882 43.944C22.6322 44.824 22.9202 45.736 23.1282 46.664L25.0802 46.224C24.9922 45.928 24.9122 45.648 24.8322 45.376C24.8242 45.376 24.8082 45.376 24.7922 45.376ZM23.2162 44.768L23.6722 44.68L23.1362 45.16L23.2162 44.768ZM80.9362 12.208C80.6402 12.448 80.3122 12.384 80.5122 12.792C80.8242 12.704 81.6242 12.632 81.4082 12.08C81.5842 13.024 83.3442 12.144 83.1762 12.88C83.5922 12.992 83.4802 12.64 83.6002 12.296C83.7842 12.552 83.9442 12.504 84.1922 12.512L83.7682 13.088C84.3122 13.704 84.0482 12.704 84.8082 13.024C84.4322 14.048 84.0882 13.84 83.5042 14.464C82.4802 14.672 81.6082 14 80.5282 14.464C80.0962 14.448 79.8962 14.8 79.7842 15.224L86.4082 14.056C86.4082 14.056 86.3842 14 86.3522 13.968C86.4002 14.008 86.4402 14.016 86.4882 14.04L87.5682 13.848C87.9122 13.656 88.2562 13.44 88.5602 13.504C88.5282 13.2 88.2162 13.296 88.0402 13.192L88.3762 12.56C89.8882 12.656 88.3762 13.216 88.8562 13.632L89.4882 13.52C89.5042 13.48 89.5122 13.432 89.5042 13.392C89.5682 13.432 89.6082 13.464 89.6482 13.488L90.6242 13.312L90.1362 12.52C90.3922 12.672 90.6002 12.8 90.9122 12.76C90.9522 12.72 90.9922 12.688 91.0402 12.648C91.0402 12.68 91.0402 12.696 91.0402 12.728C91.1122 12.712 91.1842 12.696 91.2722 12.656C91.6642 11.776 90.2162 12.576 90.3842 11.832L90.9042 11.456C91.0402 11.952 90.8482 11.696 90.5362 11.792C90.4962 12.192 91.3842 12.168 91.8482 12.032L91.3442 12.56C91.8002 13.12 92.4082 11.952 91.9442 12.928C91.8002 12.296 91.0962 13.552 91.0402 12.728C91.0002 12.736 90.9442 12.76 90.9122 12.76C90.7282 12.936 90.6562 13.096 90.7682 13.288L93.8402 12.744C93.8642 12.696 93.8962 12.648 93.9282 12.592C94.0802 12.576 94.2882 12.584 94.5042 12.624L111.984 9.544C111.568 9.4 111.104 9.32 110.744 9.608L110.872 9.264C110.376 9.104 108.696 9.192 107.824 9.36L107.784 9.752C106.568 8.872 105.608 10.52 104.872 8.816C104.624 8.888 104.112 8.792 103.936 9.056C103.992 8.912 104.056 8.744 104.04 8.592C103.568 9.096 102.76 8.848 102.056 8.856C101.912 8.928 101.752 8.968 101.576 8.912C101.728 8.872 101.888 8.856 102.056 8.856C102.336 8.712 102.552 8.424 102.64 8.304C101.96 8.72 102.096 7.688 101.28 8.304C101.28 8.304 101.296 8.456 101.376 8.504L100.8 8.528C100.8 8.528 100.76 8.552 100.736 8.56C100.72 8.92 101.016 8.848 101.112 9.04C100.2 8.76 99.6722 9.832 98.7842 9.856C98.7682 9.928 98.7682 9.976 98.7682 10.016C98.8242 10 98.8802 9.984 98.9522 9.96C98.8562 10.096 98.7842 10.104 98.7682 10.016C97.6002 10.328 98.8002 9.072 97.6642 9.176C97.7282 9.768 97.0402 9.352 96.8002 9.344C97.2242 8.28 98.4322 9.2 98.6082 8.488L87.8642 10.384C87.9282 10.416 88.0002 10.48 88.0802 10.584C87.7282 11.064 86.8242 10.936 86.9042 11.68C87.1602 11.832 87.4242 11.992 87.0482 12.328C86.5442 11.32 87.0482 12.328 86.6082 11.224C87.0322 11.304 87.2482 10.68 87.5202 10.44L84.0162 11.056L84.0642 11.48C84.3042 11.48 84.9842 11.072 85.0162 11.36C84.5842 11.096 84.3202 11.64 84.4402 11.984L83.7282 12.104L83.9042 11.52C83.2802 11.696 82.6002 12.128 82.0242 12.056C81.9682 11.704 82.0162 11.512 82.1282 11.392L79.4002 11.872C79.5202 12.048 79.5042 12.272 79.5922 12.664C80.3442 12.144 80.5042 12.104 80.9122 12.216L80.9362 12.208ZM103.896 9.184C103.896 9.224 103.88 9.272 103.888 9.32C103.864 9.304 103.872 9.248 103.896 9.184ZM102.52 10.864L103.16 10.832L102.376 11.056L102.52 10.864ZM85.8562 13.16C85.9202 13.184 85.9682 13.232 85.9602 13.32C85.8962 13.28 85.8722 13.224 85.8562 13.16C85.6402 13.08 85.1762 13.24 85.5122 12.912C85.9202 12.736 85.8242 12.968 85.8562 13.16ZM85.4642 12.464C85.4002 12.56 85.1682 12.704 85.2722 12.904L85.0562 12.352L85.4642 12.464ZM76.5842 12.904C76.5682 12.752 76.2402 12.696 76.0002 12.688C75.9762 12.616 76.0082 12.536 76.0722 12.456L74.0562 12.808C74.7522 13.016 75.7442 13.304 76.5842 12.904ZM78.8962 11.96L78.2242 12.08C78.3602 12.216 78.5442 12.328 78.8562 12.344L78.8962 11.96ZM35.4482 55.296L35.3922 55.328C35.3842 55.264 35.3922 55.216 35.4242 55.184L35.2722 54.536C34.5602 54.744 33.8642 55.648 32.9762 55.376C32.4962 54.792 31.5682 55.864 30.9762 55.16L30.9362 55.184L30.9202 55.528C29.9202 55.28 28.6242 56.464 27.1922 56.608L27.3762 55.92H26.7602C27.5122 55.872 26.9682 55.376 27.5682 55.768C27.8162 55.52 27.4562 55.424 27.4882 55.176L27.7922 55.368C28.3602 54.92 27.7762 54.68 27.5282 54.384C27.9602 53.992 28.5282 53.544 28.8882 53.64C28.9602 54.232 29.0002 53.984 28.9442 54.624L29.4562 54.584L29.4162 54.376C29.4162 54.376 29.4082 54.376 29.3922 54.376C29.3922 54.368 29.4082 54.36 29.4082 54.352L29.1922 53.144L34.4002 52.224L34.0002 49.936L28.7922 50.856L28.4402 48.864L30.4162 48.512C30.3042 48.376 30.4162 48.064 30.5682 47.944C31.1682 48.088 30.4162 48.056 30.4962 48.496L34.0082 47.88C34.2162 47.84 34.3202 47.704 34.2802 47.496L34.1682 46.88C34.0082 46.904 33.8322 46.808 33.8322 47.048C33.8642 47.072 33.8962 47.104 33.9122 47.16L33.8322 47.112C33.8322 47.112 33.8322 47.072 33.8322 47.048C33.6242 46.888 33.1202 47.088 32.5682 46.96H32.9762C32.8642 46.072 33.0962 46.216 32.8642 45.528C33.1922 45.6 33.5922 45.728 33.9682 45.808L33.6802 44.192C33.6802 44.192 33.6082 44.136 33.5842 44.104C33.6082 44.104 33.6402 44.104 33.6722 44.112L33.5922 43.672C33.3202 43.736 33.0482 43.848 32.8082 44C32.8242 44.12 32.6882 44.392 32.7762 44.52C32.3442 44.248 32.0402 44.592 31.6722 44.984L31.8562 46.032C31.8722 46.12 31.8482 46.16 31.7522 46.176L30.7202 46.36C30.7762 46.504 30.8162 46.672 30.8322 46.92C31.1522 46.72 31.2082 46.624 31.4562 46.92L30.6882 47.36C30.8562 45.976 28.9762 47.464 28.3522 46.912C28.7842 46.568 29.1042 46.952 29.3122 46.6L28.0642 46.824L27.6882 44.688C27.1362 44.344 26.3042 44.384 26.1282 44.088C26.5042 44.128 27.0722 44.048 27.5522 43.92L26.9762 40.648L30.6722 40L30.8082 40.072L31.3602 43.216C31.5522 43.224 31.7522 43.272 31.9122 43.416C31.8322 43.368 31.8162 43.216 31.8722 43.12C32.2722 43.52 31.7762 44.008 32.5122 43.808C32.5682 43.168 33.1682 43.56 32.8722 42.824C33.7362 42.576 32.5282 43.416 33.1762 43.568C33.3842 43.568 33.3442 43.272 33.3282 43.12C33.3922 43.16 33.4562 43.176 33.5122 43.184L32.5682 37.832C32.5282 37.624 32.3922 37.56 32.1842 37.592L19.7362 39.784C19.6802 39.904 19.6322 40.016 19.6002 40.08C19.8242 40.224 20.5842 40.176 20.1122 40.28C19.8402 40.176 19.6322 40.336 19.4642 40.552C19.5842 40.6 19.7042 40.656 19.8162 40.696L19.3602 40.936C19.7362 40.936 19.9602 41.72 19.5042 41.96C19.5042 41.36 18.6722 41.592 18.6802 41.144C19.0562 41.144 18.6802 41.592 19.1282 41.208C19.1282 41.024 18.8242 40.928 18.6162 40.912L20.2162 50C20.2562 50.208 20.3682 50.312 20.5762 50.272L20.9442 50.208C20.9922 50.176 21.0482 50.144 21.0962 50.12L21.0722 50.04C21.1842 49.96 21.2562 49.984 21.3122 50.04C21.3682 50.04 21.4082 50.064 21.4242 50.128L22.6322 49.912C22.4562 49.296 22.1762 50.088 21.9602 49.944L21.9042 49.496C22.7522 49.104 24.1282 48.512 24.8402 47.624C25.0082 47.864 25.9842 48.112 26.4962 47.784C26.4802 47.768 26.4642 47.752 26.4402 47.728L26.5122 47.776C26.5122 47.776 26.4962 47.776 26.4882 47.784C27.0242 48.392 27.1602 46.704 28.0162 47.136C27.4322 47.432 28.0722 48.12 28.7362 47.88C28.9042 47.04 29.2402 48.08 29.4882 47.288L29.8802 48.224C29.5602 48.424 28.3362 48.024 27.6562 48.664C27.6962 48.96 28.1282 48.568 28.3362 48.568C28.0962 48.816 27.7282 48.712 27.9922 49.16C27.5042 49.112 27.3922 48.768 26.8802 49.112L26.8642 48.416C25.6562 48.712 24.1362 49.752 22.5842 49.552L22.6322 49.912L26.0722 49.304L26.4242 51.296L21.0322 52.248L21.4322 54.536L26.8242 53.584L27.1842 55.6L24.9362 56.12C24.9522 56.184 24.9842 56.24 25.0322 56.272L25.2482 56.32C25.1442 56.328 25.0802 56.304 25.0322 56.272L24.6402 56.184L21.1202 57L21.8402 59.32L35.5682 56.072L35.3922 55.304L35.4482 55.296ZM32.7682 47.76C32.6882 48.256 32.4082 47.664 32.2002 47.664C32.6562 47.416 32.2242 47.816 32.7682 47.76ZM32.6722 46.48L31.9922 47.12L31.7842 46.576L32.6722 46.48ZM20.4562 45.528L19.8882 45.424C20.0562 45.128 20.5842 44.928 20.6402 44.832C20.3362 45.184 21.0562 45.376 20.4482 45.528H20.4562ZM22.1522 47.872L22.0402 47.768L21.3842 44.04L21.2882 43.888C21.1042 44.584 20.9682 44.088 20.6322 44.136C20.7042 43.464 20.9362 43.256 21.2402 43.232L20.9842 41.8L21.0562 41.696L24.6642 41.064L25.3282 44.832C25.4482 44.736 25.5442 44.656 25.6002 44.688C24.9442 45.008 25.9042 45.24 25.4482 45.512L25.7522 47.24L22.1442 47.872H22.1522ZM23.0322 57.936C22.9762 58.016 22.9202 58.024 22.8562 58L22.3442 58.192C22.4482 57.512 22.6562 57.928 22.8562 58L23.0322 57.936C23.0322 57.936 23.0802 57.856 23.1042 57.784C23.0722 57.672 23.0562 57.568 23.0002 57.504C23.0722 57.536 23.1442 57.592 23.1202 57.744C23.1202 57.76 23.1122 57.768 23.1042 57.784C23.1122 57.824 23.1282 57.856 23.1442 57.888L23.0322 57.928V57.936ZM34.3282 55.728L33.9522 55.48L34.7042 55.432L34.3282 55.728ZM9.88819 27.552C9.75219 27.504 9.61619 27.448 9.49619 27.384C9.56019 27.432 9.59219 27.512 9.62419 27.6L9.89619 27.552H9.88819ZM9.94419 62.824L9.64819 61.144L8.25619 61.44C8.57619 62.016 9.31219 62.432 9.94419 62.824ZM14.0722 87.024C13.9842 87.176 13.5602 87.712 13.5842 88.184L15.6802 87.816C15.2882 87.416 14.8482 86.736 14.0642 87.032L14.0722 87.024ZM14.3362 88.016L14.4722 87.424H14.6802L14.3362 88.016ZM15.7282 87.568C15.7922 87.632 15.8562 87.704 15.9202 87.768L16.9922 87.576C16.6162 87.312 16.3202 86.848 15.7282 87.568ZM8.36019 61.24C8.39219 61.024 9.32819 60.424 9.59219 60.84L9.18419 58.512L9.13619 58.616L9.10419 58.08L8.96019 57.28C8.84819 57.336 8.72819 57.368 8.61619 57.416C8.61619 57.512 8.61619 57.608 8.58419 57.696C8.46419 57.704 8.40019 57.68 8.35219 57.64C8.31219 57.712 8.28819 57.808 8.28819 57.928C8.37619 58.12 8.62419 57.88 8.72019 58.072C8.60819 58.272 8.36019 58.52 8.45619 58.72L8.83219 58.424C8.36019 59.072 7.62419 59.264 7.20819 59.808C8.28019 59.56 7.45619 61.192 8.36019 61.248V61.24ZM8.73619 59.312L9.16819 59.456L8.56819 59.608L8.73619 59.312ZM47.6722 62.296L50.0002 61.888L49.2722 57.776H49.1762L49.2722 57.744L48.9282 55.768C48.5682 55.632 48.2482 55.848 47.7602 55.976C47.3842 55.728 47.6082 55.336 47.7042 54.992C47.2562 54.696 47.3442 55.44 47.1362 54.896C47.7842 55.048 47.5122 54.056 47.4722 53.76C47.6482 54.008 48.0002 54.104 48.1682 53.808L48.2642 54.552C48.3682 54.44 48.5442 54.432 48.6802 54.408L48.3282 52.432L48.1442 52.576C47.8002 52.624 47.3762 52.48 47.6722 52.128L47.1282 52.176C47.5922 51.6 47.9042 51.888 48.2562 52.04L47.6642 48.688C47.4242 48.736 47.1842 48.84 46.9362 49.064L46.8002 49.656C46.6882 48.76 45.8402 50.248 45.4082 49.552L45.3922 49.944C44.7122 50.048 44.1842 50.24 43.3602 50.24C43.3762 50.4 43.3842 50.544 43.4082 50.64L45.1762 50.328C45.4162 50.288 45.5602 50.384 45.6002 50.592L45.7682 51.552C46.0722 51.576 46.4242 51.56 46.3522 50.976L47.0882 51.328C46.7842 51.872 46.2642 51.776 45.7842 51.664L47.0402 58.784L39.9202 60.04L38.9842 54.72C38.4882 55.048 38.0402 55.312 37.7042 55.232L37.7202 55.376C37.3522 55.24 36.9922 55.104 36.6402 55.272L38.1762 63.968L40.5362 63.552L40.3202 62.336L47.4402 61.08L47.6562 62.296H47.6722ZM46.5362 55.584L46.4962 55.288L46.8882 55.688L46.5362 55.584ZM37.6402 58.992L37.5842 58.552L37.8722 59.144L37.6482 58.992H37.6402ZM38.5602 58.672L38.4722 58.448C38.5522 58.504 38.5602 58.584 38.5602 58.672L38.6802 58.992L38.4002 58.944H38.6082C38.5602 58.848 38.5682 58.76 38.5682 58.672H38.5602ZM38.4322 60.328C39.0722 59.928 39.1282 60.376 39.7522 60.384C39.2802 60.488 38.5842 60.976 38.4322 60.328ZM34.4082 61.792C34.5202 62.064 34.6322 62.328 34.7362 62.616L36.7282 61.896C36.4322 61.056 36.0882 60.248 35.6962 59.472C35.5602 59.472 35.4402 59.408 35.3762 59.144L35.5122 59.128C35.2002 58.52 34.8722 57.928 34.5202 57.36L32.6162 58.248C33.0962 58.984 33.5522 59.864 33.9842 60.816C34.0562 60.744 34.1682 60.688 34.3282 60.624C34.2162 61.368 34.9362 60.48 35.2322 60.672C35.0642 60.968 36.2882 60.824 35.7442 61.416C35.4242 61.536 34.8802 61.696 34.4082 61.792ZM34.8322 59.24C34.6002 59.256 34.2242 59.408 34.3122 58.84C34.3122 59.28 34.6002 59.208 34.8322 59.24C34.9042 59.24 34.9602 59.24 34.9842 59.288C34.9442 59.256 34.8882 59.248 34.8322 59.24ZM95.9362 49.04C95.7762 48.112 95.5442 48.952 95.2002 48.688L95.2962 49.216C95.5042 49.28 95.7202 49.312 95.9362 49.04ZM96.7842 27.904C97.2962 28.216 97.3122 28.368 98.0402 28.392C97.8162 28.536 97.7522 29.472 97.1682 29.248C97.1682 29.304 97.2002 29.344 97.2322 29.392L106.536 27.752L106.072 25.112L102.44 25.752L102.312 25.84C102.336 25.888 102.368 25.944 102.384 26.016L102.216 25.912L102.312 25.848C102.312 25.848 102.28 25.808 102.264 25.792L101.32 25.96C100.824 26.312 100.264 26.824 99.8802 26.728C100.064 26.472 100.096 26.304 100.064 26.176L96.9682 26.72C97.2002 26.696 97.4322 26.624 97.7122 26.8C96.7602 26.92 97.3522 27.976 96.7842 27.912V27.904ZM104.8 26.784C104.896 26.984 105.384 27 105.416 27.296C105.128 26.84 104.8 27.624 104.568 27.616C104.376 27.368 104.832 27.08 104.808 26.784H104.8ZM46.3762 39.152L40.4082 40.208L39.6562 35.96L37.2002 36.392L38.4082 43.248C38.8242 42.984 39.1682 42.776 39.2162 43.16L39.1922 43.008C39.8482 42.968 40.7682 42.056 41.2082 42.424L46.7762 41.44L46.3762 39.152ZM45.0642 41.28C45.3122 41.032 45.0962 40.488 45.5522 40.784C45.4402 40.984 45.2882 41.424 45.0642 41.28ZM8.16019 56.928C8.12019 56.912 8.06419 56.904 7.99219 56.912C7.92019 56.928 7.84019 56.912 7.76019 56.912C7.58419 57.168 7.44819 57.376 7.95219 57.432L8.16019 56.928ZM58.1442 80.192C58.2882 80.192 58.4002 80.224 58.4962 80.264L58.8962 80.192C58.5602 79.968 58.0802 79.304 58.1442 80.192ZM35.7522 50.032L36.3122 53.208L36.8322 53.544C36.7762 53.64 36.5842 53.792 36.6802 53.992L37.2802 53.84L37.1442 53.344C37.4962 53.992 38.0482 53.392 38.1762 53.888L38.5762 53.192C38.6482 53.512 38.7362 53.672 38.8402 53.744L38.6562 52.72C38.2242 52.808 37.4242 52.664 36.5762 52.704C36.8402 52.6 37.3282 52.112 37.8802 52.056L37.6162 51.616C38.3682 51.024 39.5362 50.976 40.3282 50.68C40.0722 50.576 40.1202 50.4 40.1682 50.248C40.1202 50.16 40.0722 50.064 40.0242 49.944C40.2642 49.968 40.2162 50.096 40.1682 50.248C40.6162 51.072 41.0562 50.632 41.6482 50.952L42.2002 50.856C42.4802 50.376 43.1362 49.912 43.6402 50.136V49.592C44.0482 49.592 44.0962 49.344 44.3362 49.648L44.4722 49.28C44.3762 49.24 44.3682 49.184 44.5362 49.096L44.4722 49.28C44.6642 49.368 45.2002 49.4 45.2482 49.584C45.3442 49.352 45.7842 49.2 45.6882 48.896C45.5762 48.552 45.0242 49.144 44.9522 48.552C45.2882 47.96 45.2882 49.048 45.6322 48.448L45.6162 48.304L45.6722 48.752C45.8402 48.456 46.2882 48.752 46.3442 48.104L46.5522 48.648C46.5522 48.136 47.3842 48.184 47.1522 47.632C47.1042 47.632 47.0482 47.632 46.9922 47.632L45.5442 47.888C45.5122 47.928 45.4722 47.976 45.4402 48.04L45.5282 47.888L44.3762 48.088C44.2322 48.336 44.1042 48.536 44.5922 48.432L44.0642 48.632C44.0962 48.44 43.9922 48.304 43.8722 48.176L41.8722 48.528L41.8242 48.232C41.1602 48.144 40.4482 47.776 39.7682 47.432C39.5762 47.592 39.3922 47.704 39.2242 47.8L39.4322 48.96L36.0722 49.552C35.7682 49.608 35.6722 49.776 35.7442 50.008L35.7522 50.032ZM95.4002 48.184C95.3522 47.832 95.1922 47.888 95.0882 47.92L95.1762 48.416L95.4002 48.184ZM30.5682 43.168L30.4962 41.472L28.5362 41.512L28.5762 42.968C28.6322 42.864 28.6802 42.76 28.7362 42.664C29.0802 42.432 29.1202 42.808 29.2642 42.872L29.5602 42.672C29.4082 42.872 29.3282 42.904 29.2642 42.872L29.0562 43.016C29.6802 43.016 29.1922 44.056 29.1682 44.448L29.7762 44.304L29.6802 43.56L30.0802 43.96C30.2482 43.664 30.0402 43.12 29.6402 43.264L30.3762 42.52C30.3122 42.936 30.4002 43.104 30.5602 43.176L30.5682 43.168ZM28.6562 45.528L29.0962 45.544V45.472L28.6562 45.52V45.528ZM29.2882 45.552L29.9362 45.576C29.8722 45.448 29.8162 45.312 29.8162 45.128C29.3682 45.008 29.3522 45.272 29.2882 45.552ZM38.6962 43.752C38.6402 43.824 38.6002 43.88 38.5602 43.936L38.6562 44.456L39.3682 44.048C39.2162 43.952 38.9682 43.648 38.7042 43.752H38.6962ZM30.6562 45.304C30.6562 45.304 30.5762 45.32 30.5362 45.328C30.5202 45.432 30.5202 45.52 30.5202 45.6H30.6642L30.6482 45.304H30.6562ZM41.4322 45.904L40.9922 43.408C40.5362 43.352 40.0562 43.32 39.6562 43.16C39.8802 43.312 39.8802 43.856 40.0322 43.952C39.7842 44.04 39.0722 44.776 38.6642 44.536L38.8962 45.848C39.3202 45.432 39.6642 45.16 39.8802 44.936L39.7682 45.136C40.3122 45.68 40.8562 45.848 41.4322 45.904ZM32.8562 54.216C33.0882 54.224 33.3442 54.144 33.6002 54.04L32.8562 54.216ZM1.02419 26.136C1.40019 26.592 0.792187 27 1.62419 26.92C1.78419 26.296 2.38419 26.776 2.16019 26C2.19219 26 2.22419 26 2.24819 26C2.16019 25.944 2.06419 25.872 1.96819 25.768L2.52019 25.424L-0.0078125 25.872L0.0321875 26.112C0.368187 26.144 0.760187 26.176 1.01619 26.448C0.936187 26.384 0.936187 26.232 1.01619 26.144L1.02419 26.136ZM3.44019 37.12L4.04819 36.552L4.87219 37.216C4.80019 37.304 4.56819 37.424 4.64019 37.632L5.32019 37.576L5.24819 37.064C5.30419 37.184 5.36819 37.264 5.44019 37.32L5.28019 36.416C5.09619 36.384 4.91219 36.36 4.72019 36.336C4.84819 36.312 5.02419 36.224 5.23219 36.144L4.49619 31.992C4.40019 32.024 4.30419 32.072 4.21619 32.176L4.36819 32.296C2.92819 32.944 4.22419 30.976 3.24019 31.392L3.40019 31.136L3.24019 30.944C3.30419 30.992 3.36819 31.048 3.42419 31.096L3.62419 30.792C3.30419 30.856 3.20819 30.656 3.18419 30.424C3.05619 30.424 2.92819 30.472 2.84819 30.552C2.98419 30.4 3.08819 30.328 3.17619 30.296C3.17619 30.24 3.17619 30.184 3.17619 30.136C2.95219 30.392 2.61619 30.008 2.57619 30.344C2.60819 30.376 2.63219 30.416 2.64819 30.464L2.56819 30.4C2.56819 30.4 2.56819 30.36 2.57619 30.336C2.37619 30.152 1.79219 30.264 1.20819 30.056L1.65619 30.12C1.66419 29.224 1.89619 29.4 1.74419 28.68C2.39219 28.92 3.32019 29.368 3.86419 29.248L3.92019 29.216C3.92019 29.216 3.94419 29.216 3.95219 29.216C3.96819 29.192 3.98419 29.184 3.99219 29.168L3.88819 28.584L5.30419 28.336C5.34419 28.056 5.56819 27.728 5.15219 27.808V27.952C4.99219 27.824 4.88819 27.832 4.80019 27.848L4.78419 27.872L4.76819 27.856C4.62419 27.904 4.54419 27.968 4.40819 27.496C4.93619 27.768 5.62419 26.672 6.00019 27.424L5.46419 28.048C5.64819 28.104 5.80819 28.168 5.95219 28.224L7.59219 27.936C7.54419 27.776 7.48019 27.616 7.28019 27.56C8.04019 27.416 9.02419 26.712 9.02419 27.304V27.152C9.85619 27.224 11.2242 26.216 11.4482 27.152C11.4642 27.184 11.4642 27.224 11.4722 27.256L19.1362 25.904C19.1362 25.904 19.1362 25.888 19.1362 25.88C19.0322 25.536 19.1282 25.432 19.7842 25.128C20.0242 25.32 19.2322 25.52 19.1362 25.88V25.904L19.8722 25.776C20.0642 25.656 20.2802 25.576 20.0882 25.224C20.5042 25.328 20.1762 25.472 20.0882 25.736L34.6482 23.168C35.0562 22.688 35.4722 22.248 36.0002 22.808C36.5282 22.616 36.3362 22.216 36.3362 21.672C36.8802 21.616 35.9602 22.512 36.7522 22.216L36.4322 22.408C36.4162 22.808 36.7922 22.504 36.9442 22.608L36.8722 22.776L47.7522 20.856C47.9202 20.536 47.8402 20.008 48.5362 19.752C48.8402 20.496 49.9842 20.296 50.5362 19.704C50.6242 20.88 51.2002 19.528 51.4082 20.208L51.5362 20.184C51.7042 19.704 51.7762 19.96 51.9122 20.12L52.2802 20.056C52.3202 20 52.3682 19.936 52.4162 19.848L51.9442 19.4C52.1682 19.544 52.8322 19.848 52.8082 19.152C52.1762 19.6 52.0242 18.456 51.4482 18.808L51.6402 18.656C51.3202 17.768 50.5842 19.056 50.2482 18.552C51.9602 17.368 53.5682 17.464 55.2082 16.232C55.6962 16.824 56.4482 15.688 55.9842 16.88C55.4322 18.016 54.0802 16.584 53.4962 17.968L52.7442 17.472C52.9682 18.712 54.8562 18.312 55.4242 18.952L55.2962 19.52L66.0322 17.624C65.9922 17.584 65.9682 17.544 66.0082 17.48C66.0642 17.52 66.1362 17.552 66.2082 17.592L67.3602 17.392C67.4562 17.352 67.5522 17.288 67.6322 17.184C67.8082 17.136 67.9442 17.184 68.0562 17.264L77.2242 15.648C77.0322 15.6 76.8242 15.304 76.6802 15.296C76.7522 15.2 77.0722 15.264 77.1362 15.016L77.5682 15.28C77.5122 15.472 77.4482 15.576 77.3762 15.624L77.9442 15.528C78.2082 15.296 78.6322 15 78.5602 14.776C79.0162 14.496 77.8562 14.208 77.6242 13.504C76.4322 14.456 74.8562 14.744 73.6642 15.696L73.5202 15.048C73.1922 14.992 72.5442 14.864 72.4962 15.264C72.6002 15.464 72.8242 15.328 73.0642 15.336L72.9202 15.528C71.5682 15.76 72.5682 14.152 71.7682 14.056L71.8002 14.08L71.6562 14.192L71.2402 14.52L71.4882 14.088L71.0642 13.824L71.3442 13.44C71.3122 13.344 71.2642 13.304 71.2082 13.288L70.9362 13.336C70.8642 13.36 70.8082 13.392 70.7762 13.368H70.7922L68.6242 13.744C68.8242 14.04 69.4402 13.656 69.7522 14.216L69.1122 14.616L68.9602 13.968L68.6002 14.416C68.2562 14.488 68.3282 14.024 68.2002 13.816L67.0722 14.016L66.9042 14.12C67.0802 14.368 67.1922 14.712 67.3442 14.816C67.5282 14.664 67.4562 14.616 67.4402 14.472C67.9122 14.912 67.3442 14.816 67.6882 15.312C67.1042 15.608 65.2722 16.448 64.3922 15.456C64.6322 15.752 64.2962 15.808 64.3362 16.096C63.6562 16.192 62.4322 15.256 61.3602 16.048C61.8322 16.496 60.9282 15.896 61.1522 16.592C60.8482 16.4 59.7922 16.248 60.2642 15.608C59.8882 15.904 59.4722 15.904 59.2482 16.296C59.4162 15.76 58.8722 15.632 58.7282 15.496L58.2322 15.584L58.2882 15.8C57.6802 15.408 57.8322 16.048 57.2162 16.048L57.1762 15.776L23.6962 21.68C23.6322 21.904 23.6162 22.112 23.4002 22.296L22.8242 21.84L21.3202 22.104C21.1282 22.248 20.9042 22.104 20.6722 22.368C20.7122 22.32 20.7682 22.256 20.8242 22.192L20.0402 22.328L20.1442 22.536L19.6322 22.4L5.26419 24.936C5.26419 24.936 5.22419 24.992 5.19219 25.032C5.23219 25.072 5.27219 25.112 5.28819 25.184C5.24819 25.128 5.20819 25.096 5.16019 25.08C5.08019 25.192 5.00819 25.336 5.06419 25.464L4.68819 25.216C4.87219 25.648 5.08819 25.664 5.29619 25.584L5.28019 25.488L5.44019 25.52C5.73619 25.36 6.03219 25.144 6.24819 25.672H6.26419C6.41619 26.24 6.71219 25.736 6.26419 26.272C5.72819 26.448 5.88819 25.672 5.36019 25.992C5.43219 26.352 5.28019 26.528 4.89619 26.68C5.12819 26.408 4.98419 25.696 5.36019 25.992L5.32019 25.744C5.23219 25.76 5.12819 25.776 4.96819 25.808C4.34419 24.592 3.45619 26.304 2.52019 26.088C2.43219 26.264 1.94419 26.608 2.40019 26.768C2.62419 26.8 2.63219 26.496 2.63219 26.352C2.85619 26.536 3.08819 26.416 3.39219 26.512C3.39219 26.408 3.42419 26.264 3.36819 26.176C3.32819 26.152 3.28019 26.128 3.24019 26.096C3.31219 26.104 3.34419 26.136 3.36819 26.176C3.55219 26.28 3.73619 26.288 3.92019 26.192V26.04L4.60819 26.288C4.44819 26.616 4.15219 26.968 4.22419 27.336C3.62419 26.848 2.71219 26.872 1.95219 27.168C1.95219 27.288 1.76019 27.536 1.84019 27.68C1.36019 27.304 0.944187 27.704 0.416187 28.072L0.680187 29.56L1.40819 29.592L0.752187 30L0.864187 30.648C1.12819 30.592 0.784187 30.848 1.32019 30.872C1.20819 31.224 1.05619 30.984 0.896187 30.816L1.99219 37.032C2.54419 36.896 3.07219 36.808 3.46419 37.128L3.44019 37.12ZM3.29619 31.792L3.31219 31.936L2.85619 32.184L2.76019 31.984L3.28819 31.784L3.29619 31.792ZM71.6402 15.632C71.2882 16.064 70.8482 15.792 70.5842 16.392L70.7682 16.456C70.9042 16.416 71.0322 16.328 70.9282 16.512L70.7682 16.456C70.6882 16.48 70.6082 16.488 70.5682 16.416C70.5682 16.408 70.5762 16.4 70.5842 16.392L69.9842 16.168C70.5282 16.12 71.4322 15.632 71.6402 15.632ZM68.8322 16.368C68.4722 16.816 67.9122 16.712 67.4802 16.568C67.9202 15.624 68.9522 16.176 68.8322 16.368ZM48.8402 18.328C48.9682 18.824 48.2162 18.872 48.7682 19.368C48.3362 19.216 48.2242 18.872 48.0482 18.624C48.4082 18.728 48.5282 18.528 48.8402 18.328ZM43.5122 20.016L43.9202 20.408L43.5202 20.552C43.3762 20.336 43.6002 20.16 43.5042 20.016H43.5122ZM41.7202 20.992L41.3842 21.584L41.1442 20.744C41.7442 20.048 41.1602 21.44 41.7282 20.992H41.7202ZM29.1282 22.56L30.0322 22.384C30.0322 22.24 30.1122 22 30.0322 21.936L31.3922 22.128L30.7842 22.248L30.8562 23.208C30.4722 23.952 30.1042 23.056 29.4162 23.552C29.4962 23.168 28.9602 22.888 29.1202 22.56H29.1282ZM23.0802 23.808C23.1122 23.872 23.1602 23.928 23.2162 23.976C23.1442 23.92 23.1042 23.864 23.0802 23.808C22.9842 23.64 22.9682 23.432 22.9202 23.28C23.6402 23.336 22.9522 23.496 23.0802 23.808ZM18.5842 25.968C18.4322 25.544 17.9042 26.016 17.9842 25.784C18.2082 25.816 18.8962 25.312 18.5842 25.968ZM17.7842 24.04C17.5922 24.736 18.3522 24.688 18.3122 24.384C18.4082 24.584 18.9362 25.472 18.2402 25.424C18.6722 25.032 18.1842 24.976 17.9522 24.832C17.9682 24.984 17.5922 25.28 17.6882 25.48C17.4802 25.48 16.3682 26.512 16.2722 25.776L16.3842 25.032C15.6242 23.448 17.1522 25.136 17.7762 24.04H17.7842ZM16.3122 25.952C16.1602 26.128 15.9362 26.544 15.7042 26.368C16.0082 26.16 15.8562 25.592 16.3122 25.952ZM14.4722 24.584L14.7682 24.784L14.1842 25.08L14.4722 24.584ZM3.20019 27.704C3.38419 27.752 3.60019 27.744 3.81619 27.632C3.59219 28.064 3.40019 27.904 3.20019 27.704C3.00019 27.648 2.84019 27.528 2.76019 27.384C2.91219 27.384 3.05619 27.552 3.20019 27.704ZM95.0402 47.736C95.7122 47.976 96.7202 47.6 97.2722 48.624C97.3362 48.336 97.6002 48.24 97.8642 48.16L95.2882 33.544L94.6562 33.72C94.8882 33.584 94.7842 33.376 94.7522 33.08C94.7602 33.208 94.9202 33.408 95.2722 33.472L95.2322 33.24L96.8082 29.48L96.3682 29.32L96.5042 29.128C96.0642 28.72 95.8082 29.4 95.4082 29.44C95.9282 29.056 96.2002 28.528 97.0162 28.6C96.6802 28.288 96.0642 27.968 95.4242 27.728L95.3282 27.84C95.3282 27.776 95.3282 27.728 95.3122 27.688C95.1762 27.64 95.0402 27.592 94.9042 27.552C95.0562 27.576 95.2562 27.536 95.3122 27.688C95.3522 27.704 95.3842 27.712 95.4242 27.728L96.1442 26.856L92.0962 27.568C92.3762 27.6 92.6482 27.616 92.8882 27.6C93.0082 27.552 93.1602 27.512 93.3522 27.48C93.2322 27.552 93.0722 27.592 92.8882 27.6C92.5602 27.736 92.4322 27.944 92.2322 28.328C91.9042 28.264 91.6962 27.864 91.3922 27.952C91.3362 28.2 91.6082 28.504 91.7602 28.464L91.1042 28.344L91.0002 28.84C90.5442 29.12 90.4562 29.064 90.3282 28.568L91.1842 28.248C91.0562 27.792 90.2402 28.296 90.0562 27.928L87.8642 28.312C87.6402 28.624 87.4802 28.952 87.1602 29C86.9682 28.744 87.6882 28.624 87.1842 28.456C86.7042 28.856 86.1362 28.792 85.5602 28.72L79.4082 29.808L79.8722 32.448H79.8802L80.0002 32.176L80.0802 32.416L81.2722 32.208C81.1842 32.128 81.1362 31.992 81.1682 31.776C81.2962 31.856 81.6402 31.912 81.8882 32.104L93.7442 30.016C93.0722 31.608 92.3842 33.04 91.6802 34.336C91.8882 34.28 92.1122 34.152 92.3282 33.992L92.1522 33.888C93.3762 33.24 93.1762 33.672 94.3282 33.12L94.4002 33.864C93.6162 34.088 92.7442 34.952 91.7762 34.92C91.9042 34.448 91.6962 34.608 91.4402 34.76C90.8162 35.872 90.1842 36.888 89.5442 37.824L89.7442 37.872L89.3922 38.352C89.3202 38.376 89.3602 38.232 89.3682 38.08C86.8242 41.696 84.1362 44.008 81.4322 46L82.0322 46.528L82.2562 46.424C82.2322 46.544 82.2402 46.632 82.2562 46.712L82.6242 47.04C83.1762 47.104 84.1842 46.696 84.7522 46.856C85.0002 46.632 85.2402 46.416 85.4802 46.192C85.2882 46.016 84.9202 45.904 84.5442 46.008C84.3122 46.84 83.9602 45.792 83.6402 46.568L83.2242 45.616C83.6082 45.432 85.0162 45.872 85.8402 45.264C85.8082 44.96 85.2882 45.344 85.0402 45.328C85.3362 45.088 85.7522 45.208 85.4722 44.752C86.0402 44.816 86.1522 45.168 86.7682 44.848V44.976C89.2482 42.512 91.3842 39.872 93.1362 37.08L94.9042 47.096L95.1122 47.128L95.0082 47.208L94.9122 47.176L94.9842 47.592L95.0162 47.544C95.0162 47.544 95.0002 47.608 94.9922 47.632L95.0162 47.76L95.0402 47.736ZM82.4642 45.832C81.7202 45.656 82.7762 45.744 82.5602 45.192C82.8882 45.248 82.6962 45.688 82.4642 45.832ZM91.9362 36.096L91.7282 36.152C91.7282 36.152 91.6642 36.232 91.6402 36.296C91.6722 36.408 91.6882 36.52 91.7522 36.584C91.6642 36.544 91.5842 36.488 91.6242 36.336C91.6242 36.32 91.6402 36.312 91.6402 36.296C91.6322 36.256 91.6162 36.224 91.6002 36.184L91.7282 36.144C91.7922 36.072 91.8642 36.064 91.9362 36.088L92.5442 35.92C92.3922 36.592 92.1682 36.176 91.9362 36.088V36.096ZM83.6322 47.8L83.2562 47.568L83.6002 47.872C83.9042 47.616 84.2002 47.352 84.4962 47.088C84.0962 47.088 83.8322 46.896 83.6322 47.792V47.8ZM74.4482 52.552C74.9202 53.296 76.4882 54.92 79.0722 57.344L81.1522 55.664C79.4562 54.248 77.8802 52.728 76.4562 51.104C76.4322 51.256 76.3762 51.336 76.1762 51.216L76.3122 51.712L75.2562 51.632C75.0402 51.08 74.7762 51.616 75.1922 51.032C75.7362 50.8 75.6562 51.592 76.1762 51.216C76.1202 51.04 76.1282 50.904 76.1922 50.792C75.9762 50.544 75.7682 50.296 75.5602 50.048C75.4722 50.016 75.3922 49.968 75.3122 49.848L75.4642 49.64C75.5042 49.464 75.5442 49.296 75.5842 49.12C74.7682 48.936 74.3842 48.68 73.4882 49.288C73.5922 49.488 73.6242 49.784 73.9522 49.848C73.5042 49.976 72.9922 50.296 72.6322 50.424C71.7682 52.488 70.6882 54.288 69.3922 55.792C69.5842 55.736 69.7682 55.664 69.9282 55.568L70.1522 56.256C70.3842 55.864 71.2642 56.184 70.9282 55.488L71.6882 56.344C71.4082 56.464 70.9922 56.44 71.4002 57C70.2162 57.224 69.6322 57.944 68.7922 57.8L70.2162 58.68C72.0562 56.728 73.4722 54.648 74.4402 52.544L74.4482 52.552ZM80.1202 55.888C80.1202 55.888 80.1202 55.912 80.1202 55.888L80.0162 55.968L79.5602 55.808C79.9042 54.592 80.0962 55.72 80.1202 55.888ZM77.2242 51.992C77.0082 52.28 76.4562 52.36 76.3442 52.008C76.6162 52.32 76.9682 51.832 77.2242 51.992ZM101.472 39.432C103.536 40.744 105.808 42.344 108.288 44.256L110.048 42.016C105.424 38.48 101.256 35.88 97.5762 34.168L96.3442 36.56C97.5602 37.128 98.8882 37.848 100.32 38.712C100.488 38.624 100.672 38.584 100.864 38.624C100.728 38.128 100.12 38.448 99.9202 38.048C100.336 38.16 101.44 38.696 101.424 37.856L101.672 38.704C101.376 38.944 101.72 39.152 101.504 39.44C101.488 39.44 101.48 39.44 101.464 39.432H101.472ZM103.28 39.408L103.832 39.328C103.88 39.776 103.464 39.664 103.28 39.408ZM103.416 38.368C103.224 38.368 103.472 37.752 103.352 37.568L103.176 37.52C103.272 37.496 103.32 37.52 103.352 37.568L103.584 37.632C103.232 38.112 105.072 37.984 104.816 38.664L104.28 38.896C104.336 38.648 104.72 38.464 104.616 38.264C104.2 38.84 102.784 38.4 102.992 39.648L102.776 39.096C103.576 39.024 102.616 38.296 103.424 38.376L103.416 38.368ZM59.4562 79.584C58.8002 78.04 59.9282 79.616 59.8882 78.664L59.7522 78.432C59.2482 78.472 59.3122 78.936 58.7282 78.952L58.7842 79.088C58.5922 79.28 58.4322 79.448 58.2882 79.592C59.0562 80.376 58.5122 78.52 59.4562 79.592V79.584ZM59.7522 37.168C60.0242 37.296 60.4322 37.248 60.4642 37.552C60.0722 37.584 60.4162 37.104 59.9842 37.536C60.0082 37.832 60.8962 37.816 60.7282 37.712C61.4642 37.768 61.3042 37.408 61.0562 37.104C61.0162 37.064 60.9682 37.008 60.9202 36.96L59.7522 37.168ZM125.656 64.992L126.04 65.208C126.096 65.136 126.144 65.088 126.152 65.04C126.128 65 126.104 64.968 126.08 64.92L125.664 64.992H125.656ZM96.5042 53.992L98.8242 53.584L98.2802 50.504C97.6802 50.488 96.9602 50.448 96.4802 51.096C96.9922 51.384 96.0722 51.064 96.4402 51.632C96.2802 51.576 95.9522 51.584 95.7042 51.504L96.0562 53.52C96.3442 53.504 96.6162 53.456 96.4962 53.992H96.5042ZM60.9282 78.296C60.1922 78.928 59.5922 79.8 59.0722 80.168L59.9682 80.008C59.9682 79.952 59.9682 79.896 59.9362 79.824C60.2802 79.648 60.6242 79.696 60.9762 79.824L61.9442 79.656C61.9442 79.656 61.9522 79.648 61.9602 79.64C60.9202 79.952 61.1682 78.76 60.9362 78.288L60.9282 78.296ZM30.9762 55.168C31.2882 55 31.6162 54.744 31.9122 54.456L30.8642 54.712C30.8802 54.904 30.8642 55.096 30.7522 55.288C30.8162 55.264 30.8722 55.224 30.9362 55.192V55.136C30.9362 55.136 30.9602 55.152 30.9762 55.168ZM57.3682 79.968C57.3122 79.992 57.2322 79.968 57.1202 79.84C57.2082 79.904 57.2882 79.944 57.3682 79.968C57.6082 79.864 57.4402 78.736 57.9682 79.368L57.8962 78.568C57.4082 78.512 56.8482 78.096 56.5122 78.856C56.3522 78.472 56.9762 78.248 57.0162 77.712L56.9362 77.688L57.3362 77.384C57.0562 77.096 56.8802 77.144 56.7282 77.144L56.4562 77.192C56.4562 77.192 56.4562 77.208 56.4562 77.216C56.4562 77.216 56.4482 77.2 56.4482 77.192L55.9042 77.288C55.8002 77.864 55.5362 78.448 56.0802 78.928L55.7042 79.144C55.9042 79.528 55.5442 79.928 56.2802 80.088C55.7922 80.192 55.4322 79.904 55.0962 79.752C55.4882 79.632 55.4402 79.36 55.5682 78.96C55.6082 78.992 55.6242 79.024 55.6482 79.056C55.7042 78.872 55.7762 78.656 55.6882 78.456C55.2082 78.4 55.6642 79.328 55.3442 78.888C55.2082 77.184 54.0562 78.584 53.4002 78.4L53.2642 78.696C53.2882 78.576 53.2322 78.4 53.1202 78.264C53.1122 78.264 53.1042 78.272 53.0962 78.28C52.7762 78.384 52.8322 78.712 52.8402 79.016C52.8322 78.68 52.2162 78.472 52.0482 78.856L52.0802 79.088L50.9442 78.256C51.0962 78.304 51.2242 78.464 51.3522 78.288C51.3442 78.216 51.3282 78.16 51.3042 78.104L47.0002 78.864C46.9202 78.952 46.8242 79.056 46.7202 79.176L46.4802 78.952L46.2322 78.992V79.008C46.2322 79.008 46.2082 79.008 46.2002 79.008L44.9122 79.232C45.0562 79.48 45.6082 78.936 45.8002 79.592L45.2562 79.824C45.1042 80.488 45.9362 79.952 45.5682 80.432C45.5922 80.448 45.6242 80.464 45.6482 80.48L45.4162 80.624C45.4882 80.544 45.5282 80.488 45.5682 80.44C45.0242 80.064 44.0562 80.008 43.4722 79.496L41.3842 79.864L41.3442 79.936C41.4562 80.28 41.7602 79.936 41.8322 79.984L41.4002 80.384C41.7042 81.12 42.3602 79.792 42.7202 80.432L41.9122 81.12L42.0642 81.216L41.1202 81.416C40.7762 80.92 41.3442 81.568 41.3442 81.024C41.0802 80.576 39.9842 81.224 39.2722 81.024L39.5922 80.824C39.2882 80.792 38.6802 80.512 38.0322 80.448L36.9442 80.64C36.9442 80.64 36.8962 80.656 36.8722 80.672C36.8882 80.824 37.1682 80.872 37.3762 80.872C37.4962 81.216 36.5842 81.712 36.2322 82.16C35.6242 82.304 35.7762 81.32 34.9522 81.32L34.9122 82.112C34.3522 81.88 34.4322 81.68 34.3042 81.112L34.1522 81.136C34.0242 81.24 33.9282 81.328 33.8322 81.384C34.2162 81.576 34.5042 81.912 34.6642 82.584L35.5842 82.168V83.008L34.6722 82.736C34.7762 82.936 34.6482 83.28 34.8242 83.384C34.2002 83.496 33.1842 82.72 32.0722 82.464C31.7442 82.688 31.0322 82.464 30.6002 83.096L30.5042 82.36C30.2962 82.36 29.7282 82.8 29.6962 82.512C30.0722 82.76 30.2802 82.208 30.1682 81.872L30.5042 81.792L28.1602 82.208C28.1762 82.28 28.2242 82.416 28.3362 82.712C27.7682 82.616 27.6962 84.192 27.1122 83.4C27.4002 82.904 28.1682 83.008 28.0722 82.264C28.0562 82.256 28.0322 82.24 28.0162 82.224L13.7682 84.736L10.2482 64.792C9.96819 64.864 9.73619 64.936 9.74419 64.776L9.76019 64.928C8.40819 66.096 8.36019 64.488 7.29619 64.632C7.32019 64.664 7.34419 64.696 7.36019 64.744L6.85619 65.032L6.88819 65.224H7.09619C7.04819 65.304 6.98419 65.376 6.92819 65.448L7.20019 66.984C7.60819 66.768 8.00019 66.616 7.88019 66.52C8.32819 66.88 9.39219 66.832 10.0722 66.328L9.92019 66.056C10.0002 66.112 10.3042 66.208 10.2242 66.448C9.46419 66.744 8.40019 67.992 7.56819 67.768C7.87219 67.416 8.02419 67.384 7.88019 66.96C7.72019 67.04 7.48019 67.112 7.24019 67.184L7.71219 69.864H7.76019L7.72019 69.92L8.00019 71.488C8.04819 71.504 8.09619 71.52 8.14419 71.544C8.08819 71.576 8.05619 71.608 8.02419 71.64L8.13619 72.256C8.20819 72.352 8.27219 72.456 8.28819 72.56C8.25619 72.576 8.22419 72.576 8.19219 72.576L10.3682 84.896C11.4082 85.624 12.1442 84.048 12.8322 85.696C13.0402 85.616 13.4802 85.696 13.6242 85.424C13.5842 85.568 13.5362 85.744 13.5522 85.896C13.9362 85.376 14.6322 85.592 15.2402 85.568C15.3602 85.488 15.4962 85.448 15.6482 85.496C15.5202 85.544 15.3842 85.56 15.2402 85.568C15.0082 85.72 14.8322 86.016 14.7602 86.144C15.3202 85.704 15.2482 86.736 15.9282 86.096C15.9282 86.096 15.9122 85.952 15.8402 85.896L16.3362 85.856C16.3362 85.856 16.3762 85.832 16.3922 85.824C16.3922 85.464 16.1442 85.552 16.0562 85.352C16.8482 85.6 17.2562 84.512 18.0162 84.464C18.0242 84.392 18.0242 84.344 18.0162 84.304C17.9682 84.32 17.9202 84.336 17.8642 84.36C17.9442 84.224 18.0002 84.216 18.0162 84.304C19.0002 83.952 18.0162 85.248 18.9922 85.112C18.9202 84.52 19.5202 84.92 19.7282 84.912C19.3922 86.048 18.2242 85.008 18.2082 85.952C17.9442 85.504 17.6562 85.456 17.3602 85.256C17.1922 85.392 16.8162 85.576 16.4002 85.824C16.4002 85.832 16.4002 85.84 16.4002 85.856H16.3442C15.8402 86.168 15.3042 86.584 15.0402 87.136C15.4562 87.68 15.6082 86.688 15.9442 87.184C15.9442 86.64 16.5602 87.184 16.4722 86.44C16.9602 86.488 18.3762 86.192 17.7762 86.344C17.6082 86.64 17.0242 86.936 17.0242 87.48C17.3042 86.984 17.7602 87.448 17.9602 87.416C17.9922 87.384 18.0162 87.368 18.0402 87.336C18.0242 87.392 17.9922 87.408 17.9602 87.416L38.1762 83.856C37.8642 83.456 37.2082 83.272 38.0002 82.352L37.7682 82.752C38.0322 83.2 38.8802 82.256 38.9762 83C38.7682 83 38.6562 83.2 38.4642 83.344C38.3442 83.624 38.3762 83.736 38.4642 83.8L42.4322 83.104C42.7922 82.632 43.6082 82.24 43.4242 82.112C43.8722 82.408 44.8162 82.208 45.3602 81.616L45.1842 81.368C45.2642 81.408 45.5442 81.464 45.5042 81.712C45.3442 81.816 45.1682 81.976 44.9922 82.16C45.2962 81.872 45.7442 81.824 46.1042 81.752L45.7282 81.952L46.2322 82.416L46.7122 82.328C46.6802 82.16 46.5922 81.968 46.6642 81.824C47.0162 81.944 47.1922 81.928 47.3362 82.216L47.4882 82.192C47.4882 82.192 47.4322 82.144 47.4082 82.112L48.1202 81.984C48.0322 82.032 47.9602 82.072 47.8962 82.12L49.4322 81.848C49.3442 81.792 49.2482 81.728 49.1522 81.688V81.704C49.1522 81.704 49.1362 81.688 49.1282 81.672C49.0242 81.624 48.9202 81.608 48.8162 81.64C48.8802 81.6 48.9442 81.568 49.0162 81.528C48.8642 81.336 48.6562 81.12 48.4562 81.464C48.4402 80.8 49.1522 80.936 49.1042 81.136C48.9122 81.224 48.9922 81.352 49.0642 81.496C49.3602 81.32 49.6402 81.104 49.4962 80.744C49.8642 80.408 49.6322 82.088 50.2882 81.368C50.2482 81.512 50.2082 81.624 50.1682 81.72L57.6642 80.4C57.7922 80.24 57.8962 80.048 57.9602 79.832C57.7522 79.992 57.5602 80.048 57.3202 79.96L57.3682 79.968ZM8.38419 70.104C8.76019 69.808 8.74419 70.208 8.70419 70.448C8.87219 70.696 8.16019 70.504 8.38419 70.104ZM7.74419 68.624C8.12819 67.728 9.04019 67.848 9.33619 68.4C8.80019 69.176 8.35219 68.512 7.74419 68.624ZM13.6882 85.28C13.6882 85.24 13.6962 85.192 13.6882 85.144C13.7122 85.16 13.7042 85.216 13.6882 85.28ZM38.3202 81.6L38.7922 82.048L38.8402 82.472L38.3282 81.6H38.3202ZM45.1442 81L45.3042 80.952L45.8242 81.264L45.1522 80.992L45.1442 81ZM46.2722 79.456C46.4562 79.712 47.3522 79 47.5122 79.792C46.9682 79.176 46.6882 80.408 46.2722 79.456ZM48.0882 80.992L48.0082 81.128L47.3922 81.088C47.1842 79.432 47.9762 80.784 48.0882 80.992C48.1042 81.024 48.0882 80.992 48.0882 80.992ZM50.3202 80.376C50.2082 80.032 49.9762 79.88 50.2082 79.488L50.8322 80.032C50.6242 80.032 50.4162 80.032 50.3282 80.376H50.3202ZM50.9202 79.456L50.7922 79.304L51.1922 79L51.2402 79.128L50.9202 79.456ZM54.2722 78.856C54.3042 79.088 54.0962 78.904 54.0962 78.904C54.1602 78.6 54.4402 78.472 54.6402 78.32L54.2722 78.856ZM7.26419 56.48L7.30419 56.192C7.32019 56.328 7.30419 56.416 7.26419 56.48L7.24819 56.6L7.76819 56.704C7.76819 56.704 7.82419 56.688 7.85619 56.688V56.144C8.05619 56.328 7.99219 56.528 7.88019 56.728L8.21619 56.792C8.24819 56.744 8.28019 56.704 8.31219 56.672C8.31219 56.64 8.29619 56.6 8.30419 56.552C8.32019 56.536 8.35219 56.552 8.38419 56.608C8.60819 56.424 8.72019 56.632 8.88019 56.776L6.71219 44.496C6.23219 44.584 5.72019 44.704 5.65619 44.184C6.21619 43.968 6.36019 44.16 6.67219 44.312L5.74419 39.064C5.70419 39.064 5.65619 39.056 5.61619 39.04V39.184C5.08019 38.912 4.56019 38.64 3.94419 39.2L3.80019 38.48L3.04019 38.768C3.04019 38.32 3.87219 38.832 3.72819 38.112C3.24019 37.8 2.72019 38 2.16819 38.224L2.26419 38.752H2.28819L2.26419 38.768L2.92819 42.536H4.00019L3.31219 42.752L3.46419 42.872C3.33619 42.832 3.16019 42.872 2.99219 42.904L5.43219 56.76C5.65619 56.568 5.84819 56.352 6.22419 56.44C6.22419 56.44 6.22419 56.424 6.23219 56.416L6.12819 56.24C6.24819 56.192 6.27219 56.312 6.23219 56.416H6.24019L7.10419 56.576C7.16019 56.552 7.21619 56.528 7.24819 56.48H7.26419ZM6.04019 42.568L5.97619 42.328C6.05619 42.392 6.04819 42.472 6.04019 42.568L6.12819 42.896L5.82419 42.808L6.04819 42.84C6.01619 42.744 6.03219 42.648 6.04019 42.568ZM4.99219 42.736V42.288L5.21619 42.92L4.99219 42.736ZM47.0562 82.272L47.2402 82.24L47.0242 82.168C47.0402 82.208 47.0482 82.24 47.0562 82.28V82.272ZM21.1442 50.16L21.4402 50.104C21.4402 50.104 21.3762 50.048 21.3362 50.016C21.2802 50.016 21.2002 50.056 21.1202 50.096L21.1362 50.152L21.1442 50.16ZM42.5282 83.08L43.5682 82.896C43.5762 82.808 43.5682 82.704 43.4962 82.552C43.2642 82.736 42.8162 82.912 42.5362 83.08H42.5282ZM44.7202 82.696C44.7682 82.496 44.8482 82.344 44.9522 82.224C44.7922 82.392 44.6322 82.568 44.4722 82.736L44.7202 82.696ZM6.52819 56.664C6.52819 56.664 6.58419 56.648 6.60819 56.648C6.56819 56.632 6.51219 56.616 6.48019 56.6C6.50419 56.616 6.51219 56.64 6.52819 56.664ZM11.5922 87.024L11.6082 86.088C11.3522 86.392 11.0082 86.416 10.6722 86.408L11.0642 88.632L12.9922 88.296C13.1042 87.92 13.2482 87.56 13.4962 87.328C12.8002 86.736 12.5362 86.832 11.5922 87.024Z" fill="#FF4527"/>
</g>
<defs>
<clipPath id="clip0_175_3574">
<rect width="160" height="88.624" fill="white"/>
</clipPath>
</defs>
</svg>
