<svg width="26" height="25" viewBox="0 0 26 25" fill="none" xmlns="http://www.w3.org/2000/svg">
<path d="M13.3646 18.66C12.4259 18.66 11.5939 18.4413 10.8686 18.004C10.1539 17.556 9.66861 16.9427 9.41261 16.164L10.6926 15.508C10.8206 15.9027 10.9966 16.2493 11.2206 16.548C11.4446 16.836 11.7379 17.06 12.1006 17.22C12.4739 17.38 12.9379 17.46 13.4926 17.46C13.9619 17.46 14.3566 17.3747 14.6766 17.204C14.9966 17.0333 15.2419 16.804 15.4126 16.516C15.5833 16.2173 15.6686 15.876 15.6686 15.492C15.6686 15.108 15.5939 14.788 15.4446 14.532C15.3059 14.276 15.0819 14.0893 14.7726 13.972C14.4633 13.844 14.0579 13.78 13.5566 13.78C13.4393 13.78 13.3113 13.7853 13.1726 13.796C13.0339 13.796 12.8899 13.8067 12.7406 13.828V12.548C12.8366 12.5587 12.9273 12.564 13.0126 12.564C13.1086 12.564 13.1939 12.564 13.2686 12.564C14.0473 12.564 14.6019 12.4147 14.9326 12.116C15.2633 11.8067 15.4286 11.3267 15.4286 10.676C15.4286 10.1213 15.2579 9.7 14.9166 9.412C14.5753 9.124 14.0899 8.98 13.4606 8.98C12.7886 8.98 12.2766 9.12933 11.9246 9.428C11.5726 9.716 11.2953 10.1107 11.0926 10.612L9.87661 10.036C10.0473 9.588 10.3033 9.19333 10.6446 8.852C10.9859 8.51067 11.3966 8.244 11.8766 8.052C12.3673 7.86 12.9059 7.764 13.4926 7.764C14.2286 7.764 14.8366 7.892 15.3166 8.148C15.7966 8.39333 16.1539 8.724 16.3886 9.14C16.6339 9.556 16.7566 10.0147 16.7566 10.516C16.7566 10.9 16.7033 11.2467 16.5966 11.556C16.4899 11.8547 16.3406 12.116 16.1486 12.34C15.9673 12.564 15.7593 12.7453 15.5246 12.884C15.2899 13.012 15.0393 13.0973 14.7726 13.14V13.172C15.1246 13.1827 15.4339 13.252 15.7006 13.38C15.9779 13.508 16.2126 13.6787 16.4046 13.892C16.5966 14.1053 16.7406 14.3507 16.8366 14.628C16.9433 14.8947 16.9966 15.1773 16.9966 15.476C16.9966 16.0947 16.8419 16.644 16.5326 17.124C16.2339 17.604 15.8126 17.9827 15.2686 18.26C14.7246 18.5267 14.0899 18.66 13.3646 18.66Z" fill="#FFFFFD"/>
<rect x="1.38867" y="0.5" width="24" height="24" rx="12" stroke="#FFFFFD"/>
</svg>
