<svg width="25" height="25" viewBox="0 0 25 25" fill="none" xmlns="http://www.w3.org/2000/svg">
<path d="M9.01994 18.5V17.46C10.0759 16.6813 10.9559 15.9987 11.6599 15.412C12.3746 14.8253 12.9453 14.292 13.3719 13.812C13.7986 13.332 14.1026 12.8787 14.2839 12.452C14.4653 12.0147 14.5559 11.5613 14.5559 11.092C14.5559 10.4627 14.3533 9.956 13.9479 9.572C13.5533 9.17733 13.0093 8.98 12.3159 8.98C11.5906 8.98 11.0093 9.22 10.5719 9.7C10.1346 10.1693 9.8786 10.7987 9.80394 11.588L8.68394 10.916C8.77994 10.2973 8.97727 9.75333 9.27594 9.284C9.58527 8.81467 9.99594 8.44667 10.5079 8.18C11.0306 7.91333 11.6493 7.78 12.3639 7.78C12.9079 7.78 13.3933 7.86 13.8199 8.02C14.2573 8.18 14.6306 8.40933 14.9399 8.708C15.2493 8.996 15.4839 9.34267 15.6439 9.748C15.8146 10.1533 15.8999 10.6013 15.8999 11.092C15.8999 11.7533 15.7399 12.404 15.4199 13.044C15.0999 13.6733 14.5719 14.3347 13.8359 15.028C13.0999 15.7213 12.1026 16.4893 10.8439 17.332V17.348C10.9613 17.3373 11.1213 17.332 11.3239 17.332C11.5373 17.3213 11.7453 17.316 11.9479 17.316C12.1613 17.3053 12.3213 17.3 12.4279 17.3H16.1239V18.5H9.01994Z" fill="#FFFFFD"/>
<rect x="0.5" y="0.5" width="24" height="24" rx="12" stroke="#FFFFFD"/>
</svg>
