<svg width="139" height="30" viewBox="0 0 139 30" fill="none" xmlns="http://www.w3.org/2000/svg">
<path d="M35.8638 0.0119976H42.9175C43.0466 0.401647 43.1342 0.803771 43.1788 1.21176C43.1997 5.29994 43.1788 9.39112 43.1788 13.4823V14.4211C43.479 14.1422 43.6742 13.9892 43.8484 13.8212C47.9083 9.92202 51.9562 5.9838 56.0431 2.09658C56.6664 1.52499 57.3669 1.04338 58.1241 0.665867C58.7487 0.341932 59.4754 0.215957 60.1601 0H67.5108C68.1537 0.479904 68.1537 0.638873 67.4631 1.32873L54.5957 14.1902C54.4095 14.3761 54.2324 14.5741 54.0371 14.79C54.2414 15.003 54.3915 15.168 54.5506 15.3239L67.7631 28.5813C68.472 29.2921 68.457 29.4811 67.6704 30H60.4633C60.3014 29.9408 60.1359 29.8917 59.9678 29.853C58.4573 29.6137 57.0613 28.9029 55.9801 27.8224C51.9742 23.8452 47.9113 19.928 43.8694 15.9868C43.6863 15.8098 43.491 15.6419 43.1848 15.3629V16.3557C43.1848 20.4979 43.1848 24.6431 43.1848 28.7852C43.1402 29.1932 43.0526 29.5954 42.9235 29.985H35.8638C35.4013 29.6101 35.2872 29.1212 35.2872 28.5363C35.3032 19.5381 35.3032 10.5399 35.2872 1.54169C35.2621 1.25982 35.3009 0.975964 35.4007 0.711131C35.5005 0.446297 35.6588 0.207368 35.8638 0.0119976Z" fill="white"/>
<path d="M7.50723 29.988H0V0.0119781H7.50723C7.63933 0.476885 7.88256 0.938793 7.88556 1.4037C7.91562 5.44089 7.90355 9.48108 7.90655 13.5183C7.90655 13.7732 7.93062 14.0252 7.94861 14.4001C8.2339 14.1422 8.40207 14.0012 8.54918 13.8482C12.1166 10.3959 15.7051 6.94959 19.2394 3.47929C20.834 1.9106 22.4225 0.389903 24.7528 0.0119781H32.1038C32.7044 0.497881 32.7044 0.662848 32.0617 1.29872C29.2731 4.09818 26.4794 6.88463 23.6807 9.65805C21.9811 11.3497 20.2785 13.0324 18.4227 14.874C18.6843 15.0244 18.9324 15.197 19.1644 15.3899C23.5566 19.789 27.9468 24.1931 32.335 28.6023C32.9986 29.2681 32.9837 29.4511 32.2539 29.988H24.9119C24.7808 29.9242 24.6442 29.8731 24.5035 29.835C23.0444 29.5833 21.6999 28.8841 20.6568 27.8344C16.678 23.8692 12.6421 19.955 8.61823 16.0198C8.42906 15.8368 8.2279 15.6658 7.89156 15.3569V16.3137C7.89156 20.4079 7.89156 24.5021 7.87356 28.6113C7.88256 29.0612 7.63933 29.5231 7.50723 29.988Z" fill="white"/>
<path d="M117.338 29.988C116.914 29.3611 116.392 28.7882 116.089 28.1014C112.129 19.2291 108.185 10.3499 104.257 1.46369C104.029 0.950791 103.9 0.488883 104.285 0.0119781H112.236C112.641 0.557869 113.178 1.04977 113.437 1.65865C115.866 7.53147 118.242 13.4253 120.644 19.3101C120.752 19.5711 120.869 19.829 121.028 20.1889C121.188 19.841 121.299 19.6221 121.391 19.3941C123.794 13.5093 126.172 7.61846 128.599 1.74563C128.863 1.10976 129.394 0.587863 129.8 0.0119781H138.043V1.05877C137.932 1.28072 137.812 1.49668 137.712 1.72464C133.777 10.5669 129.837 19.4091 125.893 28.2513C125.593 28.8812 125.094 29.4091 124.692 29.985L117.338 29.988Z" fill="white"/>
<path d="M100.984 0.0119952C101.981 0.458906 102.294 1.21176 102.185 2.29454C102.112 3.31604 102.112 4.34142 102.185 5.36292C102.223 5.66266 102.146 5.96567 101.971 6.21141C101.795 6.45716 101.533 6.62758 101.236 6.68866C100.851 6.79337 100.452 6.84286 100.053 6.83563C97.5546 6.83563 95.0535 6.83563 92.5463 6.83563H91.6451V7.77744C91.6451 14.5961 91.6451 21.4127 91.6451 28.2274C91.6451 29.7271 91.8223 29.4271 90.4801 29.982H82.0722C81.9277 29.5861 81.6605 29.1902 81.6578 28.7822C81.6339 21.7996 81.6394 14.814 81.6394 7.82843V6.84163H72.2615C70.9131 6.84163 70.5893 6.5087 70.5893 5.15597C70.5893 4.05819 70.6282 2.95741 70.5893 1.85663C70.5436 1.49997 70.5989 1.13772 70.7481 0.810722C70.8981 0.483651 71.136 0.20498 71.436 0.0059967L100.984 0.0119952Z" fill="white"/>
</svg>
