<?xml version="1.0" encoding="UTF-8"?><svg id="a" xmlns="http://www.w3.org/2000/svg" viewBox="0 0 120 160"><defs><style>.b{stroke:#10ffa2;stroke-width:5px;}</style></defs><path class="b" d="M110.78,102.27c0,8.46-1.51,15.82-4.54,22.07s-7.15,11.43-12.35,15.53c-5.21,4.1-11.33,7.16-18.36,9.18-7.03,2.02-14.55,3.03-22.56,3.03-3.84,0-7.62-.28-11.33-.83s-7.37-1.3-10.99-2.25c-3.61-.94-7.19-2.03-10.74-3.27-3.55-1.24-7.11-2.57-10.69-4l3.71-38.87c2.34,1.3,4.85,2.51,7.52,3.61,2.67,1.11,5.42,2.05,8.25,2.83s5.7,1.4,8.59,1.86c2.9,.46,5.71,.68,8.45,.68,1.63,0,3.61-.15,5.96-.44s4.59-.85,6.74-1.66c2.15-.81,3.99-1.92,5.52-3.32,1.53-1.4,2.29-3.24,2.29-5.52,0-2.15-.6-4-1.81-5.57-1.21-1.56-2.77-2.85-4.69-3.86-1.92-1.01-4.09-1.81-6.49-2.39-2.41-.59-4.83-1.04-7.28-1.37-2.44-.33-4.75-.52-6.93-.59-2.18-.06-3.99-.1-5.42-.1-2.93,0-5.91,.13-8.94,.39-3.03,.26-5.97,.78-8.84,1.56L19.77,10.08l79.1-2.15,2.15,40.82-49.02-2.73-.98,17.38c2.93-.72,5.86-1.25,8.79-1.61,2.93-.36,5.86-.54,8.79-.54,5.92,0,11.44,.96,16.55,2.88,5.11,1.92,9.57,4.67,13.38,8.25,3.81,3.58,6.8,7.89,8.98,12.94,2.18,5.05,3.27,10.69,3.27,16.94Z"/></svg>