<?xml version="1.0" encoding="UTF-8"?><svg id="a" xmlns="http://www.w3.org/2000/svg" viewBox="0 0 120 160"><defs><style>.b{stroke:#10ffa2;stroke-width:5px;}</style></defs><path class="b" d="M114.98,101c0,7.94-1.4,15.15-4.2,21.63-2.8,6.48-6.66,12.01-11.57,16.6-4.92,4.59-10.76,8.15-17.53,10.69-6.77,2.54-14.1,3.81-21.97,3.81-6.45,0-12.26-.88-17.43-2.64s-9.8-4.2-13.87-7.32c-4.07-3.12-7.57-6.84-10.5-11.13s-5.36-8.95-7.28-13.96c-1.92-5.01-3.34-10.32-4.25-15.92-.91-5.6-1.37-11.26-1.37-16.99,0-7.03,.52-13.88,1.56-20.56,1.04-6.67,2.65-12.94,4.83-18.8,2.18-5.86,5-11.26,8.45-16.21,3.45-4.95,7.55-9.18,12.3-12.7,4.75-3.52,10.21-6.27,16.36-8.25,6.15-1.99,13.07-2.98,20.75-2.98,2.8,0,5.66,.11,8.59,.34,2.93,.23,5.86,.63,8.79,1.22s5.78,1.37,8.54,2.34c2.77,.98,5.39,2.21,7.86,3.71l-2.93,38.48c-4.62-2.28-9.62-4.02-14.99-5.22-5.37-1.2-10.6-1.81-15.67-1.81-4.04,0-7.52,.6-10.45,1.81-2.93,1.21-5.4,2.91-7.42,5.13-2.02,2.21-3.6,4.87-4.74,7.96-1.14,3.09-1.87,6.53-2.2,10.3,4.3-2.47,8.89-4.43,13.77-5.86,4.88-1.43,9.86-2.15,14.94-2.15,5.73,0,11.13,.88,16.21,2.64s9.49,4.3,13.23,7.62c3.74,3.32,6.71,7.36,8.89,12.11,2.18,4.75,3.27,10.12,3.27,16.11Zm-37.11,2.93c0-2.02-.44-3.82-1.32-5.42-.88-1.59-2.02-2.96-3.42-4.1-1.4-1.14-3.01-2.02-4.83-2.64-1.82-.62-3.65-.93-5.47-.93s-3.61,.31-5.37,.93c-1.76,.62-3.34,1.5-4.74,2.64-1.4,1.14-2.54,2.51-3.42,4.1-.88,1.6-1.32,3.4-1.32,5.42s.44,3.73,1.32,5.32c.88,1.6,2.02,2.95,3.42,4.05,1.4,1.11,2.98,1.97,4.74,2.59,1.76,.62,3.55,.93,5.37,.93s3.65-.31,5.47-.93c1.82-.62,3.43-1.48,4.83-2.59,1.4-1.11,2.54-2.46,3.42-4.05,.88-1.59,1.32-3.37,1.32-5.32Z"/></svg>