<?xml version="1.0" encoding="UTF-8"?><svg id="a" xmlns="http://www.w3.org/2000/svg" viewBox="0 0 120 160"><defs><style>.b{stroke:#10ffa2;stroke-width:5px;}</style></defs><path class="b" d="M112.64,71.6c0,6.19-.49,12.42-1.46,18.7-.98,6.28-2.49,12.37-4.54,18.26-2.05,5.89-4.67,11.41-7.86,16.55-3.19,5.14-7,9.62-11.43,13.43-4.43,3.81-9.52,6.82-15.28,9.03-5.76,2.21-12.22,3.32-19.38,3.32-3.12,0-6.4-.15-9.81-.44s-6.8-.78-10.16-1.46c-3.35-.68-6.62-1.63-9.81-2.83-3.19-1.2-6.09-2.75-8.69-4.64l5.08-36.91c2.02,1.17,4.3,2.26,6.84,3.27,2.54,1.01,5.14,1.9,7.81,2.69,2.67,.78,5.34,1.38,8.01,1.81,2.67,.42,5.21,.63,7.62,.63,3.78,0,7.05-.54,9.81-1.61,2.77-1.07,5.11-2.62,7.03-4.64,1.92-2.02,3.47-4.44,4.64-7.28s2.02-6.01,2.54-9.52c-3.91,2.08-8.01,3.68-12.3,4.79-4.3,1.11-8.66,1.66-13.09,1.66-5.47,0-10.68-.85-15.62-2.54-4.95-1.69-9.28-4.12-12.99-7.28-3.71-3.16-6.67-7.01-8.89-11.57-2.21-4.56-3.32-9.73-3.32-15.53,0-7.42,1.35-14.22,4.05-20.41,2.7-6.18,6.4-11.49,11.08-15.92,4.69-4.43,10.24-7.88,16.65-10.35,6.41-2.47,13.33-3.71,20.75-3.71,9.05,0,16.88,1.68,23.49,5.03,6.61,3.35,12.08,7.88,16.41,13.57,4.33,5.7,7.55,12.32,9.67,19.87,2.12,7.55,3.17,15.56,3.17,24.02Zm-40.43-14.26c0-1.95-.44-3.71-1.32-5.27s-2-2.9-3.37-4c-1.37-1.11-2.93-1.95-4.69-2.54s-3.52-.88-5.27-.88-3.48,.28-5.18,.83c-1.69,.55-3.22,1.37-4.59,2.44s-2.46,2.38-3.27,3.91c-.81,1.53-1.22,3.24-1.22,5.13s.44,3.61,1.32,5.18,2,2.9,3.37,4c1.37,1.11,2.93,1.97,4.69,2.59,1.76,.62,3.52,.93,5.27,.93s3.48-.29,5.18-.88c1.69-.59,3.22-1.42,4.59-2.49s2.46-2.36,3.27-3.86c.81-1.5,1.22-3.19,1.22-5.08Z"/></svg>