<?xml version="1.0" encoding="UTF-8"?><svg id="a" xmlns="http://www.w3.org/2000/svg" viewBox="0 0 170 160"><defs><style>.b{stroke:#10ffa2;stroke-width:4.65px;}</style></defs><path class="b" d="M64.22,17.51l-4.53,124.98-34.06-1.76,1.88-83.14-12.5,9.67L3.28,37.2,28.75,15.75l35.47,1.76Z"/><path class="b" d="M166.72,80.97c0,5.16-.51,10.28-1.52,15.38s-2.49,9.99-4.41,14.68c-1.93,4.69-4.29,9.05-7.07,13.1-2.79,4.04-5.98,7.56-9.57,10.55s-7.54,5.33-11.84,7.03c-4.3,1.7-8.92,2.55-13.87,2.55s-9.66-.85-13.98-2.55c-4.32-1.7-8.27-4.04-11.84-7.03-3.57-2.99-6.76-6.5-9.57-10.55s-5.18-8.41-7.11-13.1c-1.93-4.69-3.4-9.59-4.41-14.72-1.02-5.13-1.52-10.24-1.52-15.34s.51-10.22,1.52-15.38c1.02-5.16,2.49-10.08,4.41-14.77,1.93-4.69,4.3-9.07,7.11-13.14,2.81-4.07,6-7.6,9.57-10.59,3.57-2.99,7.53-5.33,11.88-7.03,4.35-1.7,9-2.55,13.95-2.55s9.57,.85,13.87,2.55c4.3,1.7,8.24,4.04,11.84,7.03s6.78,6.52,9.57,10.59c2.79,4.07,5.14,8.45,7.07,13.14,1.93,4.69,3.4,9.61,4.41,14.77,1.02,5.16,1.52,10.28,1.52,15.38Zm-32.97,2.64c0-2.58-.31-5.45-.94-8.61s-1.59-6.12-2.89-8.88c-1.3-2.75-2.97-5.07-5-6.94-2.03-1.87-4.45-2.81-7.27-2.81s-5.31,.94-7.34,2.81c-2.03,1.88-3.71,4.19-5.04,6.94-1.33,2.75-2.3,5.71-2.93,8.88s-.94,6.04-.94,8.61,.31,5.45,.94,8.61,1.6,6.12,2.93,8.88c1.33,2.75,3.01,5.07,5.04,6.94,2.03,1.88,4.48,2.81,7.34,2.81s5.23-.94,7.27-2.81c2.03-1.88,3.7-4.19,5-6.94,1.3-2.75,2.27-5.71,2.89-8.88s.94-6.03,.94-8.61Z"/></svg>