<svg width="300" height="393" viewBox="0 0 300 393" fill="none" xmlns="http://www.w3.org/2000/svg">
<g clip-path="url(#clip0_230_61)">
<path d="M269.109 309.97C269.109 309.97 93.3262 404.734 65.9331 243.874C64.3967 152.345 101.793 143.225 110.504 179.052C122.632 220.91 130.591 236.257 130.591 236.257C130.591 236.257 152.558 153.391 165.584 149.485C178.725 155.157 203.569 278.622 214.634 277.069C227.938 275.206 230.21 181.814 246.554 181.34C255.429 181.34 266.788 286.418 287.513 247.404C299.232 211.267 305.198 119.297 221.417 89.763C122.484 61.1114 64.2169 114.639 38.7034 150.204C10.7547 189.578 -26.5594 304.707 76.2463 374.546C96.072 383.323 121.585 391.103 134.514 388.766C198.894 380.986 239.608 358.3 269.126 309.97H269.109Z" fill="url(#paint0_linear_230_61)"/>
<path d="M134.497 389.779C84.876 389.779 41.629 358.807 22.784 324.238C22.7676 324.189 22.7349 324.157 22.7186 324.108C-11.9641 250.869 5.54071 195.608 26.9354 160.027C60.8009 103.672 115.489 76.6055 158.099 76.6055C215.255 76.6055 260.627 95.9898 281.531 134.039C306.08 178.741 296.551 238.512 284.767 256.704C282.283 260.528 279.766 262.326 277.249 262.163L276.758 262.13L276.366 261.852C264.206 253.484 258.436 225.617 253.795 203.241C251.163 190.542 245.475 175.26 242.501 174.541C242.354 174.492 241.945 174.639 241.324 175.309C241.209 201.427 228.297 277.477 215.516 280.599C212.77 281.253 210.286 279.422 208.063 275.14L207.916 274.764C181.226 173.92 172.907 150.809 165.601 149.468C163.133 149.027 161.204 151.397 158.948 154.568L158.638 155.009C155.369 163.623 154.094 175.374 150.351 188.907C140.725 223.737 135.936 239.019 130.46 239.019C127.355 239.019 126.227 234.818 125.786 233.233C124.74 229.392 123.71 225.208 122.648 220.893C117.63 200.544 107.186 165.421 94.8134 159.112C94.3394 158.866 93.7674 158.866 93.277 159.095C65.933 171.435 70.2315 241.618 72.2419 250.182C72.4544 251.081 72.7322 253.974 71.9477 254.464C70.967 254.481 70.1988 252.16 70.0191 251.457C66.93 239.297 62.1411 170.798 93.4078 155.091L94.0289 154.862L94.6499 155.075C109.621 160.354 120.49 196.932 126.194 220.011C127.257 224.293 128.27 228.444 129.316 232.269L129.349 232.367C129.79 233.952 131.964 234.181 132.7 232.71C136.573 225.094 142.604 203.241 146.837 187.927C150.809 173.56 151.969 162.233 155.32 153.473L155.549 153.048L155.99 152.427C158.115 149.452 161.286 144.974 166.271 145.856C174.116 147.295 181.961 162.413 211.348 273.391C211.381 273.538 211.446 273.685 211.528 273.832C212.934 276.415 214.078 277.183 214.666 277.036C223.035 274.993 237.679 209.109 237.679 174.606V173.952L238.088 173.446C239.788 171.37 241.553 170.536 243.383 170.978C248.368 172.187 253.206 182.272 257.39 202.489C261.689 223.23 266.984 248.809 276.987 257.668C277.641 258.24 278.638 258.24 279.292 257.668C279.995 257.063 280.812 256.115 281.727 254.693C293.103 237.123 302.223 179.231 278.36 135.772C258.109 98.9155 215.533 80.2339 160.338 80.2339C159.635 80.2339 158.948 80.2339 158.246 80.2339C117.516 82.0972 63.3342 106.63 30.1226 161.874C9.20184 196.687 -7.91066 250.722 26.0365 322.408C26.0528 322.457 26.0855 322.489 26.1019 322.538C44.4075 356.077 86.7229 386.347 135.576 386.085C192.83 385.726 243.857 357.826 269.175 309.921L270.678 310.722C238.137 361.65 194.22 389.37 135.592 389.746C135.249 389.746 134.906 389.746 134.563 389.746L134.497 389.779Z" fill="#231815"/>
<path d="M131.752 386.952C104.996 386.886 78.5345 377.782 57.1561 361.732C47.7255 354.655 39.2591 346.238 32.4108 336.644C24.157 325.105 18.9758 311.67 14.6772 298.235C6.73391 273.342 3.95537 246.783 8.17221 220.91C11.4411 200.855 18.8287 181.683 29.1256 164.211C42.4136 141.656 60.2942 121.765 81.7707 106.728C100.011 93.947 120.948 84.5326 143.013 80.9532C154.307 79.1227 165.715 79.2371 177.107 80.0216C190.068 80.9042 202.964 82.9309 215.484 86.4776C236.437 92.4433 256.606 102.904 270.286 119.853C286.107 139.45 292.58 165.535 293.593 190.28C294.083 202.048 293.348 213.914 291.272 225.519C289.736 234.1 287.578 242.844 283.607 250.656C281.711 254.399 278.818 259.695 273.996 259.302L275.827 260.071C275.418 259.793 275.582 259.891 275.418 259.776C275.451 259.809 275.108 259.499 275.336 259.727C274.601 258.976 274.307 258.681 273.669 257.831C272.345 256.083 271.234 254.154 270.237 252.209C267.802 247.387 265.971 242.272 264.402 237.123C260.839 225.519 258.894 213.571 256.034 201.803C254.596 195.936 252.83 190.084 250.509 184.511C248.761 180.278 246.636 176.175 242.909 173.348C241.667 172.4 238.643 170.504 238.153 173.217C237.908 174.557 238.088 176.11 238.039 177.483C237.875 180.931 237.597 184.38 237.271 187.812C235.554 205.611 232.596 223.394 228.526 240.817C226.696 248.646 224.636 256.475 221.776 263.993C220.125 268.341 218.148 273.98 214.323 276.938C213.604 277.494 212.999 277.821 212.084 277.902C211.757 277.935 211.169 277.739 210.891 277.821C210.074 278.033 212.182 279.161 212.051 278.785C212.002 278.638 211.822 278.523 211.773 278.376C211.561 277.788 211.103 277.281 210.891 276.676C210.548 275.712 210.351 274.682 210.09 273.685C208.276 266.854 206.445 260.005 204.615 253.19C201.526 241.716 198.404 230.242 195.168 218.801C190.951 203.813 186.701 188.793 181.536 174.116C179.15 167.333 176.715 160.011 172.449 154.127C170.52 151.463 168.02 148.848 165.012 147.393C163.28 146.543 161.466 146.347 159.749 147.491C155.304 150.482 154.192 156.023 153.016 160.861C151.479 167.235 150.335 173.691 148.831 180.065C147.148 187.191 145.056 194.252 143.046 201.296C140.496 210.237 138.028 219.357 134.334 227.905C133.37 230.144 132.307 232.481 130.722 234.345C130.232 234.917 129.676 235.489 129.022 235.865C128.63 236.094 127.6 235.946 127.273 236.175C127.813 235.783 130.428 239.951 129.676 237.924C129.512 237.483 129.3 237.041 129.153 236.6C128.744 235.391 128.466 234.149 128.14 232.906C127.273 229.572 126.456 226.222 125.623 222.887C124.446 218.115 123.155 213.359 121.798 208.635C118.823 198.338 115.44 188.041 110.831 178.333C107.006 170.275 101.972 161.76 94.0289 157.15C93.13 156.627 92.0676 156.006 90.9889 156.137C90.1717 156.252 89.2891 156.807 88.5863 157.199C87.2624 157.935 86.0202 158.834 84.8598 159.815C82.3754 161.956 80.3324 164.587 78.6326 167.398C74.7426 173.838 72.5035 181.226 70.9181 188.532C67.6492 203.568 67.0445 219.275 67.7636 234.606C67.9597 238.856 68.1722 243.187 68.9731 247.387C69.0548 247.812 69.1529 248.237 69.2019 248.679C69.2673 249.218 69.3 249.79 69.2836 250.346C69.2836 250.64 69.2019 250.951 69.2019 251.245C69.2019 253.517 73.3043 253.108 73.6476 255.2C73.5005 254.285 72.9774 253.32 72.7813 252.356C72.3564 250.199 72.0785 248.025 71.8333 245.851C70.2153 231.108 70.4441 215.908 72.6996 201.231C74.9551 186.554 79.7767 169.131 92.705 160.06C93.3752 159.586 94.0616 159.144 94.7644 158.736C95.1403 158.507 95.5326 158.311 95.9249 158.098C96.0883 158 96.2518 157.886 96.4315 157.837C96.9055 157.706 96.0883 157.722 96.5786 157.755C97.0853 157.772 97.8045 158.246 98.2458 158.491C98.4746 158.621 98.9813 158.981 99.0957 159.079C99.5697 159.471 99.6841 159.586 100.305 160.272C100.567 160.55 101.466 161.629 101.972 162.315C103.214 163.966 104.326 165.748 105.356 167.545C110.602 176.633 114.132 186.783 117.254 196.769C118.823 201.803 120.262 206.886 121.585 211.986C123.138 217.951 124.315 224.048 126.146 229.932C126.995 232.678 129.954 235.57 132.732 236.42C135.004 237.107 135.805 235.407 136.573 233.658C138.453 229.343 139.891 224.832 141.297 220.354C144.892 208.962 148.243 197.407 151.12 185.818C152.656 179.624 153.849 173.364 155.238 167.137C156.252 162.577 157.102 157.69 159.946 153.898C162.038 151.103 165.11 147.851 169 148.799C169.262 148.864 169.523 148.978 169.785 149.06C169.017 148.831 169.572 148.929 170.014 149.207C169.589 148.929 169.229 148.733 169.736 149.06C170.128 149.322 168.755 148.325 169.393 148.831C170.112 149.371 168.608 148.161 169.017 148.521C169.638 149.044 169.115 148.586 168.706 148.21C168.853 148.341 169 148.488 169.131 148.635C169.425 148.962 168.379 147.72 169 148.488C169.131 148.651 169.262 148.831 169.409 148.995C170.014 149.714 169.082 148.488 169.442 149.044C170.095 150.041 170.766 151.038 171.354 152.084C170.962 151.381 171.419 152.214 171.55 152.46C171.73 152.803 171.91 153.162 172.089 153.506C172.449 154.225 172.809 154.944 173.152 155.663C174.966 159.537 176.519 163.541 178.006 167.562C183.171 181.634 187.404 196.05 191.555 210.449C194.775 221.612 197.864 232.792 200.921 244.004C202.768 250.82 204.598 257.635 206.412 264.451C207.279 267.703 207.769 271.201 209.714 274.012C211.218 276.186 213.964 279.422 216.742 279.864C220.305 280.436 222.757 272.983 223.688 270.678C226.63 263.389 228.69 255.739 230.586 248.123C235.391 228.804 238.856 208.946 240.294 189.087C240.458 186.815 240.588 184.56 240.67 182.288C240.703 181.324 240.736 180.376 240.752 179.411C240.752 178.66 240.507 177.303 240.768 176.584C241.487 174.672 244.168 173.658 245.982 173.903C246.227 173.936 246.047 173.936 245.966 173.871C245.59 173.609 245.917 173.838 245.982 173.887C245.688 173.658 245.394 173.446 245.116 173.217C245.704 173.691 244.462 172.71 245.099 173.201C244.413 172.678 245.198 173.331 245.394 173.593C245.099 173.201 245.655 174.001 245.737 174.132C245.966 174.492 246.195 174.835 246.391 175.211C246.848 176.028 247.257 176.878 247.633 177.712C248.614 179.869 249.431 182.092 250.166 184.331C252.16 190.411 253.484 196.671 254.792 202.931C257.26 214.781 259.728 226.761 263.846 238.169C265.579 242.958 267.622 247.747 270.515 251.98C271.904 254.007 273.473 255.903 275.238 257.619C277.004 259.335 280.027 262.261 282.446 260.316C285.012 258.256 286.63 254.35 287.905 251.375C289.376 247.976 290.537 244.429 291.517 240.866C294.051 231.632 295.489 222.086 296.094 212.541C297.565 189.561 294.41 165.731 284.767 144.696C276.105 125.769 261.754 110.046 244.152 99.0137C226.549 87.9813 204.467 81.4109 182.975 78.8938C171.812 77.5863 160.305 76.8181 149.093 77.9295C140.251 78.8121 131.506 80.6427 122.991 83.2087C103.476 89.0927 85.154 98.8012 69.1202 111.354C51.0434 125.508 35.9576 143.29 24.6309 163.247C15.7396 178.905 9.26728 195.919 6.01476 213.653C1.91233 235.93 3.12181 258.861 8.58082 280.795C11.9314 294.296 16.6386 307.682 22.7677 320.185C27.3768 329.599 34.2904 338.18 41.4656 345.764C57.5811 362.811 78.0932 376.05 100.485 383.176C122.877 390.302 147.72 390.384 171.092 385.677C192.602 381.345 213.326 372.683 231.125 359.804C248.189 347.464 262.261 331.332 272.133 312.732L270.727 312.52L272.231 313.32L267.54 308.107C255.707 326.592 241.373 343.639 223.868 357.009C207.426 369.594 188.483 378.518 168.281 383.078C156.284 385.775 143.994 387.001 131.719 387.001C130.411 387.001 132.765 389.697 132.961 389.894C133.942 390.907 135.658 392.672 137.227 392.672C158.703 392.672 180.131 388.815 199.875 380.218C219.619 371.621 236.012 359.215 250.264 343.966C259.025 334.601 266.739 324.304 273.653 313.517C274.617 312.013 269.959 308.826 268.962 308.303L267.459 307.502C267.344 307.436 266.249 306.897 266.053 307.289C252.83 332.182 232.106 352.367 207.164 365.41C194.465 372.062 180.817 376.818 166.794 379.744C152.117 382.816 136.737 384.189 121.782 382.865C92.3455 380.283 63.8246 366.456 43.7211 344.783C39.3408 340.06 35.3855 334.911 31.9532 329.469C27.5729 322.522 24.5002 314.775 21.6236 307.11C15.7723 291.566 11.8006 275.304 10.4114 258.747C8.25393 232.923 12.7486 207.033 23.3234 183.399C34.5193 158.376 51.6644 135.903 72.9611 118.627C93.0319 102.348 116.976 90.4329 142.408 85.4316C155.402 82.8819 168.363 82.8001 181.536 83.8789C196.05 85.072 210.482 87.8015 224.195 92.7211C235.783 96.8889 247.224 102.871 256.459 110.749C265.693 118.627 273.261 128.924 278.524 140.234C290.635 166.287 292.841 197.129 287.725 225.192C286.058 234.377 283.737 244.462 278.442 252.34C277.952 253.075 277.429 253.778 276.824 254.416C276.628 254.628 276.383 254.808 276.203 255.02L275.598 255.314L277.38 256.655C278.05 257.145 277.167 256.36 277.347 256.606C277.559 256.883 277.004 256.213 276.971 256.164C276.53 255.625 276.121 255.069 275.729 254.497C274.029 251.964 272.705 249.202 271.528 246.39C268.619 239.444 266.609 232.122 264.843 224.8C262.915 216.824 261.411 208.766 259.581 200.773C258.028 193.942 256.246 186.946 253.19 180.621C250.967 176.028 247.666 171.533 243.056 169.098C240.834 167.921 238.496 167.709 236.404 169.376C235.456 170.128 234.623 170.912 234.508 172.106C234.394 173.299 234.508 174.524 234.459 175.701C234.149 188.123 232.547 200.545 230.537 212.803C228.494 225.29 225.96 237.744 222.577 249.953C221.269 254.693 219.831 259.417 218.066 264.01C216.938 266.935 215.729 270.041 213.8 272.541C213.326 273.162 212.378 273.914 212.051 274.192C211.986 274.241 211.806 274.208 211.757 274.258C211.397 274.617 215.14 277.919 214.683 276.17C214.389 275.042 213.898 273.882 213.588 272.721C212.983 270.433 212.378 268.145 211.757 265.873C209.485 257.341 207.181 248.826 204.843 240.31C198.829 218.458 192.83 196.508 185.312 175.129C182.305 166.548 179.232 156.889 173.283 149.796C171.092 147.197 168.248 144.549 164.963 143.438C161.449 142.244 158.066 143.683 155.598 146.298C153.784 148.226 152.329 150.269 151.496 152.77C150.45 155.892 149.665 159.095 148.962 162.315C147.099 170.635 145.465 178.986 143.193 187.208C141.15 194.595 139.09 201.999 136.884 209.338C135.053 215.434 133.223 221.612 130.755 227.496C130.395 228.363 130.019 229.752 129.333 230.438C129.104 230.667 128.712 230.7 128.515 230.896C131.752 227.823 132.879 237.221 132.209 234.05C131.964 232.874 131.588 231.73 131.294 230.569C130.313 226.745 129.398 222.887 128.417 219.063C125.018 205.726 121.144 192.356 115.522 179.771C110.929 169.507 104.244 157.281 93.2607 152.737C92.4108 152.378 91.6753 152.002 90.7764 152.247C89.6977 152.541 88.6353 153.326 87.6873 153.914C85.7914 155.124 84.0262 156.562 82.4245 158.147C79.0739 161.482 76.4261 165.47 74.3013 169.67C69.5451 179.134 67.2079 189.774 65.884 200.234C64.5601 210.694 64.315 220.403 64.7562 230.471C65.0341 236.764 65.1322 243.743 67.0281 249.806C67.4857 251.261 68.2212 252.536 69.2346 253.68C70.0518 254.612 73.0428 257.88 74.6446 257.325C76.2463 256.769 75.4618 253.418 75.233 252.193C74.808 249.904 74.5955 247.584 74.3994 245.263C73.6966 236.698 73.6312 228.052 74.0235 219.455C74.4975 208.978 75.6416 198.404 78.4201 188.27C80.741 179.787 84.3694 170.684 91.3321 164.93C92.6887 163.819 94.699 162.103 96.4806 161.792C97.069 161.694 96.1373 161.727 96.6113 161.727C96.7094 161.727 97.4612 162.25 96.7421 161.809C96.9055 161.907 97.4285 162.185 96.6931 161.76C96.8565 161.858 97.1017 162.103 97.2161 162.234C96.4642 161.482 97.8698 162.936 97.6737 162.708C97.7881 162.822 98.4582 163.639 98.7524 164.031C102.283 168.624 104.783 174.1 107.023 179.428C112.253 191.8 116.028 204.81 119.265 217.837C120.311 222.07 121.34 226.303 122.484 230.504C123.285 233.446 124.397 235.93 126.57 238.137C129.12 240.719 132.977 243.432 136.132 240.474C138.289 238.431 139.548 235.358 140.676 232.678C142.8 227.611 144.451 222.332 146.053 217.069C148.472 209.142 150.695 201.166 152.901 193.19C155.108 185.214 156.807 176.453 158.703 168.052C159.455 164.734 160.044 160.779 161.613 157.739C162.806 155.418 165.208 152.476 167.938 152.264C168.101 152.264 168.265 152.394 168.428 152.411C168.87 152.443 167.725 152.067 168.428 152.411C168.396 152.411 167.578 151.871 168.265 152.329C167.006 151.479 167.513 151.79 167.791 152.002C168.265 152.378 166.728 151.087 167.35 151.642C167.971 152.198 166.402 150.678 167.153 151.463C167.578 151.92 166.385 150.547 167.153 151.479C167.84 152.313 166.859 150.989 167.268 151.61C167.464 151.92 167.693 152.214 167.889 152.525C168.085 152.836 168.298 153.179 168.494 153.522C168.592 153.685 168.673 153.833 168.772 153.996C168.853 154.127 168.543 153.555 168.87 154.159C169.327 155.026 169.769 155.892 170.177 156.758C172.661 162.005 174.623 167.513 176.486 173.004C183.972 195.004 189.97 217.526 196.05 239.934C198.355 248.401 200.627 256.883 202.882 265.366C204.01 269.616 204.729 273.555 207.475 277.085C209.632 279.864 213.163 283.394 216.938 283.541C219.537 283.639 221.449 281.596 222.822 279.635C224.849 276.758 226.271 273.457 227.546 270.188C231.354 260.43 233.838 250.133 236.045 239.902C238.545 228.346 240.539 216.66 242.092 204.941C242.779 199.776 243.367 194.579 243.808 189.381C243.988 187.224 244.152 185.05 244.25 182.876C244.299 181.961 244.331 181.062 244.364 180.147C244.364 179.706 244.397 179.248 244.397 178.807C244.397 178.676 244.364 178.382 244.397 178.235C244.544 177.728 244.871 177.777 245.083 177.352C244.413 178.692 242.321 175.276 241.602 174.868C241.978 175.064 241.749 175.162 241.651 174.933C241.863 175.407 242.239 175.848 242.501 176.306C243.204 177.597 243.808 178.954 244.38 180.327C245.819 183.775 247.028 187.322 248.107 190.901C250.395 198.518 251.719 206.38 253.451 214.143C255.184 221.907 256.982 229.131 259.401 236.42C261.46 242.631 263.977 248.875 267.72 254.285C269.534 256.9 271.61 259.319 274.013 261.411C276.252 263.372 278.801 265.726 281.972 264.696C286.663 263.16 289.295 257.259 291.125 253.01C295.391 243.105 297.565 232.22 298.823 221.563C300.507 207.426 300.392 193.026 298.366 178.937C296.192 163.901 291.746 149.06 284.391 135.723C278.18 124.462 269.796 114.492 259.94 106.254C238.464 88.2918 211.528 79.0246 184.021 75.5106C170.259 73.7617 155.99 72.8791 142.179 74.5626C130.297 76.0172 118.676 79.2698 107.595 83.7808C81.4438 94.4046 58.431 112.138 40.4849 133.827C24.3367 153.326 11.8006 176.159 5.23023 200.675C-2.19009 228.346 -1.4546 257.39 5.94938 284.996C8.2049 293.429 11.0161 301.7 14.3013 309.79C17.3087 317.194 20.5939 324.304 25.0395 330.956C33.1136 343.051 43.3615 353.675 54.7535 362.68C78.1913 381.182 107.251 392.509 137.26 392.59C138.567 392.59 136.197 389.877 136.017 389.697C135.037 388.684 133.321 386.935 131.752 386.919V386.952Z" fill="#231815"/>
<path d="M199.483 132.814C206.216 132.814 211.675 127.596 211.675 121.16C211.675 114.724 206.216 109.507 199.483 109.507C192.749 109.507 187.29 114.724 187.29 121.16C187.29 127.596 192.749 132.814 199.483 132.814Z" fill="#231815"/>
<path d="M209.322 121.438C209.256 125.475 207.05 129.48 203.144 130.934C199.237 132.389 194.547 130.477 191.997 127.289C189.447 124.102 188.908 119.117 191.114 115.44C193.321 111.762 197.08 110.21 201.084 111.19C205.955 112.383 209.256 116.845 209.322 121.781C209.338 123.334 214.078 122.402 214.062 120.506C213.98 114.851 209.894 110.291 204.598 108.706C198.878 106.99 192.029 108.902 188.091 113.397C184.462 117.548 183.89 123.465 186.865 128.139C190.101 133.206 196.524 134.971 202.196 133.811C208.423 132.536 213.964 127.518 214.062 120.866C214.094 118.856 209.338 119.804 209.322 121.438Z" fill="#231815"/>
<path d="M74.6281 103.917C74.6281 103.917 77.4067 50.0792 73.484 45.9768C69.5614 41.8744 89.1746 50.0629 89.3217 55.5219C89.4688 60.9645 90.4004 32.1985 97.3958 30.8256C104.391 29.4527 113.184 36.9384 117.663 47.4968C122.141 58.0552 118.366 27.8346 121.618 28.2105C123.351 28.423 132.291 42.2012 143.47 53.5442C153.277 63.5142 165.682 71.098 164.407 72.8142C163.656 73.8275 135.086 73.9746 119.788 81.4766C98.3111 91.986 87.9651 95.7289 74.6281 103.901V103.917Z" fill="#9C428C"/>
<path d="M72.7322 21.6726C72.5687 22.4081 72.487 23.1763 72.4707 24.0425C72.438 29.24 72.3236 34.5683 73.0591 39.7331C73.3369 41.6454 73.909 44.097 75.429 45.3882C76.9817 46.7121 78.9921 47.3168 80.937 47.7581C83.2906 48.2975 85.7096 48.6081 88.1122 48.7061C88.2266 48.7061 88.341 48.7061 88.4391 48.6571C88.5535 48.5917 88.6025 48.461 88.6516 48.3302C90.9234 42.0867 92.9828 35.5816 96.8401 30.0736C97.0362 29.8121 97.2487 29.5342 97.5429 29.4198C98.1476 29.1747 98.9812 29.4852 99.6186 29.4852C100.06 29.4852 100.501 29.4852 100.959 29.5015C101.972 29.5179 102.986 29.5833 103.966 29.7957C106.647 30.3514 108.804 32.0022 110.34 34.2414C111.468 35.9085 113.381 37.8045 115.505 37.9189C116.421 37.9679 117.418 37.5756 117.843 36.7584C118.055 36.3662 118.104 35.9249 118.267 35.5162C118.447 35.075 118.741 34.699 118.954 34.2741C119.33 33.5386 119.706 32.8031 120.082 32.0839C120.866 30.6293 121.651 29.1747 122.484 27.7364C122.811 27.148 123.138 26.5596 123.498 25.9875C123.661 25.726 124.037 25.3664 124.037 25.0395C123.073 21.9341 122.027 18.8614 120.784 15.854C119.706 13.2389 118.643 10.1499 116.715 8.0251C115.146 6.29261 112.71 5.78593 110.618 4.98506C108.919 4.33129 107.137 3.74289 105.29 3.62848C102.757 3.46504 100.06 3.97171 97.5919 4.4457C93.1136 5.2956 88.7006 6.65218 84.6472 8.7606C80.2179 11.0651 76.1972 14.3667 73.7946 18.8287C73.2716 19.793 72.912 20.7083 72.6832 21.6726H72.7322Z" fill="#D71831"/>
<path d="M87.8834 8.98936C91.0869 7.22417 94.5192 6.01469 98.0986 5.26285C99.8965 4.88693 101.743 4.60908 103.59 4.51102C104.048 4.49467 104.555 4.56005 104.996 4.47833C105.715 4.34757 104.734 4.44564 104.538 4.38026C105.584 4.75618 106.63 5.03403 107.611 5.55705C113.103 8.43365 114.361 15.1021 116.617 20.365C122.599 34.3231 131.131 46.8101 141.967 57.4339C148.227 63.5794 155.157 68.9894 162.528 73.7456L165.437 73.484C150.907 72.0784 136.344 74.7753 122.517 79.1555C108.69 83.5358 95.0259 89.6322 82.5552 97.2814C77.3413 100.485 72.2092 103.983 67.7309 108.167L75.8377 109.164C76.3607 108.363 76.2953 107.268 76.4097 106.352C76.6385 104.669 77.0308 103.002 77.325 101.335C77.9297 97.8044 78.4201 94.2577 78.796 90.6946C79.5642 83.2906 79.793 75.8213 79.368 68.3846C78.9431 60.948 77.8317 53.0863 75.9521 45.6497C74.2523 38.9158 70.6729 32.705 73.1735 25.6279C74.4321 22.0975 76.6712 18.5835 79.0575 15.7069C81.4438 12.8303 84.6309 10.8199 87.8507 8.97301C88.4391 8.62978 85.3174 8.04139 85.0886 8.0087C83.9118 7.82891 81.1986 7.09342 80.0545 7.74719C77.4884 9.21818 74.9224 10.7709 72.7486 12.7812C70.2152 15.1185 68.3356 18.1585 66.6848 21.1659C65.0341 24.1732 64.1188 27.0825 64.1515 30.4821C64.1842 34.1596 65.5244 37.5429 66.7339 40.9588C69.2346 48.0359 70.2969 55.9302 70.9507 63.3833C71.6045 70.8363 71.6045 78.6162 70.9997 86.1999C70.6729 90.3024 70.1662 94.3884 69.5124 98.4418C69.1855 100.534 68.7606 102.61 68.401 104.685C68.2212 105.78 68.3356 107.202 67.7145 108.15C67.5511 108.412 71.4247 109.115 71.7026 109.147C72.6178 109.262 75.0368 109.883 75.8213 109.147C84.3367 101.188 94.9605 95.3364 105.388 90.3024C118.3 84.0588 131.98 79.0411 146.069 76.2789C153.048 74.9223 160.338 73.9907 167.448 74.6772C167.693 74.6935 170.815 74.7099 170.357 74.4157C155.827 65.0667 143.144 53.0046 133.697 38.4909C128.973 31.234 125.345 23.3233 122.223 15.2492C121.242 12.7159 120.262 10.1825 118.284 8.23752C115.603 5.62243 111.713 4.56005 108.15 3.88993C98.7197 2.12474 88.5536 3.04003 80.0709 7.7145C79.4825 8.04139 82.6206 8.64613 82.833 8.67882C84.0262 8.87495 86.6903 9.5941 87.8671 8.94033L87.8834 8.98936Z" fill="#231815"/>
<path d="M74.8243 48.4613C72.7159 48.543 75.2493 48.543 75.9194 48.6247C76.0828 48.6411 76.2299 48.6737 76.377 48.6901C76.8837 48.7391 75.5925 48.5103 76.1155 48.6411C76.4915 48.7228 76.8674 48.8045 77.2269 48.8862C77.6356 48.9843 78.0442 49.115 78.4364 49.2458C78.6489 49.3112 78.8614 49.3929 79.0739 49.4583C79.6623 49.6708 78.2893 49.0824 79.3027 49.5563C81.2313 50.4553 82.6859 51.3379 84.1733 53.0377C85.0068 53.9857 85.726 55.1134 86.3144 56.2412C87.1643 57.8756 87.4258 59.2976 89.0439 60.3436C90.4332 61.2425 93.3424 61.1608 94.3885 59.6735C95.647 57.8919 94.7971 54.8682 94.6663 52.7435C94.5029 50.3409 94.4375 47.9219 94.5356 45.5193C94.6336 43.1167 94.9115 40.6487 95.647 38.3441C96.121 36.8405 96.9872 33.7514 98.3765 32.8688C99.3735 32.2477 101.989 33.0649 103.133 33.4899C105.029 34.1927 106.581 35.5002 107.905 37.0693C109.491 38.9489 110.798 41.1063 111.991 43.2801C112.71 44.5877 113.397 45.9116 114.034 47.2681C114.672 48.6247 115.08 49.8832 116.47 50.5697C118.48 51.5667 120.981 51.2562 122.256 49.2295C122.893 48.1998 122.256 45.8789 122.157 44.7184C122.043 43.4599 121.961 42.2014 121.912 40.9429C121.831 38.8181 121.831 36.677 122.125 34.5686C122.321 33.1957 122.615 32.0516 123.334 30.7604C123.645 30.2047 124.593 29.2894 125.116 28.9462C126.603 27.9491 126.734 26.0369 125.361 24.8437C123.988 23.6506 121.471 23.4054 119.902 24.4515C117.074 26.3474 115.407 29.0769 114.672 32.5092C114.23 34.5359 114.132 36.628 114.149 38.7201C114.149 40.093 114.23 41.4822 114.329 42.8552C114.378 43.5253 114.427 44.1954 114.492 44.8655C114.508 45.1107 114.852 47.2191 114.901 47.1701L120.686 45.8298L120.539 45.7645L122.207 47.6277C119.673 42.0216 116.829 36.2521 112.384 32.0516C108.183 28.0636 101.269 25.8898 95.7287 27.3281C90.188 28.7664 88.1776 35.2551 87.2787 40.4526C86.298 46.0913 86.8538 51.9099 87.3604 57.5814L87.9815 56.1594L87.8834 56.2902L93.228 55.6201L93.0809 55.5384L94.7481 57.4016C91.2504 48.02 82.5388 42.3485 73.0755 42.7244C71.4574 42.7898 69.7086 44.2935 70.1662 46.1077C70.6729 48.1344 73.1736 48.543 74.7916 48.4776L74.8243 48.4613Z" fill="#231815"/>
<path d="M82.5116 2.28679L78.1331 5.35156L81.1978 9.73013L85.5764 6.66536L82.5116 2.28679Z" fill="#221714"/>
<path d="M80.9207 6.94652L85.301 3.89013L78.7142 2.89312L81.7706 7.2734L82.784 5.05057L78.4037 8.10696L84.9905 9.10397L81.9341 4.72369C81.7706 4.3968 81.5418 4.13529 81.2313 3.95551C80.9044 3.67765 80.5448 3.48152 80.1199 3.36711C79.2046 3.05657 78.0278 2.9585 77.0798 3.13829C76.2626 3.30173 75.2983 3.5469 74.7262 4.18433C74.334 4.62562 73.9254 5.36112 74.334 5.94951L77.3904 10.3298C77.6355 10.7711 77.9624 11.098 78.4037 11.3431C78.9431 11.6373 79.5315 11.8335 80.1526 11.9315C80.8554 12.0459 81.5582 12.0459 82.2446 11.9315C82.8657 11.8335 83.4378 11.6373 83.9771 11.3431L88.3574 8.28675C88.7987 8.05793 89.1419 7.7147 89.3707 7.2734C89.5505 6.86479 89.5505 6.47253 89.3707 6.06392L86.3144 1.68364C86.0692 1.24235 85.7423 0.915462 85.301 0.670297C84.7616 0.376099 84.1732 0.179967 83.5522 0.0819014C82.8494 -0.0325088 82.1466 -0.0325088 81.4601 0.0819014C80.839 0.179967 80.267 0.376099 79.7276 0.670297L75.3473 3.72669C74.808 4.1026 74.1869 4.59293 74.1869 5.34477C74.1869 6.03123 74.7916 6.65232 75.3473 6.96286C76.1809 7.4205 77.1779 7.64932 78.1422 7.63298C79.1065 7.61663 80.1525 7.50222 80.9371 6.96286L80.9207 6.94652Z" fill="#221714"/>
</g>
<defs>
<linearGradient id="paint0_linear_230_61" x1="216.644" y1="124.184" x2="46.9737" y2="409.605" gradientUnits="userSpaceOnUse">
<stop stop-color="#10FFA2"/>
<stop offset="1" stop-color="#C7FFE9"/>
</linearGradient>
<clipPath id="clip0_230_61">
<rect width="300" height="392.623" fill="white"/>
</clipPath>
</defs>
</svg>
