<?xml version="1.0" encoding="UTF-8"?><svg xmlns="http://www.w3.org/2000/svg" xmlns:xlink="http://www.w3.org/1999/xlink" viewBox="0 0 242.02 255.78"><defs><style>.i{fill:url(#h);}.j{fill:#231815;}</style><linearGradient id="h" x1="174.24" y1="40.89" x2="38.1" y2="269.93" gradientTransform="matrix(1, 0, 0, 1, 0, 0)" gradientUnits="userSpaceOnUse"><stop offset="0" stop-color="#10ffa2"/><stop offset="1" stop-color="#c7ffe9"/></linearGradient></defs><g id="a"/><g id="b"/><g id="c"/><g id="d"/><g id="e"/><g id="f"/><g id="g"><g><path class="i" d="M216.47,189.38s-135.54,85.56-163.73-53c-1.23-73.32,29.68-80.58,36.66-51.89,9.71,33.53,16.09,45.83,16.09,45.83,0,0,17.6-66.38,28.03-69.51,10.53,4.55,30.43,103.45,39.3,102.2,10.66-1.5,12.48-76.31,25.57-76.69,7.1,0,16.22,84.18,32.81,52.93,9.39-28.95,16.18-99.69-52.95-126.29C92.65-13.79,52.31,32.9,31.87,61.4c-22.39,31.54-51.01,125.43,31.35,181.39,13.86,5.19,36.15,10.54,45.4,9.72,51.57-6.23,84.19-24.41,107.84-63.13Z"/><g><path class="j" d="M108.63,253.33c-39.78,0-74.44-24.85-89.53-52.56-27.82-58.7-13.79-102.98,3.35-131.49C49.58,24.13,93.39,2.44,127.52,2.45c45.79,0,82.14,15.53,98.88,46.01,19.67,35.8,12.03,83.7,2.59,98.27-1.99,3.07-4.01,4.5-6.02,4.38l-.39-.03-.32-.22c-9.74-6.71-14.37-29.02-18.08-46.95-2.11-10.18-6.67-22.41-9.04-22.99-.12-.04-.44,.08-.94,.61-.1,20.92-10.43,81.85-20.67,84.35-2.2,.53-4.19-.94-5.98-4.37l-.12-.3c-21.38-80.78-28.05-99.31-33.9-100.38-1.98-.36-3.52,1.55-5.33,4.08l-.25,.36c-2.61,6.9-3.64,16.32-6.63,27.16-7.71,27.91-11.55,40.14-15.94,40.15h0c-2.49,0-3.4-3.37-3.74-4.64-.84-3.08-1.66-6.43-2.51-9.89-4.1-16.63-12.73-45.6-22.9-49.78-24.67,9.98-20.29,75.26-20.28,75.84l-2.93,.06c-.05-2.46-4.43-68.72,22.69-78.84l.5-.19,.5,.18c12,4.23,20.7,33.53,25.27,52.03,.85,3.44,1.67,6.76,2.5,9.82,.58,2.15,1.09,2.51,1.1,2.52,2.74-1.13,8.88-23.34,12.93-38.04,3.18-11.5,4.11-20.58,6.79-27.6l.18-.34,.36-.5c1.7-2.38,4.25-5.97,8.24-5.26,6.29,1.15,12.58,13.28,36.16,102.35,1.17,2.2,2.11,2.86,2.61,2.74,6.7-1.64,18.44-54.42,18.44-82.05v-.52l.33-.4c1.36-1.67,2.78-2.33,4.24-1.98,3.99,.97,7.86,9.04,11.22,25.24,3.55,17.15,7.96,38.43,16.48,44.85,.67-.18,1.73-1.03,3.02-3.02,9.11-14.07,16.42-60.46-2.7-95.27C207.62,20.34,173.5,5.37,129.28,5.37c-.56,0-1.12,0-1.68,0C94.97,6.87,51.56,26.52,24.96,70.78c-16.77,27.9-30.48,71.21-3.25,128.66,14.65,26.89,48.57,51.18,87.73,50.95,45.87-.29,86.75-22.63,107.03-61.01l1.21,.64c-26.07,40.8-61.25,63.01-108.22,63.3-.27,0-.55,0-.83,0Z"/><path class="j" d="M106.57,252.65c-10.71-.02-21.28-1.81-31.31-5.6s-19.18-9.03-27.53-15.51c-7.86-6.1-14.95-13.28-20.72-21.39-6.7-9.41-10.95-20.36-14.43-31.31-6.34-19.98-8.63-41.23-5.27-61.99,2.6-16.08,8.48-31.48,16.7-45.51,10.61-18.11,24.92-34.09,42.11-46.18,14.7-10.33,31.6-17.96,49.4-20.85,8.99-1.46,18.07-1.37,27.14-.75,10.13,.7,20.25,2.23,29.99,5.15,17.21,5.15,33.41,14.78,44.63,29,12.66,16.04,18.04,36.96,18.87,57.08,.39,9.46-.2,19-1.87,28.32-1.24,6.92-2.99,13.99-6.18,20.29-1.47,2.89-3.83,7.29-7.58,6.99l4.41,1.2c-4-2.78-6.51-7.04-8.49-11.4-2.59-5.71-4.35-11.79-5.88-17.86-1.64-6.49-2.86-13.06-4.35-19.58-1.39-6.06-3.17-12.31-6.02-17.86-.75-1.46-1.56-3.06-3.16-3.7-.89-.35-1.84-.59-2.77-.78-.61-.13-1.3-.33-1.89-.03-.86,.44-.62,1.45-.64,2.29-.11,3.8-.42,7.6-.81,11.39-.99,9.79-2.49,19.54-4.34,29.21s-3.86,18.72-6.91,27.75c-1.1,3.24-2.32,6.49-4,9.48-.94,1.68-2.25,3.92-4.18,4.6-.31,.11-.64,.09-.94,.18-.4,.12,2.46,.54,2.54,.65-.08-.1-.27-.15-.36-.24-.27-.25-.57-.46-.83-.73-1.29-1.33-1.98-2.84-2.44-4.6-1.04-3.92-2.08-7.85-3.13-11.77-1.84-6.87-3.69-13.73-5.57-20.59-2.89-10.51-5.82-21.01-8.97-31.45-2.04-6.76-4.14-13.51-6.6-20.13-1.38-3.7-2.82-7.48-4.86-10.87-1.1-1.83-2.38-3.52-4.42-4.32-1.47-.57-3.15-1.05-4.73-1.14-1.28-.08-2.3,.53-3.19,1.41-.96,.95-2.04,2.18-2.58,3.42-1.2,2.76-1.78,5.92-2.43,8.84-.78,3.53-1.47,7.08-2.26,10.61-1.69,7.53-3.89,14.96-6.05,22.37-1.49,5.11-3,10.24-4.87,15.23-1.04,2.8-2.15,5.86-4.05,8.21-.5,.62-1.11,1.26-1.87,1.54-.15,.05-.3,.07-.45,.12-.07,.02-.16,0-.23,.03-.06,.02-.11,.06,.01,0,.53,0,1.05,.11,1.55,.36,1.42,.56,1.87,.65,1.36,.29-.74-.94-1.35-1.67-1.75-2.85-1.09-3.19-1.76-6.58-2.56-9.86-.65-2.65-1.32-5.29-2.03-7.92-1.54-5.69-3.24-11.34-5.21-16.89s-3.97-10.6-6.67-15.56c-1.94-3.58-4.31-7.53-7.79-9.83-.82-.54-1.7-.98-2.63-1.29-.99-.33-2.28-.81-3.34-.76-.45,.02-.83,.24-1.24,.43-1.44,.68-2.78,1.56-4,2.58-2.69,2.25-4.77,5.14-6.44,8.2-3.94,7.22-5.88,15.48-7.17,23.55s-1.88,16.36-2.06,24.58c-.11,5.1-.06,10.2,.19,15.3,.01,.29,.16,.87,.06,1.15,0,.02,.02,.07,0,.09,.02-.03,.09-.12-.05-.03-.1,.06-.39,0-.5,0l-2.27,.04,4.74,1.3c-.19-8.44-.4-16.83,.12-25.28,.43-7.06,1.22-14.11,2.63-21.04s3.27-13.4,6.49-19.45,7.54-10.85,13.85-13.21l-3.6-.75c.14,.05,.29,.09,.42,.15-.41-.19-.14-.05-.01,0,.3,.14,.6,.28,.89,.44,.74,.42,1.43,.93,2.08,1.48,1.42,1.19,2.65,2.59,3.77,4.07,2.82,3.73,4.95,7.98,6.82,12.25,4.14,9.43,7.09,19.38,9.67,29.33,.81,3.14,1.57,6.29,2.36,9.43,.43,1.71,.81,3.47,1.37,5.14,.18,.54,.43,1.42,.92,1.79,.59,.44,1.59,.62,2.28,.8,.56,.14,1.84,.66,2.39,.4,.74-.34,1.16-1.17,1.53-1.86,.72-1.33,1.28-2.75,1.82-4.16,1.64-4.29,2.98-8.69,4.3-13.09,3.17-10.61,6.21-21.29,8.48-32.13,.54-2.6,1.08-5.2,1.7-7.78,.53-2.19,1.01-4.63,2-6.67,.74-1.52,2.1-3.07,3.32-4.21,.86-.8,1.85-1.47,3-1.76,.21-.05,.42-.1,.63-.12,.24-.03,.84,.15,.6-.07,.22,.19-.71-.15-.36-.07-.3-.07-.78-.19-1.03-.27,.33,.1-.7-.22-.37-.11,.3,.1-.57-.21-.27-.1,.32,.12-.2-.09-.12-.05,.11,.06,.23,.1,.35,.17,.27,.15-.16-.12,.19,.11,.55,.37,1.06,.78,1.52,1.27,1.41,1.47,2.44,3.28,3.38,5.07,1.66,3.18,3,6.52,4.27,9.86,4.84,12.79,8.62,26,12.38,39.14,3.07,10.73,6.02,21.5,8.92,32.28,.86,3.19,1.71,6.38,2.56,9.57,.63,2.38,1,5.76,3.41,7.1,1.23,.68,2.82,1.02,4.2,1.21,.52,.07,.9,.08,1.36-.16,.57-.29,1.01-.79,1.39-1.29,1.36-1.75,2.25-3.89,3.07-5.93,1.25-3.11,2.28-6.31,3.22-9.52,2.44-8.33,4.32-16.82,5.92-25.35,1.71-9.15,3.09-18.39,3.88-27.67,.34-3.96,.57-7.93,.58-11.9,0-.75,.1-.95,.62-1.52,.43-.48,.92-.94,1.49-1.25,.31-.17,.67-.2,.96-.36,.15-.04,.31-.06,.46-.07-.97-.12-1.9-.37-2.79-.74,.89,.66,1.67,1.23,2.37,2.13,2.35,3.04,3.66,6.95,4.8,10.57,1.75,5.57,2.87,11.3,4.07,17.01,2.2,10.45,4.37,21.34,9,31.04,.88,1.84,1.87,3.63,3.06,5.29,.97,1.35,2.19,2.98,3.68,3.8,.79,.43,1.84,.64,2.7,.83,.57,.13,1.29,.37,1.88,.2,.81-.23,1.5-1.05,2.01-1.67,1-1.22,1.8-2.64,2.5-4.05,3.29-6.55,5-13.95,6.17-21.14,3.27-20.09,1.89-41.6-5.44-60.69-3.46-9.01-8.35-17.43-14.81-24.62-5.93-6.6-13.02-12.05-20.76-16.37-18.18-10.16-39.57-14.47-60.21-15.37-4.91-.22-9.82-.31-14.71,.15-3.99,.38-7.95,1-11.87,1.83-8.54,1.81-16.87,4.6-24.84,8.18-18.3,8.23-34.62,20.61-47.64,35.86-11.75,13.76-21.07,29.88-26.66,47.12-5.99,18.49-7.34,38.17-4.3,57.35,1.92,12.18,5.52,24.05,10.27,35.42,2.17,5.19,4.55,10.13,7.71,14.8,2.66,3.93,5.64,7.65,8.87,11.14,14.73,15.91,34.26,26.63,55.29,31.56s43.7,3.12,64.25-3.42c18.99-6.04,36.53-16.62,50.2-31.19,6.65-7.09,12.32-15.06,16.87-23.65l-4.55-1.02,1.21,.64-.3-.22c-9.44,14.74-20.87,28.34-34.8,39.04-13.09,10.06-28.19,17.23-44.29,20.94-9.69,2.24-19.66,3.27-29.6,3.27-.98,0,.61,.54,.77,.59,1.02,.34,2.25,.76,3.34,.76,17.3,0,34.59-3.03,50.49-10s28.83-16.81,40.21-28.99c7-7.5,13.19-15.73,18.72-24.37-.06-.11-.16-.19-.3-.22l-1.21-.64c-.48-.25-4.25-1.59-4.55-1.02-10.96,20.65-28.39,37.22-49.27,47.63-10.71,5.34-22.22,9.04-33.98,11.16-12.46,2.25-25.47,3.03-38.02,1.1s-23.89-6.71-34.35-13.23c-10.04-6.26-19.1-14.19-26.42-23.49-3.66-4.65-6.88-9.62-9.32-15.02-3.12-6.91-5.83-14-8.01-21.26-3.73-12.4-5.89-25.28-5.98-38.24-.14-20.51,5.1-40.66,14.63-58.77,10.99-20.9,27.08-39.06,46.82-52.06C87.09,15.41,106.91,7.73,127.26,6.21c6.19-.46,12.52-.09,18.7,.41s12.16,1.31,18.13,2.61c10.61,2.3,20.91,6.2,30.18,11.89s16.64,12.46,22.64,20.92c7.02,9.89,11.48,21.47,13.98,33.28,2.49,11.77,3.1,23.95,2.09,35.93-.78,9.27-2.4,18.75-5.9,27.4-.6,1.49-1.27,2.95-2.05,4.35-.86,1.55-2.03,3.91-3.82,4.48l4.67,1.2c-4.58-3.52-6.97-9.54-8.85-14.8-2.55-7.12-4.26-14.52-5.86-21.9s-2.98-15.37-5.61-22.75c-1.29-3.61-3.05-8.62-6.76-10.46-1.5-.74-3.29-1.18-4.94-1.4s-3.06,.3-4.24,1.55c-.25,.27-.65,.63-.77,.98-.16,.47,0,1.24,0,1.74-.02,1.32-.06,2.63-.12,3.95-.27,5.97-.88,11.93-1.66,17.86-1.64,12.47-3.99,24.9-7.2,37.07-1.24,4.71-2.61,9.42-4.39,13.96-.96,2.44-2.05,5.66-4.14,7.41-.19,.16-.64,.48-.78,.47l2.13,.4c2.61,.65,1.71,.69,.98-.23-.51-.64-.9-1.33-1.15-2.11-.49-1.56-.84-3.18-1.26-4.76-.81-3.03-1.61-6.05-2.43-9.07-1.47-5.48-2.96-10.96-4.47-16.43-2.46-8.9-4.97-17.8-7.6-26.65-3.19-10.72-6.4-21.53-10.68-31.88-1.65-3.99-3.49-8.87-6.87-11.77-1.54-1.32-3.58-1.88-5.52-2.31-1.72-.38-3.52-.63-5.19,.1-1.88,.81-3.25,2.41-4.44,4.02-2.35,3.18-3.01,7.45-3.84,11.25-1.22,5.56-2.3,11.16-3.76,16.67-1.27,4.79-2.63,9.55-3.99,14.32s-2.67,9.21-4.17,13.76c-1.05,3.2-2.09,6.52-3.68,9.51-.3,.57-.73,1.54-1.36,1.83l4.67,1.2c-.94-.7-1.16-2.88-1.43-3.9-.65-2.46-1.26-4.93-1.87-7.4-.88-3.58-1.8-7.15-2.79-10.7-2.09-7.48-4.46-14.92-7.49-22.08-2.51-5.93-5.49-12.2-10.11-16.8-1.82-1.81-3.9-3.12-6.32-3.95-1.09-.38-2.22-.72-3.37-.86-.66-.08-1.11,.12-1.72,.37-.96,.39-1.9,.86-2.79,1.39-8.54,5.08-12.68,15.38-15.18,24.52-2.87,10.51-3.98,21.49-4.39,32.36-.25,6.62-.18,13.24,.1,19.86,0,.18,.02,.36,.02,.54,0,.37,1.83,.75,2.03,.81,.87,.24,1.8,.51,2.71,.49l2.93-.06,.11-.05c-.23-7.71-.41-15.37-.02-23.08,.34-6.77,1-13.53,2.19-20.21s2.81-13.08,5.65-19.1c2.62-5.56,6.51-10.99,12.37-13.4l-4.44-1.07c2.25,.96,4.01,2.89,5.47,4.79,2.06,2.69,3.69,5.71,5.15,8.76,3.43,7.14,5.99,14.71,8.26,22.29s4.08,15.98,6.33,23.92c.37,1.32,.88,2.76,1.94,3.69,.73,.64,1.71,.94,2.62,1.21,1.14,.33,2.37,.68,3.57,.71,1.11,.02,2.01-.52,2.76-1.32,1.15-1.22,1.94-2.79,2.65-4.29,1.14-2.42,2.05-4.95,2.91-7.49,2.8-8.21,5.08-16.61,7.39-24.97,1.43-5.15,2.62-10.33,3.71-15.55,.87-4.19,1.69-8.43,3.07-12.49,.62-1.83,1.92-3.6,3.43-4.83,.39-.32,.76-.49,1.22-.71,.24-.12,.43,.06,.29-.15-.05-.08-.97-.23-.62-.16-.57-.13-1.54-.42-1.88-.54-.38-.14,.12,.08,.11,.07,.22,.15,.42,.29,.62,.46,1.13,.95,1.95,2.25,2.68,3.51,1.26,2.18,2.27,4.51,3.21,6.84,3.44,8.5,6.09,17.34,8.71,26.12,4.66,15.65,8.94,31.42,13.17,47.2,.7,2.61,1.4,5.22,2.09,7.83s1.17,5.36,2.1,7.87c.62,1.67,2.03,3.49,3.59,4.37,1.8,1.01,4.36,1.72,6.43,1.63,3.11-.14,4.99-3.86,6.2-6.27,2.35-4.68,3.91-9.76,5.33-14.79,1.8-6.4,3.26-12.9,4.54-19.42,2.47-12.56,4.46-25.31,5.27-38.09,.07-1.13,.13-2.26,.17-3.39,.02-.55-.23-3.11,.63-3.1l-2.77-.58c-1.94-.59-1.32-.59-.75,0,.27,.29,.5,.62,.72,.95,.62,.95,1.12,1.97,1.6,3,1.21,2.62,2.18,5.35,3.06,8.09,1.95,6.08,3.11,12.33,4.47,18.56s2.78,12.28,4.68,18.27c1.66,5.24,3.64,10.57,6.74,15.15,1.18,1.74,2.53,3.39,4.19,4.71,1.89,1.5,4.86,2.48,7.27,1.96,3.93-.86,6.14-5.9,7.61-9.27,3.6-8.26,5.34-17.39,6.32-26.31,2.59-23.48-.6-48.99-12.91-69.5-10.95-18.24-29.17-30.08-49.04-36.73-11.72-3.92-23.95-6.28-36.24-7.38-10.78-.96-21.7-1.2-32.4,.67-20.88,3.65-40.47,13.69-56.77,27.08-17.44,14.33-31.59,32.91-40.85,53.49C3.47,102.95-.34,124.03,1.27,145.05c1.03,13.39,4.13,26.57,8.73,39.17,2.4,6.6,4.99,13.33,8.65,19.35,2.81,4.62,6.05,8.98,9.61,13.04,16.36,18.68,39.13,30.94,63.43,35.55,6.26,1.19,12.61,1.82,18.99,1.84,.98,0-.61-.54-.77-.59-1.02-.34-2.24-.75-3.34-.76Z"/></g><g><ellipse class="j" cx="160.69" cy="38.13" rx="9.77" ry="9.33"/><path class="j" d="M169.02,38.52c-.05,3.4-2.18,6.93-5.52,8s-7.12-.62-9.21-3.23c-2.28-2.86-2.52-6.91-.65-10.04s5.14-4.43,8.55-3.51c3.97,1.08,6.76,4.66,6.82,8.77,0,.57,2.91,.12,2.9-.78-.06-4.37-3.19-8.04-7.36-9.18s-9.61,.21-12.62,3.59-3.29,8.06-.76,11.63c2.67,3.77,7.46,4.95,11.82,3.95,4.83-1.1,8.84-4.84,8.92-10,0-.55-2.88-.13-2.9,.78Z"/></g></g></g></svg>