<svg width="16" height="15" viewBox="0 0 16 15" fill="none" xmlns="http://www.w3.org/2000/svg">
<path d="M8.82186 7.4992L14.7245 1.60597C14.9009 1.42954 15 1.19026 15 0.940755C15 0.691251 14.9009 0.451966 14.7245 0.275541C14.548 0.099115 14.3087 0 14.0592 0C13.8097 0 13.5705 0.099115 13.394 0.275541L7.5008 6.17814L1.60757 0.275541C1.43114 0.099115 1.19186 2.2152e-07 0.942353 2.23379e-07C0.69285 2.25238e-07 0.453565 0.099115 0.27714 0.275541C0.100714 0.451966 0.00159917 0.691251 0.00159917 0.940755C0.00159917 1.19026 0.100714 1.42954 0.27714 1.60597L6.17974 7.4992L0.27714 13.3924C0.189323 13.4795 0.119622 13.5832 0.0720559 13.6973C0.0244897 13.8115 0 13.934 0 14.0576C0 14.1813 0.0244897 14.3038 0.0720559 14.418C0.119622 14.5321 0.189323 14.6358 0.27714 14.7229C0.364239 14.8107 0.467863 14.8804 0.582035 14.9279C0.696208 14.9755 0.818669 15 0.942353 15C1.06604 15 1.1885 14.9755 1.30267 14.9279C1.41684 14.8804 1.52047 14.8107 1.60757 14.7229L7.5008 8.82026L13.394 14.7229C13.4811 14.8107 13.5848 14.8804 13.6989 14.9279C13.8131 14.9755 13.9356 15 14.0592 15C14.1829 15 14.3054 14.9755 14.4196 14.9279C14.5337 14.8804 14.6374 14.8107 14.7245 14.7229C14.8123 14.6358 14.882 14.5321 14.9295 14.418C14.9771 14.3038 15.0016 14.1813 15.0016 14.0576C15.0016 13.934 14.9771 13.8115 14.9295 13.6973C14.882 13.5832 14.8123 13.4795 14.7245 13.3924L8.82186 7.4992Z" fill="#10FFA2"/>
</svg>
